M48
; DRILL file {KiCad (5.1.9)-1} date 03/25/21 13:19:44
; FORMAT={-:-/ absolute / inch / decimal}
; #@! TF.CreationDate,2021-03-25T13:19:44+01:00
; #@! TF.GenerationSoftware,Kicad,Pcbnew,(5.1.9)-1
; #@! TF.FileFunction,Plated,1,2,PTH
FMAT,2
INCH
T1C0.0157
T2C0.0374
T3C0.0394
T4C0.0433
T5C0.0598
%
G90
G05
T1
X5.6894Y-3.9606
X6.8Y-5.05
T2
X5.25Y-4.3
X5.25Y-4.65
X5.3Y-3.7
X5.3Y-5.6
X5.3484Y-4.3
X5.3484Y-4.65
X5.3984Y-3.7
X5.3984Y-5.6
X5.4469Y-4.3
X5.4469Y-4.65
X5.4969Y-3.7
X5.4969Y-5.6
X5.5453Y-4.3
X5.5453Y-4.65
X5.5953Y-3.7
X5.5953Y-5.6
X5.6031Y-5.95
X5.7016Y-5.95
X5.8Y-5.95
X6.9031Y-6.0
X7.0016Y-6.0
X7.1Y-6.0
X7.1547Y-3.85
X7.1547Y-4.2
X7.1547Y-4.55
X7.1547Y-4.9
X7.1547Y-5.25
X7.2531Y-3.85
X7.2531Y-4.2
X7.2531Y-4.55
X7.2531Y-4.9
X7.2531Y-5.25
X7.3516Y-3.85
X7.3516Y-4.2
X7.3516Y-4.55
X7.3516Y-4.9
X7.3516Y-5.25
X7.45Y-3.85
X7.45Y-4.2
X7.45Y-4.55
X7.45Y-4.9
X7.45Y-5.25
T3
X5.3516Y-4.05
X5.3516Y-5.0
X5.3516Y-5.3
X5.45Y-4.05
X5.45Y-5.0
X5.45Y-5.3
X7.0Y-3.2
X7.0Y-3.3
X7.0Y-3.4
X7.1Y-5.5
X7.1Y-5.7
X7.2Y-5.5
X7.2Y-5.7
X7.3Y-5.5
X7.3Y-5.7
T4
X6.05Y-3.6
X6.05Y-3.7
X6.05Y-3.8
X6.05Y-3.9
X6.05Y-4.0
X6.05Y-4.1
X6.05Y-4.2
X6.05Y-4.3
X6.05Y-4.4
X6.05Y-4.5
X6.05Y-4.6
X6.05Y-4.7
X6.05Y-4.8
X6.05Y-4.9
X6.05Y-5.0
X6.05Y-5.1
X6.05Y-5.2
X6.05Y-5.3
X6.05Y-5.4
X6.05Y-5.5
X6.05Y-5.6
X6.05Y-5.7
X6.05Y-5.8
X6.05Y-5.9
X6.65Y-3.6
X6.65Y-3.7
X6.65Y-3.8
X6.65Y-3.9
X6.65Y-4.0
X6.65Y-4.1
X6.65Y-4.2
X6.65Y-4.3
X6.65Y-4.4
X6.65Y-4.5
X6.65Y-4.6
X6.65Y-4.7
X6.65Y-4.8
X6.65Y-4.9
X6.65Y-5.0
X6.65Y-5.1
X6.65Y-5.2
X6.65Y-5.3
X6.65Y-5.4
X6.65Y-5.5
X6.65Y-5.6
X6.65Y-5.7
X6.65Y-5.8
X6.65Y-5.9
T5
X5.75Y-3.25
X5.95Y-3.25
T0
M30
