%TF.GenerationSoftware,KiCad,Pcbnew,(5.1.9)-1*%
%TF.CreationDate,2021-03-25T13:19:16+01:00*%
%TF.ProjectId,kicad_robot_teensy,6b696361-645f-4726-9f62-6f745f746565,rev?*%
%TF.SameCoordinates,Original*%
%TF.FileFunction,Copper,L2,Bot*%
%TF.FilePolarity,Positive*%
%FSLAX46Y46*%
G04 Gerber Fmt 4.6, Leading zero omitted, Abs format (unit mm)*
G04 Created by KiCad (PCBNEW (5.1.9)-1) date 2021-03-25 13:19:16*
%MOMM*%
%LPD*%
G01*
G04 APERTURE LIST*
%TA.AperFunction,ComponentPad*%
%ADD10O,1.700000X1.700000*%
%TD*%
%TA.AperFunction,ComponentPad*%
%ADD11R,1.700000X1.700000*%
%TD*%
%TA.AperFunction,ComponentPad*%
%ADD12C,1.600000*%
%TD*%
%TA.AperFunction,ComponentPad*%
%ADD13R,1.600000X1.600000*%
%TD*%
%TA.AperFunction,ComponentPad*%
%ADD14R,3.000000X3.000000*%
%TD*%
%TA.AperFunction,ComponentPad*%
%ADD15C,3.000000*%
%TD*%
%TA.AperFunction,ComponentPad*%
%ADD16O,1.700000X1.950000*%
%TD*%
%TA.AperFunction,ComponentPad*%
%ADD17O,1.700000X2.000000*%
%TD*%
%TA.AperFunction,ComponentPad*%
%ADD18R,2.300000X1.500000*%
%TD*%
%TA.AperFunction,ComponentPad*%
%ADD19O,2.300000X1.500000*%
%TD*%
%TA.AperFunction,ViaPad*%
%ADD20C,0.800000*%
%TD*%
%TA.AperFunction,Conductor*%
%ADD21C,1.000000*%
%TD*%
%TA.AperFunction,Conductor*%
%ADD22C,0.800000*%
%TD*%
%TA.AperFunction,Conductor*%
%ADD23C,0.600000*%
%TD*%
%TA.AperFunction,Conductor*%
%ADD24C,0.254000*%
%TD*%
%TA.AperFunction,Conductor*%
%ADD25C,0.100000*%
%TD*%
G04 APERTURE END LIST*
D10*
%TO.P,CONN->SERV_BAR1,3*%
%TO.N,BAR_SERV*%
X180340000Y-139700000D03*
%TO.P,CONN->SERV_BAR1,2*%
%TO.N,+5V*%
X182880000Y-139700000D03*
D11*
%TO.P,CONN->SERV_BAR1,1*%
%TO.N,GND*%
X185420000Y-139700000D03*
%TD*%
D12*
%TO.P,CARTE_MICR_COTROL1,17*%
%TO.N,COL_GPIO*%
X153670000Y-132080000D03*
%TO.P,CARTE_MICR_COTROL1,18*%
%TO.N,Net-(CARTE_MICR_COTROL1-Pad18)*%
X153670000Y-134620000D03*
%TO.P,CARTE_MICR_COTROL1,19*%
%TO.N,Net-(CARTE_MICR_COTROL1-Pad19)*%
X153670000Y-137160000D03*
%TO.P,CARTE_MICR_COTROL1,20*%
%TO.N,Net-(CARTE_MICR_COTROL1-Pad20)*%
X153670000Y-139700000D03*
%TO.P,CARTE_MICR_COTROL1,16*%
%TO.N,TIR_GPIO*%
X153670000Y-129540000D03*
%TO.P,CARTE_MICR_COTROL1,15*%
%TO.N,Net-(CARTE_MICR_COTROL1-Pad15)*%
X153670000Y-127000000D03*
%TO.P,CARTE_MICR_COTROL1,14*%
%TO.N,Net-(CARTE_MICR_COTROL1-Pad14)*%
X153670000Y-124460000D03*
%TO.P,CARTE_MICR_COTROL1,21*%
%TO.N,R_COD_2_phA*%
X153670000Y-142240000D03*
%TO.P,CARTE_MICR_COTROL1,22*%
%TO.N,R_COD_2_phB*%
X153670000Y-144780000D03*
%TO.P,CARTE_MICR_COTROL1,23*%
%TO.N,Net-(CARTE_MICR_COTROL1-Pad23)*%
X153670000Y-147320000D03*
%TO.P,CARTE_MICR_COTROL1,24*%
%TO.N,Net-(CARTE_MICR_COTROL1-Pad24)*%
X153670000Y-149860000D03*
%TO.P,CARTE_MICR_COTROL1,30*%
%TO.N,MOT_1_DIR*%
X168910000Y-149860000D03*
%TO.P,CARTE_MICR_COTROL1,31*%
%TO.N,MOT_2_DIR*%
X168910000Y-147320000D03*
%TO.P,CARTE_MICR_COTROL1,32*%
%TO.N,MOT_2_PWM*%
X168910000Y-144780000D03*
%TO.P,CARTE_MICR_COTROL1,33*%
%TO.N,MOT_1_PWM*%
X168910000Y-142240000D03*
%TO.P,CARTE_MICR_COTROL1,34*%
%TO.N,PAV_SERV*%
X168910000Y-139700000D03*
%TO.P,CARTE_MICR_COTROL1,35*%
%TO.N,BAR_SERV*%
X168910000Y-137160000D03*
%TO.P,CARTE_MICR_COTROL1,36*%
%TO.N,Net-(CARTE_MICR_COTROL1-Pad36)*%
X168910000Y-134620000D03*
%TO.P,CARTE_MICR_COTROL1,37*%
%TO.N,Net-(CARTE_MICR_COTROL1-Pad37)*%
X168910000Y-132080000D03*
%TO.P,CARTE_MICR_COTROL1,13*%
%TO.N,Net-(CARTE_MICR_COTROL1-Pad13)*%
X153670000Y-121920000D03*
%TO.P,CARTE_MICR_COTROL1,12*%
%TO.N,X-BEE_TX*%
X153670000Y-119380000D03*
%TO.P,CARTE_MICR_COTROL1,11*%
%TO.N,X-BEE_RX*%
X153670000Y-116840000D03*
%TO.P,CARTE_MICR_COTROL1,10*%
%TO.N,GPIO_DISPLAY_2*%
X153670000Y-114300000D03*
%TO.P,CARTE_MICR_COTROL1,9*%
%TO.N,GPIO_DISPLAY_1*%
X153670000Y-111760000D03*
%TO.P,CARTE_MICR_COTROL1,8*%
%TO.N,Net-(CARTE_MICR_COTROL1-Pad8)*%
X153670000Y-109220000D03*
%TO.P,CARTE_MICR_COTROL1,7*%
%TO.N,Net-(CARTE_MICR_COTROL1-Pad7)*%
X153670000Y-106680000D03*
%TO.P,CARTE_MICR_COTROL1,6*%
%TO.N,Net-(CARTE_MICR_COTROL1-Pad6)*%
X153670000Y-104140000D03*
%TO.P,CARTE_MICR_COTROL1,5*%
%TO.N,Net-(CARTE_MICR_COTROL1-Pad5)*%
X153670000Y-101600000D03*
%TO.P,CARTE_MICR_COTROL1,4*%
%TO.N,LID_PWM*%
X153670000Y-99060000D03*
%TO.P,CARTE_MICR_COTROL1,3*%
%TO.N,LID_TX*%
X153670000Y-96520000D03*
%TO.P,CARTE_MICR_COTROL1,2*%
%TO.N,LID_RX*%
X153670000Y-93980000D03*
D13*
%TO.P,CARTE_MICR_COTROL1,1*%
%TO.N,GND*%
X153670000Y-91440000D03*
D12*
%TO.P,CARTE_MICR_COTROL1,38*%
%TO.N,Net-(CARTE_MICR_COTROL1-Pad38)*%
X168910000Y-129540000D03*
%TO.P,CARTE_MICR_COTROL1,39*%
%TO.N,GND*%
X168910000Y-127000000D03*
%TO.P,CARTE_MICR_COTROL1,40*%
%TO.N,Net-(CARTE_MICR_COTROL1-Pad40)*%
X168910000Y-124460000D03*
%TO.P,CARTE_MICR_COTROL1,41*%
%TO.N,Net-(CARTE_MICR_COTROL1-Pad41)*%
X168910000Y-121920000D03*
%TO.P,CARTE_MICR_COTROL1,42*%
%TO.N,Net-(CARTE_MICR_COTROL1-Pad42)*%
X168910000Y-119380000D03*
%TO.P,CARTE_MICR_COTROL1,43*%
%TO.N,R_COD_1_phA*%
X168910000Y-116840000D03*
%TO.P,CARTE_MICR_COTROL1,44*%
%TO.N,R_COD_1_phB*%
X168910000Y-114300000D03*
%TO.P,CARTE_MICR_COTROL1,45*%
%TO.N,I2C_SDAO*%
X168910000Y-111760000D03*
%TO.P,CARTE_MICR_COTROL1,46*%
%TO.N,I2C_SCLO*%
X168910000Y-109220000D03*
%TO.P,CARTE_MICR_COTROL1,47*%
%TO.N,MOT_1_COD_phB*%
X168910000Y-106680000D03*
%TO.P,CARTE_MICR_COTROL1,48*%
%TO.N,MOT_1_COD_phA*%
X168910000Y-104140000D03*
%TO.P,CARTE_MICR_COTROL1,49*%
%TO.N,MOT_2_COD_phB*%
X168910000Y-101600000D03*
%TO.P,CARTE_MICR_COTROL1,50*%
%TO.N,MOT_2_COD_phA*%
X168910000Y-99060000D03*
%TO.P,CARTE_MICR_COTROL1,51*%
%TO.N,Net-(CARTE_MICR_COTROL1-Pad51)*%
X168910000Y-96520000D03*
%TO.P,CARTE_MICR_COTROL1,52*%
%TO.N,GND*%
X168910000Y-93980000D03*
%TO.P,CARTE_MICR_COTROL1,53*%
%TO.N,+5V*%
X168910000Y-91440000D03*
%TD*%
D14*
%TO.P,ALIM_1,1*%
%TO.N,+12V*%
X151130000Y-82550000D03*
D15*
%TO.P,ALIM_1,2*%
%TO.N,GND*%
X146050000Y-82550000D03*
%TD*%
D16*
%TO.P,CONN->DISP1,4*%
%TO.N,GPIO_DISPLAY_2*%
X140850000Y-109220000D03*
%TO.P,CONN->DISP1,3*%
%TO.N,GPIO_DISPLAY_1*%
X138350000Y-109220000D03*
%TO.P,CONN->DISP1,2*%
%TO.N,GND*%
X135850000Y-109220000D03*
%TO.P,CONN->DISP1,1*%
%TO.N,+5V*%
%TA.AperFunction,ComponentPad*%
G36*
G01*
X132500000Y-109945000D02*
X132500000Y-108495000D01*
G75*
G02*
X132750000Y-108245000I250000J0D01*
G01*
X133950000Y-108245000D01*
G75*
G02*
X134200000Y-108495000I0J-250000D01*
G01*
X134200000Y-109945000D01*
G75*
G02*
X133950000Y-110195000I-250000J0D01*
G01*
X132750000Y-110195000D01*
G75*
G02*
X132500000Y-109945000I0J250000D01*
G01*
G37*
%TD.AperFunction*%
%TD*%
%TO.P,CONN->LID1,4*%
%TO.N,LID_RX*%
X142120000Y-93980000D03*
%TO.P,CONN->LID1,3*%
%TO.N,LID_TX*%
X139620000Y-93980000D03*
%TO.P,CONN->LID1,2*%
%TO.N,GND*%
X137120000Y-93980000D03*
%TO.P,CONN->LID1,1*%
%TO.N,+5V*%
%TA.AperFunction,ComponentPad*%
G36*
G01*
X133770000Y-94705000D02*
X133770000Y-93255000D01*
G75*
G02*
X134020000Y-93005000I250000J0D01*
G01*
X135220000Y-93005000D01*
G75*
G02*
X135470000Y-93255000I0J-250000D01*
G01*
X135470000Y-94705000D01*
G75*
G02*
X135220000Y-94955000I-250000J0D01*
G01*
X134020000Y-94955000D01*
G75*
G02*
X133770000Y-94705000I0J250000D01*
G01*
G37*
%TD.AperFunction*%
%TD*%
%TO.P,CONN->MD10_MOT_1,1*%
%TO.N,GND*%
%TA.AperFunction,ComponentPad*%
G36*
G01*
X141470000Y-151855000D02*
X141470000Y-150405000D01*
G75*
G02*
X141720000Y-150155000I250000J0D01*
G01*
X142920000Y-150155000D01*
G75*
G02*
X143170000Y-150405000I0J-250000D01*
G01*
X143170000Y-151855000D01*
G75*
G02*
X142920000Y-152105000I-250000J0D01*
G01*
X141720000Y-152105000D01*
G75*
G02*
X141470000Y-151855000I0J250000D01*
G01*
G37*
%TD.AperFunction*%
%TO.P,CONN->MD10_MOT_1,2*%
%TO.N,MOT_1_PWM*%
X144820000Y-151130000D03*
%TO.P,CONN->MD10_MOT_1,3*%
%TO.N,MOT_1_DIR*%
X147320000Y-151130000D03*
%TD*%
%TO.P,CONN->MD10_MOT_2,3*%
%TO.N,MOT_2_DIR*%
X175340000Y-152400000D03*
%TO.P,CONN->MD10_MOT_2,2*%
%TO.N,MOT_2_PWM*%
X177840000Y-152400000D03*
%TO.P,CONN->MD10_MOT_2,1*%
%TO.N,GND*%
%TA.AperFunction,ComponentPad*%
G36*
G01*
X181190000Y-151675000D02*
X181190000Y-153125000D01*
G75*
G02*
X180940000Y-153375000I-250000J0D01*
G01*
X179740000Y-153375000D01*
G75*
G02*
X179490000Y-153125000I0J250000D01*
G01*
X179490000Y-151675000D01*
G75*
G02*
X179740000Y-151425000I250000J0D01*
G01*
X180940000Y-151425000D01*
G75*
G02*
X181190000Y-151675000I0J-250000D01*
G01*
G37*
%TD.AperFunction*%
%TD*%
D17*
%TO.P,CONN->MOT_LID1,2*%
%TO.N,+5V*%
X135930000Y-102870000D03*
%TO.P,CONN->MOT_LID1,1*%
%TO.N,Net-(CONN->MOT_LID1-Pad1)*%
%TA.AperFunction,ComponentPad*%
G36*
G01*
X139280000Y-102120000D02*
X139280000Y-103620000D01*
G75*
G02*
X139030000Y-103870000I-250000J0D01*
G01*
X137830000Y-103870000D01*
G75*
G02*
X137580000Y-103620000I0J250000D01*
G01*
X137580000Y-102120000D01*
G75*
G02*
X137830000Y-101870000I250000J0D01*
G01*
X139030000Y-101870000D01*
G75*
G02*
X139280000Y-102120000I0J-250000D01*
G01*
G37*
%TD.AperFunction*%
%TD*%
D11*
%TO.P,CONN->SERV_PAV1,1*%
%TO.N,GND*%
X185420000Y-144780000D03*
D10*
%TO.P,CONN->SERV_PAV1,2*%
%TO.N,+5V*%
X182880000Y-144780000D03*
%TO.P,CONN->SERV_PAV1,3*%
%TO.N,PAV_SERV*%
X180340000Y-144780000D03*
%TD*%
%TO.P,CONN->X-BEE1,1*%
%TO.N,+5V*%
%TA.AperFunction,ComponentPad*%
G36*
G01*
X132500000Y-118835000D02*
X132500000Y-117385000D01*
G75*
G02*
X132750000Y-117135000I250000J0D01*
G01*
X133950000Y-117135000D01*
G75*
G02*
X134200000Y-117385000I0J-250000D01*
G01*
X134200000Y-118835000D01*
G75*
G02*
X133950000Y-119085000I-250000J0D01*
G01*
X132750000Y-119085000D01*
G75*
G02*
X132500000Y-118835000I0J250000D01*
G01*
G37*
%TD.AperFunction*%
D16*
%TO.P,CONN->X-BEE1,2*%
%TO.N,GND*%
X135850000Y-118110000D03*
%TO.P,CONN->X-BEE1,3*%
%TO.N,X-BEE_TX*%
X138350000Y-118110000D03*
%TO.P,CONN->X-BEE1,4*%
%TO.N,X-BEE_RX*%
X140850000Y-118110000D03*
%TD*%
%TO.P,CONN_COL1,1*%
%TO.N,COL_GPIO*%
%TA.AperFunction,ComponentPad*%
G36*
G01*
X139280000Y-133870000D02*
X139280000Y-135370000D01*
G75*
G02*
X139030000Y-135620000I-250000J0D01*
G01*
X137830000Y-135620000D01*
G75*
G02*
X137580000Y-135370000I0J250000D01*
G01*
X137580000Y-133870000D01*
G75*
G02*
X137830000Y-133620000I250000J0D01*
G01*
X139030000Y-133620000D01*
G75*
G02*
X139280000Y-133870000I0J-250000D01*
G01*
G37*
%TD.AperFunction*%
D17*
%TO.P,CONN_COL1,2*%
%TO.N,GND*%
X135930000Y-134620000D03*
%TD*%
%TO.P,CONN_TIR1,1*%
%TO.N,TIR_GPIO*%
%TA.AperFunction,ComponentPad*%
G36*
G01*
X139280000Y-126250000D02*
X139280000Y-127750000D01*
G75*
G02*
X139030000Y-128000000I-250000J0D01*
G01*
X137830000Y-128000000D01*
G75*
G02*
X137580000Y-127750000I0J250000D01*
G01*
X137580000Y-126250000D01*
G75*
G02*
X137830000Y-126000000I250000J0D01*
G01*
X139030000Y-126000000D01*
G75*
G02*
X139280000Y-126250000I0J-250000D01*
G01*
G37*
%TD.AperFunction*%
%TO.P,CONN_TIR1,2*%
%TO.N,GND*%
X135930000Y-127000000D03*
%TD*%
D16*
%TO.P,J1,4*%
%TO.N,MOT_1_COD_phB*%
X181730000Y-106680000D03*
%TO.P,J1,3*%
%TO.N,MOT_1_COD_phA*%
X184230000Y-106680000D03*
%TO.P,J1,2*%
%TO.N,GND*%
X186730000Y-106680000D03*
%TO.P,J1,1*%
%TO.N,+5V*%
%TA.AperFunction,ComponentPad*%
G36*
G01*
X190080000Y-105955000D02*
X190080000Y-107405000D01*
G75*
G02*
X189830000Y-107655000I-250000J0D01*
G01*
X188630000Y-107655000D01*
G75*
G02*
X188380000Y-107405000I0J250000D01*
G01*
X188380000Y-105955000D01*
G75*
G02*
X188630000Y-105705000I250000J0D01*
G01*
X189830000Y-105705000D01*
G75*
G02*
X190080000Y-105955000I0J-250000D01*
G01*
G37*
%TD.AperFunction*%
%TD*%
%TO.P,J2,1*%
%TO.N,+5V*%
%TA.AperFunction,ComponentPad*%
G36*
G01*
X190080000Y-97065000D02*
X190080000Y-98515000D01*
G75*
G02*
X189830000Y-98765000I-250000J0D01*
G01*
X188630000Y-98765000D01*
G75*
G02*
X188380000Y-98515000I0J250000D01*
G01*
X188380000Y-97065000D01*
G75*
G02*
X188630000Y-96815000I250000J0D01*
G01*
X189830000Y-96815000D01*
G75*
G02*
X190080000Y-97065000I0J-250000D01*
G01*
G37*
%TD.AperFunction*%
%TO.P,J2,2*%
%TO.N,GND*%
X186730000Y-97790000D03*
%TO.P,J2,3*%
%TO.N,MOT_2_COD_phA*%
X184230000Y-97790000D03*
%TO.P,J2,4*%
%TO.N,MOT_2_COD_phB*%
X181730000Y-97790000D03*
%TD*%
%TO.P,J_FTM->R_COD_1,4*%
%TO.N,R_COD_1_phB*%
X181730000Y-133350000D03*
%TO.P,J_FTM->R_COD_1,3*%
%TO.N,R_COD_1_phA*%
X184230000Y-133350000D03*
%TO.P,J_FTM->R_COD_1,2*%
%TO.N,GND*%
X186730000Y-133350000D03*
%TO.P,J_FTM->R_COD_1,1*%
%TO.N,+5V*%
%TA.AperFunction,ComponentPad*%
G36*
G01*
X190080000Y-132625000D02*
X190080000Y-134075000D01*
G75*
G02*
X189830000Y-134325000I-250000J0D01*
G01*
X188630000Y-134325000D01*
G75*
G02*
X188380000Y-134075000I0J250000D01*
G01*
X188380000Y-132625000D01*
G75*
G02*
X188630000Y-132375000I250000J0D01*
G01*
X189830000Y-132375000D01*
G75*
G02*
X190080000Y-132625000I0J-250000D01*
G01*
G37*
%TD.AperFunction*%
%TD*%
%TO.P,J_FTM->R_COD_2,1*%
%TO.N,+5V*%
%TA.AperFunction,ComponentPad*%
G36*
G01*
X133770000Y-142965000D02*
X133770000Y-141515000D01*
G75*
G02*
X134020000Y-141265000I250000J0D01*
G01*
X135220000Y-141265000D01*
G75*
G02*
X135470000Y-141515000I0J-250000D01*
G01*
X135470000Y-142965000D01*
G75*
G02*
X135220000Y-143215000I-250000J0D01*
G01*
X134020000Y-143215000D01*
G75*
G02*
X133770000Y-142965000I0J250000D01*
G01*
G37*
%TD.AperFunction*%
%TO.P,J_FTM->R_COD_2,2*%
%TO.N,GND*%
X137120000Y-142240000D03*
%TO.P,J_FTM->R_COD_2,3*%
%TO.N,R_COD_2_phA*%
X139620000Y-142240000D03*
%TO.P,J_FTM->R_COD_2,4*%
%TO.N,R_COD_2_phB*%
X142120000Y-142240000D03*
%TD*%
%TO.P,J_I2C->MULTIPLEX1,1*%
%TO.N,+5V*%
%TA.AperFunction,ComponentPad*%
G36*
G01*
X190080000Y-114845000D02*
X190080000Y-116295000D01*
G75*
G02*
X189830000Y-116545000I-250000J0D01*
G01*
X188630000Y-116545000D01*
G75*
G02*
X188380000Y-116295000I0J250000D01*
G01*
X188380000Y-114845000D01*
G75*
G02*
X188630000Y-114595000I250000J0D01*
G01*
X189830000Y-114595000D01*
G75*
G02*
X190080000Y-114845000I0J-250000D01*
G01*
G37*
%TD.AperFunction*%
%TO.P,J_I2C->MULTIPLEX1,2*%
%TO.N,GND*%
X186730000Y-115570000D03*
%TO.P,J_I2C->MULTIPLEX1,3*%
%TO.N,I2C_SDAO*%
X184230000Y-115570000D03*
%TO.P,J_I2C->MULTIPLEX1,4*%
%TO.N,I2C_SCLO*%
X181730000Y-115570000D03*
%TD*%
%TO.P,J_I2C->MULTIPLEX2,1*%
%TO.N,+5V*%
%TA.AperFunction,ComponentPad*%
G36*
G01*
X190080000Y-123735000D02*
X190080000Y-125185000D01*
G75*
G02*
X189830000Y-125435000I-250000J0D01*
G01*
X188630000Y-125435000D01*
G75*
G02*
X188380000Y-125185000I0J250000D01*
G01*
X188380000Y-123735000D01*
G75*
G02*
X188630000Y-123485000I250000J0D01*
G01*
X189830000Y-123485000D01*
G75*
G02*
X190080000Y-123735000I0J-250000D01*
G01*
G37*
%TD.AperFunction*%
%TO.P,J_I2C->MULTIPLEX2,2*%
%TO.N,GND*%
X186730000Y-124460000D03*
%TO.P,J_I2C->MULTIPLEX2,3*%
%TO.N,I2C_SDAO*%
X184230000Y-124460000D03*
%TO.P,J_I2C->MULTIPLEX2,4*%
%TO.N,I2C_SCLO*%
X181730000Y-124460000D03*
%TD*%
D18*
%TO.P,U12->5,1*%
%TO.N,+12V*%
X177800000Y-81280000D03*
D19*
%TO.P,U12->5,2*%
%TO.N,GND*%
X177800000Y-83820000D03*
%TO.P,U12->5,3*%
%TO.N,+5V*%
X177800000Y-86360000D03*
%TD*%
D20*
%TO.N,GND*%
X144510000Y-100600000D03*
%TO.N,R_COD_1_phA*%
X172720000Y-128270000D03*
%TD*%
D21*
%TO.N,GND*%
X135850000Y-109220000D02*
X135890000Y-109220000D01*
D22*
X177800000Y-83820000D02*
X180340000Y-83820000D01*
X186730000Y-90210000D02*
X186730000Y-97790000D01*
X180340000Y-83820000D02*
X186730000Y-90210000D01*
D21*
X135850000Y-109220000D02*
X135850000Y-107990000D01*
X135850000Y-107990000D02*
X138430000Y-105410000D01*
X139700000Y-105410000D02*
X144510000Y-100600000D01*
X138430000Y-105410000D02*
X139700000Y-105410000D01*
D23*
%TO.N,LID_TX*%
X151130000Y-96520000D02*
X153670000Y-96520000D01*
X142160000Y-96520000D02*
X151130000Y-96520000D01*
X139620000Y-93980000D02*
X142160000Y-96520000D01*
%TO.N,LID_RX*%
X153670000Y-93980000D02*
X142120000Y-93980000D01*
D22*
%TO.N,R_COD_1_phA*%
X170815000Y-116840000D02*
X168910000Y-116840000D01*
X172720000Y-118745000D02*
X170815000Y-116840000D01*
X172720000Y-128270000D02*
X172720000Y-118745000D01*
%TO.N,R_COD_1_phB*%
X168910000Y-114300000D02*
X171450000Y-114300000D01*
X171450000Y-114300000D02*
X175260000Y-118110000D01*
X175260000Y-118110000D02*
X175260000Y-132080000D01*
X176530000Y-133350000D02*
X181730000Y-133350000D01*
X175260000Y-132080000D02*
X176530000Y-133350000D01*
%TO.N,I2C_SCLO*%
X181730000Y-115570000D02*
X177800000Y-115570000D01*
X177800000Y-115570000D02*
X175260000Y-113030000D01*
X175260000Y-113030000D02*
X175260000Y-111760000D01*
X172720000Y-109220000D02*
X168910000Y-109220000D01*
X175260000Y-111760000D02*
X172720000Y-109220000D01*
%TO.N,+5V*%
X189230000Y-133350000D02*
X189230000Y-135890000D01*
X189230000Y-135890000D02*
X187960000Y-137160000D01*
X187960000Y-137160000D02*
X184150000Y-137160000D01*
X182880000Y-138430000D02*
X182880000Y-139700000D01*
X184150000Y-137160000D02*
X182880000Y-138430000D01*
D21*
X163830000Y-91440000D02*
X168910000Y-91440000D01*
X160655000Y-88265000D02*
X163830000Y-91440000D01*
X139065000Y-88265000D02*
X160655000Y-88265000D01*
X134620000Y-92710000D02*
X139065000Y-88265000D01*
X134620000Y-93980000D02*
X134620000Y-92710000D01*
%TD*%
D24*
%TO.N,GND*%
X192913000Y-154813000D02*
X130302000Y-154813000D01*
X130302000Y-151779872D01*
X130765000Y-151779872D01*
X130765000Y-152220128D01*
X130850890Y-152651925D01*
X131019369Y-153058669D01*
X131263962Y-153424729D01*
X131575271Y-153736038D01*
X131941331Y-153980631D01*
X132348075Y-154149110D01*
X132779872Y-154235000D01*
X133220128Y-154235000D01*
X133651925Y-154149110D01*
X134058669Y-153980631D01*
X134424729Y-153736038D01*
X134736038Y-153424729D01*
X134980631Y-153058669D01*
X135149110Y-152651925D01*
X135235000Y-152220128D01*
X135235000Y-152105000D01*
X140831928Y-152105000D01*
X140844188Y-152229482D01*
X140880498Y-152349180D01*
X140939463Y-152459494D01*
X141018815Y-152556185D01*
X141115506Y-152635537D01*
X141225820Y-152694502D01*
X141345518Y-152730812D01*
X141470000Y-152743072D01*
X142034250Y-152740000D01*
X142193000Y-152581250D01*
X142193000Y-151257000D01*
X140993750Y-151257000D01*
X140835000Y-151415750D01*
X140831928Y-152105000D01*
X135235000Y-152105000D01*
X135235000Y-151779872D01*
X135149110Y-151348075D01*
X134980631Y-150941331D01*
X134736038Y-150575271D01*
X134424729Y-150263962D01*
X134261656Y-150155000D01*
X140831928Y-150155000D01*
X140835000Y-150844250D01*
X140993750Y-151003000D01*
X142193000Y-151003000D01*
X142193000Y-149678750D01*
X142447000Y-149678750D01*
X142447000Y-151003000D01*
X142467000Y-151003000D01*
X142467000Y-151257000D01*
X142447000Y-151257000D01*
X142447000Y-152581250D01*
X142605750Y-152740000D01*
X143170000Y-152743072D01*
X143294482Y-152730812D01*
X143414180Y-152694502D01*
X143524494Y-152635537D01*
X143621185Y-152556185D01*
X143700537Y-152459494D01*
X143759502Y-152349180D01*
X143770055Y-152314392D01*
X143990987Y-152495706D01*
X144248967Y-152633599D01*
X144528890Y-152718513D01*
X144820000Y-152747185D01*
X145111111Y-152718513D01*
X145391034Y-152633599D01*
X145649014Y-152495706D01*
X145875134Y-152310134D01*
X146060706Y-152084014D01*
X146070000Y-152066626D01*
X146079294Y-152084014D01*
X146264866Y-152310134D01*
X146490987Y-152495706D01*
X146748967Y-152633599D01*
X147028890Y-152718513D01*
X147320000Y-152747185D01*
X147611111Y-152718513D01*
X147891034Y-152633599D01*
X148149014Y-152495706D01*
X148375134Y-152310134D01*
X148463836Y-152202050D01*
X173855000Y-152202050D01*
X173855000Y-152597949D01*
X173876487Y-152816110D01*
X173961401Y-153096033D01*
X174099294Y-153354013D01*
X174284866Y-153580134D01*
X174510986Y-153765706D01*
X174768966Y-153903599D01*
X175048889Y-153988513D01*
X175340000Y-154017185D01*
X175631110Y-153988513D01*
X175911033Y-153903599D01*
X176169013Y-153765706D01*
X176395134Y-153580134D01*
X176580706Y-153354014D01*
X176590000Y-153336626D01*
X176599294Y-153354013D01*
X176784866Y-153580134D01*
X177010986Y-153765706D01*
X177268966Y-153903599D01*
X177548889Y-153988513D01*
X177840000Y-154017185D01*
X178131110Y-153988513D01*
X178411033Y-153903599D01*
X178669013Y-153765706D01*
X178889945Y-153584392D01*
X178900498Y-153619180D01*
X178959463Y-153729494D01*
X179038815Y-153826185D01*
X179135506Y-153905537D01*
X179245820Y-153964502D01*
X179365518Y-154000812D01*
X179490000Y-154013072D01*
X180054250Y-154010000D01*
X180213000Y-153851250D01*
X180213000Y-152527000D01*
X180467000Y-152527000D01*
X180467000Y-153851250D01*
X180625750Y-154010000D01*
X181190000Y-154013072D01*
X181314482Y-154000812D01*
X181434180Y-153964502D01*
X181544494Y-153905537D01*
X181641185Y-153826185D01*
X181720537Y-153729494D01*
X181779502Y-153619180D01*
X181815812Y-153499482D01*
X181828072Y-153375000D01*
X181825000Y-152685750D01*
X181666250Y-152527000D01*
X180467000Y-152527000D01*
X180213000Y-152527000D01*
X180193000Y-152527000D01*
X180193000Y-152273000D01*
X180213000Y-152273000D01*
X180213000Y-150948750D01*
X180467000Y-150948750D01*
X180467000Y-152273000D01*
X181666250Y-152273000D01*
X181825000Y-152114250D01*
X181826490Y-151779872D01*
X187765000Y-151779872D01*
X187765000Y-152220128D01*
X187850890Y-152651925D01*
X188019369Y-153058669D01*
X188263962Y-153424729D01*
X188575271Y-153736038D01*
X188941331Y-153980631D01*
X189348075Y-154149110D01*
X189779872Y-154235000D01*
X190220128Y-154235000D01*
X190651925Y-154149110D01*
X191058669Y-153980631D01*
X191424729Y-153736038D01*
X191736038Y-153424729D01*
X191980631Y-153058669D01*
X192149110Y-152651925D01*
X192235000Y-152220128D01*
X192235000Y-151779872D01*
X192149110Y-151348075D01*
X191980631Y-150941331D01*
X191736038Y-150575271D01*
X191424729Y-150263962D01*
X191058669Y-150019369D01*
X190651925Y-149850890D01*
X190220128Y-149765000D01*
X189779872Y-149765000D01*
X189348075Y-149850890D01*
X188941331Y-150019369D01*
X188575271Y-150263962D01*
X188263962Y-150575271D01*
X188019369Y-150941331D01*
X187850890Y-151348075D01*
X187765000Y-151779872D01*
X181826490Y-151779872D01*
X181828072Y-151425000D01*
X181815812Y-151300518D01*
X181779502Y-151180820D01*
X181720537Y-151070506D01*
X181641185Y-150973815D01*
X181544494Y-150894463D01*
X181434180Y-150835498D01*
X181314482Y-150799188D01*
X181190000Y-150786928D01*
X180625750Y-150790000D01*
X180467000Y-150948750D01*
X180213000Y-150948750D01*
X180054250Y-150790000D01*
X179490000Y-150786928D01*
X179365518Y-150799188D01*
X179245820Y-150835498D01*
X179135506Y-150894463D01*
X179038815Y-150973815D01*
X178959463Y-151070506D01*
X178900498Y-151180820D01*
X178889945Y-151215608D01*
X178669014Y-151034294D01*
X178411034Y-150896401D01*
X178131111Y-150811487D01*
X177840000Y-150782815D01*
X177548890Y-150811487D01*
X177268967Y-150896401D01*
X177010987Y-151034294D01*
X176784866Y-151219866D01*
X176599294Y-151445986D01*
X176590000Y-151463374D01*
X176580706Y-151445986D01*
X176395134Y-151219866D01*
X176169014Y-151034294D01*
X175911034Y-150896401D01*
X175631111Y-150811487D01*
X175340000Y-150782815D01*
X175048890Y-150811487D01*
X174768967Y-150896401D01*
X174510987Y-151034294D01*
X174284866Y-151219866D01*
X174099294Y-151445986D01*
X173961401Y-151703966D01*
X173876487Y-151983889D01*
X173855000Y-152202050D01*
X148463836Y-152202050D01*
X148560706Y-152084014D01*
X148698599Y-151826033D01*
X148783513Y-151546110D01*
X148805000Y-151327949D01*
X148805000Y-150932050D01*
X148783513Y-150713889D01*
X148698599Y-150433966D01*
X148560706Y-150175986D01*
X148375134Y-149949866D01*
X148149013Y-149764294D01*
X147891033Y-149626401D01*
X147611110Y-149541487D01*
X147320000Y-149512815D01*
X147028889Y-149541487D01*
X146748966Y-149626401D01*
X146490986Y-149764294D01*
X146264866Y-149949866D01*
X146079294Y-150175987D01*
X146070000Y-150193374D01*
X146060706Y-150175986D01*
X145875134Y-149949866D01*
X145649013Y-149764294D01*
X145391033Y-149626401D01*
X145111110Y-149541487D01*
X144820000Y-149512815D01*
X144528889Y-149541487D01*
X144248966Y-149626401D01*
X143990986Y-149764294D01*
X143770055Y-149945608D01*
X143759502Y-149910820D01*
X143700537Y-149800506D01*
X143621185Y-149703815D01*
X143524494Y-149624463D01*
X143414180Y-149565498D01*
X143294482Y-149529188D01*
X143170000Y-149516928D01*
X142605750Y-149520000D01*
X142447000Y-149678750D01*
X142193000Y-149678750D01*
X142034250Y-149520000D01*
X141470000Y-149516928D01*
X141345518Y-149529188D01*
X141225820Y-149565498D01*
X141115506Y-149624463D01*
X141018815Y-149703815D01*
X140939463Y-149800506D01*
X140880498Y-149910820D01*
X140844188Y-150030518D01*
X140831928Y-150155000D01*
X134261656Y-150155000D01*
X134058669Y-150019369D01*
X133651925Y-149850890D01*
X133220128Y-149765000D01*
X132779872Y-149765000D01*
X132348075Y-149850890D01*
X131941331Y-150019369D01*
X131575271Y-150263962D01*
X131263962Y-150575271D01*
X131019369Y-150941331D01*
X130850890Y-151348075D01*
X130765000Y-151779872D01*
X130302000Y-151779872D01*
X130302000Y-141515000D01*
X133131928Y-141515000D01*
X133131928Y-142965000D01*
X133148992Y-143138254D01*
X133199528Y-143304850D01*
X133281595Y-143458386D01*
X133392038Y-143592962D01*
X133526614Y-143703405D01*
X133680150Y-143785472D01*
X133846746Y-143836008D01*
X134020000Y-143853072D01*
X135220000Y-143853072D01*
X135393254Y-143836008D01*
X135559850Y-143785472D01*
X135713386Y-143703405D01*
X135847962Y-143592962D01*
X135958405Y-143458386D01*
X136014714Y-143353039D01*
X136030951Y-143374429D01*
X136248807Y-143567496D01*
X136500142Y-143714352D01*
X136763110Y-143806476D01*
X136993000Y-143685155D01*
X136993000Y-142367000D01*
X136973000Y-142367000D01*
X136973000Y-142113000D01*
X136993000Y-142113000D01*
X136993000Y-140794845D01*
X137247000Y-140794845D01*
X137247000Y-142113000D01*
X137267000Y-142113000D01*
X137267000Y-142367000D01*
X137247000Y-142367000D01*
X137247000Y-143685155D01*
X137476890Y-143806476D01*
X137739858Y-143714352D01*
X137991193Y-143567496D01*
X138209049Y-143374429D01*
X138365538Y-143168278D01*
X138379294Y-143194014D01*
X138564866Y-143420134D01*
X138790987Y-143605706D01*
X139048967Y-143743599D01*
X139328890Y-143828513D01*
X139620000Y-143857185D01*
X139911111Y-143828513D01*
X140191034Y-143743599D01*
X140449014Y-143605706D01*
X140675134Y-143420134D01*
X140860706Y-143194014D01*
X140870000Y-143176626D01*
X140879294Y-143194014D01*
X141064866Y-143420134D01*
X141290987Y-143605706D01*
X141548967Y-143743599D01*
X141828890Y-143828513D01*
X142120000Y-143857185D01*
X142411111Y-143828513D01*
X142691034Y-143743599D01*
X142949014Y-143605706D01*
X143175134Y-143420134D01*
X143360706Y-143194014D01*
X143498599Y-142936033D01*
X143583513Y-142656110D01*
X143605000Y-142437949D01*
X143605000Y-142042050D01*
X143583513Y-141823889D01*
X143498599Y-141543966D01*
X143360706Y-141285986D01*
X143175134Y-141059866D01*
X142949013Y-140874294D01*
X142691033Y-140736401D01*
X142411110Y-140651487D01*
X142120000Y-140622815D01*
X141828889Y-140651487D01*
X141548966Y-140736401D01*
X141290986Y-140874294D01*
X141064866Y-141059866D01*
X140879294Y-141285987D01*
X140870000Y-141303374D01*
X140860706Y-141285986D01*
X140675134Y-141059866D01*
X140449013Y-140874294D01*
X140191033Y-140736401D01*
X139911110Y-140651487D01*
X139620000Y-140622815D01*
X139328889Y-140651487D01*
X139048966Y-140736401D01*
X138790986Y-140874294D01*
X138564866Y-141059866D01*
X138379294Y-141285987D01*
X138365538Y-141311722D01*
X138209049Y-141105571D01*
X137991193Y-140912504D01*
X137739858Y-140765648D01*
X137476890Y-140673524D01*
X137247000Y-140794845D01*
X136993000Y-140794845D01*
X136763110Y-140673524D01*
X136500142Y-140765648D01*
X136248807Y-140912504D01*
X136030951Y-141105571D01*
X136014714Y-141126961D01*
X135958405Y-141021614D01*
X135847962Y-140887038D01*
X135713386Y-140776595D01*
X135559850Y-140694528D01*
X135393254Y-140643992D01*
X135220000Y-140626928D01*
X134020000Y-140626928D01*
X133846746Y-140643992D01*
X133680150Y-140694528D01*
X133526614Y-140776595D01*
X133392038Y-140887038D01*
X133281595Y-141021614D01*
X133199528Y-141175150D01*
X133148992Y-141341746D01*
X133131928Y-141515000D01*
X130302000Y-141515000D01*
X130302000Y-134979742D01*
X134458715Y-134979742D01*
X134527904Y-135262745D01*
X134650975Y-135526812D01*
X134823198Y-135761795D01*
X135037954Y-135958664D01*
X135286991Y-136109854D01*
X135560739Y-136209554D01*
X135573110Y-136211476D01*
X135803000Y-136090155D01*
X135803000Y-134747000D01*
X134602768Y-134747000D01*
X134458715Y-134979742D01*
X130302000Y-134979742D01*
X130302000Y-134260258D01*
X134458715Y-134260258D01*
X134602768Y-134493000D01*
X135803000Y-134493000D01*
X135803000Y-133149845D01*
X136057000Y-133149845D01*
X136057000Y-134493000D01*
X136077000Y-134493000D01*
X136077000Y-134747000D01*
X136057000Y-134747000D01*
X136057000Y-136090155D01*
X136286890Y-136211476D01*
X136299261Y-136209554D01*
X136573009Y-136109854D01*
X136822046Y-135958664D01*
X137036802Y-135761795D01*
X137037086Y-135761407D01*
X137091595Y-135863386D01*
X137202038Y-135997962D01*
X137336614Y-136108405D01*
X137490150Y-136190472D01*
X137656746Y-136241008D01*
X137830000Y-136258072D01*
X139030000Y-136258072D01*
X139203254Y-136241008D01*
X139369850Y-136190472D01*
X139523386Y-136108405D01*
X139657962Y-135997962D01*
X139768405Y-135863386D01*
X139850472Y-135709850D01*
X139901008Y-135543254D01*
X139918072Y-135370000D01*
X139918072Y-133870000D01*
X139901008Y-133696746D01*
X139850472Y-133530150D01*
X139768405Y-133376614D01*
X139657962Y-133242038D01*
X139523386Y-133131595D01*
X139369850Y-133049528D01*
X139203254Y-132998992D01*
X139030000Y-132981928D01*
X137830000Y-132981928D01*
X137656746Y-132998992D01*
X137490150Y-133049528D01*
X137336614Y-133131595D01*
X137202038Y-133242038D01*
X137091595Y-133376614D01*
X137037086Y-133478593D01*
X137036802Y-133478205D01*
X136822046Y-133281336D01*
X136573009Y-133130146D01*
X136299261Y-133030446D01*
X136286890Y-133028524D01*
X136057000Y-133149845D01*
X135803000Y-133149845D01*
X135573110Y-133028524D01*
X135560739Y-133030446D01*
X135286991Y-133130146D01*
X135037954Y-133281336D01*
X134823198Y-133478205D01*
X134650975Y-133713188D01*
X134527904Y-133977255D01*
X134458715Y-134260258D01*
X130302000Y-134260258D01*
X130302000Y-127359742D01*
X134458715Y-127359742D01*
X134527904Y-127642745D01*
X134650975Y-127906812D01*
X134823198Y-128141795D01*
X135037954Y-128338664D01*
X135286991Y-128489854D01*
X135560739Y-128589554D01*
X135573110Y-128591476D01*
X135803000Y-128470155D01*
X135803000Y-127127000D01*
X134602768Y-127127000D01*
X134458715Y-127359742D01*
X130302000Y-127359742D01*
X130302000Y-126640258D01*
X134458715Y-126640258D01*
X134602768Y-126873000D01*
X135803000Y-126873000D01*
X135803000Y-125529845D01*
X136057000Y-125529845D01*
X136057000Y-126873000D01*
X136077000Y-126873000D01*
X136077000Y-127127000D01*
X136057000Y-127127000D01*
X136057000Y-128470155D01*
X136286890Y-128591476D01*
X136299261Y-128589554D01*
X136573009Y-128489854D01*
X136822046Y-128338664D01*
X137036802Y-128141795D01*
X137037086Y-128141407D01*
X137091595Y-128243386D01*
X137202038Y-128377962D01*
X137336614Y-128488405D01*
X137490150Y-128570472D01*
X137656746Y-128621008D01*
X137830000Y-128638072D01*
X139030000Y-128638072D01*
X139203254Y-128621008D01*
X139369850Y-128570472D01*
X139523386Y-128488405D01*
X139657962Y-128377962D01*
X139768405Y-128243386D01*
X139850472Y-128089850D01*
X139901008Y-127923254D01*
X139918072Y-127750000D01*
X139918072Y-126250000D01*
X139901008Y-126076746D01*
X139850472Y-125910150D01*
X139768405Y-125756614D01*
X139657962Y-125622038D01*
X139523386Y-125511595D01*
X139369850Y-125429528D01*
X139203254Y-125378992D01*
X139030000Y-125361928D01*
X137830000Y-125361928D01*
X137656746Y-125378992D01*
X137490150Y-125429528D01*
X137336614Y-125511595D01*
X137202038Y-125622038D01*
X137091595Y-125756614D01*
X137037086Y-125858593D01*
X137036802Y-125858205D01*
X136822046Y-125661336D01*
X136573009Y-125510146D01*
X136299261Y-125410446D01*
X136286890Y-125408524D01*
X136057000Y-125529845D01*
X135803000Y-125529845D01*
X135573110Y-125408524D01*
X135560739Y-125410446D01*
X135286991Y-125510146D01*
X135037954Y-125661336D01*
X134823198Y-125858205D01*
X134650975Y-126093188D01*
X134527904Y-126357255D01*
X134458715Y-126640258D01*
X130302000Y-126640258D01*
X130302000Y-117385000D01*
X131861928Y-117385000D01*
X131861928Y-118835000D01*
X131878992Y-119008254D01*
X131929528Y-119174850D01*
X132011595Y-119328386D01*
X132122038Y-119462962D01*
X132256614Y-119573405D01*
X132410150Y-119655472D01*
X132576746Y-119706008D01*
X132750000Y-119723072D01*
X133950000Y-119723072D01*
X134123254Y-119706008D01*
X134289850Y-119655472D01*
X134443386Y-119573405D01*
X134577962Y-119462962D01*
X134688405Y-119328386D01*
X134744714Y-119223039D01*
X134760951Y-119244429D01*
X134978807Y-119437496D01*
X135230142Y-119584352D01*
X135493110Y-119676476D01*
X135723000Y-119555155D01*
X135723000Y-118237000D01*
X135703000Y-118237000D01*
X135703000Y-117983000D01*
X135723000Y-117983000D01*
X135723000Y-116664845D01*
X135977000Y-116664845D01*
X135977000Y-117983000D01*
X135997000Y-117983000D01*
X135997000Y-118237000D01*
X135977000Y-118237000D01*
X135977000Y-119555155D01*
X136206890Y-119676476D01*
X136469858Y-119584352D01*
X136721193Y-119437496D01*
X136939049Y-119244429D01*
X137095538Y-119038278D01*
X137109294Y-119064014D01*
X137294866Y-119290134D01*
X137520987Y-119475706D01*
X137778967Y-119613599D01*
X138058890Y-119698513D01*
X138350000Y-119727185D01*
X138641111Y-119698513D01*
X138921034Y-119613599D01*
X139179014Y-119475706D01*
X139405134Y-119290134D01*
X139590706Y-119064014D01*
X139600000Y-119046626D01*
X139609294Y-119064014D01*
X139794866Y-119290134D01*
X140020987Y-119475706D01*
X140278967Y-119613599D01*
X140558890Y-119698513D01*
X140850000Y-119727185D01*
X141141111Y-119698513D01*
X141421034Y-119613599D01*
X141679014Y-119475706D01*
X141905134Y-119290134D01*
X142090706Y-119064014D01*
X142228599Y-118806033D01*
X142313513Y-118526110D01*
X142335000Y-118307949D01*
X142335000Y-117912050D01*
X142313513Y-117693889D01*
X142228599Y-117413966D01*
X142090706Y-117155986D01*
X141905134Y-116929866D01*
X141679013Y-116744294D01*
X141421033Y-116606401D01*
X141141110Y-116521487D01*
X140850000Y-116492815D01*
X140558889Y-116521487D01*
X140278966Y-116606401D01*
X140020986Y-116744294D01*
X139794866Y-116929866D01*
X139609294Y-117155987D01*
X139600000Y-117173374D01*
X139590706Y-117155986D01*
X139405134Y-116929866D01*
X139179013Y-116744294D01*
X138921033Y-116606401D01*
X138641110Y-116521487D01*
X138350000Y-116492815D01*
X138058889Y-116521487D01*
X137778966Y-116606401D01*
X137520986Y-116744294D01*
X137294866Y-116929866D01*
X137109294Y-117155987D01*
X137095538Y-117181722D01*
X136939049Y-116975571D01*
X136721193Y-116782504D01*
X136469858Y-116635648D01*
X136206890Y-116543524D01*
X135977000Y-116664845D01*
X135723000Y-116664845D01*
X135493110Y-116543524D01*
X135230142Y-116635648D01*
X134978807Y-116782504D01*
X134760951Y-116975571D01*
X134744714Y-116996961D01*
X134688405Y-116891614D01*
X134577962Y-116757038D01*
X134443386Y-116646595D01*
X134289850Y-116564528D01*
X134123254Y-116513992D01*
X133950000Y-116496928D01*
X132750000Y-116496928D01*
X132576746Y-116513992D01*
X132410150Y-116564528D01*
X132256614Y-116646595D01*
X132122038Y-116757038D01*
X132011595Y-116891614D01*
X131929528Y-117045150D01*
X131878992Y-117211746D01*
X131861928Y-117385000D01*
X130302000Y-117385000D01*
X130302000Y-108495000D01*
X131861928Y-108495000D01*
X131861928Y-109945000D01*
X131878992Y-110118254D01*
X131929528Y-110284850D01*
X132011595Y-110438386D01*
X132122038Y-110572962D01*
X132256614Y-110683405D01*
X132410150Y-110765472D01*
X132576746Y-110816008D01*
X132750000Y-110833072D01*
X133950000Y-110833072D01*
X134123254Y-110816008D01*
X134289850Y-110765472D01*
X134443386Y-110683405D01*
X134577962Y-110572962D01*
X134688405Y-110438386D01*
X134744714Y-110333039D01*
X134760951Y-110354429D01*
X134978807Y-110547496D01*
X135230142Y-110694352D01*
X135493110Y-110786476D01*
X135723000Y-110665155D01*
X135723000Y-109347000D01*
X135703000Y-109347000D01*
X135703000Y-109093000D01*
X135723000Y-109093000D01*
X135723000Y-107774845D01*
X135977000Y-107774845D01*
X135977000Y-109093000D01*
X135997000Y-109093000D01*
X135997000Y-109347000D01*
X135977000Y-109347000D01*
X135977000Y-110665155D01*
X136206890Y-110786476D01*
X136469858Y-110694352D01*
X136721193Y-110547496D01*
X136939049Y-110354429D01*
X137095538Y-110148278D01*
X137109294Y-110174014D01*
X137294866Y-110400134D01*
X137520987Y-110585706D01*
X137778967Y-110723599D01*
X138058890Y-110808513D01*
X138350000Y-110837185D01*
X138641111Y-110808513D01*
X138921034Y-110723599D01*
X139179014Y-110585706D01*
X139405134Y-110400134D01*
X139590706Y-110174014D01*
X139600000Y-110156626D01*
X139609294Y-110174014D01*
X139794866Y-110400134D01*
X140020987Y-110585706D01*
X140278967Y-110723599D01*
X140558890Y-110808513D01*
X140850000Y-110837185D01*
X141141111Y-110808513D01*
X141421034Y-110723599D01*
X141679014Y-110585706D01*
X141905134Y-110400134D01*
X142090706Y-110174014D01*
X142228599Y-109916033D01*
X142313513Y-109636110D01*
X142335000Y-109417949D01*
X142335000Y-109022050D01*
X142313513Y-108803889D01*
X142228599Y-108523966D01*
X142090706Y-108265986D01*
X141905134Y-108039866D01*
X141679013Y-107854294D01*
X141421033Y-107716401D01*
X141141110Y-107631487D01*
X140850000Y-107602815D01*
X140558889Y-107631487D01*
X140278966Y-107716401D01*
X140020986Y-107854294D01*
X139794866Y-108039866D01*
X139609294Y-108265987D01*
X139600000Y-108283374D01*
X139590706Y-108265986D01*
X139405134Y-108039866D01*
X139179013Y-107854294D01*
X138921033Y-107716401D01*
X138641110Y-107631487D01*
X138350000Y-107602815D01*
X138058889Y-107631487D01*
X137778966Y-107716401D01*
X137520986Y-107854294D01*
X137294866Y-108039866D01*
X137109294Y-108265987D01*
X137095538Y-108291722D01*
X136939049Y-108085571D01*
X136721193Y-107892504D01*
X136469858Y-107745648D01*
X136206890Y-107653524D01*
X135977000Y-107774845D01*
X135723000Y-107774845D01*
X135493110Y-107653524D01*
X135230142Y-107745648D01*
X134978807Y-107892504D01*
X134760951Y-108085571D01*
X134744714Y-108106961D01*
X134688405Y-108001614D01*
X134577962Y-107867038D01*
X134443386Y-107756595D01*
X134289850Y-107674528D01*
X134123254Y-107623992D01*
X133950000Y-107606928D01*
X132750000Y-107606928D01*
X132576746Y-107623992D01*
X132410150Y-107674528D01*
X132256614Y-107756595D01*
X132122038Y-107867038D01*
X132011595Y-108001614D01*
X131929528Y-108155150D01*
X131878992Y-108321746D01*
X131861928Y-108495000D01*
X130302000Y-108495000D01*
X130302000Y-102647050D01*
X134445000Y-102647050D01*
X134445000Y-103092949D01*
X134466487Y-103311110D01*
X134551401Y-103591033D01*
X134689294Y-103849013D01*
X134874866Y-104075134D01*
X135100986Y-104260706D01*
X135358966Y-104398599D01*
X135638889Y-104483513D01*
X135930000Y-104512185D01*
X136221110Y-104483513D01*
X136501033Y-104398599D01*
X136759013Y-104260706D01*
X136985134Y-104075134D01*
X137037223Y-104011663D01*
X137091595Y-104113386D01*
X137202038Y-104247962D01*
X137336614Y-104358405D01*
X137490150Y-104440472D01*
X137656746Y-104491008D01*
X137830000Y-104508072D01*
X139030000Y-104508072D01*
X139203254Y-104491008D01*
X139369850Y-104440472D01*
X139523386Y-104358405D01*
X139657962Y-104247962D01*
X139768405Y-104113386D01*
X139850472Y-103959850D01*
X139901008Y-103793254D01*
X139918072Y-103620000D01*
X139918072Y-102120000D01*
X139901008Y-101946746D01*
X139850472Y-101780150D01*
X139768405Y-101626614D01*
X139657962Y-101492038D01*
X139523386Y-101381595D01*
X139369850Y-101299528D01*
X139203254Y-101248992D01*
X139030000Y-101231928D01*
X137830000Y-101231928D01*
X137656746Y-101248992D01*
X137490150Y-101299528D01*
X137336614Y-101381595D01*
X137202038Y-101492038D01*
X137091595Y-101626614D01*
X137037223Y-101728337D01*
X136985134Y-101664866D01*
X136759014Y-101479294D01*
X136501034Y-101341401D01*
X136221111Y-101256487D01*
X135930000Y-101227815D01*
X135638890Y-101256487D01*
X135358967Y-101341401D01*
X135100987Y-101479294D01*
X134874866Y-101664866D01*
X134689294Y-101890986D01*
X134551401Y-102148966D01*
X134466487Y-102428889D01*
X134445000Y-102647050D01*
X130302000Y-102647050D01*
X130302000Y-93255000D01*
X133131928Y-93255000D01*
X133131928Y-94705000D01*
X133148992Y-94878254D01*
X133199528Y-95044850D01*
X133281595Y-95198386D01*
X133392038Y-95332962D01*
X133526614Y-95443405D01*
X133680150Y-95525472D01*
X133846746Y-95576008D01*
X134020000Y-95593072D01*
X135220000Y-95593072D01*
X135393254Y-95576008D01*
X135559850Y-95525472D01*
X135713386Y-95443405D01*
X135847962Y-95332962D01*
X135958405Y-95198386D01*
X136014714Y-95093039D01*
X136030951Y-95114429D01*
X136248807Y-95307496D01*
X136500142Y-95454352D01*
X136763110Y-95546476D01*
X136993000Y-95425155D01*
X136993000Y-94107000D01*
X136973000Y-94107000D01*
X136973000Y-93853000D01*
X136993000Y-93853000D01*
X136993000Y-92534845D01*
X137247000Y-92534845D01*
X137247000Y-93853000D01*
X137267000Y-93853000D01*
X137267000Y-94107000D01*
X137247000Y-94107000D01*
X137247000Y-95425155D01*
X137476890Y-95546476D01*
X137739858Y-95454352D01*
X137991193Y-95307496D01*
X138209049Y-95114429D01*
X138365538Y-94908278D01*
X138379294Y-94934014D01*
X138564866Y-95160134D01*
X138790987Y-95345706D01*
X139048967Y-95483599D01*
X139328890Y-95568513D01*
X139620000Y-95597185D01*
X139888455Y-95570744D01*
X141466374Y-97148664D01*
X141495656Y-97184344D01*
X141638028Y-97301186D01*
X141800460Y-97388007D01*
X141923243Y-97425253D01*
X141976707Y-97441471D01*
X141995110Y-97443283D01*
X142114068Y-97455000D01*
X142114074Y-97455000D01*
X142159999Y-97459523D01*
X142205924Y-97455000D01*
X152575604Y-97455000D01*
X152755241Y-97634637D01*
X152987759Y-97790000D01*
X152755241Y-97945363D01*
X152555363Y-98145241D01*
X152398320Y-98380273D01*
X152290147Y-98641426D01*
X152235000Y-98918665D01*
X152235000Y-99201335D01*
X152290147Y-99478574D01*
X152398320Y-99739727D01*
X152555363Y-99974759D01*
X152755241Y-100174637D01*
X152987759Y-100330000D01*
X152755241Y-100485363D01*
X152555363Y-100685241D01*
X152398320Y-100920273D01*
X152290147Y-101181426D01*
X152235000Y-101458665D01*
X152235000Y-101741335D01*
X152290147Y-102018574D01*
X152398320Y-102279727D01*
X152555363Y-102514759D01*
X152755241Y-102714637D01*
X152987759Y-102870000D01*
X152755241Y-103025363D01*
X152555363Y-103225241D01*
X152398320Y-103460273D01*
X152290147Y-103721426D01*
X152235000Y-103998665D01*
X152235000Y-104281335D01*
X152290147Y-104558574D01*
X152398320Y-104819727D01*
X152555363Y-105054759D01*
X152755241Y-105254637D01*
X152987759Y-105410000D01*
X152755241Y-105565363D01*
X152555363Y-105765241D01*
X152398320Y-106000273D01*
X152290147Y-106261426D01*
X152235000Y-106538665D01*
X152235000Y-106821335D01*
X152290147Y-107098574D01*
X152398320Y-107359727D01*
X152555363Y-107594759D01*
X152755241Y-107794637D01*
X152987759Y-107950000D01*
X152755241Y-108105363D01*
X152555363Y-108305241D01*
X152398320Y-108540273D01*
X152290147Y-108801426D01*
X152235000Y-109078665D01*
X152235000Y-109361335D01*
X152290147Y-109638574D01*
X152398320Y-109899727D01*
X152555363Y-110134759D01*
X152755241Y-110334637D01*
X152987759Y-110490000D01*
X152755241Y-110645363D01*
X152555363Y-110845241D01*
X152398320Y-111080273D01*
X152290147Y-111341426D01*
X152235000Y-111618665D01*
X152235000Y-111901335D01*
X152290147Y-112178574D01*
X152398320Y-112439727D01*
X152555363Y-112674759D01*
X152755241Y-112874637D01*
X152987759Y-113030000D01*
X152755241Y-113185363D01*
X152555363Y-113385241D01*
X152398320Y-113620273D01*
X152290147Y-113881426D01*
X152235000Y-114158665D01*
X152235000Y-114441335D01*
X152290147Y-114718574D01*
X152398320Y-114979727D01*
X152555363Y-115214759D01*
X152755241Y-115414637D01*
X152987759Y-115570000D01*
X152755241Y-115725363D01*
X152555363Y-115925241D01*
X152398320Y-116160273D01*
X152290147Y-116421426D01*
X152235000Y-116698665D01*
X152235000Y-116981335D01*
X152290147Y-117258574D01*
X152398320Y-117519727D01*
X152555363Y-117754759D01*
X152755241Y-117954637D01*
X152987759Y-118110000D01*
X152755241Y-118265363D01*
X152555363Y-118465241D01*
X152398320Y-118700273D01*
X152290147Y-118961426D01*
X152235000Y-119238665D01*
X152235000Y-119521335D01*
X152290147Y-119798574D01*
X152398320Y-120059727D01*
X152555363Y-120294759D01*
X152755241Y-120494637D01*
X152987759Y-120650000D01*
X152755241Y-120805363D01*
X152555363Y-121005241D01*
X152398320Y-121240273D01*
X152290147Y-121501426D01*
X152235000Y-121778665D01*
X152235000Y-122061335D01*
X152290147Y-122338574D01*
X152398320Y-122599727D01*
X152555363Y-122834759D01*
X152755241Y-123034637D01*
X152987759Y-123190000D01*
X152755241Y-123345363D01*
X152555363Y-123545241D01*
X152398320Y-123780273D01*
X152290147Y-124041426D01*
X152235000Y-124318665D01*
X152235000Y-124601335D01*
X152290147Y-124878574D01*
X152398320Y-125139727D01*
X152555363Y-125374759D01*
X152755241Y-125574637D01*
X152987759Y-125730000D01*
X152755241Y-125885363D01*
X152555363Y-126085241D01*
X152398320Y-126320273D01*
X152290147Y-126581426D01*
X152235000Y-126858665D01*
X152235000Y-127141335D01*
X152290147Y-127418574D01*
X152398320Y-127679727D01*
X152555363Y-127914759D01*
X152755241Y-128114637D01*
X152987759Y-128270000D01*
X152755241Y-128425363D01*
X152555363Y-128625241D01*
X152398320Y-128860273D01*
X152290147Y-129121426D01*
X152235000Y-129398665D01*
X152235000Y-129681335D01*
X152290147Y-129958574D01*
X152398320Y-130219727D01*
X152555363Y-130454759D01*
X152755241Y-130654637D01*
X152987759Y-130810000D01*
X152755241Y-130965363D01*
X152555363Y-131165241D01*
X152398320Y-131400273D01*
X152290147Y-131661426D01*
X152235000Y-131938665D01*
X152235000Y-132221335D01*
X152290147Y-132498574D01*
X152398320Y-132759727D01*
X152555363Y-132994759D01*
X152755241Y-133194637D01*
X152987759Y-133350000D01*
X152755241Y-133505363D01*
X152555363Y-133705241D01*
X152398320Y-133940273D01*
X152290147Y-134201426D01*
X152235000Y-134478665D01*
X152235000Y-134761335D01*
X152290147Y-135038574D01*
X152398320Y-135299727D01*
X152555363Y-135534759D01*
X152755241Y-135734637D01*
X152987759Y-135890000D01*
X152755241Y-136045363D01*
X152555363Y-136245241D01*
X152398320Y-136480273D01*
X152290147Y-136741426D01*
X152235000Y-137018665D01*
X152235000Y-137301335D01*
X152290147Y-137578574D01*
X152398320Y-137839727D01*
X152555363Y-138074759D01*
X152755241Y-138274637D01*
X152987759Y-138430000D01*
X152755241Y-138585363D01*
X152555363Y-138785241D01*
X152398320Y-139020273D01*
X152290147Y-139281426D01*
X152235000Y-139558665D01*
X152235000Y-139841335D01*
X152290147Y-140118574D01*
X152398320Y-140379727D01*
X152555363Y-140614759D01*
X152755241Y-140814637D01*
X152987759Y-140970000D01*
X152755241Y-141125363D01*
X152555363Y-141325241D01*
X152398320Y-141560273D01*
X152290147Y-141821426D01*
X152235000Y-142098665D01*
X152235000Y-142381335D01*
X152290147Y-142658574D01*
X152398320Y-142919727D01*
X152555363Y-143154759D01*
X152755241Y-143354637D01*
X152987759Y-143510000D01*
X152755241Y-143665363D01*
X152555363Y-143865241D01*
X152398320Y-144100273D01*
X152290147Y-144361426D01*
X152235000Y-144638665D01*
X152235000Y-144921335D01*
X152290147Y-145198574D01*
X152398320Y-145459727D01*
X152555363Y-145694759D01*
X152755241Y-145894637D01*
X152987759Y-146050000D01*
X152755241Y-146205363D01*
X152555363Y-146405241D01*
X152398320Y-146640273D01*
X152290147Y-146901426D01*
X152235000Y-147178665D01*
X152235000Y-147461335D01*
X152290147Y-147738574D01*
X152398320Y-147999727D01*
X152555363Y-148234759D01*
X152755241Y-148434637D01*
X152987759Y-148590000D01*
X152755241Y-148745363D01*
X152555363Y-148945241D01*
X152398320Y-149180273D01*
X152290147Y-149441426D01*
X152235000Y-149718665D01*
X152235000Y-150001335D01*
X152290147Y-150278574D01*
X152398320Y-150539727D01*
X152555363Y-150774759D01*
X152755241Y-150974637D01*
X152990273Y-151131680D01*
X153251426Y-151239853D01*
X153528665Y-151295000D01*
X153811335Y-151295000D01*
X154088574Y-151239853D01*
X154349727Y-151131680D01*
X154584759Y-150974637D01*
X154784637Y-150774759D01*
X154941680Y-150539727D01*
X155049853Y-150278574D01*
X155105000Y-150001335D01*
X155105000Y-149718665D01*
X155049853Y-149441426D01*
X154941680Y-149180273D01*
X154784637Y-148945241D01*
X154584759Y-148745363D01*
X154352241Y-148590000D01*
X154584759Y-148434637D01*
X154784637Y-148234759D01*
X154941680Y-147999727D01*
X155049853Y-147738574D01*
X155105000Y-147461335D01*
X155105000Y-147178665D01*
X155049853Y-146901426D01*
X154941680Y-146640273D01*
X154784637Y-146405241D01*
X154584759Y-146205363D01*
X154352241Y-146050000D01*
X154584759Y-145894637D01*
X154784637Y-145694759D01*
X154941680Y-145459727D01*
X155049853Y-145198574D01*
X155105000Y-144921335D01*
X155105000Y-144638665D01*
X155049853Y-144361426D01*
X154941680Y-144100273D01*
X154784637Y-143865241D01*
X154584759Y-143665363D01*
X154352241Y-143510000D01*
X154584759Y-143354637D01*
X154784637Y-143154759D01*
X154941680Y-142919727D01*
X155049853Y-142658574D01*
X155105000Y-142381335D01*
X155105000Y-142098665D01*
X155049853Y-141821426D01*
X154941680Y-141560273D01*
X154784637Y-141325241D01*
X154584759Y-141125363D01*
X154352241Y-140970000D01*
X154584759Y-140814637D01*
X154784637Y-140614759D01*
X154941680Y-140379727D01*
X155049853Y-140118574D01*
X155105000Y-139841335D01*
X155105000Y-139558665D01*
X155049853Y-139281426D01*
X154941680Y-139020273D01*
X154784637Y-138785241D01*
X154584759Y-138585363D01*
X154352241Y-138430000D01*
X154584759Y-138274637D01*
X154784637Y-138074759D01*
X154941680Y-137839727D01*
X155049853Y-137578574D01*
X155105000Y-137301335D01*
X155105000Y-137018665D01*
X155049853Y-136741426D01*
X154941680Y-136480273D01*
X154784637Y-136245241D01*
X154584759Y-136045363D01*
X154352241Y-135890000D01*
X154584759Y-135734637D01*
X154784637Y-135534759D01*
X154941680Y-135299727D01*
X155049853Y-135038574D01*
X155105000Y-134761335D01*
X155105000Y-134478665D01*
X155049853Y-134201426D01*
X154941680Y-133940273D01*
X154784637Y-133705241D01*
X154584759Y-133505363D01*
X154352241Y-133350000D01*
X154584759Y-133194637D01*
X154784637Y-132994759D01*
X154941680Y-132759727D01*
X155049853Y-132498574D01*
X155105000Y-132221335D01*
X155105000Y-131938665D01*
X155049853Y-131661426D01*
X154941680Y-131400273D01*
X154784637Y-131165241D01*
X154584759Y-130965363D01*
X154352241Y-130810000D01*
X154584759Y-130654637D01*
X154784637Y-130454759D01*
X154941680Y-130219727D01*
X155049853Y-129958574D01*
X155105000Y-129681335D01*
X155105000Y-129398665D01*
X167475000Y-129398665D01*
X167475000Y-129681335D01*
X167530147Y-129958574D01*
X167638320Y-130219727D01*
X167795363Y-130454759D01*
X167995241Y-130654637D01*
X168227759Y-130810000D01*
X167995241Y-130965363D01*
X167795363Y-131165241D01*
X167638320Y-131400273D01*
X167530147Y-131661426D01*
X167475000Y-131938665D01*
X167475000Y-132221335D01*
X167530147Y-132498574D01*
X167638320Y-132759727D01*
X167795363Y-132994759D01*
X167995241Y-133194637D01*
X168227759Y-133350000D01*
X167995241Y-133505363D01*
X167795363Y-133705241D01*
X167638320Y-133940273D01*
X167530147Y-134201426D01*
X167475000Y-134478665D01*
X167475000Y-134761335D01*
X167530147Y-135038574D01*
X167638320Y-135299727D01*
X167795363Y-135534759D01*
X167995241Y-135734637D01*
X168227759Y-135890000D01*
X167995241Y-136045363D01*
X167795363Y-136245241D01*
X167638320Y-136480273D01*
X167530147Y-136741426D01*
X167475000Y-137018665D01*
X167475000Y-137301335D01*
X167530147Y-137578574D01*
X167638320Y-137839727D01*
X167795363Y-138074759D01*
X167995241Y-138274637D01*
X168227759Y-138430000D01*
X167995241Y-138585363D01*
X167795363Y-138785241D01*
X167638320Y-139020273D01*
X167530147Y-139281426D01*
X167475000Y-139558665D01*
X167475000Y-139841335D01*
X167530147Y-140118574D01*
X167638320Y-140379727D01*
X167795363Y-140614759D01*
X167995241Y-140814637D01*
X168227759Y-140970000D01*
X167995241Y-141125363D01*
X167795363Y-141325241D01*
X167638320Y-141560273D01*
X167530147Y-141821426D01*
X167475000Y-142098665D01*
X167475000Y-142381335D01*
X167530147Y-142658574D01*
X167638320Y-142919727D01*
X167795363Y-143154759D01*
X167995241Y-143354637D01*
X168227759Y-143510000D01*
X167995241Y-143665363D01*
X167795363Y-143865241D01*
X167638320Y-144100273D01*
X167530147Y-144361426D01*
X167475000Y-144638665D01*
X167475000Y-144921335D01*
X167530147Y-145198574D01*
X167638320Y-145459727D01*
X167795363Y-145694759D01*
X167995241Y-145894637D01*
X168227759Y-146050000D01*
X167995241Y-146205363D01*
X167795363Y-146405241D01*
X167638320Y-146640273D01*
X167530147Y-146901426D01*
X167475000Y-147178665D01*
X167475000Y-147461335D01*
X167530147Y-147738574D01*
X167638320Y-147999727D01*
X167795363Y-148234759D01*
X167995241Y-148434637D01*
X168227759Y-148590000D01*
X167995241Y-148745363D01*
X167795363Y-148945241D01*
X167638320Y-149180273D01*
X167530147Y-149441426D01*
X167475000Y-149718665D01*
X167475000Y-150001335D01*
X167530147Y-150278574D01*
X167638320Y-150539727D01*
X167795363Y-150774759D01*
X167995241Y-150974637D01*
X168230273Y-151131680D01*
X168491426Y-151239853D01*
X168768665Y-151295000D01*
X169051335Y-151295000D01*
X169328574Y-151239853D01*
X169589727Y-151131680D01*
X169824759Y-150974637D01*
X170024637Y-150774759D01*
X170181680Y-150539727D01*
X170289853Y-150278574D01*
X170345000Y-150001335D01*
X170345000Y-149718665D01*
X170289853Y-149441426D01*
X170181680Y-149180273D01*
X170024637Y-148945241D01*
X169824759Y-148745363D01*
X169592241Y-148590000D01*
X169824759Y-148434637D01*
X170024637Y-148234759D01*
X170181680Y-147999727D01*
X170289853Y-147738574D01*
X170345000Y-147461335D01*
X170345000Y-147178665D01*
X170289853Y-146901426D01*
X170181680Y-146640273D01*
X170024637Y-146405241D01*
X169824759Y-146205363D01*
X169592241Y-146050000D01*
X169824759Y-145894637D01*
X170024637Y-145694759D01*
X170181680Y-145459727D01*
X170289853Y-145198574D01*
X170345000Y-144921335D01*
X170345000Y-144638665D01*
X170344021Y-144633740D01*
X178855000Y-144633740D01*
X178855000Y-144926260D01*
X178912068Y-145213158D01*
X179024010Y-145483411D01*
X179186525Y-145726632D01*
X179393368Y-145933475D01*
X179636589Y-146095990D01*
X179906842Y-146207932D01*
X180193740Y-146265000D01*
X180486260Y-146265000D01*
X180773158Y-146207932D01*
X181043411Y-146095990D01*
X181286632Y-145933475D01*
X181493475Y-145726632D01*
X181610000Y-145552240D01*
X181726525Y-145726632D01*
X181933368Y-145933475D01*
X182176589Y-146095990D01*
X182446842Y-146207932D01*
X182733740Y-146265000D01*
X183026260Y-146265000D01*
X183313158Y-146207932D01*
X183583411Y-146095990D01*
X183826632Y-145933475D01*
X183958487Y-145801620D01*
X183980498Y-145874180D01*
X184039463Y-145984494D01*
X184118815Y-146081185D01*
X184215506Y-146160537D01*
X184325820Y-146219502D01*
X184445518Y-146255812D01*
X184570000Y-146268072D01*
X185134250Y-146265000D01*
X185293000Y-146106250D01*
X185293000Y-144907000D01*
X185547000Y-144907000D01*
X185547000Y-146106250D01*
X185705750Y-146265000D01*
X186270000Y-146268072D01*
X186394482Y-146255812D01*
X186514180Y-146219502D01*
X186624494Y-146160537D01*
X186721185Y-146081185D01*
X186800537Y-145984494D01*
X186859502Y-145874180D01*
X186895812Y-145754482D01*
X186908072Y-145630000D01*
X186905000Y-145065750D01*
X186746250Y-144907000D01*
X185547000Y-144907000D01*
X185293000Y-144907000D01*
X185273000Y-144907000D01*
X185273000Y-144653000D01*
X185293000Y-144653000D01*
X185293000Y-143453750D01*
X185547000Y-143453750D01*
X185547000Y-144653000D01*
X186746250Y-144653000D01*
X186905000Y-144494250D01*
X186908072Y-143930000D01*
X186895812Y-143805518D01*
X186859502Y-143685820D01*
X186800537Y-143575506D01*
X186721185Y-143478815D01*
X186624494Y-143399463D01*
X186514180Y-143340498D01*
X186394482Y-143304188D01*
X186270000Y-143291928D01*
X185705750Y-143295000D01*
X185547000Y-143453750D01*
X185293000Y-143453750D01*
X185134250Y-143295000D01*
X184570000Y-143291928D01*
X184445518Y-143304188D01*
X184325820Y-143340498D01*
X184215506Y-143399463D01*
X184118815Y-143478815D01*
X184039463Y-143575506D01*
X183980498Y-143685820D01*
X183958487Y-143758380D01*
X183826632Y-143626525D01*
X183583411Y-143464010D01*
X183313158Y-143352068D01*
X183026260Y-143295000D01*
X182733740Y-143295000D01*
X182446842Y-143352068D01*
X182176589Y-143464010D01*
X181933368Y-143626525D01*
X181726525Y-143833368D01*
X181610000Y-144007760D01*
X181493475Y-143833368D01*
X181286632Y-143626525D01*
X181043411Y-143464010D01*
X180773158Y-143352068D01*
X180486260Y-143295000D01*
X180193740Y-143295000D01*
X179906842Y-143352068D01*
X179636589Y-143464010D01*
X179393368Y-143626525D01*
X179186525Y-143833368D01*
X179024010Y-144076589D01*
X178912068Y-144346842D01*
X178855000Y-144633740D01*
X170344021Y-144633740D01*
X170289853Y-144361426D01*
X170181680Y-144100273D01*
X170024637Y-143865241D01*
X169824759Y-143665363D01*
X169592241Y-143510000D01*
X169824759Y-143354637D01*
X170024637Y-143154759D01*
X170181680Y-142919727D01*
X170289853Y-142658574D01*
X170345000Y-142381335D01*
X170345000Y-142098665D01*
X170289853Y-141821426D01*
X170181680Y-141560273D01*
X170024637Y-141325241D01*
X169824759Y-141125363D01*
X169592241Y-140970000D01*
X169824759Y-140814637D01*
X170024637Y-140614759D01*
X170181680Y-140379727D01*
X170289853Y-140118574D01*
X170345000Y-139841335D01*
X170345000Y-139558665D01*
X170344021Y-139553740D01*
X178855000Y-139553740D01*
X178855000Y-139846260D01*
X178912068Y-140133158D01*
X179024010Y-140403411D01*
X179186525Y-140646632D01*
X179393368Y-140853475D01*
X179636589Y-141015990D01*
X179906842Y-141127932D01*
X180193740Y-141185000D01*
X180486260Y-141185000D01*
X180773158Y-141127932D01*
X181043411Y-141015990D01*
X181286632Y-140853475D01*
X181493475Y-140646632D01*
X181610000Y-140472240D01*
X181726525Y-140646632D01*
X181933368Y-140853475D01*
X182176589Y-141015990D01*
X182446842Y-141127932D01*
X182733740Y-141185000D01*
X183026260Y-141185000D01*
X183313158Y-141127932D01*
X183583411Y-141015990D01*
X183826632Y-140853475D01*
X183958487Y-140721620D01*
X183980498Y-140794180D01*
X184039463Y-140904494D01*
X184118815Y-141001185D01*
X184215506Y-141080537D01*
X184325820Y-141139502D01*
X184445518Y-141175812D01*
X184570000Y-141188072D01*
X185134250Y-141185000D01*
X185293000Y-141026250D01*
X185293000Y-139827000D01*
X185547000Y-139827000D01*
X185547000Y-141026250D01*
X185705750Y-141185000D01*
X186270000Y-141188072D01*
X186394482Y-141175812D01*
X186514180Y-141139502D01*
X186624494Y-141080537D01*
X186721185Y-141001185D01*
X186800537Y-140904494D01*
X186859502Y-140794180D01*
X186895812Y-140674482D01*
X186908072Y-140550000D01*
X186905000Y-139985750D01*
X186746250Y-139827000D01*
X185547000Y-139827000D01*
X185293000Y-139827000D01*
X185273000Y-139827000D01*
X185273000Y-139573000D01*
X185293000Y-139573000D01*
X185293000Y-138373750D01*
X185547000Y-138373750D01*
X185547000Y-139573000D01*
X186746250Y-139573000D01*
X186905000Y-139414250D01*
X186908072Y-138850000D01*
X186895812Y-138725518D01*
X186859502Y-138605820D01*
X186800537Y-138495506D01*
X186721185Y-138398815D01*
X186624494Y-138319463D01*
X186514180Y-138260498D01*
X186394482Y-138224188D01*
X186270000Y-138211928D01*
X185705750Y-138215000D01*
X185547000Y-138373750D01*
X185293000Y-138373750D01*
X185134250Y-138215000D01*
X184570000Y-138211928D01*
X184560885Y-138212826D01*
X184578711Y-138195000D01*
X187909172Y-138195000D01*
X187960000Y-138200006D01*
X188010828Y-138195000D01*
X188010838Y-138195000D01*
X188162895Y-138180024D01*
X188357993Y-138120841D01*
X188537797Y-138024734D01*
X188695396Y-137895396D01*
X188727807Y-137855903D01*
X189925908Y-136657803D01*
X189965396Y-136625396D01*
X190000844Y-136582203D01*
X190094734Y-136467798D01*
X190146104Y-136371691D01*
X190190841Y-136287993D01*
X190250024Y-136092895D01*
X190265000Y-135940838D01*
X190265000Y-135940829D01*
X190270006Y-135890001D01*
X190265000Y-135839173D01*
X190265000Y-134844613D01*
X190323386Y-134813405D01*
X190457962Y-134702962D01*
X190568405Y-134568386D01*
X190650472Y-134414850D01*
X190701008Y-134248254D01*
X190718072Y-134075000D01*
X190718072Y-132625000D01*
X190701008Y-132451746D01*
X190650472Y-132285150D01*
X190568405Y-132131614D01*
X190457962Y-131997038D01*
X190323386Y-131886595D01*
X190169850Y-131804528D01*
X190003254Y-131753992D01*
X189830000Y-131736928D01*
X188630000Y-131736928D01*
X188456746Y-131753992D01*
X188290150Y-131804528D01*
X188136614Y-131886595D01*
X188002038Y-131997038D01*
X187891595Y-132131614D01*
X187835286Y-132236961D01*
X187819049Y-132215571D01*
X187601193Y-132022504D01*
X187349858Y-131875648D01*
X187086890Y-131783524D01*
X186857000Y-131904845D01*
X186857000Y-133223000D01*
X186877000Y-133223000D01*
X186877000Y-133477000D01*
X186857000Y-133477000D01*
X186857000Y-134795155D01*
X187086890Y-134916476D01*
X187349858Y-134824352D01*
X187601193Y-134677496D01*
X187819049Y-134484429D01*
X187835286Y-134463039D01*
X187891595Y-134568386D01*
X188002038Y-134702962D01*
X188136614Y-134813405D01*
X188195001Y-134844613D01*
X188195001Y-135461288D01*
X187531290Y-136125000D01*
X184200827Y-136125000D01*
X184149999Y-136119994D01*
X184099171Y-136125000D01*
X184099162Y-136125000D01*
X183947105Y-136139976D01*
X183752007Y-136199159D01*
X183673713Y-136241008D01*
X183572202Y-136295266D01*
X183454092Y-136392197D01*
X183414604Y-136424604D01*
X183382197Y-136464092D01*
X182184097Y-137662193D01*
X182144604Y-137694604D01*
X182015266Y-137852203D01*
X181919159Y-138032008D01*
X181859976Y-138227106D01*
X181845000Y-138379163D01*
X181845000Y-138379172D01*
X181839994Y-138430000D01*
X181845000Y-138480829D01*
X181845000Y-138634893D01*
X181726525Y-138753368D01*
X181610000Y-138927760D01*
X181493475Y-138753368D01*
X181286632Y-138546525D01*
X181043411Y-138384010D01*
X180773158Y-138272068D01*
X180486260Y-138215000D01*
X180193740Y-138215000D01*
X179906842Y-138272068D01*
X179636589Y-138384010D01*
X179393368Y-138546525D01*
X179186525Y-138753368D01*
X179024010Y-138996589D01*
X178912068Y-139266842D01*
X178855000Y-139553740D01*
X170344021Y-139553740D01*
X170289853Y-139281426D01*
X170181680Y-139020273D01*
X170024637Y-138785241D01*
X169824759Y-138585363D01*
X169592241Y-138430000D01*
X169824759Y-138274637D01*
X170024637Y-138074759D01*
X170181680Y-137839727D01*
X170289853Y-137578574D01*
X170345000Y-137301335D01*
X170345000Y-137018665D01*
X170289853Y-136741426D01*
X170181680Y-136480273D01*
X170024637Y-136245241D01*
X169824759Y-136045363D01*
X169592241Y-135890000D01*
X169824759Y-135734637D01*
X170024637Y-135534759D01*
X170181680Y-135299727D01*
X170289853Y-135038574D01*
X170345000Y-134761335D01*
X170345000Y-134478665D01*
X170289853Y-134201426D01*
X170181680Y-133940273D01*
X170024637Y-133705241D01*
X169824759Y-133505363D01*
X169592241Y-133350000D01*
X169824759Y-133194637D01*
X170024637Y-132994759D01*
X170181680Y-132759727D01*
X170289853Y-132498574D01*
X170345000Y-132221335D01*
X170345000Y-131938665D01*
X170289853Y-131661426D01*
X170181680Y-131400273D01*
X170024637Y-131165241D01*
X169824759Y-130965363D01*
X169592241Y-130810000D01*
X169824759Y-130654637D01*
X170024637Y-130454759D01*
X170181680Y-130219727D01*
X170289853Y-129958574D01*
X170345000Y-129681335D01*
X170345000Y-129398665D01*
X170289853Y-129121426D01*
X170181680Y-128860273D01*
X170024637Y-128625241D01*
X169824759Y-128425363D01*
X169590872Y-128269085D01*
X169651514Y-128236671D01*
X169723097Y-127992702D01*
X168910000Y-127179605D01*
X168096903Y-127992702D01*
X168168486Y-128236671D01*
X168232992Y-128267194D01*
X168230273Y-128268320D01*
X167995241Y-128425363D01*
X167795363Y-128625241D01*
X167638320Y-128860273D01*
X167530147Y-129121426D01*
X167475000Y-129398665D01*
X155105000Y-129398665D01*
X155049853Y-129121426D01*
X154941680Y-128860273D01*
X154784637Y-128625241D01*
X154584759Y-128425363D01*
X154352241Y-128270000D01*
X154584759Y-128114637D01*
X154784637Y-127914759D01*
X154941680Y-127679727D01*
X155049853Y-127418574D01*
X155105000Y-127141335D01*
X155105000Y-127070512D01*
X167469783Y-127070512D01*
X167511213Y-127350130D01*
X167606397Y-127616292D01*
X167673329Y-127741514D01*
X167917298Y-127813097D01*
X168730395Y-127000000D01*
X169089605Y-127000000D01*
X169902702Y-127813097D01*
X170146671Y-127741514D01*
X170267571Y-127486004D01*
X170336300Y-127211816D01*
X170350217Y-126929488D01*
X170308787Y-126649870D01*
X170213603Y-126383708D01*
X170146671Y-126258486D01*
X169902702Y-126186903D01*
X169089605Y-127000000D01*
X168730395Y-127000000D01*
X167917298Y-126186903D01*
X167673329Y-126258486D01*
X167552429Y-126513996D01*
X167483700Y-126788184D01*
X167469783Y-127070512D01*
X155105000Y-127070512D01*
X155105000Y-126858665D01*
X155049853Y-126581426D01*
X154941680Y-126320273D01*
X154784637Y-126085241D01*
X154584759Y-125885363D01*
X154352241Y-125730000D01*
X154584759Y-125574637D01*
X154784637Y-125374759D01*
X154941680Y-125139727D01*
X155049853Y-124878574D01*
X155105000Y-124601335D01*
X155105000Y-124318665D01*
X155049853Y-124041426D01*
X154941680Y-123780273D01*
X154784637Y-123545241D01*
X154584759Y-123345363D01*
X154352241Y-123190000D01*
X154584759Y-123034637D01*
X154784637Y-122834759D01*
X154941680Y-122599727D01*
X155049853Y-122338574D01*
X155105000Y-122061335D01*
X155105000Y-121778665D01*
X155049853Y-121501426D01*
X154941680Y-121240273D01*
X154784637Y-121005241D01*
X154584759Y-120805363D01*
X154352241Y-120650000D01*
X154584759Y-120494637D01*
X154784637Y-120294759D01*
X154941680Y-120059727D01*
X155049853Y-119798574D01*
X155105000Y-119521335D01*
X155105000Y-119238665D01*
X155049853Y-118961426D01*
X154941680Y-118700273D01*
X154784637Y-118465241D01*
X154584759Y-118265363D01*
X154352241Y-118110000D01*
X154584759Y-117954637D01*
X154784637Y-117754759D01*
X154941680Y-117519727D01*
X155049853Y-117258574D01*
X155105000Y-116981335D01*
X155105000Y-116698665D01*
X155049853Y-116421426D01*
X154941680Y-116160273D01*
X154784637Y-115925241D01*
X154584759Y-115725363D01*
X154352241Y-115570000D01*
X154584759Y-115414637D01*
X154784637Y-115214759D01*
X154941680Y-114979727D01*
X155049853Y-114718574D01*
X155105000Y-114441335D01*
X155105000Y-114158665D01*
X155049853Y-113881426D01*
X154941680Y-113620273D01*
X154784637Y-113385241D01*
X154584759Y-113185363D01*
X154352241Y-113030000D01*
X154584759Y-112874637D01*
X154784637Y-112674759D01*
X154941680Y-112439727D01*
X155049853Y-112178574D01*
X155105000Y-111901335D01*
X155105000Y-111618665D01*
X155049853Y-111341426D01*
X154941680Y-111080273D01*
X154784637Y-110845241D01*
X154584759Y-110645363D01*
X154352241Y-110490000D01*
X154584759Y-110334637D01*
X154784637Y-110134759D01*
X154941680Y-109899727D01*
X155049853Y-109638574D01*
X155105000Y-109361335D01*
X155105000Y-109078665D01*
X155049853Y-108801426D01*
X154941680Y-108540273D01*
X154784637Y-108305241D01*
X154584759Y-108105363D01*
X154352241Y-107950000D01*
X154584759Y-107794637D01*
X154784637Y-107594759D01*
X154941680Y-107359727D01*
X155049853Y-107098574D01*
X155105000Y-106821335D01*
X155105000Y-106538665D01*
X155049853Y-106261426D01*
X154941680Y-106000273D01*
X154784637Y-105765241D01*
X154584759Y-105565363D01*
X154352241Y-105410000D01*
X154584759Y-105254637D01*
X154784637Y-105054759D01*
X154941680Y-104819727D01*
X155049853Y-104558574D01*
X155105000Y-104281335D01*
X155105000Y-103998665D01*
X155049853Y-103721426D01*
X154941680Y-103460273D01*
X154784637Y-103225241D01*
X154584759Y-103025363D01*
X154352241Y-102870000D01*
X154584759Y-102714637D01*
X154784637Y-102514759D01*
X154941680Y-102279727D01*
X155049853Y-102018574D01*
X155105000Y-101741335D01*
X155105000Y-101458665D01*
X155049853Y-101181426D01*
X154941680Y-100920273D01*
X154784637Y-100685241D01*
X154584759Y-100485363D01*
X154352241Y-100330000D01*
X154584759Y-100174637D01*
X154784637Y-99974759D01*
X154941680Y-99739727D01*
X155049853Y-99478574D01*
X155105000Y-99201335D01*
X155105000Y-98918665D01*
X155049853Y-98641426D01*
X154941680Y-98380273D01*
X154784637Y-98145241D01*
X154584759Y-97945363D01*
X154352241Y-97790000D01*
X154584759Y-97634637D01*
X154784637Y-97434759D01*
X154941680Y-97199727D01*
X155049853Y-96938574D01*
X155105000Y-96661335D01*
X155105000Y-96378665D01*
X167475000Y-96378665D01*
X167475000Y-96661335D01*
X167530147Y-96938574D01*
X167638320Y-97199727D01*
X167795363Y-97434759D01*
X167995241Y-97634637D01*
X168227759Y-97790000D01*
X167995241Y-97945363D01*
X167795363Y-98145241D01*
X167638320Y-98380273D01*
X167530147Y-98641426D01*
X167475000Y-98918665D01*
X167475000Y-99201335D01*
X167530147Y-99478574D01*
X167638320Y-99739727D01*
X167795363Y-99974759D01*
X167995241Y-100174637D01*
X168227759Y-100330000D01*
X167995241Y-100485363D01*
X167795363Y-100685241D01*
X167638320Y-100920273D01*
X167530147Y-101181426D01*
X167475000Y-101458665D01*
X167475000Y-101741335D01*
X167530147Y-102018574D01*
X167638320Y-102279727D01*
X167795363Y-102514759D01*
X167995241Y-102714637D01*
X168227759Y-102870000D01*
X167995241Y-103025363D01*
X167795363Y-103225241D01*
X167638320Y-103460273D01*
X167530147Y-103721426D01*
X167475000Y-103998665D01*
X167475000Y-104281335D01*
X167530147Y-104558574D01*
X167638320Y-104819727D01*
X167795363Y-105054759D01*
X167995241Y-105254637D01*
X168227759Y-105410000D01*
X167995241Y-105565363D01*
X167795363Y-105765241D01*
X167638320Y-106000273D01*
X167530147Y-106261426D01*
X167475000Y-106538665D01*
X167475000Y-106821335D01*
X167530147Y-107098574D01*
X167638320Y-107359727D01*
X167795363Y-107594759D01*
X167995241Y-107794637D01*
X168227759Y-107950000D01*
X167995241Y-108105363D01*
X167795363Y-108305241D01*
X167638320Y-108540273D01*
X167530147Y-108801426D01*
X167475000Y-109078665D01*
X167475000Y-109361335D01*
X167530147Y-109638574D01*
X167638320Y-109899727D01*
X167795363Y-110134759D01*
X167995241Y-110334637D01*
X168227759Y-110490000D01*
X167995241Y-110645363D01*
X167795363Y-110845241D01*
X167638320Y-111080273D01*
X167530147Y-111341426D01*
X167475000Y-111618665D01*
X167475000Y-111901335D01*
X167530147Y-112178574D01*
X167638320Y-112439727D01*
X167795363Y-112674759D01*
X167995241Y-112874637D01*
X168227759Y-113030000D01*
X167995241Y-113185363D01*
X167795363Y-113385241D01*
X167638320Y-113620273D01*
X167530147Y-113881426D01*
X167475000Y-114158665D01*
X167475000Y-114441335D01*
X167530147Y-114718574D01*
X167638320Y-114979727D01*
X167795363Y-115214759D01*
X167995241Y-115414637D01*
X168227759Y-115570000D01*
X167995241Y-115725363D01*
X167795363Y-115925241D01*
X167638320Y-116160273D01*
X167530147Y-116421426D01*
X167475000Y-116698665D01*
X167475000Y-116981335D01*
X167530147Y-117258574D01*
X167638320Y-117519727D01*
X167795363Y-117754759D01*
X167995241Y-117954637D01*
X168227759Y-118110000D01*
X167995241Y-118265363D01*
X167795363Y-118465241D01*
X167638320Y-118700273D01*
X167530147Y-118961426D01*
X167475000Y-119238665D01*
X167475000Y-119521335D01*
X167530147Y-119798574D01*
X167638320Y-120059727D01*
X167795363Y-120294759D01*
X167995241Y-120494637D01*
X168227759Y-120650000D01*
X167995241Y-120805363D01*
X167795363Y-121005241D01*
X167638320Y-121240273D01*
X167530147Y-121501426D01*
X167475000Y-121778665D01*
X167475000Y-122061335D01*
X167530147Y-122338574D01*
X167638320Y-122599727D01*
X167795363Y-122834759D01*
X167995241Y-123034637D01*
X168227759Y-123190000D01*
X167995241Y-123345363D01*
X167795363Y-123545241D01*
X167638320Y-123780273D01*
X167530147Y-124041426D01*
X167475000Y-124318665D01*
X167475000Y-124601335D01*
X167530147Y-124878574D01*
X167638320Y-125139727D01*
X167795363Y-125374759D01*
X167995241Y-125574637D01*
X168229128Y-125730915D01*
X168168486Y-125763329D01*
X168096903Y-126007298D01*
X168910000Y-126820395D01*
X169723097Y-126007298D01*
X169651514Y-125763329D01*
X169587008Y-125732806D01*
X169589727Y-125731680D01*
X169824759Y-125574637D01*
X170024637Y-125374759D01*
X170181680Y-125139727D01*
X170289853Y-124878574D01*
X170345000Y-124601335D01*
X170345000Y-124318665D01*
X170289853Y-124041426D01*
X170181680Y-123780273D01*
X170024637Y-123545241D01*
X169824759Y-123345363D01*
X169592241Y-123190000D01*
X169824759Y-123034637D01*
X170024637Y-122834759D01*
X170181680Y-122599727D01*
X170289853Y-122338574D01*
X170345000Y-122061335D01*
X170345000Y-121778665D01*
X170289853Y-121501426D01*
X170181680Y-121240273D01*
X170024637Y-121005241D01*
X169824759Y-120805363D01*
X169592241Y-120650000D01*
X169824759Y-120494637D01*
X170024637Y-120294759D01*
X170181680Y-120059727D01*
X170289853Y-119798574D01*
X170345000Y-119521335D01*
X170345000Y-119238665D01*
X170289853Y-118961426D01*
X170181680Y-118700273D01*
X170024637Y-118465241D01*
X169824759Y-118265363D01*
X169592241Y-118110000D01*
X169824759Y-117954637D01*
X169904396Y-117875000D01*
X170386290Y-117875000D01*
X171685001Y-119173712D01*
X171685000Y-128168061D01*
X171685000Y-128371939D01*
X171694969Y-128422058D01*
X171699976Y-128472894D01*
X171714804Y-128521774D01*
X171724774Y-128571898D01*
X171744332Y-128619116D01*
X171759159Y-128667992D01*
X171783237Y-128713039D01*
X171802795Y-128760256D01*
X171831186Y-128802747D01*
X171855266Y-128847797D01*
X171887672Y-128887284D01*
X171916063Y-128929774D01*
X171952197Y-128965908D01*
X171984604Y-129005396D01*
X172024092Y-129037803D01*
X172060226Y-129073937D01*
X172102716Y-129102328D01*
X172142203Y-129134734D01*
X172187254Y-129158814D01*
X172229744Y-129187205D01*
X172276958Y-129206762D01*
X172322007Y-129230841D01*
X172370887Y-129245669D01*
X172418102Y-129265226D01*
X172468223Y-129275196D01*
X172517105Y-129290024D01*
X172567943Y-129295031D01*
X172618061Y-129305000D01*
X172669162Y-129305000D01*
X172720000Y-129310007D01*
X172770838Y-129305000D01*
X172821939Y-129305000D01*
X172872058Y-129295031D01*
X172922894Y-129290024D01*
X172971774Y-129275196D01*
X173021898Y-129265226D01*
X173069116Y-129245668D01*
X173117992Y-129230841D01*
X173163039Y-129206763D01*
X173210256Y-129187205D01*
X173252747Y-129158814D01*
X173297797Y-129134734D01*
X173337284Y-129102328D01*
X173379774Y-129073937D01*
X173415908Y-129037803D01*
X173455396Y-129005396D01*
X173487803Y-128965908D01*
X173523937Y-128929774D01*
X173552328Y-128887284D01*
X173584734Y-128847797D01*
X173608814Y-128802746D01*
X173637205Y-128760256D01*
X173656762Y-128713042D01*
X173680841Y-128667993D01*
X173695669Y-128619113D01*
X173715226Y-128571898D01*
X173725196Y-128521777D01*
X173740024Y-128472895D01*
X173745031Y-128422057D01*
X173755000Y-128371939D01*
X173755000Y-118795835D01*
X173760007Y-118745000D01*
X173754373Y-118687797D01*
X173740024Y-118542105D01*
X173680841Y-118347007D01*
X173612876Y-118219853D01*
X173584734Y-118167202D01*
X173487803Y-118049092D01*
X173455396Y-118009604D01*
X173415908Y-117977197D01*
X171582807Y-116144097D01*
X171550396Y-116104604D01*
X171392797Y-115975266D01*
X171212993Y-115879159D01*
X171017895Y-115819976D01*
X170865838Y-115805000D01*
X170865828Y-115805000D01*
X170815000Y-115799994D01*
X170764172Y-115805000D01*
X169904396Y-115805000D01*
X169824759Y-115725363D01*
X169592241Y-115570000D01*
X169824759Y-115414637D01*
X169904396Y-115335000D01*
X171021290Y-115335000D01*
X174225000Y-118538711D01*
X174225001Y-132029162D01*
X174219994Y-132080000D01*
X174239977Y-132282895D01*
X174299160Y-132477993D01*
X174395266Y-132657797D01*
X174489157Y-132772203D01*
X174524605Y-132815396D01*
X174564092Y-132847802D01*
X175762197Y-134045908D01*
X175794604Y-134085396D01*
X175834092Y-134117803D01*
X175952202Y-134214734D01*
X176022989Y-134252570D01*
X176132007Y-134310841D01*
X176327105Y-134370024D01*
X176479162Y-134385000D01*
X176479171Y-134385000D01*
X176529999Y-134390006D01*
X176580827Y-134385000D01*
X180555758Y-134385000D01*
X180674866Y-134530134D01*
X180900986Y-134715706D01*
X181158966Y-134853599D01*
X181438889Y-134938513D01*
X181730000Y-134967185D01*
X182021110Y-134938513D01*
X182301033Y-134853599D01*
X182559013Y-134715706D01*
X182785134Y-134530134D01*
X182970706Y-134304014D01*
X182980000Y-134286626D01*
X182989294Y-134304013D01*
X183174866Y-134530134D01*
X183400986Y-134715706D01*
X183658966Y-134853599D01*
X183938889Y-134938513D01*
X184230000Y-134967185D01*
X184521110Y-134938513D01*
X184801033Y-134853599D01*
X185059013Y-134715706D01*
X185285134Y-134530134D01*
X185470706Y-134304014D01*
X185484462Y-134278278D01*
X185640951Y-134484429D01*
X185858807Y-134677496D01*
X186110142Y-134824352D01*
X186373110Y-134916476D01*
X186603000Y-134795155D01*
X186603000Y-133477000D01*
X186583000Y-133477000D01*
X186583000Y-133223000D01*
X186603000Y-133223000D01*
X186603000Y-131904845D01*
X186373110Y-131783524D01*
X186110142Y-131875648D01*
X185858807Y-132022504D01*
X185640951Y-132215571D01*
X185484462Y-132421722D01*
X185470706Y-132395986D01*
X185285134Y-132169866D01*
X185059014Y-131984294D01*
X184801034Y-131846401D01*
X184521111Y-131761487D01*
X184230000Y-131732815D01*
X183938890Y-131761487D01*
X183658967Y-131846401D01*
X183400987Y-131984294D01*
X183174866Y-132169866D01*
X182989294Y-132395986D01*
X182980000Y-132413374D01*
X182970706Y-132395986D01*
X182785134Y-132169866D01*
X182559014Y-131984294D01*
X182301034Y-131846401D01*
X182021111Y-131761487D01*
X181730000Y-131732815D01*
X181438890Y-131761487D01*
X181158967Y-131846401D01*
X180900987Y-131984294D01*
X180674866Y-132169866D01*
X180555758Y-132315000D01*
X176958711Y-132315000D01*
X176295000Y-131651290D01*
X176295000Y-124262050D01*
X180245000Y-124262050D01*
X180245000Y-124657949D01*
X180266487Y-124876110D01*
X180351401Y-125156033D01*
X180489294Y-125414013D01*
X180674866Y-125640134D01*
X180900986Y-125825706D01*
X181158966Y-125963599D01*
X181438889Y-126048513D01*
X181730000Y-126077185D01*
X182021110Y-126048513D01*
X182301033Y-125963599D01*
X182559013Y-125825706D01*
X182785134Y-125640134D01*
X182970706Y-125414014D01*
X182980000Y-125396626D01*
X182989294Y-125414013D01*
X183174866Y-125640134D01*
X183400986Y-125825706D01*
X183658966Y-125963599D01*
X183938889Y-126048513D01*
X184230000Y-126077185D01*
X184521110Y-126048513D01*
X184801033Y-125963599D01*
X185059013Y-125825706D01*
X185285134Y-125640134D01*
X185470706Y-125414014D01*
X185484462Y-125388278D01*
X185640951Y-125594429D01*
X185858807Y-125787496D01*
X186110142Y-125934352D01*
X186373110Y-126026476D01*
X186603000Y-125905155D01*
X186603000Y-124587000D01*
X186583000Y-124587000D01*
X186583000Y-124333000D01*
X186603000Y-124333000D01*
X186603000Y-123014845D01*
X186857000Y-123014845D01*
X186857000Y-124333000D01*
X186877000Y-124333000D01*
X186877000Y-124587000D01*
X186857000Y-124587000D01*
X186857000Y-125905155D01*
X187086890Y-126026476D01*
X187349858Y-125934352D01*
X187601193Y-125787496D01*
X187819049Y-125594429D01*
X187835286Y-125573039D01*
X187891595Y-125678386D01*
X188002038Y-125812962D01*
X188136614Y-125923405D01*
X188290150Y-126005472D01*
X188456746Y-126056008D01*
X188630000Y-126073072D01*
X189830000Y-126073072D01*
X190003254Y-126056008D01*
X190169850Y-126005472D01*
X190323386Y-125923405D01*
X190457962Y-125812962D01*
X190568405Y-125678386D01*
X190650472Y-125524850D01*
X190701008Y-125358254D01*
X190718072Y-125185000D01*
X190718072Y-123735000D01*
X190701008Y-123561746D01*
X190650472Y-123395150D01*
X190568405Y-123241614D01*
X190457962Y-123107038D01*
X190323386Y-122996595D01*
X190169850Y-122914528D01*
X190003254Y-122863992D01*
X189830000Y-122846928D01*
X188630000Y-122846928D01*
X188456746Y-122863992D01*
X188290150Y-122914528D01*
X188136614Y-122996595D01*
X188002038Y-123107038D01*
X187891595Y-123241614D01*
X187835286Y-123346961D01*
X187819049Y-123325571D01*
X187601193Y-123132504D01*
X187349858Y-122985648D01*
X187086890Y-122893524D01*
X186857000Y-123014845D01*
X186603000Y-123014845D01*
X186373110Y-122893524D01*
X186110142Y-122985648D01*
X185858807Y-123132504D01*
X185640951Y-123325571D01*
X185484462Y-123531722D01*
X185470706Y-123505986D01*
X185285134Y-123279866D01*
X185059014Y-123094294D01*
X184801034Y-122956401D01*
X184521111Y-122871487D01*
X184230000Y-122842815D01*
X183938890Y-122871487D01*
X183658967Y-122956401D01*
X183400987Y-123094294D01*
X183174866Y-123279866D01*
X182989294Y-123505986D01*
X182980000Y-123523374D01*
X182970706Y-123505986D01*
X182785134Y-123279866D01*
X182559014Y-123094294D01*
X182301034Y-122956401D01*
X182021111Y-122871487D01*
X181730000Y-122842815D01*
X181438890Y-122871487D01*
X181158967Y-122956401D01*
X180900987Y-123094294D01*
X180674866Y-123279866D01*
X180489294Y-123505986D01*
X180351401Y-123763966D01*
X180266487Y-124043889D01*
X180245000Y-124262050D01*
X176295000Y-124262050D01*
X176295000Y-118160835D01*
X176300007Y-118110000D01*
X176290119Y-118009604D01*
X176280024Y-117907105D01*
X176220841Y-117712007D01*
X176126714Y-117535907D01*
X176124734Y-117532202D01*
X176027803Y-117414092D01*
X175995396Y-117374604D01*
X175955908Y-117342197D01*
X172217807Y-113604097D01*
X172185396Y-113564604D01*
X172027797Y-113435266D01*
X171847993Y-113339159D01*
X171652895Y-113279976D01*
X171500838Y-113265000D01*
X171500828Y-113265000D01*
X171450000Y-113259994D01*
X171399172Y-113265000D01*
X169904396Y-113265000D01*
X169824759Y-113185363D01*
X169592241Y-113030000D01*
X169824759Y-112874637D01*
X170024637Y-112674759D01*
X170181680Y-112439727D01*
X170289853Y-112178574D01*
X170345000Y-111901335D01*
X170345000Y-111618665D01*
X170289853Y-111341426D01*
X170181680Y-111080273D01*
X170024637Y-110845241D01*
X169824759Y-110645363D01*
X169592241Y-110490000D01*
X169824759Y-110334637D01*
X169904396Y-110255000D01*
X172291290Y-110255000D01*
X174225001Y-112188712D01*
X174225000Y-112979171D01*
X174219994Y-113030000D01*
X174225000Y-113080828D01*
X174225000Y-113080837D01*
X174239976Y-113232894D01*
X174299159Y-113427992D01*
X174395266Y-113607797D01*
X174524604Y-113765396D01*
X174564097Y-113797807D01*
X177032197Y-116265908D01*
X177064604Y-116305396D01*
X177104092Y-116337803D01*
X177222202Y-116434734D01*
X177292989Y-116472570D01*
X177402007Y-116530841D01*
X177597105Y-116590024D01*
X177749162Y-116605000D01*
X177749171Y-116605000D01*
X177799999Y-116610006D01*
X177850827Y-116605000D01*
X180555758Y-116605000D01*
X180674866Y-116750134D01*
X180900986Y-116935706D01*
X181158966Y-117073599D01*
X181438889Y-117158513D01*
X181730000Y-117187185D01*
X182021110Y-117158513D01*
X182301033Y-117073599D01*
X182559013Y-116935706D01*
X182785134Y-116750134D01*
X182970706Y-116524014D01*
X182980000Y-116506626D01*
X182989294Y-116524013D01*
X183174866Y-116750134D01*
X183400986Y-116935706D01*
X183658966Y-117073599D01*
X183938889Y-117158513D01*
X184230000Y-117187185D01*
X184521110Y-117158513D01*
X184801033Y-117073599D01*
X185059013Y-116935706D01*
X185285134Y-116750134D01*
X185470706Y-116524014D01*
X185484462Y-116498278D01*
X185640951Y-116704429D01*
X185858807Y-116897496D01*
X186110142Y-117044352D01*
X186373110Y-117136476D01*
X186603000Y-117015155D01*
X186603000Y-115697000D01*
X186583000Y-115697000D01*
X186583000Y-115443000D01*
X186603000Y-115443000D01*
X186603000Y-114124845D01*
X186857000Y-114124845D01*
X186857000Y-115443000D01*
X186877000Y-115443000D01*
X186877000Y-115697000D01*
X186857000Y-115697000D01*
X186857000Y-117015155D01*
X187086890Y-117136476D01*
X187349858Y-117044352D01*
X187601193Y-116897496D01*
X187819049Y-116704429D01*
X187835286Y-116683039D01*
X187891595Y-116788386D01*
X188002038Y-116922962D01*
X188136614Y-117033405D01*
X188290150Y-117115472D01*
X188456746Y-117166008D01*
X188630000Y-117183072D01*
X189830000Y-117183072D01*
X190003254Y-117166008D01*
X190169850Y-117115472D01*
X190323386Y-117033405D01*
X190457962Y-116922962D01*
X190568405Y-116788386D01*
X190650472Y-116634850D01*
X190701008Y-116468254D01*
X190718072Y-116295000D01*
X190718072Y-114845000D01*
X190701008Y-114671746D01*
X190650472Y-114505150D01*
X190568405Y-114351614D01*
X190457962Y-114217038D01*
X190323386Y-114106595D01*
X190169850Y-114024528D01*
X190003254Y-113973992D01*
X189830000Y-113956928D01*
X188630000Y-113956928D01*
X188456746Y-113973992D01*
X188290150Y-114024528D01*
X188136614Y-114106595D01*
X188002038Y-114217038D01*
X187891595Y-114351614D01*
X187835286Y-114456961D01*
X187819049Y-114435571D01*
X187601193Y-114242504D01*
X187349858Y-114095648D01*
X187086890Y-114003524D01*
X186857000Y-114124845D01*
X186603000Y-114124845D01*
X186373110Y-114003524D01*
X186110142Y-114095648D01*
X185858807Y-114242504D01*
X185640951Y-114435571D01*
X185484462Y-114641722D01*
X185470706Y-114615986D01*
X185285134Y-114389866D01*
X185059014Y-114204294D01*
X184801034Y-114066401D01*
X184521111Y-113981487D01*
X184230000Y-113952815D01*
X183938890Y-113981487D01*
X183658967Y-114066401D01*
X183400987Y-114204294D01*
X183174866Y-114389866D01*
X182989294Y-114615986D01*
X182980000Y-114633374D01*
X182970706Y-114615986D01*
X182785134Y-114389866D01*
X182559014Y-114204294D01*
X182301034Y-114066401D01*
X182021111Y-113981487D01*
X181730000Y-113952815D01*
X181438890Y-113981487D01*
X181158967Y-114066401D01*
X180900987Y-114204294D01*
X180674866Y-114389866D01*
X180555758Y-114535000D01*
X178228711Y-114535000D01*
X176295000Y-112601290D01*
X176295000Y-111810827D01*
X176300006Y-111759999D01*
X176295000Y-111709171D01*
X176295000Y-111709162D01*
X176280024Y-111557105D01*
X176220841Y-111362007D01*
X176176104Y-111278309D01*
X176124734Y-111182202D01*
X176027803Y-111064092D01*
X175995396Y-111024604D01*
X175955908Y-110992197D01*
X173487807Y-108524097D01*
X173455396Y-108484604D01*
X173297797Y-108355266D01*
X173117993Y-108259159D01*
X172922895Y-108199976D01*
X172770838Y-108185000D01*
X172770828Y-108185000D01*
X172720000Y-108179994D01*
X172669172Y-108185000D01*
X169904396Y-108185000D01*
X169824759Y-108105363D01*
X169592241Y-107950000D01*
X169824759Y-107794637D01*
X170024637Y-107594759D01*
X170181680Y-107359727D01*
X170289853Y-107098574D01*
X170345000Y-106821335D01*
X170345000Y-106538665D01*
X170333739Y-106482050D01*
X180245000Y-106482050D01*
X180245000Y-106877949D01*
X180266487Y-107096110D01*
X180351401Y-107376033D01*
X180489294Y-107634013D01*
X180674866Y-107860134D01*
X180900986Y-108045706D01*
X181158966Y-108183599D01*
X181438889Y-108268513D01*
X181730000Y-108297185D01*
X182021110Y-108268513D01*
X182301033Y-108183599D01*
X182559013Y-108045706D01*
X182785134Y-107860134D01*
X182970706Y-107634014D01*
X182980000Y-107616626D01*
X182989294Y-107634013D01*
X183174866Y-107860134D01*
X183400986Y-108045706D01*
X183658966Y-108183599D01*
X183938889Y-108268513D01*
X184230000Y-108297185D01*
X184521110Y-108268513D01*
X184801033Y-108183599D01*
X185059013Y-108045706D01*
X185285134Y-107860134D01*
X185470706Y-107634014D01*
X185484462Y-107608278D01*
X185640951Y-107814429D01*
X185858807Y-108007496D01*
X186110142Y-108154352D01*
X186373110Y-108246476D01*
X186603000Y-108125155D01*
X186603000Y-106807000D01*
X186583000Y-106807000D01*
X186583000Y-106553000D01*
X186603000Y-106553000D01*
X186603000Y-105234845D01*
X186857000Y-105234845D01*
X186857000Y-106553000D01*
X186877000Y-106553000D01*
X186877000Y-106807000D01*
X186857000Y-106807000D01*
X186857000Y-108125155D01*
X187086890Y-108246476D01*
X187349858Y-108154352D01*
X187601193Y-108007496D01*
X187819049Y-107814429D01*
X187835286Y-107793039D01*
X187891595Y-107898386D01*
X188002038Y-108032962D01*
X188136614Y-108143405D01*
X188290150Y-108225472D01*
X188456746Y-108276008D01*
X188630000Y-108293072D01*
X189830000Y-108293072D01*
X190003254Y-108276008D01*
X190169850Y-108225472D01*
X190323386Y-108143405D01*
X190457962Y-108032962D01*
X190568405Y-107898386D01*
X190650472Y-107744850D01*
X190701008Y-107578254D01*
X190718072Y-107405000D01*
X190718072Y-105955000D01*
X190701008Y-105781746D01*
X190650472Y-105615150D01*
X190568405Y-105461614D01*
X190457962Y-105327038D01*
X190323386Y-105216595D01*
X190169850Y-105134528D01*
X190003254Y-105083992D01*
X189830000Y-105066928D01*
X188630000Y-105066928D01*
X188456746Y-105083992D01*
X188290150Y-105134528D01*
X188136614Y-105216595D01*
X188002038Y-105327038D01*
X187891595Y-105461614D01*
X187835286Y-105566961D01*
X187819049Y-105545571D01*
X187601193Y-105352504D01*
X187349858Y-105205648D01*
X187086890Y-105113524D01*
X186857000Y-105234845D01*
X186603000Y-105234845D01*
X186373110Y-105113524D01*
X186110142Y-105205648D01*
X185858807Y-105352504D01*
X185640951Y-105545571D01*
X185484462Y-105751722D01*
X185470706Y-105725986D01*
X185285134Y-105499866D01*
X185059014Y-105314294D01*
X184801034Y-105176401D01*
X184521111Y-105091487D01*
X184230000Y-105062815D01*
X183938890Y-105091487D01*
X183658967Y-105176401D01*
X183400987Y-105314294D01*
X183174866Y-105499866D01*
X182989294Y-105725986D01*
X182980000Y-105743374D01*
X182970706Y-105725986D01*
X182785134Y-105499866D01*
X182559014Y-105314294D01*
X182301034Y-105176401D01*
X182021111Y-105091487D01*
X181730000Y-105062815D01*
X181438890Y-105091487D01*
X181158967Y-105176401D01*
X180900987Y-105314294D01*
X180674866Y-105499866D01*
X180489294Y-105725986D01*
X180351401Y-105983966D01*
X180266487Y-106263889D01*
X180245000Y-106482050D01*
X170333739Y-106482050D01*
X170289853Y-106261426D01*
X170181680Y-106000273D01*
X170024637Y-105765241D01*
X169824759Y-105565363D01*
X169592241Y-105410000D01*
X169824759Y-105254637D01*
X170024637Y-105054759D01*
X170181680Y-104819727D01*
X170289853Y-104558574D01*
X170345000Y-104281335D01*
X170345000Y-103998665D01*
X170289853Y-103721426D01*
X170181680Y-103460273D01*
X170024637Y-103225241D01*
X169824759Y-103025363D01*
X169592241Y-102870000D01*
X169824759Y-102714637D01*
X170024637Y-102514759D01*
X170181680Y-102279727D01*
X170289853Y-102018574D01*
X170345000Y-101741335D01*
X170345000Y-101458665D01*
X170289853Y-101181426D01*
X170181680Y-100920273D01*
X170024637Y-100685241D01*
X169824759Y-100485363D01*
X169592241Y-100330000D01*
X169824759Y-100174637D01*
X170024637Y-99974759D01*
X170181680Y-99739727D01*
X170289853Y-99478574D01*
X170345000Y-99201335D01*
X170345000Y-98918665D01*
X170289853Y-98641426D01*
X170181680Y-98380273D01*
X170024637Y-98145241D01*
X169824759Y-97945363D01*
X169592241Y-97790000D01*
X169824759Y-97634637D01*
X169867346Y-97592050D01*
X180245000Y-97592050D01*
X180245000Y-97987949D01*
X180266487Y-98206110D01*
X180351401Y-98486033D01*
X180489294Y-98744013D01*
X180674866Y-98970134D01*
X180900986Y-99155706D01*
X181158966Y-99293599D01*
X181438889Y-99378513D01*
X181730000Y-99407185D01*
X182021110Y-99378513D01*
X182301033Y-99293599D01*
X182559013Y-99155706D01*
X182785134Y-98970134D01*
X182970706Y-98744014D01*
X182980000Y-98726626D01*
X182989294Y-98744013D01*
X183174866Y-98970134D01*
X183400986Y-99155706D01*
X183658966Y-99293599D01*
X183938889Y-99378513D01*
X184230000Y-99407185D01*
X184521110Y-99378513D01*
X184801033Y-99293599D01*
X185059013Y-99155706D01*
X185285134Y-98970134D01*
X185470706Y-98744014D01*
X185484462Y-98718278D01*
X185640951Y-98924429D01*
X185858807Y-99117496D01*
X186110142Y-99264352D01*
X186373110Y-99356476D01*
X186603000Y-99235155D01*
X186603000Y-97917000D01*
X186583000Y-97917000D01*
X186583000Y-97663000D01*
X186603000Y-97663000D01*
X186603000Y-96344845D01*
X186857000Y-96344845D01*
X186857000Y-97663000D01*
X186877000Y-97663000D01*
X186877000Y-97917000D01*
X186857000Y-97917000D01*
X186857000Y-99235155D01*
X187086890Y-99356476D01*
X187349858Y-99264352D01*
X187601193Y-99117496D01*
X187819049Y-98924429D01*
X187835286Y-98903039D01*
X187891595Y-99008386D01*
X188002038Y-99142962D01*
X188136614Y-99253405D01*
X188290150Y-99335472D01*
X188456746Y-99386008D01*
X188630000Y-99403072D01*
X189830000Y-99403072D01*
X190003254Y-99386008D01*
X190169850Y-99335472D01*
X190323386Y-99253405D01*
X190457962Y-99142962D01*
X190568405Y-99008386D01*
X190650472Y-98854850D01*
X190701008Y-98688254D01*
X190718072Y-98515000D01*
X190718072Y-97065000D01*
X190701008Y-96891746D01*
X190650472Y-96725150D01*
X190568405Y-96571614D01*
X190457962Y-96437038D01*
X190323386Y-96326595D01*
X190169850Y-96244528D01*
X190003254Y-96193992D01*
X189830000Y-96176928D01*
X188630000Y-96176928D01*
X188456746Y-96193992D01*
X188290150Y-96244528D01*
X188136614Y-96326595D01*
X188002038Y-96437038D01*
X187891595Y-96571614D01*
X187835286Y-96676961D01*
X187819049Y-96655571D01*
X187601193Y-96462504D01*
X187349858Y-96315648D01*
X187086890Y-96223524D01*
X186857000Y-96344845D01*
X186603000Y-96344845D01*
X186373110Y-96223524D01*
X186110142Y-96315648D01*
X185858807Y-96462504D01*
X185640951Y-96655571D01*
X185484462Y-96861722D01*
X185470706Y-96835986D01*
X185285134Y-96609866D01*
X185059014Y-96424294D01*
X184801034Y-96286401D01*
X184521111Y-96201487D01*
X184230000Y-96172815D01*
X183938890Y-96201487D01*
X183658967Y-96286401D01*
X183400987Y-96424294D01*
X183174866Y-96609866D01*
X182989294Y-96835986D01*
X182980000Y-96853374D01*
X182970706Y-96835986D01*
X182785134Y-96609866D01*
X182559014Y-96424294D01*
X182301034Y-96286401D01*
X182021111Y-96201487D01*
X181730000Y-96172815D01*
X181438890Y-96201487D01*
X181158967Y-96286401D01*
X180900987Y-96424294D01*
X180674866Y-96609866D01*
X180489294Y-96835986D01*
X180351401Y-97093966D01*
X180266487Y-97373889D01*
X180245000Y-97592050D01*
X169867346Y-97592050D01*
X170024637Y-97434759D01*
X170181680Y-97199727D01*
X170289853Y-96938574D01*
X170345000Y-96661335D01*
X170345000Y-96378665D01*
X170289853Y-96101426D01*
X170181680Y-95840273D01*
X170024637Y-95605241D01*
X169824759Y-95405363D01*
X169590872Y-95249085D01*
X169651514Y-95216671D01*
X169723097Y-94972702D01*
X168910000Y-94159605D01*
X168096903Y-94972702D01*
X168168486Y-95216671D01*
X168232992Y-95247194D01*
X168230273Y-95248320D01*
X167995241Y-95405363D01*
X167795363Y-95605241D01*
X167638320Y-95840273D01*
X167530147Y-96101426D01*
X167475000Y-96378665D01*
X155105000Y-96378665D01*
X155049853Y-96101426D01*
X154941680Y-95840273D01*
X154784637Y-95605241D01*
X154584759Y-95405363D01*
X154352241Y-95250000D01*
X154584759Y-95094637D01*
X154784637Y-94894759D01*
X154941680Y-94659727D01*
X155049853Y-94398574D01*
X155105000Y-94121335D01*
X155105000Y-94050512D01*
X167469783Y-94050512D01*
X167511213Y-94330130D01*
X167606397Y-94596292D01*
X167673329Y-94721514D01*
X167917298Y-94793097D01*
X168730395Y-93980000D01*
X169089605Y-93980000D01*
X169902702Y-94793097D01*
X170146671Y-94721514D01*
X170267571Y-94466004D01*
X170336300Y-94191816D01*
X170350217Y-93909488D01*
X170308787Y-93629870D01*
X170213603Y-93363708D01*
X170146671Y-93238486D01*
X169902702Y-93166903D01*
X169089605Y-93980000D01*
X168730395Y-93980000D01*
X167917298Y-93166903D01*
X167673329Y-93238486D01*
X167552429Y-93493996D01*
X167483700Y-93768184D01*
X167469783Y-94050512D01*
X155105000Y-94050512D01*
X155105000Y-93838665D01*
X155049853Y-93561426D01*
X154941680Y-93300273D01*
X154784637Y-93065241D01*
X154586039Y-92866643D01*
X154594482Y-92865812D01*
X154714180Y-92829502D01*
X154824494Y-92770537D01*
X154921185Y-92691185D01*
X155000537Y-92594494D01*
X155059502Y-92484180D01*
X155095812Y-92364482D01*
X155108072Y-92240000D01*
X155105000Y-91725750D01*
X154946250Y-91567000D01*
X153797000Y-91567000D01*
X153797000Y-91587000D01*
X153543000Y-91587000D01*
X153543000Y-91567000D01*
X152393750Y-91567000D01*
X152235000Y-91725750D01*
X152231928Y-92240000D01*
X152244188Y-92364482D01*
X152280498Y-92484180D01*
X152339463Y-92594494D01*
X152418815Y-92691185D01*
X152515506Y-92770537D01*
X152625820Y-92829502D01*
X152745518Y-92865812D01*
X152753961Y-92866643D01*
X152575604Y-93045000D01*
X143370869Y-93045000D01*
X143360706Y-93025986D01*
X143175134Y-92799866D01*
X142949013Y-92614294D01*
X142691033Y-92476401D01*
X142411110Y-92391487D01*
X142120000Y-92362815D01*
X141828889Y-92391487D01*
X141548966Y-92476401D01*
X141290986Y-92614294D01*
X141064866Y-92799866D01*
X140879294Y-93025987D01*
X140870000Y-93043374D01*
X140860706Y-93025986D01*
X140675134Y-92799866D01*
X140449013Y-92614294D01*
X140191033Y-92476401D01*
X139911110Y-92391487D01*
X139620000Y-92362815D01*
X139328889Y-92391487D01*
X139048966Y-92476401D01*
X138790986Y-92614294D01*
X138564866Y-92799866D01*
X138379294Y-93025987D01*
X138365538Y-93051722D01*
X138209049Y-92845571D01*
X137991193Y-92652504D01*
X137739858Y-92505648D01*
X137476890Y-92413524D01*
X137247000Y-92534845D01*
X136993000Y-92534845D01*
X136763110Y-92413524D01*
X136500142Y-92505648D01*
X136330165Y-92604966D01*
X138295131Y-90640000D01*
X152231928Y-90640000D01*
X152235000Y-91154250D01*
X152393750Y-91313000D01*
X153543000Y-91313000D01*
X153543000Y-90163750D01*
X153797000Y-90163750D01*
X153797000Y-91313000D01*
X154946250Y-91313000D01*
X155105000Y-91154250D01*
X155108072Y-90640000D01*
X155095812Y-90515518D01*
X155059502Y-90395820D01*
X155000537Y-90285506D01*
X154921185Y-90188815D01*
X154824494Y-90109463D01*
X154714180Y-90050498D01*
X154594482Y-90014188D01*
X154470000Y-90001928D01*
X153955750Y-90005000D01*
X153797000Y-90163750D01*
X153543000Y-90163750D01*
X153384250Y-90005000D01*
X152870000Y-90001928D01*
X152745518Y-90014188D01*
X152625820Y-90050498D01*
X152515506Y-90109463D01*
X152418815Y-90188815D01*
X152339463Y-90285506D01*
X152280498Y-90395820D01*
X152244188Y-90515518D01*
X152231928Y-90640000D01*
X138295131Y-90640000D01*
X139535132Y-89400000D01*
X160184869Y-89400000D01*
X162988009Y-92203141D01*
X163023551Y-92246449D01*
X163196377Y-92388284D01*
X163361234Y-92476401D01*
X163393553Y-92493676D01*
X163607501Y-92558577D01*
X163829999Y-92580491D01*
X163885751Y-92575000D01*
X168025716Y-92575000D01*
X168229128Y-92710915D01*
X168168486Y-92743329D01*
X168096903Y-92987298D01*
X168910000Y-93800395D01*
X169723097Y-92987298D01*
X169651514Y-92743329D01*
X169587008Y-92712806D01*
X169589727Y-92711680D01*
X169824759Y-92554637D01*
X170024637Y-92354759D01*
X170181680Y-92119727D01*
X170289853Y-91858574D01*
X170345000Y-91581335D01*
X170345000Y-91298665D01*
X170289853Y-91021426D01*
X170181680Y-90760273D01*
X170024637Y-90525241D01*
X169824759Y-90325363D01*
X169589727Y-90168320D01*
X169328574Y-90060147D01*
X169051335Y-90005000D01*
X168768665Y-90005000D01*
X168491426Y-90060147D01*
X168230273Y-90168320D01*
X168025716Y-90305000D01*
X164300132Y-90305000D01*
X161496996Y-87501865D01*
X161461449Y-87458551D01*
X161288623Y-87316716D01*
X161091447Y-87211324D01*
X160877499Y-87146423D01*
X160710752Y-87130000D01*
X160710751Y-87130000D01*
X160655000Y-87124509D01*
X160599249Y-87130000D01*
X139120741Y-87130000D01*
X139064999Y-87124510D01*
X139009257Y-87130000D01*
X139009248Y-87130000D01*
X138842501Y-87146423D01*
X138628553Y-87211324D01*
X138431377Y-87316716D01*
X138258551Y-87458551D01*
X138223009Y-87501859D01*
X133856860Y-91868009D01*
X133813552Y-91903551D01*
X133671717Y-92076377D01*
X133566324Y-92273553D01*
X133501423Y-92487501D01*
X133496090Y-92541645D01*
X133392038Y-92627038D01*
X133281595Y-92761614D01*
X133199528Y-92915150D01*
X133148992Y-93081746D01*
X133131928Y-93255000D01*
X130302000Y-93255000D01*
X130302000Y-86360000D01*
X176008299Y-86360000D01*
X176035040Y-86631507D01*
X176114236Y-86892581D01*
X176242843Y-87133188D01*
X176415919Y-87344081D01*
X176626812Y-87517157D01*
X176867419Y-87645764D01*
X177128493Y-87724960D01*
X177331963Y-87745000D01*
X178268037Y-87745000D01*
X178471507Y-87724960D01*
X178732581Y-87645764D01*
X178973188Y-87517157D01*
X179184081Y-87344081D01*
X179357157Y-87133188D01*
X179485764Y-86892581D01*
X179564960Y-86631507D01*
X179591701Y-86360000D01*
X179564960Y-86088493D01*
X179485764Y-85827419D01*
X179357157Y-85586812D01*
X179184081Y-85375919D01*
X178973188Y-85202843D01*
X178757422Y-85087514D01*
X178847349Y-85050972D01*
X179075061Y-84901028D01*
X179269145Y-84709540D01*
X179422142Y-84483868D01*
X179528173Y-84232684D01*
X179542318Y-84161185D01*
X179419656Y-83947000D01*
X177927000Y-83947000D01*
X177927000Y-83967000D01*
X177673000Y-83967000D01*
X177673000Y-83947000D01*
X176180344Y-83947000D01*
X176057682Y-84161185D01*
X176071827Y-84232684D01*
X176177858Y-84483868D01*
X176330855Y-84709540D01*
X176524939Y-84901028D01*
X176752651Y-85050972D01*
X176842578Y-85087514D01*
X176626812Y-85202843D01*
X176415919Y-85375919D01*
X176242843Y-85586812D01*
X176114236Y-85827419D01*
X176035040Y-86088493D01*
X176008299Y-86360000D01*
X130302000Y-86360000D01*
X130302000Y-84041653D01*
X144737952Y-84041653D01*
X144893962Y-84357214D01*
X145268745Y-84548020D01*
X145673551Y-84662044D01*
X146092824Y-84694902D01*
X146510451Y-84645334D01*
X146910383Y-84515243D01*
X147206038Y-84357214D01*
X147362048Y-84041653D01*
X146050000Y-82729605D01*
X144737952Y-84041653D01*
X130302000Y-84041653D01*
X130302000Y-80779872D01*
X130765000Y-80779872D01*
X130765000Y-81220128D01*
X130850890Y-81651925D01*
X131019369Y-82058669D01*
X131263962Y-82424729D01*
X131575271Y-82736038D01*
X131941331Y-82980631D01*
X132348075Y-83149110D01*
X132779872Y-83235000D01*
X133220128Y-83235000D01*
X133651925Y-83149110D01*
X134058669Y-82980631D01*
X134424729Y-82736038D01*
X134567943Y-82592824D01*
X143905098Y-82592824D01*
X143954666Y-83010451D01*
X144084757Y-83410383D01*
X144242786Y-83706038D01*
X144558347Y-83862048D01*
X145870395Y-82550000D01*
X146229605Y-82550000D01*
X147541653Y-83862048D01*
X147857214Y-83706038D01*
X148048020Y-83331255D01*
X148162044Y-82926449D01*
X148194902Y-82507176D01*
X148145334Y-82089549D01*
X148015243Y-81689617D01*
X147857214Y-81393962D01*
X147541653Y-81237952D01*
X146229605Y-82550000D01*
X145870395Y-82550000D01*
X144558347Y-81237952D01*
X144242786Y-81393962D01*
X144051980Y-81768745D01*
X143937956Y-82173551D01*
X143905098Y-82592824D01*
X134567943Y-82592824D01*
X134736038Y-82424729D01*
X134980631Y-82058669D01*
X135149110Y-81651925D01*
X135235000Y-81220128D01*
X135235000Y-81058347D01*
X144737952Y-81058347D01*
X146050000Y-82370395D01*
X147362048Y-81058347D01*
X147357922Y-81050000D01*
X148991928Y-81050000D01*
X148991928Y-84050000D01*
X149004188Y-84174482D01*
X149040498Y-84294180D01*
X149099463Y-84404494D01*
X149178815Y-84501185D01*
X149275506Y-84580537D01*
X149385820Y-84639502D01*
X149505518Y-84675812D01*
X149630000Y-84688072D01*
X152630000Y-84688072D01*
X152754482Y-84675812D01*
X152874180Y-84639502D01*
X152984494Y-84580537D01*
X153081185Y-84501185D01*
X153160537Y-84404494D01*
X153219502Y-84294180D01*
X153255812Y-84174482D01*
X153268072Y-84050000D01*
X153268072Y-81050000D01*
X153255812Y-80925518D01*
X153219502Y-80805820D01*
X153160537Y-80695506D01*
X153081185Y-80598815D01*
X152997334Y-80530000D01*
X176011928Y-80530000D01*
X176011928Y-82030000D01*
X176024188Y-82154482D01*
X176060498Y-82274180D01*
X176119463Y-82384494D01*
X176198815Y-82481185D01*
X176295506Y-82560537D01*
X176405820Y-82619502D01*
X176525518Y-82655812D01*
X176634874Y-82666582D01*
X176524939Y-82738972D01*
X176330855Y-82930460D01*
X176177858Y-83156132D01*
X176071827Y-83407316D01*
X176057682Y-83478815D01*
X176180344Y-83693000D01*
X177673000Y-83693000D01*
X177673000Y-83673000D01*
X177927000Y-83673000D01*
X177927000Y-83693000D01*
X179419656Y-83693000D01*
X179542318Y-83478815D01*
X179528173Y-83407316D01*
X179422142Y-83156132D01*
X179269145Y-82930460D01*
X179075061Y-82738972D01*
X178965126Y-82666582D01*
X179074482Y-82655812D01*
X179194180Y-82619502D01*
X179304494Y-82560537D01*
X179401185Y-82481185D01*
X179480537Y-82384494D01*
X179539502Y-82274180D01*
X179575812Y-82154482D01*
X179588072Y-82030000D01*
X179588072Y-80779872D01*
X187765000Y-80779872D01*
X187765000Y-81220128D01*
X187850890Y-81651925D01*
X188019369Y-82058669D01*
X188263962Y-82424729D01*
X188575271Y-82736038D01*
X188941331Y-82980631D01*
X189348075Y-83149110D01*
X189779872Y-83235000D01*
X190220128Y-83235000D01*
X190651925Y-83149110D01*
X191058669Y-82980631D01*
X191424729Y-82736038D01*
X191736038Y-82424729D01*
X191980631Y-82058669D01*
X192149110Y-81651925D01*
X192235000Y-81220128D01*
X192235000Y-80779872D01*
X192149110Y-80348075D01*
X191980631Y-79941331D01*
X191736038Y-79575271D01*
X191424729Y-79263962D01*
X191058669Y-79019369D01*
X190651925Y-78850890D01*
X190220128Y-78765000D01*
X189779872Y-78765000D01*
X189348075Y-78850890D01*
X188941331Y-79019369D01*
X188575271Y-79263962D01*
X188263962Y-79575271D01*
X188019369Y-79941331D01*
X187850890Y-80348075D01*
X187765000Y-80779872D01*
X179588072Y-80779872D01*
X179588072Y-80530000D01*
X179575812Y-80405518D01*
X179539502Y-80285820D01*
X179480537Y-80175506D01*
X179401185Y-80078815D01*
X179304494Y-79999463D01*
X179194180Y-79940498D01*
X179074482Y-79904188D01*
X178950000Y-79891928D01*
X176650000Y-79891928D01*
X176525518Y-79904188D01*
X176405820Y-79940498D01*
X176295506Y-79999463D01*
X176198815Y-80078815D01*
X176119463Y-80175506D01*
X176060498Y-80285820D01*
X176024188Y-80405518D01*
X176011928Y-80530000D01*
X152997334Y-80530000D01*
X152984494Y-80519463D01*
X152874180Y-80460498D01*
X152754482Y-80424188D01*
X152630000Y-80411928D01*
X149630000Y-80411928D01*
X149505518Y-80424188D01*
X149385820Y-80460498D01*
X149275506Y-80519463D01*
X149178815Y-80598815D01*
X149099463Y-80695506D01*
X149040498Y-80805820D01*
X149004188Y-80925518D01*
X148991928Y-81050000D01*
X147357922Y-81050000D01*
X147206038Y-80742786D01*
X146831255Y-80551980D01*
X146426449Y-80437956D01*
X146007176Y-80405098D01*
X145589549Y-80454666D01*
X145189617Y-80584757D01*
X144893962Y-80742786D01*
X144737952Y-81058347D01*
X135235000Y-81058347D01*
X135235000Y-80779872D01*
X135149110Y-80348075D01*
X134980631Y-79941331D01*
X134736038Y-79575271D01*
X134424729Y-79263962D01*
X134058669Y-79019369D01*
X133651925Y-78850890D01*
X133220128Y-78765000D01*
X132779872Y-78765000D01*
X132348075Y-78850890D01*
X131941331Y-79019369D01*
X131575271Y-79263962D01*
X131263962Y-79575271D01*
X131019369Y-79941331D01*
X130850890Y-80348075D01*
X130765000Y-80779872D01*
X130302000Y-80779872D01*
X130302000Y-78232000D01*
X192913000Y-78232000D01*
X192913000Y-154813000D01*
%TA.AperFunction,Conductor*%
D25*
G36*
X192913000Y-154813000D02*
G01*
X130302000Y-154813000D01*
X130302000Y-151779872D01*
X130765000Y-151779872D01*
X130765000Y-152220128D01*
X130850890Y-152651925D01*
X131019369Y-153058669D01*
X131263962Y-153424729D01*
X131575271Y-153736038D01*
X131941331Y-153980631D01*
X132348075Y-154149110D01*
X132779872Y-154235000D01*
X133220128Y-154235000D01*
X133651925Y-154149110D01*
X134058669Y-153980631D01*
X134424729Y-153736038D01*
X134736038Y-153424729D01*
X134980631Y-153058669D01*
X135149110Y-152651925D01*
X135235000Y-152220128D01*
X135235000Y-152105000D01*
X140831928Y-152105000D01*
X140844188Y-152229482D01*
X140880498Y-152349180D01*
X140939463Y-152459494D01*
X141018815Y-152556185D01*
X141115506Y-152635537D01*
X141225820Y-152694502D01*
X141345518Y-152730812D01*
X141470000Y-152743072D01*
X142034250Y-152740000D01*
X142193000Y-152581250D01*
X142193000Y-151257000D01*
X140993750Y-151257000D01*
X140835000Y-151415750D01*
X140831928Y-152105000D01*
X135235000Y-152105000D01*
X135235000Y-151779872D01*
X135149110Y-151348075D01*
X134980631Y-150941331D01*
X134736038Y-150575271D01*
X134424729Y-150263962D01*
X134261656Y-150155000D01*
X140831928Y-150155000D01*
X140835000Y-150844250D01*
X140993750Y-151003000D01*
X142193000Y-151003000D01*
X142193000Y-149678750D01*
X142447000Y-149678750D01*
X142447000Y-151003000D01*
X142467000Y-151003000D01*
X142467000Y-151257000D01*
X142447000Y-151257000D01*
X142447000Y-152581250D01*
X142605750Y-152740000D01*
X143170000Y-152743072D01*
X143294482Y-152730812D01*
X143414180Y-152694502D01*
X143524494Y-152635537D01*
X143621185Y-152556185D01*
X143700537Y-152459494D01*
X143759502Y-152349180D01*
X143770055Y-152314392D01*
X143990987Y-152495706D01*
X144248967Y-152633599D01*
X144528890Y-152718513D01*
X144820000Y-152747185D01*
X145111111Y-152718513D01*
X145391034Y-152633599D01*
X145649014Y-152495706D01*
X145875134Y-152310134D01*
X146060706Y-152084014D01*
X146070000Y-152066626D01*
X146079294Y-152084014D01*
X146264866Y-152310134D01*
X146490987Y-152495706D01*
X146748967Y-152633599D01*
X147028890Y-152718513D01*
X147320000Y-152747185D01*
X147611111Y-152718513D01*
X147891034Y-152633599D01*
X148149014Y-152495706D01*
X148375134Y-152310134D01*
X148463836Y-152202050D01*
X173855000Y-152202050D01*
X173855000Y-152597949D01*
X173876487Y-152816110D01*
X173961401Y-153096033D01*
X174099294Y-153354013D01*
X174284866Y-153580134D01*
X174510986Y-153765706D01*
X174768966Y-153903599D01*
X175048889Y-153988513D01*
X175340000Y-154017185D01*
X175631110Y-153988513D01*
X175911033Y-153903599D01*
X176169013Y-153765706D01*
X176395134Y-153580134D01*
X176580706Y-153354014D01*
X176590000Y-153336626D01*
X176599294Y-153354013D01*
X176784866Y-153580134D01*
X177010986Y-153765706D01*
X177268966Y-153903599D01*
X177548889Y-153988513D01*
X177840000Y-154017185D01*
X178131110Y-153988513D01*
X178411033Y-153903599D01*
X178669013Y-153765706D01*
X178889945Y-153584392D01*
X178900498Y-153619180D01*
X178959463Y-153729494D01*
X179038815Y-153826185D01*
X179135506Y-153905537D01*
X179245820Y-153964502D01*
X179365518Y-154000812D01*
X179490000Y-154013072D01*
X180054250Y-154010000D01*
X180213000Y-153851250D01*
X180213000Y-152527000D01*
X180467000Y-152527000D01*
X180467000Y-153851250D01*
X180625750Y-154010000D01*
X181190000Y-154013072D01*
X181314482Y-154000812D01*
X181434180Y-153964502D01*
X181544494Y-153905537D01*
X181641185Y-153826185D01*
X181720537Y-153729494D01*
X181779502Y-153619180D01*
X181815812Y-153499482D01*
X181828072Y-153375000D01*
X181825000Y-152685750D01*
X181666250Y-152527000D01*
X180467000Y-152527000D01*
X180213000Y-152527000D01*
X180193000Y-152527000D01*
X180193000Y-152273000D01*
X180213000Y-152273000D01*
X180213000Y-150948750D01*
X180467000Y-150948750D01*
X180467000Y-152273000D01*
X181666250Y-152273000D01*
X181825000Y-152114250D01*
X181826490Y-151779872D01*
X187765000Y-151779872D01*
X187765000Y-152220128D01*
X187850890Y-152651925D01*
X188019369Y-153058669D01*
X188263962Y-153424729D01*
X188575271Y-153736038D01*
X188941331Y-153980631D01*
X189348075Y-154149110D01*
X189779872Y-154235000D01*
X190220128Y-154235000D01*
X190651925Y-154149110D01*
X191058669Y-153980631D01*
X191424729Y-153736038D01*
X191736038Y-153424729D01*
X191980631Y-153058669D01*
X192149110Y-152651925D01*
X192235000Y-152220128D01*
X192235000Y-151779872D01*
X192149110Y-151348075D01*
X191980631Y-150941331D01*
X191736038Y-150575271D01*
X191424729Y-150263962D01*
X191058669Y-150019369D01*
X190651925Y-149850890D01*
X190220128Y-149765000D01*
X189779872Y-149765000D01*
X189348075Y-149850890D01*
X188941331Y-150019369D01*
X188575271Y-150263962D01*
X188263962Y-150575271D01*
X188019369Y-150941331D01*
X187850890Y-151348075D01*
X187765000Y-151779872D01*
X181826490Y-151779872D01*
X181828072Y-151425000D01*
X181815812Y-151300518D01*
X181779502Y-151180820D01*
X181720537Y-151070506D01*
X181641185Y-150973815D01*
X181544494Y-150894463D01*
X181434180Y-150835498D01*
X181314482Y-150799188D01*
X181190000Y-150786928D01*
X180625750Y-150790000D01*
X180467000Y-150948750D01*
X180213000Y-150948750D01*
X180054250Y-150790000D01*
X179490000Y-150786928D01*
X179365518Y-150799188D01*
X179245820Y-150835498D01*
X179135506Y-150894463D01*
X179038815Y-150973815D01*
X178959463Y-151070506D01*
X178900498Y-151180820D01*
X178889945Y-151215608D01*
X178669014Y-151034294D01*
X178411034Y-150896401D01*
X178131111Y-150811487D01*
X177840000Y-150782815D01*
X177548890Y-150811487D01*
X177268967Y-150896401D01*
X177010987Y-151034294D01*
X176784866Y-151219866D01*
X176599294Y-151445986D01*
X176590000Y-151463374D01*
X176580706Y-151445986D01*
X176395134Y-151219866D01*
X176169014Y-151034294D01*
X175911034Y-150896401D01*
X175631111Y-150811487D01*
X175340000Y-150782815D01*
X175048890Y-150811487D01*
X174768967Y-150896401D01*
X174510987Y-151034294D01*
X174284866Y-151219866D01*
X174099294Y-151445986D01*
X173961401Y-151703966D01*
X173876487Y-151983889D01*
X173855000Y-152202050D01*
X148463836Y-152202050D01*
X148560706Y-152084014D01*
X148698599Y-151826033D01*
X148783513Y-151546110D01*
X148805000Y-151327949D01*
X148805000Y-150932050D01*
X148783513Y-150713889D01*
X148698599Y-150433966D01*
X148560706Y-150175986D01*
X148375134Y-149949866D01*
X148149013Y-149764294D01*
X147891033Y-149626401D01*
X147611110Y-149541487D01*
X147320000Y-149512815D01*
X147028889Y-149541487D01*
X146748966Y-149626401D01*
X146490986Y-149764294D01*
X146264866Y-149949866D01*
X146079294Y-150175987D01*
X146070000Y-150193374D01*
X146060706Y-150175986D01*
X145875134Y-149949866D01*
X145649013Y-149764294D01*
X145391033Y-149626401D01*
X145111110Y-149541487D01*
X144820000Y-149512815D01*
X144528889Y-149541487D01*
X144248966Y-149626401D01*
X143990986Y-149764294D01*
X143770055Y-149945608D01*
X143759502Y-149910820D01*
X143700537Y-149800506D01*
X143621185Y-149703815D01*
X143524494Y-149624463D01*
X143414180Y-149565498D01*
X143294482Y-149529188D01*
X143170000Y-149516928D01*
X142605750Y-149520000D01*
X142447000Y-149678750D01*
X142193000Y-149678750D01*
X142034250Y-149520000D01*
X141470000Y-149516928D01*
X141345518Y-149529188D01*
X141225820Y-149565498D01*
X141115506Y-149624463D01*
X141018815Y-149703815D01*
X140939463Y-149800506D01*
X140880498Y-149910820D01*
X140844188Y-150030518D01*
X140831928Y-150155000D01*
X134261656Y-150155000D01*
X134058669Y-150019369D01*
X133651925Y-149850890D01*
X133220128Y-149765000D01*
X132779872Y-149765000D01*
X132348075Y-149850890D01*
X131941331Y-150019369D01*
X131575271Y-150263962D01*
X131263962Y-150575271D01*
X131019369Y-150941331D01*
X130850890Y-151348075D01*
X130765000Y-151779872D01*
X130302000Y-151779872D01*
X130302000Y-141515000D01*
X133131928Y-141515000D01*
X133131928Y-142965000D01*
X133148992Y-143138254D01*
X133199528Y-143304850D01*
X133281595Y-143458386D01*
X133392038Y-143592962D01*
X133526614Y-143703405D01*
X133680150Y-143785472D01*
X133846746Y-143836008D01*
X134020000Y-143853072D01*
X135220000Y-143853072D01*
X135393254Y-143836008D01*
X135559850Y-143785472D01*
X135713386Y-143703405D01*
X135847962Y-143592962D01*
X135958405Y-143458386D01*
X136014714Y-143353039D01*
X136030951Y-143374429D01*
X136248807Y-143567496D01*
X136500142Y-143714352D01*
X136763110Y-143806476D01*
X136993000Y-143685155D01*
X136993000Y-142367000D01*
X136973000Y-142367000D01*
X136973000Y-142113000D01*
X136993000Y-142113000D01*
X136993000Y-140794845D01*
X137247000Y-140794845D01*
X137247000Y-142113000D01*
X137267000Y-142113000D01*
X137267000Y-142367000D01*
X137247000Y-142367000D01*
X137247000Y-143685155D01*
X137476890Y-143806476D01*
X137739858Y-143714352D01*
X137991193Y-143567496D01*
X138209049Y-143374429D01*
X138365538Y-143168278D01*
X138379294Y-143194014D01*
X138564866Y-143420134D01*
X138790987Y-143605706D01*
X139048967Y-143743599D01*
X139328890Y-143828513D01*
X139620000Y-143857185D01*
X139911111Y-143828513D01*
X140191034Y-143743599D01*
X140449014Y-143605706D01*
X140675134Y-143420134D01*
X140860706Y-143194014D01*
X140870000Y-143176626D01*
X140879294Y-143194014D01*
X141064866Y-143420134D01*
X141290987Y-143605706D01*
X141548967Y-143743599D01*
X141828890Y-143828513D01*
X142120000Y-143857185D01*
X142411111Y-143828513D01*
X142691034Y-143743599D01*
X142949014Y-143605706D01*
X143175134Y-143420134D01*
X143360706Y-143194014D01*
X143498599Y-142936033D01*
X143583513Y-142656110D01*
X143605000Y-142437949D01*
X143605000Y-142042050D01*
X143583513Y-141823889D01*
X143498599Y-141543966D01*
X143360706Y-141285986D01*
X143175134Y-141059866D01*
X142949013Y-140874294D01*
X142691033Y-140736401D01*
X142411110Y-140651487D01*
X142120000Y-140622815D01*
X141828889Y-140651487D01*
X141548966Y-140736401D01*
X141290986Y-140874294D01*
X141064866Y-141059866D01*
X140879294Y-141285987D01*
X140870000Y-141303374D01*
X140860706Y-141285986D01*
X140675134Y-141059866D01*
X140449013Y-140874294D01*
X140191033Y-140736401D01*
X139911110Y-140651487D01*
X139620000Y-140622815D01*
X139328889Y-140651487D01*
X139048966Y-140736401D01*
X138790986Y-140874294D01*
X138564866Y-141059866D01*
X138379294Y-141285987D01*
X138365538Y-141311722D01*
X138209049Y-141105571D01*
X137991193Y-140912504D01*
X137739858Y-140765648D01*
X137476890Y-140673524D01*
X137247000Y-140794845D01*
X136993000Y-140794845D01*
X136763110Y-140673524D01*
X136500142Y-140765648D01*
X136248807Y-140912504D01*
X136030951Y-141105571D01*
X136014714Y-141126961D01*
X135958405Y-141021614D01*
X135847962Y-140887038D01*
X135713386Y-140776595D01*
X135559850Y-140694528D01*
X135393254Y-140643992D01*
X135220000Y-140626928D01*
X134020000Y-140626928D01*
X133846746Y-140643992D01*
X133680150Y-140694528D01*
X133526614Y-140776595D01*
X133392038Y-140887038D01*
X133281595Y-141021614D01*
X133199528Y-141175150D01*
X133148992Y-141341746D01*
X133131928Y-141515000D01*
X130302000Y-141515000D01*
X130302000Y-134979742D01*
X134458715Y-134979742D01*
X134527904Y-135262745D01*
X134650975Y-135526812D01*
X134823198Y-135761795D01*
X135037954Y-135958664D01*
X135286991Y-136109854D01*
X135560739Y-136209554D01*
X135573110Y-136211476D01*
X135803000Y-136090155D01*
X135803000Y-134747000D01*
X134602768Y-134747000D01*
X134458715Y-134979742D01*
X130302000Y-134979742D01*
X130302000Y-134260258D01*
X134458715Y-134260258D01*
X134602768Y-134493000D01*
X135803000Y-134493000D01*
X135803000Y-133149845D01*
X136057000Y-133149845D01*
X136057000Y-134493000D01*
X136077000Y-134493000D01*
X136077000Y-134747000D01*
X136057000Y-134747000D01*
X136057000Y-136090155D01*
X136286890Y-136211476D01*
X136299261Y-136209554D01*
X136573009Y-136109854D01*
X136822046Y-135958664D01*
X137036802Y-135761795D01*
X137037086Y-135761407D01*
X137091595Y-135863386D01*
X137202038Y-135997962D01*
X137336614Y-136108405D01*
X137490150Y-136190472D01*
X137656746Y-136241008D01*
X137830000Y-136258072D01*
X139030000Y-136258072D01*
X139203254Y-136241008D01*
X139369850Y-136190472D01*
X139523386Y-136108405D01*
X139657962Y-135997962D01*
X139768405Y-135863386D01*
X139850472Y-135709850D01*
X139901008Y-135543254D01*
X139918072Y-135370000D01*
X139918072Y-133870000D01*
X139901008Y-133696746D01*
X139850472Y-133530150D01*
X139768405Y-133376614D01*
X139657962Y-133242038D01*
X139523386Y-133131595D01*
X139369850Y-133049528D01*
X139203254Y-132998992D01*
X139030000Y-132981928D01*
X137830000Y-132981928D01*
X137656746Y-132998992D01*
X137490150Y-133049528D01*
X137336614Y-133131595D01*
X137202038Y-133242038D01*
X137091595Y-133376614D01*
X137037086Y-133478593D01*
X137036802Y-133478205D01*
X136822046Y-133281336D01*
X136573009Y-133130146D01*
X136299261Y-133030446D01*
X136286890Y-133028524D01*
X136057000Y-133149845D01*
X135803000Y-133149845D01*
X135573110Y-133028524D01*
X135560739Y-133030446D01*
X135286991Y-133130146D01*
X135037954Y-133281336D01*
X134823198Y-133478205D01*
X134650975Y-133713188D01*
X134527904Y-133977255D01*
X134458715Y-134260258D01*
X130302000Y-134260258D01*
X130302000Y-127359742D01*
X134458715Y-127359742D01*
X134527904Y-127642745D01*
X134650975Y-127906812D01*
X134823198Y-128141795D01*
X135037954Y-128338664D01*
X135286991Y-128489854D01*
X135560739Y-128589554D01*
X135573110Y-128591476D01*
X135803000Y-128470155D01*
X135803000Y-127127000D01*
X134602768Y-127127000D01*
X134458715Y-127359742D01*
X130302000Y-127359742D01*
X130302000Y-126640258D01*
X134458715Y-126640258D01*
X134602768Y-126873000D01*
X135803000Y-126873000D01*
X135803000Y-125529845D01*
X136057000Y-125529845D01*
X136057000Y-126873000D01*
X136077000Y-126873000D01*
X136077000Y-127127000D01*
X136057000Y-127127000D01*
X136057000Y-128470155D01*
X136286890Y-128591476D01*
X136299261Y-128589554D01*
X136573009Y-128489854D01*
X136822046Y-128338664D01*
X137036802Y-128141795D01*
X137037086Y-128141407D01*
X137091595Y-128243386D01*
X137202038Y-128377962D01*
X137336614Y-128488405D01*
X137490150Y-128570472D01*
X137656746Y-128621008D01*
X137830000Y-128638072D01*
X139030000Y-128638072D01*
X139203254Y-128621008D01*
X139369850Y-128570472D01*
X139523386Y-128488405D01*
X139657962Y-128377962D01*
X139768405Y-128243386D01*
X139850472Y-128089850D01*
X139901008Y-127923254D01*
X139918072Y-127750000D01*
X139918072Y-126250000D01*
X139901008Y-126076746D01*
X139850472Y-125910150D01*
X139768405Y-125756614D01*
X139657962Y-125622038D01*
X139523386Y-125511595D01*
X139369850Y-125429528D01*
X139203254Y-125378992D01*
X139030000Y-125361928D01*
X137830000Y-125361928D01*
X137656746Y-125378992D01*
X137490150Y-125429528D01*
X137336614Y-125511595D01*
X137202038Y-125622038D01*
X137091595Y-125756614D01*
X137037086Y-125858593D01*
X137036802Y-125858205D01*
X136822046Y-125661336D01*
X136573009Y-125510146D01*
X136299261Y-125410446D01*
X136286890Y-125408524D01*
X136057000Y-125529845D01*
X135803000Y-125529845D01*
X135573110Y-125408524D01*
X135560739Y-125410446D01*
X135286991Y-125510146D01*
X135037954Y-125661336D01*
X134823198Y-125858205D01*
X134650975Y-126093188D01*
X134527904Y-126357255D01*
X134458715Y-126640258D01*
X130302000Y-126640258D01*
X130302000Y-117385000D01*
X131861928Y-117385000D01*
X131861928Y-118835000D01*
X131878992Y-119008254D01*
X131929528Y-119174850D01*
X132011595Y-119328386D01*
X132122038Y-119462962D01*
X132256614Y-119573405D01*
X132410150Y-119655472D01*
X132576746Y-119706008D01*
X132750000Y-119723072D01*
X133950000Y-119723072D01*
X134123254Y-119706008D01*
X134289850Y-119655472D01*
X134443386Y-119573405D01*
X134577962Y-119462962D01*
X134688405Y-119328386D01*
X134744714Y-119223039D01*
X134760951Y-119244429D01*
X134978807Y-119437496D01*
X135230142Y-119584352D01*
X135493110Y-119676476D01*
X135723000Y-119555155D01*
X135723000Y-118237000D01*
X135703000Y-118237000D01*
X135703000Y-117983000D01*
X135723000Y-117983000D01*
X135723000Y-116664845D01*
X135977000Y-116664845D01*
X135977000Y-117983000D01*
X135997000Y-117983000D01*
X135997000Y-118237000D01*
X135977000Y-118237000D01*
X135977000Y-119555155D01*
X136206890Y-119676476D01*
X136469858Y-119584352D01*
X136721193Y-119437496D01*
X136939049Y-119244429D01*
X137095538Y-119038278D01*
X137109294Y-119064014D01*
X137294866Y-119290134D01*
X137520987Y-119475706D01*
X137778967Y-119613599D01*
X138058890Y-119698513D01*
X138350000Y-119727185D01*
X138641111Y-119698513D01*
X138921034Y-119613599D01*
X139179014Y-119475706D01*
X139405134Y-119290134D01*
X139590706Y-119064014D01*
X139600000Y-119046626D01*
X139609294Y-119064014D01*
X139794866Y-119290134D01*
X140020987Y-119475706D01*
X140278967Y-119613599D01*
X140558890Y-119698513D01*
X140850000Y-119727185D01*
X141141111Y-119698513D01*
X141421034Y-119613599D01*
X141679014Y-119475706D01*
X141905134Y-119290134D01*
X142090706Y-119064014D01*
X142228599Y-118806033D01*
X142313513Y-118526110D01*
X142335000Y-118307949D01*
X142335000Y-117912050D01*
X142313513Y-117693889D01*
X142228599Y-117413966D01*
X142090706Y-117155986D01*
X141905134Y-116929866D01*
X141679013Y-116744294D01*
X141421033Y-116606401D01*
X141141110Y-116521487D01*
X140850000Y-116492815D01*
X140558889Y-116521487D01*
X140278966Y-116606401D01*
X140020986Y-116744294D01*
X139794866Y-116929866D01*
X139609294Y-117155987D01*
X139600000Y-117173374D01*
X139590706Y-117155986D01*
X139405134Y-116929866D01*
X139179013Y-116744294D01*
X138921033Y-116606401D01*
X138641110Y-116521487D01*
X138350000Y-116492815D01*
X138058889Y-116521487D01*
X137778966Y-116606401D01*
X137520986Y-116744294D01*
X137294866Y-116929866D01*
X137109294Y-117155987D01*
X137095538Y-117181722D01*
X136939049Y-116975571D01*
X136721193Y-116782504D01*
X136469858Y-116635648D01*
X136206890Y-116543524D01*
X135977000Y-116664845D01*
X135723000Y-116664845D01*
X135493110Y-116543524D01*
X135230142Y-116635648D01*
X134978807Y-116782504D01*
X134760951Y-116975571D01*
X134744714Y-116996961D01*
X134688405Y-116891614D01*
X134577962Y-116757038D01*
X134443386Y-116646595D01*
X134289850Y-116564528D01*
X134123254Y-116513992D01*
X133950000Y-116496928D01*
X132750000Y-116496928D01*
X132576746Y-116513992D01*
X132410150Y-116564528D01*
X132256614Y-116646595D01*
X132122038Y-116757038D01*
X132011595Y-116891614D01*
X131929528Y-117045150D01*
X131878992Y-117211746D01*
X131861928Y-117385000D01*
X130302000Y-117385000D01*
X130302000Y-108495000D01*
X131861928Y-108495000D01*
X131861928Y-109945000D01*
X131878992Y-110118254D01*
X131929528Y-110284850D01*
X132011595Y-110438386D01*
X132122038Y-110572962D01*
X132256614Y-110683405D01*
X132410150Y-110765472D01*
X132576746Y-110816008D01*
X132750000Y-110833072D01*
X133950000Y-110833072D01*
X134123254Y-110816008D01*
X134289850Y-110765472D01*
X134443386Y-110683405D01*
X134577962Y-110572962D01*
X134688405Y-110438386D01*
X134744714Y-110333039D01*
X134760951Y-110354429D01*
X134978807Y-110547496D01*
X135230142Y-110694352D01*
X135493110Y-110786476D01*
X135723000Y-110665155D01*
X135723000Y-109347000D01*
X135703000Y-109347000D01*
X135703000Y-109093000D01*
X135723000Y-109093000D01*
X135723000Y-107774845D01*
X135977000Y-107774845D01*
X135977000Y-109093000D01*
X135997000Y-109093000D01*
X135997000Y-109347000D01*
X135977000Y-109347000D01*
X135977000Y-110665155D01*
X136206890Y-110786476D01*
X136469858Y-110694352D01*
X136721193Y-110547496D01*
X136939049Y-110354429D01*
X137095538Y-110148278D01*
X137109294Y-110174014D01*
X137294866Y-110400134D01*
X137520987Y-110585706D01*
X137778967Y-110723599D01*
X138058890Y-110808513D01*
X138350000Y-110837185D01*
X138641111Y-110808513D01*
X138921034Y-110723599D01*
X139179014Y-110585706D01*
X139405134Y-110400134D01*
X139590706Y-110174014D01*
X139600000Y-110156626D01*
X139609294Y-110174014D01*
X139794866Y-110400134D01*
X140020987Y-110585706D01*
X140278967Y-110723599D01*
X140558890Y-110808513D01*
X140850000Y-110837185D01*
X141141111Y-110808513D01*
X141421034Y-110723599D01*
X141679014Y-110585706D01*
X141905134Y-110400134D01*
X142090706Y-110174014D01*
X142228599Y-109916033D01*
X142313513Y-109636110D01*
X142335000Y-109417949D01*
X142335000Y-109022050D01*
X142313513Y-108803889D01*
X142228599Y-108523966D01*
X142090706Y-108265986D01*
X141905134Y-108039866D01*
X141679013Y-107854294D01*
X141421033Y-107716401D01*
X141141110Y-107631487D01*
X140850000Y-107602815D01*
X140558889Y-107631487D01*
X140278966Y-107716401D01*
X140020986Y-107854294D01*
X139794866Y-108039866D01*
X139609294Y-108265987D01*
X139600000Y-108283374D01*
X139590706Y-108265986D01*
X139405134Y-108039866D01*
X139179013Y-107854294D01*
X138921033Y-107716401D01*
X138641110Y-107631487D01*
X138350000Y-107602815D01*
X138058889Y-107631487D01*
X137778966Y-107716401D01*
X137520986Y-107854294D01*
X137294866Y-108039866D01*
X137109294Y-108265987D01*
X137095538Y-108291722D01*
X136939049Y-108085571D01*
X136721193Y-107892504D01*
X136469858Y-107745648D01*
X136206890Y-107653524D01*
X135977000Y-107774845D01*
X135723000Y-107774845D01*
X135493110Y-107653524D01*
X135230142Y-107745648D01*
X134978807Y-107892504D01*
X134760951Y-108085571D01*
X134744714Y-108106961D01*
X134688405Y-108001614D01*
X134577962Y-107867038D01*
X134443386Y-107756595D01*
X134289850Y-107674528D01*
X134123254Y-107623992D01*
X133950000Y-107606928D01*
X132750000Y-107606928D01*
X132576746Y-107623992D01*
X132410150Y-107674528D01*
X132256614Y-107756595D01*
X132122038Y-107867038D01*
X132011595Y-108001614D01*
X131929528Y-108155150D01*
X131878992Y-108321746D01*
X131861928Y-108495000D01*
X130302000Y-108495000D01*
X130302000Y-102647050D01*
X134445000Y-102647050D01*
X134445000Y-103092949D01*
X134466487Y-103311110D01*
X134551401Y-103591033D01*
X134689294Y-103849013D01*
X134874866Y-104075134D01*
X135100986Y-104260706D01*
X135358966Y-104398599D01*
X135638889Y-104483513D01*
X135930000Y-104512185D01*
X136221110Y-104483513D01*
X136501033Y-104398599D01*
X136759013Y-104260706D01*
X136985134Y-104075134D01*
X137037223Y-104011663D01*
X137091595Y-104113386D01*
X137202038Y-104247962D01*
X137336614Y-104358405D01*
X137490150Y-104440472D01*
X137656746Y-104491008D01*
X137830000Y-104508072D01*
X139030000Y-104508072D01*
X139203254Y-104491008D01*
X139369850Y-104440472D01*
X139523386Y-104358405D01*
X139657962Y-104247962D01*
X139768405Y-104113386D01*
X139850472Y-103959850D01*
X139901008Y-103793254D01*
X139918072Y-103620000D01*
X139918072Y-102120000D01*
X139901008Y-101946746D01*
X139850472Y-101780150D01*
X139768405Y-101626614D01*
X139657962Y-101492038D01*
X139523386Y-101381595D01*
X139369850Y-101299528D01*
X139203254Y-101248992D01*
X139030000Y-101231928D01*
X137830000Y-101231928D01*
X137656746Y-101248992D01*
X137490150Y-101299528D01*
X137336614Y-101381595D01*
X137202038Y-101492038D01*
X137091595Y-101626614D01*
X137037223Y-101728337D01*
X136985134Y-101664866D01*
X136759014Y-101479294D01*
X136501034Y-101341401D01*
X136221111Y-101256487D01*
X135930000Y-101227815D01*
X135638890Y-101256487D01*
X135358967Y-101341401D01*
X135100987Y-101479294D01*
X134874866Y-101664866D01*
X134689294Y-101890986D01*
X134551401Y-102148966D01*
X134466487Y-102428889D01*
X134445000Y-102647050D01*
X130302000Y-102647050D01*
X130302000Y-93255000D01*
X133131928Y-93255000D01*
X133131928Y-94705000D01*
X133148992Y-94878254D01*
X133199528Y-95044850D01*
X133281595Y-95198386D01*
X133392038Y-95332962D01*
X133526614Y-95443405D01*
X133680150Y-95525472D01*
X133846746Y-95576008D01*
X134020000Y-95593072D01*
X135220000Y-95593072D01*
X135393254Y-95576008D01*
X135559850Y-95525472D01*
X135713386Y-95443405D01*
X135847962Y-95332962D01*
X135958405Y-95198386D01*
X136014714Y-95093039D01*
X136030951Y-95114429D01*
X136248807Y-95307496D01*
X136500142Y-95454352D01*
X136763110Y-95546476D01*
X136993000Y-95425155D01*
X136993000Y-94107000D01*
X136973000Y-94107000D01*
X136973000Y-93853000D01*
X136993000Y-93853000D01*
X136993000Y-92534845D01*
X137247000Y-92534845D01*
X137247000Y-93853000D01*
X137267000Y-93853000D01*
X137267000Y-94107000D01*
X137247000Y-94107000D01*
X137247000Y-95425155D01*
X137476890Y-95546476D01*
X137739858Y-95454352D01*
X137991193Y-95307496D01*
X138209049Y-95114429D01*
X138365538Y-94908278D01*
X138379294Y-94934014D01*
X138564866Y-95160134D01*
X138790987Y-95345706D01*
X139048967Y-95483599D01*
X139328890Y-95568513D01*
X139620000Y-95597185D01*
X139888455Y-95570744D01*
X141466374Y-97148664D01*
X141495656Y-97184344D01*
X141638028Y-97301186D01*
X141800460Y-97388007D01*
X141923243Y-97425253D01*
X141976707Y-97441471D01*
X141995110Y-97443283D01*
X142114068Y-97455000D01*
X142114074Y-97455000D01*
X142159999Y-97459523D01*
X142205924Y-97455000D01*
X152575604Y-97455000D01*
X152755241Y-97634637D01*
X152987759Y-97790000D01*
X152755241Y-97945363D01*
X152555363Y-98145241D01*
X152398320Y-98380273D01*
X152290147Y-98641426D01*
X152235000Y-98918665D01*
X152235000Y-99201335D01*
X152290147Y-99478574D01*
X152398320Y-99739727D01*
X152555363Y-99974759D01*
X152755241Y-100174637D01*
X152987759Y-100330000D01*
X152755241Y-100485363D01*
X152555363Y-100685241D01*
X152398320Y-100920273D01*
X152290147Y-101181426D01*
X152235000Y-101458665D01*
X152235000Y-101741335D01*
X152290147Y-102018574D01*
X152398320Y-102279727D01*
X152555363Y-102514759D01*
X152755241Y-102714637D01*
X152987759Y-102870000D01*
X152755241Y-103025363D01*
X152555363Y-103225241D01*
X152398320Y-103460273D01*
X152290147Y-103721426D01*
X152235000Y-103998665D01*
X152235000Y-104281335D01*
X152290147Y-104558574D01*
X152398320Y-104819727D01*
X152555363Y-105054759D01*
X152755241Y-105254637D01*
X152987759Y-105410000D01*
X152755241Y-105565363D01*
X152555363Y-105765241D01*
X152398320Y-106000273D01*
X152290147Y-106261426D01*
X152235000Y-106538665D01*
X152235000Y-106821335D01*
X152290147Y-107098574D01*
X152398320Y-107359727D01*
X152555363Y-107594759D01*
X152755241Y-107794637D01*
X152987759Y-107950000D01*
X152755241Y-108105363D01*
X152555363Y-108305241D01*
X152398320Y-108540273D01*
X152290147Y-108801426D01*
X152235000Y-109078665D01*
X152235000Y-109361335D01*
X152290147Y-109638574D01*
X152398320Y-109899727D01*
X152555363Y-110134759D01*
X152755241Y-110334637D01*
X152987759Y-110490000D01*
X152755241Y-110645363D01*
X152555363Y-110845241D01*
X152398320Y-111080273D01*
X152290147Y-111341426D01*
X152235000Y-111618665D01*
X152235000Y-111901335D01*
X152290147Y-112178574D01*
X152398320Y-112439727D01*
X152555363Y-112674759D01*
X152755241Y-112874637D01*
X152987759Y-113030000D01*
X152755241Y-113185363D01*
X152555363Y-113385241D01*
X152398320Y-113620273D01*
X152290147Y-113881426D01*
X152235000Y-114158665D01*
X152235000Y-114441335D01*
X152290147Y-114718574D01*
X152398320Y-114979727D01*
X152555363Y-115214759D01*
X152755241Y-115414637D01*
X152987759Y-115570000D01*
X152755241Y-115725363D01*
X152555363Y-115925241D01*
X152398320Y-116160273D01*
X152290147Y-116421426D01*
X152235000Y-116698665D01*
X152235000Y-116981335D01*
X152290147Y-117258574D01*
X152398320Y-117519727D01*
X152555363Y-117754759D01*
X152755241Y-117954637D01*
X152987759Y-118110000D01*
X152755241Y-118265363D01*
X152555363Y-118465241D01*
X152398320Y-118700273D01*
X152290147Y-118961426D01*
X152235000Y-119238665D01*
X152235000Y-119521335D01*
X152290147Y-119798574D01*
X152398320Y-120059727D01*
X152555363Y-120294759D01*
X152755241Y-120494637D01*
X152987759Y-120650000D01*
X152755241Y-120805363D01*
X152555363Y-121005241D01*
X152398320Y-121240273D01*
X152290147Y-121501426D01*
X152235000Y-121778665D01*
X152235000Y-122061335D01*
X152290147Y-122338574D01*
X152398320Y-122599727D01*
X152555363Y-122834759D01*
X152755241Y-123034637D01*
X152987759Y-123190000D01*
X152755241Y-123345363D01*
X152555363Y-123545241D01*
X152398320Y-123780273D01*
X152290147Y-124041426D01*
X152235000Y-124318665D01*
X152235000Y-124601335D01*
X152290147Y-124878574D01*
X152398320Y-125139727D01*
X152555363Y-125374759D01*
X152755241Y-125574637D01*
X152987759Y-125730000D01*
X152755241Y-125885363D01*
X152555363Y-126085241D01*
X152398320Y-126320273D01*
X152290147Y-126581426D01*
X152235000Y-126858665D01*
X152235000Y-127141335D01*
X152290147Y-127418574D01*
X152398320Y-127679727D01*
X152555363Y-127914759D01*
X152755241Y-128114637D01*
X152987759Y-128270000D01*
X152755241Y-128425363D01*
X152555363Y-128625241D01*
X152398320Y-128860273D01*
X152290147Y-129121426D01*
X152235000Y-129398665D01*
X152235000Y-129681335D01*
X152290147Y-129958574D01*
X152398320Y-130219727D01*
X152555363Y-130454759D01*
X152755241Y-130654637D01*
X152987759Y-130810000D01*
X152755241Y-130965363D01*
X152555363Y-131165241D01*
X152398320Y-131400273D01*
X152290147Y-131661426D01*
X152235000Y-131938665D01*
X152235000Y-132221335D01*
X152290147Y-132498574D01*
X152398320Y-132759727D01*
X152555363Y-132994759D01*
X152755241Y-133194637D01*
X152987759Y-133350000D01*
X152755241Y-133505363D01*
X152555363Y-133705241D01*
X152398320Y-133940273D01*
X152290147Y-134201426D01*
X152235000Y-134478665D01*
X152235000Y-134761335D01*
X152290147Y-135038574D01*
X152398320Y-135299727D01*
X152555363Y-135534759D01*
X152755241Y-135734637D01*
X152987759Y-135890000D01*
X152755241Y-136045363D01*
X152555363Y-136245241D01*
X152398320Y-136480273D01*
X152290147Y-136741426D01*
X152235000Y-137018665D01*
X152235000Y-137301335D01*
X152290147Y-137578574D01*
X152398320Y-137839727D01*
X152555363Y-138074759D01*
X152755241Y-138274637D01*
X152987759Y-138430000D01*
X152755241Y-138585363D01*
X152555363Y-138785241D01*
X152398320Y-139020273D01*
X152290147Y-139281426D01*
X152235000Y-139558665D01*
X152235000Y-139841335D01*
X152290147Y-140118574D01*
X152398320Y-140379727D01*
X152555363Y-140614759D01*
X152755241Y-140814637D01*
X152987759Y-140970000D01*
X152755241Y-141125363D01*
X152555363Y-141325241D01*
X152398320Y-141560273D01*
X152290147Y-141821426D01*
X152235000Y-142098665D01*
X152235000Y-142381335D01*
X152290147Y-142658574D01*
X152398320Y-142919727D01*
X152555363Y-143154759D01*
X152755241Y-143354637D01*
X152987759Y-143510000D01*
X152755241Y-143665363D01*
X152555363Y-143865241D01*
X152398320Y-144100273D01*
X152290147Y-144361426D01*
X152235000Y-144638665D01*
X152235000Y-144921335D01*
X152290147Y-145198574D01*
X152398320Y-145459727D01*
X152555363Y-145694759D01*
X152755241Y-145894637D01*
X152987759Y-146050000D01*
X152755241Y-146205363D01*
X152555363Y-146405241D01*
X152398320Y-146640273D01*
X152290147Y-146901426D01*
X152235000Y-147178665D01*
X152235000Y-147461335D01*
X152290147Y-147738574D01*
X152398320Y-147999727D01*
X152555363Y-148234759D01*
X152755241Y-148434637D01*
X152987759Y-148590000D01*
X152755241Y-148745363D01*
X152555363Y-148945241D01*
X152398320Y-149180273D01*
X152290147Y-149441426D01*
X152235000Y-149718665D01*
X152235000Y-150001335D01*
X152290147Y-150278574D01*
X152398320Y-150539727D01*
X152555363Y-150774759D01*
X152755241Y-150974637D01*
X152990273Y-151131680D01*
X153251426Y-151239853D01*
X153528665Y-151295000D01*
X153811335Y-151295000D01*
X154088574Y-151239853D01*
X154349727Y-151131680D01*
X154584759Y-150974637D01*
X154784637Y-150774759D01*
X154941680Y-150539727D01*
X155049853Y-150278574D01*
X155105000Y-150001335D01*
X155105000Y-149718665D01*
X155049853Y-149441426D01*
X154941680Y-149180273D01*
X154784637Y-148945241D01*
X154584759Y-148745363D01*
X154352241Y-148590000D01*
X154584759Y-148434637D01*
X154784637Y-148234759D01*
X154941680Y-147999727D01*
X155049853Y-147738574D01*
X155105000Y-147461335D01*
X155105000Y-147178665D01*
X155049853Y-146901426D01*
X154941680Y-146640273D01*
X154784637Y-146405241D01*
X154584759Y-146205363D01*
X154352241Y-146050000D01*
X154584759Y-145894637D01*
X154784637Y-145694759D01*
X154941680Y-145459727D01*
X155049853Y-145198574D01*
X155105000Y-144921335D01*
X155105000Y-144638665D01*
X155049853Y-144361426D01*
X154941680Y-144100273D01*
X154784637Y-143865241D01*
X154584759Y-143665363D01*
X154352241Y-143510000D01*
X154584759Y-143354637D01*
X154784637Y-143154759D01*
X154941680Y-142919727D01*
X155049853Y-142658574D01*
X155105000Y-142381335D01*
X155105000Y-142098665D01*
X155049853Y-141821426D01*
X154941680Y-141560273D01*
X154784637Y-141325241D01*
X154584759Y-141125363D01*
X154352241Y-140970000D01*
X154584759Y-140814637D01*
X154784637Y-140614759D01*
X154941680Y-140379727D01*
X155049853Y-140118574D01*
X155105000Y-139841335D01*
X155105000Y-139558665D01*
X155049853Y-139281426D01*
X154941680Y-139020273D01*
X154784637Y-138785241D01*
X154584759Y-138585363D01*
X154352241Y-138430000D01*
X154584759Y-138274637D01*
X154784637Y-138074759D01*
X154941680Y-137839727D01*
X155049853Y-137578574D01*
X155105000Y-137301335D01*
X155105000Y-137018665D01*
X155049853Y-136741426D01*
X154941680Y-136480273D01*
X154784637Y-136245241D01*
X154584759Y-136045363D01*
X154352241Y-135890000D01*
X154584759Y-135734637D01*
X154784637Y-135534759D01*
X154941680Y-135299727D01*
X155049853Y-135038574D01*
X155105000Y-134761335D01*
X155105000Y-134478665D01*
X155049853Y-134201426D01*
X154941680Y-133940273D01*
X154784637Y-133705241D01*
X154584759Y-133505363D01*
X154352241Y-133350000D01*
X154584759Y-133194637D01*
X154784637Y-132994759D01*
X154941680Y-132759727D01*
X155049853Y-132498574D01*
X155105000Y-132221335D01*
X155105000Y-131938665D01*
X155049853Y-131661426D01*
X154941680Y-131400273D01*
X154784637Y-131165241D01*
X154584759Y-130965363D01*
X154352241Y-130810000D01*
X154584759Y-130654637D01*
X154784637Y-130454759D01*
X154941680Y-130219727D01*
X155049853Y-129958574D01*
X155105000Y-129681335D01*
X155105000Y-129398665D01*
X167475000Y-129398665D01*
X167475000Y-129681335D01*
X167530147Y-129958574D01*
X167638320Y-130219727D01*
X167795363Y-130454759D01*
X167995241Y-130654637D01*
X168227759Y-130810000D01*
X167995241Y-130965363D01*
X167795363Y-131165241D01*
X167638320Y-131400273D01*
X167530147Y-131661426D01*
X167475000Y-131938665D01*
X167475000Y-132221335D01*
X167530147Y-132498574D01*
X167638320Y-132759727D01*
X167795363Y-132994759D01*
X167995241Y-133194637D01*
X168227759Y-133350000D01*
X167995241Y-133505363D01*
X167795363Y-133705241D01*
X167638320Y-133940273D01*
X167530147Y-134201426D01*
X167475000Y-134478665D01*
X167475000Y-134761335D01*
X167530147Y-135038574D01*
X167638320Y-135299727D01*
X167795363Y-135534759D01*
X167995241Y-135734637D01*
X168227759Y-135890000D01*
X167995241Y-136045363D01*
X167795363Y-136245241D01*
X167638320Y-136480273D01*
X167530147Y-136741426D01*
X167475000Y-137018665D01*
X167475000Y-137301335D01*
X167530147Y-137578574D01*
X167638320Y-137839727D01*
X167795363Y-138074759D01*
X167995241Y-138274637D01*
X168227759Y-138430000D01*
X167995241Y-138585363D01*
X167795363Y-138785241D01*
X167638320Y-139020273D01*
X167530147Y-139281426D01*
X167475000Y-139558665D01*
X167475000Y-139841335D01*
X167530147Y-140118574D01*
X167638320Y-140379727D01*
X167795363Y-140614759D01*
X167995241Y-140814637D01*
X168227759Y-140970000D01*
X167995241Y-141125363D01*
X167795363Y-141325241D01*
X167638320Y-141560273D01*
X167530147Y-141821426D01*
X167475000Y-142098665D01*
X167475000Y-142381335D01*
X167530147Y-142658574D01*
X167638320Y-142919727D01*
X167795363Y-143154759D01*
X167995241Y-143354637D01*
X168227759Y-143510000D01*
X167995241Y-143665363D01*
X167795363Y-143865241D01*
X167638320Y-144100273D01*
X167530147Y-144361426D01*
X167475000Y-144638665D01*
X167475000Y-144921335D01*
X167530147Y-145198574D01*
X167638320Y-145459727D01*
X167795363Y-145694759D01*
X167995241Y-145894637D01*
X168227759Y-146050000D01*
X167995241Y-146205363D01*
X167795363Y-146405241D01*
X167638320Y-146640273D01*
X167530147Y-146901426D01*
X167475000Y-147178665D01*
X167475000Y-147461335D01*
X167530147Y-147738574D01*
X167638320Y-147999727D01*
X167795363Y-148234759D01*
X167995241Y-148434637D01*
X168227759Y-148590000D01*
X167995241Y-148745363D01*
X167795363Y-148945241D01*
X167638320Y-149180273D01*
X167530147Y-149441426D01*
X167475000Y-149718665D01*
X167475000Y-150001335D01*
X167530147Y-150278574D01*
X167638320Y-150539727D01*
X167795363Y-150774759D01*
X167995241Y-150974637D01*
X168230273Y-151131680D01*
X168491426Y-151239853D01*
X168768665Y-151295000D01*
X169051335Y-151295000D01*
X169328574Y-151239853D01*
X169589727Y-151131680D01*
X169824759Y-150974637D01*
X170024637Y-150774759D01*
X170181680Y-150539727D01*
X170289853Y-150278574D01*
X170345000Y-150001335D01*
X170345000Y-149718665D01*
X170289853Y-149441426D01*
X170181680Y-149180273D01*
X170024637Y-148945241D01*
X169824759Y-148745363D01*
X169592241Y-148590000D01*
X169824759Y-148434637D01*
X170024637Y-148234759D01*
X170181680Y-147999727D01*
X170289853Y-147738574D01*
X170345000Y-147461335D01*
X170345000Y-147178665D01*
X170289853Y-146901426D01*
X170181680Y-146640273D01*
X170024637Y-146405241D01*
X169824759Y-146205363D01*
X169592241Y-146050000D01*
X169824759Y-145894637D01*
X170024637Y-145694759D01*
X170181680Y-145459727D01*
X170289853Y-145198574D01*
X170345000Y-144921335D01*
X170345000Y-144638665D01*
X170344021Y-144633740D01*
X178855000Y-144633740D01*
X178855000Y-144926260D01*
X178912068Y-145213158D01*
X179024010Y-145483411D01*
X179186525Y-145726632D01*
X179393368Y-145933475D01*
X179636589Y-146095990D01*
X179906842Y-146207932D01*
X180193740Y-146265000D01*
X180486260Y-146265000D01*
X180773158Y-146207932D01*
X181043411Y-146095990D01*
X181286632Y-145933475D01*
X181493475Y-145726632D01*
X181610000Y-145552240D01*
X181726525Y-145726632D01*
X181933368Y-145933475D01*
X182176589Y-146095990D01*
X182446842Y-146207932D01*
X182733740Y-146265000D01*
X183026260Y-146265000D01*
X183313158Y-146207932D01*
X183583411Y-146095990D01*
X183826632Y-145933475D01*
X183958487Y-145801620D01*
X183980498Y-145874180D01*
X184039463Y-145984494D01*
X184118815Y-146081185D01*
X184215506Y-146160537D01*
X184325820Y-146219502D01*
X184445518Y-146255812D01*
X184570000Y-146268072D01*
X185134250Y-146265000D01*
X185293000Y-146106250D01*
X185293000Y-144907000D01*
X185547000Y-144907000D01*
X185547000Y-146106250D01*
X185705750Y-146265000D01*
X186270000Y-146268072D01*
X186394482Y-146255812D01*
X186514180Y-146219502D01*
X186624494Y-146160537D01*
X186721185Y-146081185D01*
X186800537Y-145984494D01*
X186859502Y-145874180D01*
X186895812Y-145754482D01*
X186908072Y-145630000D01*
X186905000Y-145065750D01*
X186746250Y-144907000D01*
X185547000Y-144907000D01*
X185293000Y-144907000D01*
X185273000Y-144907000D01*
X185273000Y-144653000D01*
X185293000Y-144653000D01*
X185293000Y-143453750D01*
X185547000Y-143453750D01*
X185547000Y-144653000D01*
X186746250Y-144653000D01*
X186905000Y-144494250D01*
X186908072Y-143930000D01*
X186895812Y-143805518D01*
X186859502Y-143685820D01*
X186800537Y-143575506D01*
X186721185Y-143478815D01*
X186624494Y-143399463D01*
X186514180Y-143340498D01*
X186394482Y-143304188D01*
X186270000Y-143291928D01*
X185705750Y-143295000D01*
X185547000Y-143453750D01*
X185293000Y-143453750D01*
X185134250Y-143295000D01*
X184570000Y-143291928D01*
X184445518Y-143304188D01*
X184325820Y-143340498D01*
X184215506Y-143399463D01*
X184118815Y-143478815D01*
X184039463Y-143575506D01*
X183980498Y-143685820D01*
X183958487Y-143758380D01*
X183826632Y-143626525D01*
X183583411Y-143464010D01*
X183313158Y-143352068D01*
X183026260Y-143295000D01*
X182733740Y-143295000D01*
X182446842Y-143352068D01*
X182176589Y-143464010D01*
X181933368Y-143626525D01*
X181726525Y-143833368D01*
X181610000Y-144007760D01*
X181493475Y-143833368D01*
X181286632Y-143626525D01*
X181043411Y-143464010D01*
X180773158Y-143352068D01*
X180486260Y-143295000D01*
X180193740Y-143295000D01*
X179906842Y-143352068D01*
X179636589Y-143464010D01*
X179393368Y-143626525D01*
X179186525Y-143833368D01*
X179024010Y-144076589D01*
X178912068Y-144346842D01*
X178855000Y-144633740D01*
X170344021Y-144633740D01*
X170289853Y-144361426D01*
X170181680Y-144100273D01*
X170024637Y-143865241D01*
X169824759Y-143665363D01*
X169592241Y-143510000D01*
X169824759Y-143354637D01*
X170024637Y-143154759D01*
X170181680Y-142919727D01*
X170289853Y-142658574D01*
X170345000Y-142381335D01*
X170345000Y-142098665D01*
X170289853Y-141821426D01*
X170181680Y-141560273D01*
X170024637Y-141325241D01*
X169824759Y-141125363D01*
X169592241Y-140970000D01*
X169824759Y-140814637D01*
X170024637Y-140614759D01*
X170181680Y-140379727D01*
X170289853Y-140118574D01*
X170345000Y-139841335D01*
X170345000Y-139558665D01*
X170344021Y-139553740D01*
X178855000Y-139553740D01*
X178855000Y-139846260D01*
X178912068Y-140133158D01*
X179024010Y-140403411D01*
X179186525Y-140646632D01*
X179393368Y-140853475D01*
X179636589Y-141015990D01*
X179906842Y-141127932D01*
X180193740Y-141185000D01*
X180486260Y-141185000D01*
X180773158Y-141127932D01*
X181043411Y-141015990D01*
X181286632Y-140853475D01*
X181493475Y-140646632D01*
X181610000Y-140472240D01*
X181726525Y-140646632D01*
X181933368Y-140853475D01*
X182176589Y-141015990D01*
X182446842Y-141127932D01*
X182733740Y-141185000D01*
X183026260Y-141185000D01*
X183313158Y-141127932D01*
X183583411Y-141015990D01*
X183826632Y-140853475D01*
X183958487Y-140721620D01*
X183980498Y-140794180D01*
X184039463Y-140904494D01*
X184118815Y-141001185D01*
X184215506Y-141080537D01*
X184325820Y-141139502D01*
X184445518Y-141175812D01*
X184570000Y-141188072D01*
X185134250Y-141185000D01*
X185293000Y-141026250D01*
X185293000Y-139827000D01*
X185547000Y-139827000D01*
X185547000Y-141026250D01*
X185705750Y-141185000D01*
X186270000Y-141188072D01*
X186394482Y-141175812D01*
X186514180Y-141139502D01*
X186624494Y-141080537D01*
X186721185Y-141001185D01*
X186800537Y-140904494D01*
X186859502Y-140794180D01*
X186895812Y-140674482D01*
X186908072Y-140550000D01*
X186905000Y-139985750D01*
X186746250Y-139827000D01*
X185547000Y-139827000D01*
X185293000Y-139827000D01*
X185273000Y-139827000D01*
X185273000Y-139573000D01*
X185293000Y-139573000D01*
X185293000Y-138373750D01*
X185547000Y-138373750D01*
X185547000Y-139573000D01*
X186746250Y-139573000D01*
X186905000Y-139414250D01*
X186908072Y-138850000D01*
X186895812Y-138725518D01*
X186859502Y-138605820D01*
X186800537Y-138495506D01*
X186721185Y-138398815D01*
X186624494Y-138319463D01*
X186514180Y-138260498D01*
X186394482Y-138224188D01*
X186270000Y-138211928D01*
X185705750Y-138215000D01*
X185547000Y-138373750D01*
X185293000Y-138373750D01*
X185134250Y-138215000D01*
X184570000Y-138211928D01*
X184560885Y-138212826D01*
X184578711Y-138195000D01*
X187909172Y-138195000D01*
X187960000Y-138200006D01*
X188010828Y-138195000D01*
X188010838Y-138195000D01*
X188162895Y-138180024D01*
X188357993Y-138120841D01*
X188537797Y-138024734D01*
X188695396Y-137895396D01*
X188727807Y-137855903D01*
X189925908Y-136657803D01*
X189965396Y-136625396D01*
X190000844Y-136582203D01*
X190094734Y-136467798D01*
X190146104Y-136371691D01*
X190190841Y-136287993D01*
X190250024Y-136092895D01*
X190265000Y-135940838D01*
X190265000Y-135940829D01*
X190270006Y-135890001D01*
X190265000Y-135839173D01*
X190265000Y-134844613D01*
X190323386Y-134813405D01*
X190457962Y-134702962D01*
X190568405Y-134568386D01*
X190650472Y-134414850D01*
X190701008Y-134248254D01*
X190718072Y-134075000D01*
X190718072Y-132625000D01*
X190701008Y-132451746D01*
X190650472Y-132285150D01*
X190568405Y-132131614D01*
X190457962Y-131997038D01*
X190323386Y-131886595D01*
X190169850Y-131804528D01*
X190003254Y-131753992D01*
X189830000Y-131736928D01*
X188630000Y-131736928D01*
X188456746Y-131753992D01*
X188290150Y-131804528D01*
X188136614Y-131886595D01*
X188002038Y-131997038D01*
X187891595Y-132131614D01*
X187835286Y-132236961D01*
X187819049Y-132215571D01*
X187601193Y-132022504D01*
X187349858Y-131875648D01*
X187086890Y-131783524D01*
X186857000Y-131904845D01*
X186857000Y-133223000D01*
X186877000Y-133223000D01*
X186877000Y-133477000D01*
X186857000Y-133477000D01*
X186857000Y-134795155D01*
X187086890Y-134916476D01*
X187349858Y-134824352D01*
X187601193Y-134677496D01*
X187819049Y-134484429D01*
X187835286Y-134463039D01*
X187891595Y-134568386D01*
X188002038Y-134702962D01*
X188136614Y-134813405D01*
X188195001Y-134844613D01*
X188195001Y-135461288D01*
X187531290Y-136125000D01*
X184200827Y-136125000D01*
X184149999Y-136119994D01*
X184099171Y-136125000D01*
X184099162Y-136125000D01*
X183947105Y-136139976D01*
X183752007Y-136199159D01*
X183673713Y-136241008D01*
X183572202Y-136295266D01*
X183454092Y-136392197D01*
X183414604Y-136424604D01*
X183382197Y-136464092D01*
X182184097Y-137662193D01*
X182144604Y-137694604D01*
X182015266Y-137852203D01*
X181919159Y-138032008D01*
X181859976Y-138227106D01*
X181845000Y-138379163D01*
X181845000Y-138379172D01*
X181839994Y-138430000D01*
X181845000Y-138480829D01*
X181845000Y-138634893D01*
X181726525Y-138753368D01*
X181610000Y-138927760D01*
X181493475Y-138753368D01*
X181286632Y-138546525D01*
X181043411Y-138384010D01*
X180773158Y-138272068D01*
X180486260Y-138215000D01*
X180193740Y-138215000D01*
X179906842Y-138272068D01*
X179636589Y-138384010D01*
X179393368Y-138546525D01*
X179186525Y-138753368D01*
X179024010Y-138996589D01*
X178912068Y-139266842D01*
X178855000Y-139553740D01*
X170344021Y-139553740D01*
X170289853Y-139281426D01*
X170181680Y-139020273D01*
X170024637Y-138785241D01*
X169824759Y-138585363D01*
X169592241Y-138430000D01*
X169824759Y-138274637D01*
X170024637Y-138074759D01*
X170181680Y-137839727D01*
X170289853Y-137578574D01*
X170345000Y-137301335D01*
X170345000Y-137018665D01*
X170289853Y-136741426D01*
X170181680Y-136480273D01*
X170024637Y-136245241D01*
X169824759Y-136045363D01*
X169592241Y-135890000D01*
X169824759Y-135734637D01*
X170024637Y-135534759D01*
X170181680Y-135299727D01*
X170289853Y-135038574D01*
X170345000Y-134761335D01*
X170345000Y-134478665D01*
X170289853Y-134201426D01*
X170181680Y-133940273D01*
X170024637Y-133705241D01*
X169824759Y-133505363D01*
X169592241Y-133350000D01*
X169824759Y-133194637D01*
X170024637Y-132994759D01*
X170181680Y-132759727D01*
X170289853Y-132498574D01*
X170345000Y-132221335D01*
X170345000Y-131938665D01*
X170289853Y-131661426D01*
X170181680Y-131400273D01*
X170024637Y-131165241D01*
X169824759Y-130965363D01*
X169592241Y-130810000D01*
X169824759Y-130654637D01*
X170024637Y-130454759D01*
X170181680Y-130219727D01*
X170289853Y-129958574D01*
X170345000Y-129681335D01*
X170345000Y-129398665D01*
X170289853Y-129121426D01*
X170181680Y-128860273D01*
X170024637Y-128625241D01*
X169824759Y-128425363D01*
X169590872Y-128269085D01*
X169651514Y-128236671D01*
X169723097Y-127992702D01*
X168910000Y-127179605D01*
X168096903Y-127992702D01*
X168168486Y-128236671D01*
X168232992Y-128267194D01*
X168230273Y-128268320D01*
X167995241Y-128425363D01*
X167795363Y-128625241D01*
X167638320Y-128860273D01*
X167530147Y-129121426D01*
X167475000Y-129398665D01*
X155105000Y-129398665D01*
X155049853Y-129121426D01*
X154941680Y-128860273D01*
X154784637Y-128625241D01*
X154584759Y-128425363D01*
X154352241Y-128270000D01*
X154584759Y-128114637D01*
X154784637Y-127914759D01*
X154941680Y-127679727D01*
X155049853Y-127418574D01*
X155105000Y-127141335D01*
X155105000Y-127070512D01*
X167469783Y-127070512D01*
X167511213Y-127350130D01*
X167606397Y-127616292D01*
X167673329Y-127741514D01*
X167917298Y-127813097D01*
X168730395Y-127000000D01*
X169089605Y-127000000D01*
X169902702Y-127813097D01*
X170146671Y-127741514D01*
X170267571Y-127486004D01*
X170336300Y-127211816D01*
X170350217Y-126929488D01*
X170308787Y-126649870D01*
X170213603Y-126383708D01*
X170146671Y-126258486D01*
X169902702Y-126186903D01*
X169089605Y-127000000D01*
X168730395Y-127000000D01*
X167917298Y-126186903D01*
X167673329Y-126258486D01*
X167552429Y-126513996D01*
X167483700Y-126788184D01*
X167469783Y-127070512D01*
X155105000Y-127070512D01*
X155105000Y-126858665D01*
X155049853Y-126581426D01*
X154941680Y-126320273D01*
X154784637Y-126085241D01*
X154584759Y-125885363D01*
X154352241Y-125730000D01*
X154584759Y-125574637D01*
X154784637Y-125374759D01*
X154941680Y-125139727D01*
X155049853Y-124878574D01*
X155105000Y-124601335D01*
X155105000Y-124318665D01*
X155049853Y-124041426D01*
X154941680Y-123780273D01*
X154784637Y-123545241D01*
X154584759Y-123345363D01*
X154352241Y-123190000D01*
X154584759Y-123034637D01*
X154784637Y-122834759D01*
X154941680Y-122599727D01*
X155049853Y-122338574D01*
X155105000Y-122061335D01*
X155105000Y-121778665D01*
X155049853Y-121501426D01*
X154941680Y-121240273D01*
X154784637Y-121005241D01*
X154584759Y-120805363D01*
X154352241Y-120650000D01*
X154584759Y-120494637D01*
X154784637Y-120294759D01*
X154941680Y-120059727D01*
X155049853Y-119798574D01*
X155105000Y-119521335D01*
X155105000Y-119238665D01*
X155049853Y-118961426D01*
X154941680Y-118700273D01*
X154784637Y-118465241D01*
X154584759Y-118265363D01*
X154352241Y-118110000D01*
X154584759Y-117954637D01*
X154784637Y-117754759D01*
X154941680Y-117519727D01*
X155049853Y-117258574D01*
X155105000Y-116981335D01*
X155105000Y-116698665D01*
X155049853Y-116421426D01*
X154941680Y-116160273D01*
X154784637Y-115925241D01*
X154584759Y-115725363D01*
X154352241Y-115570000D01*
X154584759Y-115414637D01*
X154784637Y-115214759D01*
X154941680Y-114979727D01*
X155049853Y-114718574D01*
X155105000Y-114441335D01*
X155105000Y-114158665D01*
X155049853Y-113881426D01*
X154941680Y-113620273D01*
X154784637Y-113385241D01*
X154584759Y-113185363D01*
X154352241Y-113030000D01*
X154584759Y-112874637D01*
X154784637Y-112674759D01*
X154941680Y-112439727D01*
X155049853Y-112178574D01*
X155105000Y-111901335D01*
X155105000Y-111618665D01*
X155049853Y-111341426D01*
X154941680Y-111080273D01*
X154784637Y-110845241D01*
X154584759Y-110645363D01*
X154352241Y-110490000D01*
X154584759Y-110334637D01*
X154784637Y-110134759D01*
X154941680Y-109899727D01*
X155049853Y-109638574D01*
X155105000Y-109361335D01*
X155105000Y-109078665D01*
X155049853Y-108801426D01*
X154941680Y-108540273D01*
X154784637Y-108305241D01*
X154584759Y-108105363D01*
X154352241Y-107950000D01*
X154584759Y-107794637D01*
X154784637Y-107594759D01*
X154941680Y-107359727D01*
X155049853Y-107098574D01*
X155105000Y-106821335D01*
X155105000Y-106538665D01*
X155049853Y-106261426D01*
X154941680Y-106000273D01*
X154784637Y-105765241D01*
X154584759Y-105565363D01*
X154352241Y-105410000D01*
X154584759Y-105254637D01*
X154784637Y-105054759D01*
X154941680Y-104819727D01*
X155049853Y-104558574D01*
X155105000Y-104281335D01*
X155105000Y-103998665D01*
X155049853Y-103721426D01*
X154941680Y-103460273D01*
X154784637Y-103225241D01*
X154584759Y-103025363D01*
X154352241Y-102870000D01*
X154584759Y-102714637D01*
X154784637Y-102514759D01*
X154941680Y-102279727D01*
X155049853Y-102018574D01*
X155105000Y-101741335D01*
X155105000Y-101458665D01*
X155049853Y-101181426D01*
X154941680Y-100920273D01*
X154784637Y-100685241D01*
X154584759Y-100485363D01*
X154352241Y-100330000D01*
X154584759Y-100174637D01*
X154784637Y-99974759D01*
X154941680Y-99739727D01*
X155049853Y-99478574D01*
X155105000Y-99201335D01*
X155105000Y-98918665D01*
X155049853Y-98641426D01*
X154941680Y-98380273D01*
X154784637Y-98145241D01*
X154584759Y-97945363D01*
X154352241Y-97790000D01*
X154584759Y-97634637D01*
X154784637Y-97434759D01*
X154941680Y-97199727D01*
X155049853Y-96938574D01*
X155105000Y-96661335D01*
X155105000Y-96378665D01*
X167475000Y-96378665D01*
X167475000Y-96661335D01*
X167530147Y-96938574D01*
X167638320Y-97199727D01*
X167795363Y-97434759D01*
X167995241Y-97634637D01*
X168227759Y-97790000D01*
X167995241Y-97945363D01*
X167795363Y-98145241D01*
X167638320Y-98380273D01*
X167530147Y-98641426D01*
X167475000Y-98918665D01*
X167475000Y-99201335D01*
X167530147Y-99478574D01*
X167638320Y-99739727D01*
X167795363Y-99974759D01*
X167995241Y-100174637D01*
X168227759Y-100330000D01*
X167995241Y-100485363D01*
X167795363Y-100685241D01*
X167638320Y-100920273D01*
X167530147Y-101181426D01*
X167475000Y-101458665D01*
X167475000Y-101741335D01*
X167530147Y-102018574D01*
X167638320Y-102279727D01*
X167795363Y-102514759D01*
X167995241Y-102714637D01*
X168227759Y-102870000D01*
X167995241Y-103025363D01*
X167795363Y-103225241D01*
X167638320Y-103460273D01*
X167530147Y-103721426D01*
X167475000Y-103998665D01*
X167475000Y-104281335D01*
X167530147Y-104558574D01*
X167638320Y-104819727D01*
X167795363Y-105054759D01*
X167995241Y-105254637D01*
X168227759Y-105410000D01*
X167995241Y-105565363D01*
X167795363Y-105765241D01*
X167638320Y-106000273D01*
X167530147Y-106261426D01*
X167475000Y-106538665D01*
X167475000Y-106821335D01*
X167530147Y-107098574D01*
X167638320Y-107359727D01*
X167795363Y-107594759D01*
X167995241Y-107794637D01*
X168227759Y-107950000D01*
X167995241Y-108105363D01*
X167795363Y-108305241D01*
X167638320Y-108540273D01*
X167530147Y-108801426D01*
X167475000Y-109078665D01*
X167475000Y-109361335D01*
X167530147Y-109638574D01*
X167638320Y-109899727D01*
X167795363Y-110134759D01*
X167995241Y-110334637D01*
X168227759Y-110490000D01*
X167995241Y-110645363D01*
X167795363Y-110845241D01*
X167638320Y-111080273D01*
X167530147Y-111341426D01*
X167475000Y-111618665D01*
X167475000Y-111901335D01*
X167530147Y-112178574D01*
X167638320Y-112439727D01*
X167795363Y-112674759D01*
X167995241Y-112874637D01*
X168227759Y-113030000D01*
X167995241Y-113185363D01*
X167795363Y-113385241D01*
X167638320Y-113620273D01*
X167530147Y-113881426D01*
X167475000Y-114158665D01*
X167475000Y-114441335D01*
X167530147Y-114718574D01*
X167638320Y-114979727D01*
X167795363Y-115214759D01*
X167995241Y-115414637D01*
X168227759Y-115570000D01*
X167995241Y-115725363D01*
X167795363Y-115925241D01*
X167638320Y-116160273D01*
X167530147Y-116421426D01*
X167475000Y-116698665D01*
X167475000Y-116981335D01*
X167530147Y-117258574D01*
X167638320Y-117519727D01*
X167795363Y-117754759D01*
X167995241Y-117954637D01*
X168227759Y-118110000D01*
X167995241Y-118265363D01*
X167795363Y-118465241D01*
X167638320Y-118700273D01*
X167530147Y-118961426D01*
X167475000Y-119238665D01*
X167475000Y-119521335D01*
X167530147Y-119798574D01*
X167638320Y-120059727D01*
X167795363Y-120294759D01*
X167995241Y-120494637D01*
X168227759Y-120650000D01*
X167995241Y-120805363D01*
X167795363Y-121005241D01*
X167638320Y-121240273D01*
X167530147Y-121501426D01*
X167475000Y-121778665D01*
X167475000Y-122061335D01*
X167530147Y-122338574D01*
X167638320Y-122599727D01*
X167795363Y-122834759D01*
X167995241Y-123034637D01*
X168227759Y-123190000D01*
X167995241Y-123345363D01*
X167795363Y-123545241D01*
X167638320Y-123780273D01*
X167530147Y-124041426D01*
X167475000Y-124318665D01*
X167475000Y-124601335D01*
X167530147Y-124878574D01*
X167638320Y-125139727D01*
X167795363Y-125374759D01*
X167995241Y-125574637D01*
X168229128Y-125730915D01*
X168168486Y-125763329D01*
X168096903Y-126007298D01*
X168910000Y-126820395D01*
X169723097Y-126007298D01*
X169651514Y-125763329D01*
X169587008Y-125732806D01*
X169589727Y-125731680D01*
X169824759Y-125574637D01*
X170024637Y-125374759D01*
X170181680Y-125139727D01*
X170289853Y-124878574D01*
X170345000Y-124601335D01*
X170345000Y-124318665D01*
X170289853Y-124041426D01*
X170181680Y-123780273D01*
X170024637Y-123545241D01*
X169824759Y-123345363D01*
X169592241Y-123190000D01*
X169824759Y-123034637D01*
X170024637Y-122834759D01*
X170181680Y-122599727D01*
X170289853Y-122338574D01*
X170345000Y-122061335D01*
X170345000Y-121778665D01*
X170289853Y-121501426D01*
X170181680Y-121240273D01*
X170024637Y-121005241D01*
X169824759Y-120805363D01*
X169592241Y-120650000D01*
X169824759Y-120494637D01*
X170024637Y-120294759D01*
X170181680Y-120059727D01*
X170289853Y-119798574D01*
X170345000Y-119521335D01*
X170345000Y-119238665D01*
X170289853Y-118961426D01*
X170181680Y-118700273D01*
X170024637Y-118465241D01*
X169824759Y-118265363D01*
X169592241Y-118110000D01*
X169824759Y-117954637D01*
X169904396Y-117875000D01*
X170386290Y-117875000D01*
X171685001Y-119173712D01*
X171685000Y-128168061D01*
X171685000Y-128371939D01*
X171694969Y-128422058D01*
X171699976Y-128472894D01*
X171714804Y-128521774D01*
X171724774Y-128571898D01*
X171744332Y-128619116D01*
X171759159Y-128667992D01*
X171783237Y-128713039D01*
X171802795Y-128760256D01*
X171831186Y-128802747D01*
X171855266Y-128847797D01*
X171887672Y-128887284D01*
X171916063Y-128929774D01*
X171952197Y-128965908D01*
X171984604Y-129005396D01*
X172024092Y-129037803D01*
X172060226Y-129073937D01*
X172102716Y-129102328D01*
X172142203Y-129134734D01*
X172187254Y-129158814D01*
X172229744Y-129187205D01*
X172276958Y-129206762D01*
X172322007Y-129230841D01*
X172370887Y-129245669D01*
X172418102Y-129265226D01*
X172468223Y-129275196D01*
X172517105Y-129290024D01*
X172567943Y-129295031D01*
X172618061Y-129305000D01*
X172669162Y-129305000D01*
X172720000Y-129310007D01*
X172770838Y-129305000D01*
X172821939Y-129305000D01*
X172872058Y-129295031D01*
X172922894Y-129290024D01*
X172971774Y-129275196D01*
X173021898Y-129265226D01*
X173069116Y-129245668D01*
X173117992Y-129230841D01*
X173163039Y-129206763D01*
X173210256Y-129187205D01*
X173252747Y-129158814D01*
X173297797Y-129134734D01*
X173337284Y-129102328D01*
X173379774Y-129073937D01*
X173415908Y-129037803D01*
X173455396Y-129005396D01*
X173487803Y-128965908D01*
X173523937Y-128929774D01*
X173552328Y-128887284D01*
X173584734Y-128847797D01*
X173608814Y-128802746D01*
X173637205Y-128760256D01*
X173656762Y-128713042D01*
X173680841Y-128667993D01*
X173695669Y-128619113D01*
X173715226Y-128571898D01*
X173725196Y-128521777D01*
X173740024Y-128472895D01*
X173745031Y-128422057D01*
X173755000Y-128371939D01*
X173755000Y-118795835D01*
X173760007Y-118745000D01*
X173754373Y-118687797D01*
X173740024Y-118542105D01*
X173680841Y-118347007D01*
X173612876Y-118219853D01*
X173584734Y-118167202D01*
X173487803Y-118049092D01*
X173455396Y-118009604D01*
X173415908Y-117977197D01*
X171582807Y-116144097D01*
X171550396Y-116104604D01*
X171392797Y-115975266D01*
X171212993Y-115879159D01*
X171017895Y-115819976D01*
X170865838Y-115805000D01*
X170865828Y-115805000D01*
X170815000Y-115799994D01*
X170764172Y-115805000D01*
X169904396Y-115805000D01*
X169824759Y-115725363D01*
X169592241Y-115570000D01*
X169824759Y-115414637D01*
X169904396Y-115335000D01*
X171021290Y-115335000D01*
X174225000Y-118538711D01*
X174225001Y-132029162D01*
X174219994Y-132080000D01*
X174239977Y-132282895D01*
X174299160Y-132477993D01*
X174395266Y-132657797D01*
X174489157Y-132772203D01*
X174524605Y-132815396D01*
X174564092Y-132847802D01*
X175762197Y-134045908D01*
X175794604Y-134085396D01*
X175834092Y-134117803D01*
X175952202Y-134214734D01*
X176022989Y-134252570D01*
X176132007Y-134310841D01*
X176327105Y-134370024D01*
X176479162Y-134385000D01*
X176479171Y-134385000D01*
X176529999Y-134390006D01*
X176580827Y-134385000D01*
X180555758Y-134385000D01*
X180674866Y-134530134D01*
X180900986Y-134715706D01*
X181158966Y-134853599D01*
X181438889Y-134938513D01*
X181730000Y-134967185D01*
X182021110Y-134938513D01*
X182301033Y-134853599D01*
X182559013Y-134715706D01*
X182785134Y-134530134D01*
X182970706Y-134304014D01*
X182980000Y-134286626D01*
X182989294Y-134304013D01*
X183174866Y-134530134D01*
X183400986Y-134715706D01*
X183658966Y-134853599D01*
X183938889Y-134938513D01*
X184230000Y-134967185D01*
X184521110Y-134938513D01*
X184801033Y-134853599D01*
X185059013Y-134715706D01*
X185285134Y-134530134D01*
X185470706Y-134304014D01*
X185484462Y-134278278D01*
X185640951Y-134484429D01*
X185858807Y-134677496D01*
X186110142Y-134824352D01*
X186373110Y-134916476D01*
X186603000Y-134795155D01*
X186603000Y-133477000D01*
X186583000Y-133477000D01*
X186583000Y-133223000D01*
X186603000Y-133223000D01*
X186603000Y-131904845D01*
X186373110Y-131783524D01*
X186110142Y-131875648D01*
X185858807Y-132022504D01*
X185640951Y-132215571D01*
X185484462Y-132421722D01*
X185470706Y-132395986D01*
X185285134Y-132169866D01*
X185059014Y-131984294D01*
X184801034Y-131846401D01*
X184521111Y-131761487D01*
X184230000Y-131732815D01*
X183938890Y-131761487D01*
X183658967Y-131846401D01*
X183400987Y-131984294D01*
X183174866Y-132169866D01*
X182989294Y-132395986D01*
X182980000Y-132413374D01*
X182970706Y-132395986D01*
X182785134Y-132169866D01*
X182559014Y-131984294D01*
X182301034Y-131846401D01*
X182021111Y-131761487D01*
X181730000Y-131732815D01*
X181438890Y-131761487D01*
X181158967Y-131846401D01*
X180900987Y-131984294D01*
X180674866Y-132169866D01*
X180555758Y-132315000D01*
X176958711Y-132315000D01*
X176295000Y-131651290D01*
X176295000Y-124262050D01*
X180245000Y-124262050D01*
X180245000Y-124657949D01*
X180266487Y-124876110D01*
X180351401Y-125156033D01*
X180489294Y-125414013D01*
X180674866Y-125640134D01*
X180900986Y-125825706D01*
X181158966Y-125963599D01*
X181438889Y-126048513D01*
X181730000Y-126077185D01*
X182021110Y-126048513D01*
X182301033Y-125963599D01*
X182559013Y-125825706D01*
X182785134Y-125640134D01*
X182970706Y-125414014D01*
X182980000Y-125396626D01*
X182989294Y-125414013D01*
X183174866Y-125640134D01*
X183400986Y-125825706D01*
X183658966Y-125963599D01*
X183938889Y-126048513D01*
X184230000Y-126077185D01*
X184521110Y-126048513D01*
X184801033Y-125963599D01*
X185059013Y-125825706D01*
X185285134Y-125640134D01*
X185470706Y-125414014D01*
X185484462Y-125388278D01*
X185640951Y-125594429D01*
X185858807Y-125787496D01*
X186110142Y-125934352D01*
X186373110Y-126026476D01*
X186603000Y-125905155D01*
X186603000Y-124587000D01*
X186583000Y-124587000D01*
X186583000Y-124333000D01*
X186603000Y-124333000D01*
X186603000Y-123014845D01*
X186857000Y-123014845D01*
X186857000Y-124333000D01*
X186877000Y-124333000D01*
X186877000Y-124587000D01*
X186857000Y-124587000D01*
X186857000Y-125905155D01*
X187086890Y-126026476D01*
X187349858Y-125934352D01*
X187601193Y-125787496D01*
X187819049Y-125594429D01*
X187835286Y-125573039D01*
X187891595Y-125678386D01*
X188002038Y-125812962D01*
X188136614Y-125923405D01*
X188290150Y-126005472D01*
X188456746Y-126056008D01*
X188630000Y-126073072D01*
X189830000Y-126073072D01*
X190003254Y-126056008D01*
X190169850Y-126005472D01*
X190323386Y-125923405D01*
X190457962Y-125812962D01*
X190568405Y-125678386D01*
X190650472Y-125524850D01*
X190701008Y-125358254D01*
X190718072Y-125185000D01*
X190718072Y-123735000D01*
X190701008Y-123561746D01*
X190650472Y-123395150D01*
X190568405Y-123241614D01*
X190457962Y-123107038D01*
X190323386Y-122996595D01*
X190169850Y-122914528D01*
X190003254Y-122863992D01*
X189830000Y-122846928D01*
X188630000Y-122846928D01*
X188456746Y-122863992D01*
X188290150Y-122914528D01*
X188136614Y-122996595D01*
X188002038Y-123107038D01*
X187891595Y-123241614D01*
X187835286Y-123346961D01*
X187819049Y-123325571D01*
X187601193Y-123132504D01*
X187349858Y-122985648D01*
X187086890Y-122893524D01*
X186857000Y-123014845D01*
X186603000Y-123014845D01*
X186373110Y-122893524D01*
X186110142Y-122985648D01*
X185858807Y-123132504D01*
X185640951Y-123325571D01*
X185484462Y-123531722D01*
X185470706Y-123505986D01*
X185285134Y-123279866D01*
X185059014Y-123094294D01*
X184801034Y-122956401D01*
X184521111Y-122871487D01*
X184230000Y-122842815D01*
X183938890Y-122871487D01*
X183658967Y-122956401D01*
X183400987Y-123094294D01*
X183174866Y-123279866D01*
X182989294Y-123505986D01*
X182980000Y-123523374D01*
X182970706Y-123505986D01*
X182785134Y-123279866D01*
X182559014Y-123094294D01*
X182301034Y-122956401D01*
X182021111Y-122871487D01*
X181730000Y-122842815D01*
X181438890Y-122871487D01*
X181158967Y-122956401D01*
X180900987Y-123094294D01*
X180674866Y-123279866D01*
X180489294Y-123505986D01*
X180351401Y-123763966D01*
X180266487Y-124043889D01*
X180245000Y-124262050D01*
X176295000Y-124262050D01*
X176295000Y-118160835D01*
X176300007Y-118110000D01*
X176290119Y-118009604D01*
X176280024Y-117907105D01*
X176220841Y-117712007D01*
X176126714Y-117535907D01*
X176124734Y-117532202D01*
X176027803Y-117414092D01*
X175995396Y-117374604D01*
X175955908Y-117342197D01*
X172217807Y-113604097D01*
X172185396Y-113564604D01*
X172027797Y-113435266D01*
X171847993Y-113339159D01*
X171652895Y-113279976D01*
X171500838Y-113265000D01*
X171500828Y-113265000D01*
X171450000Y-113259994D01*
X171399172Y-113265000D01*
X169904396Y-113265000D01*
X169824759Y-113185363D01*
X169592241Y-113030000D01*
X169824759Y-112874637D01*
X170024637Y-112674759D01*
X170181680Y-112439727D01*
X170289853Y-112178574D01*
X170345000Y-111901335D01*
X170345000Y-111618665D01*
X170289853Y-111341426D01*
X170181680Y-111080273D01*
X170024637Y-110845241D01*
X169824759Y-110645363D01*
X169592241Y-110490000D01*
X169824759Y-110334637D01*
X169904396Y-110255000D01*
X172291290Y-110255000D01*
X174225001Y-112188712D01*
X174225000Y-112979171D01*
X174219994Y-113030000D01*
X174225000Y-113080828D01*
X174225000Y-113080837D01*
X174239976Y-113232894D01*
X174299159Y-113427992D01*
X174395266Y-113607797D01*
X174524604Y-113765396D01*
X174564097Y-113797807D01*
X177032197Y-116265908D01*
X177064604Y-116305396D01*
X177104092Y-116337803D01*
X177222202Y-116434734D01*
X177292989Y-116472570D01*
X177402007Y-116530841D01*
X177597105Y-116590024D01*
X177749162Y-116605000D01*
X177749171Y-116605000D01*
X177799999Y-116610006D01*
X177850827Y-116605000D01*
X180555758Y-116605000D01*
X180674866Y-116750134D01*
X180900986Y-116935706D01*
X181158966Y-117073599D01*
X181438889Y-117158513D01*
X181730000Y-117187185D01*
X182021110Y-117158513D01*
X182301033Y-117073599D01*
X182559013Y-116935706D01*
X182785134Y-116750134D01*
X182970706Y-116524014D01*
X182980000Y-116506626D01*
X182989294Y-116524013D01*
X183174866Y-116750134D01*
X183400986Y-116935706D01*
X183658966Y-117073599D01*
X183938889Y-117158513D01*
X184230000Y-117187185D01*
X184521110Y-117158513D01*
X184801033Y-117073599D01*
X185059013Y-116935706D01*
X185285134Y-116750134D01*
X185470706Y-116524014D01*
X185484462Y-116498278D01*
X185640951Y-116704429D01*
X185858807Y-116897496D01*
X186110142Y-117044352D01*
X186373110Y-117136476D01*
X186603000Y-117015155D01*
X186603000Y-115697000D01*
X186583000Y-115697000D01*
X186583000Y-115443000D01*
X186603000Y-115443000D01*
X186603000Y-114124845D01*
X186857000Y-114124845D01*
X186857000Y-115443000D01*
X186877000Y-115443000D01*
X186877000Y-115697000D01*
X186857000Y-115697000D01*
X186857000Y-117015155D01*
X187086890Y-117136476D01*
X187349858Y-117044352D01*
X187601193Y-116897496D01*
X187819049Y-116704429D01*
X187835286Y-116683039D01*
X187891595Y-116788386D01*
X188002038Y-116922962D01*
X188136614Y-117033405D01*
X188290150Y-117115472D01*
X188456746Y-117166008D01*
X188630000Y-117183072D01*
X189830000Y-117183072D01*
X190003254Y-117166008D01*
X190169850Y-117115472D01*
X190323386Y-117033405D01*
X190457962Y-116922962D01*
X190568405Y-116788386D01*
X190650472Y-116634850D01*
X190701008Y-116468254D01*
X190718072Y-116295000D01*
X190718072Y-114845000D01*
X190701008Y-114671746D01*
X190650472Y-114505150D01*
X190568405Y-114351614D01*
X190457962Y-114217038D01*
X190323386Y-114106595D01*
X190169850Y-114024528D01*
X190003254Y-113973992D01*
X189830000Y-113956928D01*
X188630000Y-113956928D01*
X188456746Y-113973992D01*
X188290150Y-114024528D01*
X188136614Y-114106595D01*
X188002038Y-114217038D01*
X187891595Y-114351614D01*
X187835286Y-114456961D01*
X187819049Y-114435571D01*
X187601193Y-114242504D01*
X187349858Y-114095648D01*
X187086890Y-114003524D01*
X186857000Y-114124845D01*
X186603000Y-114124845D01*
X186373110Y-114003524D01*
X186110142Y-114095648D01*
X185858807Y-114242504D01*
X185640951Y-114435571D01*
X185484462Y-114641722D01*
X185470706Y-114615986D01*
X185285134Y-114389866D01*
X185059014Y-114204294D01*
X184801034Y-114066401D01*
X184521111Y-113981487D01*
X184230000Y-113952815D01*
X183938890Y-113981487D01*
X183658967Y-114066401D01*
X183400987Y-114204294D01*
X183174866Y-114389866D01*
X182989294Y-114615986D01*
X182980000Y-114633374D01*
X182970706Y-114615986D01*
X182785134Y-114389866D01*
X182559014Y-114204294D01*
X182301034Y-114066401D01*
X182021111Y-113981487D01*
X181730000Y-113952815D01*
X181438890Y-113981487D01*
X181158967Y-114066401D01*
X180900987Y-114204294D01*
X180674866Y-114389866D01*
X180555758Y-114535000D01*
X178228711Y-114535000D01*
X176295000Y-112601290D01*
X176295000Y-111810827D01*
X176300006Y-111759999D01*
X176295000Y-111709171D01*
X176295000Y-111709162D01*
X176280024Y-111557105D01*
X176220841Y-111362007D01*
X176176104Y-111278309D01*
X176124734Y-111182202D01*
X176027803Y-111064092D01*
X175995396Y-111024604D01*
X175955908Y-110992197D01*
X173487807Y-108524097D01*
X173455396Y-108484604D01*
X173297797Y-108355266D01*
X173117993Y-108259159D01*
X172922895Y-108199976D01*
X172770838Y-108185000D01*
X172770828Y-108185000D01*
X172720000Y-108179994D01*
X172669172Y-108185000D01*
X169904396Y-108185000D01*
X169824759Y-108105363D01*
X169592241Y-107950000D01*
X169824759Y-107794637D01*
X170024637Y-107594759D01*
X170181680Y-107359727D01*
X170289853Y-107098574D01*
X170345000Y-106821335D01*
X170345000Y-106538665D01*
X170333739Y-106482050D01*
X180245000Y-106482050D01*
X180245000Y-106877949D01*
X180266487Y-107096110D01*
X180351401Y-107376033D01*
X180489294Y-107634013D01*
X180674866Y-107860134D01*
X180900986Y-108045706D01*
X181158966Y-108183599D01*
X181438889Y-108268513D01*
X181730000Y-108297185D01*
X182021110Y-108268513D01*
X182301033Y-108183599D01*
X182559013Y-108045706D01*
X182785134Y-107860134D01*
X182970706Y-107634014D01*
X182980000Y-107616626D01*
X182989294Y-107634013D01*
X183174866Y-107860134D01*
X183400986Y-108045706D01*
X183658966Y-108183599D01*
X183938889Y-108268513D01*
X184230000Y-108297185D01*
X184521110Y-108268513D01*
X184801033Y-108183599D01*
X185059013Y-108045706D01*
X185285134Y-107860134D01*
X185470706Y-107634014D01*
X185484462Y-107608278D01*
X185640951Y-107814429D01*
X185858807Y-108007496D01*
X186110142Y-108154352D01*
X186373110Y-108246476D01*
X186603000Y-108125155D01*
X186603000Y-106807000D01*
X186583000Y-106807000D01*
X186583000Y-106553000D01*
X186603000Y-106553000D01*
X186603000Y-105234845D01*
X186857000Y-105234845D01*
X186857000Y-106553000D01*
X186877000Y-106553000D01*
X186877000Y-106807000D01*
X186857000Y-106807000D01*
X186857000Y-108125155D01*
X187086890Y-108246476D01*
X187349858Y-108154352D01*
X187601193Y-108007496D01*
X187819049Y-107814429D01*
X187835286Y-107793039D01*
X187891595Y-107898386D01*
X188002038Y-108032962D01*
X188136614Y-108143405D01*
X188290150Y-108225472D01*
X188456746Y-108276008D01*
X188630000Y-108293072D01*
X189830000Y-108293072D01*
X190003254Y-108276008D01*
X190169850Y-108225472D01*
X190323386Y-108143405D01*
X190457962Y-108032962D01*
X190568405Y-107898386D01*
X190650472Y-107744850D01*
X190701008Y-107578254D01*
X190718072Y-107405000D01*
X190718072Y-105955000D01*
X190701008Y-105781746D01*
X190650472Y-105615150D01*
X190568405Y-105461614D01*
X190457962Y-105327038D01*
X190323386Y-105216595D01*
X190169850Y-105134528D01*
X190003254Y-105083992D01*
X189830000Y-105066928D01*
X188630000Y-105066928D01*
X188456746Y-105083992D01*
X188290150Y-105134528D01*
X188136614Y-105216595D01*
X188002038Y-105327038D01*
X187891595Y-105461614D01*
X187835286Y-105566961D01*
X187819049Y-105545571D01*
X187601193Y-105352504D01*
X187349858Y-105205648D01*
X187086890Y-105113524D01*
X186857000Y-105234845D01*
X186603000Y-105234845D01*
X186373110Y-105113524D01*
X186110142Y-105205648D01*
X185858807Y-105352504D01*
X185640951Y-105545571D01*
X185484462Y-105751722D01*
X185470706Y-105725986D01*
X185285134Y-105499866D01*
X185059014Y-105314294D01*
X184801034Y-105176401D01*
X184521111Y-105091487D01*
X184230000Y-105062815D01*
X183938890Y-105091487D01*
X183658967Y-105176401D01*
X183400987Y-105314294D01*
X183174866Y-105499866D01*
X182989294Y-105725986D01*
X182980000Y-105743374D01*
X182970706Y-105725986D01*
X182785134Y-105499866D01*
X182559014Y-105314294D01*
X182301034Y-105176401D01*
X182021111Y-105091487D01*
X181730000Y-105062815D01*
X181438890Y-105091487D01*
X181158967Y-105176401D01*
X180900987Y-105314294D01*
X180674866Y-105499866D01*
X180489294Y-105725986D01*
X180351401Y-105983966D01*
X180266487Y-106263889D01*
X180245000Y-106482050D01*
X170333739Y-106482050D01*
X170289853Y-106261426D01*
X170181680Y-106000273D01*
X170024637Y-105765241D01*
X169824759Y-105565363D01*
X169592241Y-105410000D01*
X169824759Y-105254637D01*
X170024637Y-105054759D01*
X170181680Y-104819727D01*
X170289853Y-104558574D01*
X170345000Y-104281335D01*
X170345000Y-103998665D01*
X170289853Y-103721426D01*
X170181680Y-103460273D01*
X170024637Y-103225241D01*
X169824759Y-103025363D01*
X169592241Y-102870000D01*
X169824759Y-102714637D01*
X170024637Y-102514759D01*
X170181680Y-102279727D01*
X170289853Y-102018574D01*
X170345000Y-101741335D01*
X170345000Y-101458665D01*
X170289853Y-101181426D01*
X170181680Y-100920273D01*
X170024637Y-100685241D01*
X169824759Y-100485363D01*
X169592241Y-100330000D01*
X169824759Y-100174637D01*
X170024637Y-99974759D01*
X170181680Y-99739727D01*
X170289853Y-99478574D01*
X170345000Y-99201335D01*
X170345000Y-98918665D01*
X170289853Y-98641426D01*
X170181680Y-98380273D01*
X170024637Y-98145241D01*
X169824759Y-97945363D01*
X169592241Y-97790000D01*
X169824759Y-97634637D01*
X169867346Y-97592050D01*
X180245000Y-97592050D01*
X180245000Y-97987949D01*
X180266487Y-98206110D01*
X180351401Y-98486033D01*
X180489294Y-98744013D01*
X180674866Y-98970134D01*
X180900986Y-99155706D01*
X181158966Y-99293599D01*
X181438889Y-99378513D01*
X181730000Y-99407185D01*
X182021110Y-99378513D01*
X182301033Y-99293599D01*
X182559013Y-99155706D01*
X182785134Y-98970134D01*
X182970706Y-98744014D01*
X182980000Y-98726626D01*
X182989294Y-98744013D01*
X183174866Y-98970134D01*
X183400986Y-99155706D01*
X183658966Y-99293599D01*
X183938889Y-99378513D01*
X184230000Y-99407185D01*
X184521110Y-99378513D01*
X184801033Y-99293599D01*
X185059013Y-99155706D01*
X185285134Y-98970134D01*
X185470706Y-98744014D01*
X185484462Y-98718278D01*
X185640951Y-98924429D01*
X185858807Y-99117496D01*
X186110142Y-99264352D01*
X186373110Y-99356476D01*
X186603000Y-99235155D01*
X186603000Y-97917000D01*
X186583000Y-97917000D01*
X186583000Y-97663000D01*
X186603000Y-97663000D01*
X186603000Y-96344845D01*
X186857000Y-96344845D01*
X186857000Y-97663000D01*
X186877000Y-97663000D01*
X186877000Y-97917000D01*
X186857000Y-97917000D01*
X186857000Y-99235155D01*
X187086890Y-99356476D01*
X187349858Y-99264352D01*
X187601193Y-99117496D01*
X187819049Y-98924429D01*
X187835286Y-98903039D01*
X187891595Y-99008386D01*
X188002038Y-99142962D01*
X188136614Y-99253405D01*
X188290150Y-99335472D01*
X188456746Y-99386008D01*
X188630000Y-99403072D01*
X189830000Y-99403072D01*
X190003254Y-99386008D01*
X190169850Y-99335472D01*
X190323386Y-99253405D01*
X190457962Y-99142962D01*
X190568405Y-99008386D01*
X190650472Y-98854850D01*
X190701008Y-98688254D01*
X190718072Y-98515000D01*
X190718072Y-97065000D01*
X190701008Y-96891746D01*
X190650472Y-96725150D01*
X190568405Y-96571614D01*
X190457962Y-96437038D01*
X190323386Y-96326595D01*
X190169850Y-96244528D01*
X190003254Y-96193992D01*
X189830000Y-96176928D01*
X188630000Y-96176928D01*
X188456746Y-96193992D01*
X188290150Y-96244528D01*
X188136614Y-96326595D01*
X188002038Y-96437038D01*
X187891595Y-96571614D01*
X187835286Y-96676961D01*
X187819049Y-96655571D01*
X187601193Y-96462504D01*
X187349858Y-96315648D01*
X187086890Y-96223524D01*
X186857000Y-96344845D01*
X186603000Y-96344845D01*
X186373110Y-96223524D01*
X186110142Y-96315648D01*
X185858807Y-96462504D01*
X185640951Y-96655571D01*
X185484462Y-96861722D01*
X185470706Y-96835986D01*
X185285134Y-96609866D01*
X185059014Y-96424294D01*
X184801034Y-96286401D01*
X184521111Y-96201487D01*
X184230000Y-96172815D01*
X183938890Y-96201487D01*
X183658967Y-96286401D01*
X183400987Y-96424294D01*
X183174866Y-96609866D01*
X182989294Y-96835986D01*
X182980000Y-96853374D01*
X182970706Y-96835986D01*
X182785134Y-96609866D01*
X182559014Y-96424294D01*
X182301034Y-96286401D01*
X182021111Y-96201487D01*
X181730000Y-96172815D01*
X181438890Y-96201487D01*
X181158967Y-96286401D01*
X180900987Y-96424294D01*
X180674866Y-96609866D01*
X180489294Y-96835986D01*
X180351401Y-97093966D01*
X180266487Y-97373889D01*
X180245000Y-97592050D01*
X169867346Y-97592050D01*
X170024637Y-97434759D01*
X170181680Y-97199727D01*
X170289853Y-96938574D01*
X170345000Y-96661335D01*
X170345000Y-96378665D01*
X170289853Y-96101426D01*
X170181680Y-95840273D01*
X170024637Y-95605241D01*
X169824759Y-95405363D01*
X169590872Y-95249085D01*
X169651514Y-95216671D01*
X169723097Y-94972702D01*
X168910000Y-94159605D01*
X168096903Y-94972702D01*
X168168486Y-95216671D01*
X168232992Y-95247194D01*
X168230273Y-95248320D01*
X167995241Y-95405363D01*
X167795363Y-95605241D01*
X167638320Y-95840273D01*
X167530147Y-96101426D01*
X167475000Y-96378665D01*
X155105000Y-96378665D01*
X155049853Y-96101426D01*
X154941680Y-95840273D01*
X154784637Y-95605241D01*
X154584759Y-95405363D01*
X154352241Y-95250000D01*
X154584759Y-95094637D01*
X154784637Y-94894759D01*
X154941680Y-94659727D01*
X155049853Y-94398574D01*
X155105000Y-94121335D01*
X155105000Y-94050512D01*
X167469783Y-94050512D01*
X167511213Y-94330130D01*
X167606397Y-94596292D01*
X167673329Y-94721514D01*
X167917298Y-94793097D01*
X168730395Y-93980000D01*
X169089605Y-93980000D01*
X169902702Y-94793097D01*
X170146671Y-94721514D01*
X170267571Y-94466004D01*
X170336300Y-94191816D01*
X170350217Y-93909488D01*
X170308787Y-93629870D01*
X170213603Y-93363708D01*
X170146671Y-93238486D01*
X169902702Y-93166903D01*
X169089605Y-93980000D01*
X168730395Y-93980000D01*
X167917298Y-93166903D01*
X167673329Y-93238486D01*
X167552429Y-93493996D01*
X167483700Y-93768184D01*
X167469783Y-94050512D01*
X155105000Y-94050512D01*
X155105000Y-93838665D01*
X155049853Y-93561426D01*
X154941680Y-93300273D01*
X154784637Y-93065241D01*
X154586039Y-92866643D01*
X154594482Y-92865812D01*
X154714180Y-92829502D01*
X154824494Y-92770537D01*
X154921185Y-92691185D01*
X155000537Y-92594494D01*
X155059502Y-92484180D01*
X155095812Y-92364482D01*
X155108072Y-92240000D01*
X155105000Y-91725750D01*
X154946250Y-91567000D01*
X153797000Y-91567000D01*
X153797000Y-91587000D01*
X153543000Y-91587000D01*
X153543000Y-91567000D01*
X152393750Y-91567000D01*
X152235000Y-91725750D01*
X152231928Y-92240000D01*
X152244188Y-92364482D01*
X152280498Y-92484180D01*
X152339463Y-92594494D01*
X152418815Y-92691185D01*
X152515506Y-92770537D01*
X152625820Y-92829502D01*
X152745518Y-92865812D01*
X152753961Y-92866643D01*
X152575604Y-93045000D01*
X143370869Y-93045000D01*
X143360706Y-93025986D01*
X143175134Y-92799866D01*
X142949013Y-92614294D01*
X142691033Y-92476401D01*
X142411110Y-92391487D01*
X142120000Y-92362815D01*
X141828889Y-92391487D01*
X141548966Y-92476401D01*
X141290986Y-92614294D01*
X141064866Y-92799866D01*
X140879294Y-93025987D01*
X140870000Y-93043374D01*
X140860706Y-93025986D01*
X140675134Y-92799866D01*
X140449013Y-92614294D01*
X140191033Y-92476401D01*
X139911110Y-92391487D01*
X139620000Y-92362815D01*
X139328889Y-92391487D01*
X139048966Y-92476401D01*
X138790986Y-92614294D01*
X138564866Y-92799866D01*
X138379294Y-93025987D01*
X138365538Y-93051722D01*
X138209049Y-92845571D01*
X137991193Y-92652504D01*
X137739858Y-92505648D01*
X137476890Y-92413524D01*
X137247000Y-92534845D01*
X136993000Y-92534845D01*
X136763110Y-92413524D01*
X136500142Y-92505648D01*
X136330165Y-92604966D01*
X138295131Y-90640000D01*
X152231928Y-90640000D01*
X152235000Y-91154250D01*
X152393750Y-91313000D01*
X153543000Y-91313000D01*
X153543000Y-90163750D01*
X153797000Y-90163750D01*
X153797000Y-91313000D01*
X154946250Y-91313000D01*
X155105000Y-91154250D01*
X155108072Y-90640000D01*
X155095812Y-90515518D01*
X155059502Y-90395820D01*
X155000537Y-90285506D01*
X154921185Y-90188815D01*
X154824494Y-90109463D01*
X154714180Y-90050498D01*
X154594482Y-90014188D01*
X154470000Y-90001928D01*
X153955750Y-90005000D01*
X153797000Y-90163750D01*
X153543000Y-90163750D01*
X153384250Y-90005000D01*
X152870000Y-90001928D01*
X152745518Y-90014188D01*
X152625820Y-90050498D01*
X152515506Y-90109463D01*
X152418815Y-90188815D01*
X152339463Y-90285506D01*
X152280498Y-90395820D01*
X152244188Y-90515518D01*
X152231928Y-90640000D01*
X138295131Y-90640000D01*
X139535132Y-89400000D01*
X160184869Y-89400000D01*
X162988009Y-92203141D01*
X163023551Y-92246449D01*
X163196377Y-92388284D01*
X163361234Y-92476401D01*
X163393553Y-92493676D01*
X163607501Y-92558577D01*
X163829999Y-92580491D01*
X163885751Y-92575000D01*
X168025716Y-92575000D01*
X168229128Y-92710915D01*
X168168486Y-92743329D01*
X168096903Y-92987298D01*
X168910000Y-93800395D01*
X169723097Y-92987298D01*
X169651514Y-92743329D01*
X169587008Y-92712806D01*
X169589727Y-92711680D01*
X169824759Y-92554637D01*
X170024637Y-92354759D01*
X170181680Y-92119727D01*
X170289853Y-91858574D01*
X170345000Y-91581335D01*
X170345000Y-91298665D01*
X170289853Y-91021426D01*
X170181680Y-90760273D01*
X170024637Y-90525241D01*
X169824759Y-90325363D01*
X169589727Y-90168320D01*
X169328574Y-90060147D01*
X169051335Y-90005000D01*
X168768665Y-90005000D01*
X168491426Y-90060147D01*
X168230273Y-90168320D01*
X168025716Y-90305000D01*
X164300132Y-90305000D01*
X161496996Y-87501865D01*
X161461449Y-87458551D01*
X161288623Y-87316716D01*
X161091447Y-87211324D01*
X160877499Y-87146423D01*
X160710752Y-87130000D01*
X160710751Y-87130000D01*
X160655000Y-87124509D01*
X160599249Y-87130000D01*
X139120741Y-87130000D01*
X139064999Y-87124510D01*
X139009257Y-87130000D01*
X139009248Y-87130000D01*
X138842501Y-87146423D01*
X138628553Y-87211324D01*
X138431377Y-87316716D01*
X138258551Y-87458551D01*
X138223009Y-87501859D01*
X133856860Y-91868009D01*
X133813552Y-91903551D01*
X133671717Y-92076377D01*
X133566324Y-92273553D01*
X133501423Y-92487501D01*
X133496090Y-92541645D01*
X133392038Y-92627038D01*
X133281595Y-92761614D01*
X133199528Y-92915150D01*
X133148992Y-93081746D01*
X133131928Y-93255000D01*
X130302000Y-93255000D01*
X130302000Y-86360000D01*
X176008299Y-86360000D01*
X176035040Y-86631507D01*
X176114236Y-86892581D01*
X176242843Y-87133188D01*
X176415919Y-87344081D01*
X176626812Y-87517157D01*
X176867419Y-87645764D01*
X177128493Y-87724960D01*
X177331963Y-87745000D01*
X178268037Y-87745000D01*
X178471507Y-87724960D01*
X178732581Y-87645764D01*
X178973188Y-87517157D01*
X179184081Y-87344081D01*
X179357157Y-87133188D01*
X179485764Y-86892581D01*
X179564960Y-86631507D01*
X179591701Y-86360000D01*
X179564960Y-86088493D01*
X179485764Y-85827419D01*
X179357157Y-85586812D01*
X179184081Y-85375919D01*
X178973188Y-85202843D01*
X178757422Y-85087514D01*
X178847349Y-85050972D01*
X179075061Y-84901028D01*
X179269145Y-84709540D01*
X179422142Y-84483868D01*
X179528173Y-84232684D01*
X179542318Y-84161185D01*
X179419656Y-83947000D01*
X177927000Y-83947000D01*
X177927000Y-83967000D01*
X177673000Y-83967000D01*
X177673000Y-83947000D01*
X176180344Y-83947000D01*
X176057682Y-84161185D01*
X176071827Y-84232684D01*
X176177858Y-84483868D01*
X176330855Y-84709540D01*
X176524939Y-84901028D01*
X176752651Y-85050972D01*
X176842578Y-85087514D01*
X176626812Y-85202843D01*
X176415919Y-85375919D01*
X176242843Y-85586812D01*
X176114236Y-85827419D01*
X176035040Y-86088493D01*
X176008299Y-86360000D01*
X130302000Y-86360000D01*
X130302000Y-84041653D01*
X144737952Y-84041653D01*
X144893962Y-84357214D01*
X145268745Y-84548020D01*
X145673551Y-84662044D01*
X146092824Y-84694902D01*
X146510451Y-84645334D01*
X146910383Y-84515243D01*
X147206038Y-84357214D01*
X147362048Y-84041653D01*
X146050000Y-82729605D01*
X144737952Y-84041653D01*
X130302000Y-84041653D01*
X130302000Y-80779872D01*
X130765000Y-80779872D01*
X130765000Y-81220128D01*
X130850890Y-81651925D01*
X131019369Y-82058669D01*
X131263962Y-82424729D01*
X131575271Y-82736038D01*
X131941331Y-82980631D01*
X132348075Y-83149110D01*
X132779872Y-83235000D01*
X133220128Y-83235000D01*
X133651925Y-83149110D01*
X134058669Y-82980631D01*
X134424729Y-82736038D01*
X134567943Y-82592824D01*
X143905098Y-82592824D01*
X143954666Y-83010451D01*
X144084757Y-83410383D01*
X144242786Y-83706038D01*
X144558347Y-83862048D01*
X145870395Y-82550000D01*
X146229605Y-82550000D01*
X147541653Y-83862048D01*
X147857214Y-83706038D01*
X148048020Y-83331255D01*
X148162044Y-82926449D01*
X148194902Y-82507176D01*
X148145334Y-82089549D01*
X148015243Y-81689617D01*
X147857214Y-81393962D01*
X147541653Y-81237952D01*
X146229605Y-82550000D01*
X145870395Y-82550000D01*
X144558347Y-81237952D01*
X144242786Y-81393962D01*
X144051980Y-81768745D01*
X143937956Y-82173551D01*
X143905098Y-82592824D01*
X134567943Y-82592824D01*
X134736038Y-82424729D01*
X134980631Y-82058669D01*
X135149110Y-81651925D01*
X135235000Y-81220128D01*
X135235000Y-81058347D01*
X144737952Y-81058347D01*
X146050000Y-82370395D01*
X147362048Y-81058347D01*
X147357922Y-81050000D01*
X148991928Y-81050000D01*
X148991928Y-84050000D01*
X149004188Y-84174482D01*
X149040498Y-84294180D01*
X149099463Y-84404494D01*
X149178815Y-84501185D01*
X149275506Y-84580537D01*
X149385820Y-84639502D01*
X149505518Y-84675812D01*
X149630000Y-84688072D01*
X152630000Y-84688072D01*
X152754482Y-84675812D01*
X152874180Y-84639502D01*
X152984494Y-84580537D01*
X153081185Y-84501185D01*
X153160537Y-84404494D01*
X153219502Y-84294180D01*
X153255812Y-84174482D01*
X153268072Y-84050000D01*
X153268072Y-81050000D01*
X153255812Y-80925518D01*
X153219502Y-80805820D01*
X153160537Y-80695506D01*
X153081185Y-80598815D01*
X152997334Y-80530000D01*
X176011928Y-80530000D01*
X176011928Y-82030000D01*
X176024188Y-82154482D01*
X176060498Y-82274180D01*
X176119463Y-82384494D01*
X176198815Y-82481185D01*
X176295506Y-82560537D01*
X176405820Y-82619502D01*
X176525518Y-82655812D01*
X176634874Y-82666582D01*
X176524939Y-82738972D01*
X176330855Y-82930460D01*
X176177858Y-83156132D01*
X176071827Y-83407316D01*
X176057682Y-83478815D01*
X176180344Y-83693000D01*
X177673000Y-83693000D01*
X177673000Y-83673000D01*
X177927000Y-83673000D01*
X177927000Y-83693000D01*
X179419656Y-83693000D01*
X179542318Y-83478815D01*
X179528173Y-83407316D01*
X179422142Y-83156132D01*
X179269145Y-82930460D01*
X179075061Y-82738972D01*
X178965126Y-82666582D01*
X179074482Y-82655812D01*
X179194180Y-82619502D01*
X179304494Y-82560537D01*
X179401185Y-82481185D01*
X179480537Y-82384494D01*
X179539502Y-82274180D01*
X179575812Y-82154482D01*
X179588072Y-82030000D01*
X179588072Y-80779872D01*
X187765000Y-80779872D01*
X187765000Y-81220128D01*
X187850890Y-81651925D01*
X188019369Y-82058669D01*
X188263962Y-82424729D01*
X188575271Y-82736038D01*
X188941331Y-82980631D01*
X189348075Y-83149110D01*
X189779872Y-83235000D01*
X190220128Y-83235000D01*
X190651925Y-83149110D01*
X191058669Y-82980631D01*
X191424729Y-82736038D01*
X191736038Y-82424729D01*
X191980631Y-82058669D01*
X192149110Y-81651925D01*
X192235000Y-81220128D01*
X192235000Y-80779872D01*
X192149110Y-80348075D01*
X191980631Y-79941331D01*
X191736038Y-79575271D01*
X191424729Y-79263962D01*
X191058669Y-79019369D01*
X190651925Y-78850890D01*
X190220128Y-78765000D01*
X189779872Y-78765000D01*
X189348075Y-78850890D01*
X188941331Y-79019369D01*
X188575271Y-79263962D01*
X188263962Y-79575271D01*
X188019369Y-79941331D01*
X187850890Y-80348075D01*
X187765000Y-80779872D01*
X179588072Y-80779872D01*
X179588072Y-80530000D01*
X179575812Y-80405518D01*
X179539502Y-80285820D01*
X179480537Y-80175506D01*
X179401185Y-80078815D01*
X179304494Y-79999463D01*
X179194180Y-79940498D01*
X179074482Y-79904188D01*
X178950000Y-79891928D01*
X176650000Y-79891928D01*
X176525518Y-79904188D01*
X176405820Y-79940498D01*
X176295506Y-79999463D01*
X176198815Y-80078815D01*
X176119463Y-80175506D01*
X176060498Y-80285820D01*
X176024188Y-80405518D01*
X176011928Y-80530000D01*
X152997334Y-80530000D01*
X152984494Y-80519463D01*
X152874180Y-80460498D01*
X152754482Y-80424188D01*
X152630000Y-80411928D01*
X149630000Y-80411928D01*
X149505518Y-80424188D01*
X149385820Y-80460498D01*
X149275506Y-80519463D01*
X149178815Y-80598815D01*
X149099463Y-80695506D01*
X149040498Y-80805820D01*
X149004188Y-80925518D01*
X148991928Y-81050000D01*
X147357922Y-81050000D01*
X147206038Y-80742786D01*
X146831255Y-80551980D01*
X146426449Y-80437956D01*
X146007176Y-80405098D01*
X145589549Y-80454666D01*
X145189617Y-80584757D01*
X144893962Y-80742786D01*
X144737952Y-81058347D01*
X135235000Y-81058347D01*
X135235000Y-80779872D01*
X135149110Y-80348075D01*
X134980631Y-79941331D01*
X134736038Y-79575271D01*
X134424729Y-79263962D01*
X134058669Y-79019369D01*
X133651925Y-78850890D01*
X133220128Y-78765000D01*
X132779872Y-78765000D01*
X132348075Y-78850890D01*
X131941331Y-79019369D01*
X131575271Y-79263962D01*
X131263962Y-79575271D01*
X131019369Y-79941331D01*
X130850890Y-80348075D01*
X130765000Y-80779872D01*
X130302000Y-80779872D01*
X130302000Y-78232000D01*
X192913000Y-78232000D01*
X192913000Y-154813000D01*
G37*
%TD.AperFunction*%
%TD*%
M02*
