%TF.GenerationSoftware,KiCad,Pcbnew,(5.1.9)-1*%
%TF.CreationDate,2021-03-25T13:19:16+01:00*%
%TF.ProjectId,kicad_robot_teensy,6b696361-645f-4726-9f62-6f745f746565,rev?*%
%TF.SameCoordinates,Original*%
%TF.FileFunction,Copper,L1,Top*%
%TF.FilePolarity,Positive*%
%FSLAX46Y46*%
G04 Gerber Fmt 4.6, Leading zero omitted, Abs format (unit mm)*
G04 Created by KiCad (PCBNEW (5.1.9)-1) date 2021-03-25 13:19:16*
%MOMM*%
%LPD*%
G01*
G04 APERTURE LIST*
%TA.AperFunction,ComponentPad*%
%ADD10O,1.700000X1.700000*%
%TD*%
%TA.AperFunction,ComponentPad*%
%ADD11R,1.700000X1.700000*%
%TD*%
%TA.AperFunction,ComponentPad*%
%ADD12C,1.600000*%
%TD*%
%TA.AperFunction,ComponentPad*%
%ADD13R,1.600000X1.600000*%
%TD*%
%TA.AperFunction,ComponentPad*%
%ADD14R,3.000000X3.000000*%
%TD*%
%TA.AperFunction,ComponentPad*%
%ADD15C,3.000000*%
%TD*%
%TA.AperFunction,ComponentPad*%
%ADD16O,1.700000X1.950000*%
%TD*%
%TA.AperFunction,ComponentPad*%
%ADD17O,1.700000X2.000000*%
%TD*%
%TA.AperFunction,SMDPad,CuDef*%
%ADD18R,0.800000X0.900000*%
%TD*%
%TA.AperFunction,ComponentPad*%
%ADD19R,2.300000X1.500000*%
%TD*%
%TA.AperFunction,ComponentPad*%
%ADD20O,2.300000X1.500000*%
%TD*%
%TA.AperFunction,ViaPad*%
%ADD21C,0.800000*%
%TD*%
%TA.AperFunction,Conductor*%
%ADD22C,1.200000*%
%TD*%
%TA.AperFunction,Conductor*%
%ADD23C,1.000000*%
%TD*%
%TA.AperFunction,Conductor*%
%ADD24C,0.800000*%
%TD*%
%TA.AperFunction,Conductor*%
%ADD25C,0.600000*%
%TD*%
G04 APERTURE END LIST*
D10*
%TO.P,CONN->SERV_BAR1,3*%
%TO.N,BAR_SERV*%
X180340000Y-139700000D03*
%TO.P,CONN->SERV_BAR1,2*%
%TO.N,+5V*%
X182880000Y-139700000D03*
D11*
%TO.P,CONN->SERV_BAR1,1*%
%TO.N,GND*%
X185420000Y-139700000D03*
%TD*%
D12*
%TO.P,CARTE_MICR_COTROL1,17*%
%TO.N,COL_GPIO*%
X153670000Y-132080000D03*
%TO.P,CARTE_MICR_COTROL1,18*%
%TO.N,Net-(CARTE_MICR_COTROL1-Pad18)*%
X153670000Y-134620000D03*
%TO.P,CARTE_MICR_COTROL1,19*%
%TO.N,Net-(CARTE_MICR_COTROL1-Pad19)*%
X153670000Y-137160000D03*
%TO.P,CARTE_MICR_COTROL1,20*%
%TO.N,Net-(CARTE_MICR_COTROL1-Pad20)*%
X153670000Y-139700000D03*
%TO.P,CARTE_MICR_COTROL1,16*%
%TO.N,TIR_GPIO*%
X153670000Y-129540000D03*
%TO.P,CARTE_MICR_COTROL1,15*%
%TO.N,Net-(CARTE_MICR_COTROL1-Pad15)*%
X153670000Y-127000000D03*
%TO.P,CARTE_MICR_COTROL1,14*%
%TO.N,Net-(CARTE_MICR_COTROL1-Pad14)*%
X153670000Y-124460000D03*
%TO.P,CARTE_MICR_COTROL1,21*%
%TO.N,R_COD_2_phA*%
X153670000Y-142240000D03*
%TO.P,CARTE_MICR_COTROL1,22*%
%TO.N,R_COD_2_phB*%
X153670000Y-144780000D03*
%TO.P,CARTE_MICR_COTROL1,23*%
%TO.N,Net-(CARTE_MICR_COTROL1-Pad23)*%
X153670000Y-147320000D03*
%TO.P,CARTE_MICR_COTROL1,24*%
%TO.N,Net-(CARTE_MICR_COTROL1-Pad24)*%
X153670000Y-149860000D03*
%TO.P,CARTE_MICR_COTROL1,30*%
%TO.N,MOT_1_DIR*%
X168910000Y-149860000D03*
%TO.P,CARTE_MICR_COTROL1,31*%
%TO.N,MOT_2_DIR*%
X168910000Y-147320000D03*
%TO.P,CARTE_MICR_COTROL1,32*%
%TO.N,MOT_2_PWM*%
X168910000Y-144780000D03*
%TO.P,CARTE_MICR_COTROL1,33*%
%TO.N,MOT_1_PWM*%
X168910000Y-142240000D03*
%TO.P,CARTE_MICR_COTROL1,34*%
%TO.N,PAV_SERV*%
X168910000Y-139700000D03*
%TO.P,CARTE_MICR_COTROL1,35*%
%TO.N,BAR_SERV*%
X168910000Y-137160000D03*
%TO.P,CARTE_MICR_COTROL1,36*%
%TO.N,Net-(CARTE_MICR_COTROL1-Pad36)*%
X168910000Y-134620000D03*
%TO.P,CARTE_MICR_COTROL1,37*%
%TO.N,Net-(CARTE_MICR_COTROL1-Pad37)*%
X168910000Y-132080000D03*
%TO.P,CARTE_MICR_COTROL1,13*%
%TO.N,Net-(CARTE_MICR_COTROL1-Pad13)*%
X153670000Y-121920000D03*
%TO.P,CARTE_MICR_COTROL1,12*%
%TO.N,X-BEE_TX*%
X153670000Y-119380000D03*
%TO.P,CARTE_MICR_COTROL1,11*%
%TO.N,X-BEE_RX*%
X153670000Y-116840000D03*
%TO.P,CARTE_MICR_COTROL1,10*%
%TO.N,GPIO_DISPLAY_2*%
X153670000Y-114300000D03*
%TO.P,CARTE_MICR_COTROL1,9*%
%TO.N,GPIO_DISPLAY_1*%
X153670000Y-111760000D03*
%TO.P,CARTE_MICR_COTROL1,8*%
%TO.N,Net-(CARTE_MICR_COTROL1-Pad8)*%
X153670000Y-109220000D03*
%TO.P,CARTE_MICR_COTROL1,7*%
%TO.N,Net-(CARTE_MICR_COTROL1-Pad7)*%
X153670000Y-106680000D03*
%TO.P,CARTE_MICR_COTROL1,6*%
%TO.N,Net-(CARTE_MICR_COTROL1-Pad6)*%
X153670000Y-104140000D03*
%TO.P,CARTE_MICR_COTROL1,5*%
%TO.N,Net-(CARTE_MICR_COTROL1-Pad5)*%
X153670000Y-101600000D03*
%TO.P,CARTE_MICR_COTROL1,4*%
%TO.N,LID_PWM*%
X153670000Y-99060000D03*
%TO.P,CARTE_MICR_COTROL1,3*%
%TO.N,LID_TX*%
X153670000Y-96520000D03*
%TO.P,CARTE_MICR_COTROL1,2*%
%TO.N,LID_RX*%
X153670000Y-93980000D03*
D13*
%TO.P,CARTE_MICR_COTROL1,1*%
%TO.N,GND*%
X153670000Y-91440000D03*
D12*
%TO.P,CARTE_MICR_COTROL1,38*%
%TO.N,Net-(CARTE_MICR_COTROL1-Pad38)*%
X168910000Y-129540000D03*
%TO.P,CARTE_MICR_COTROL1,39*%
%TO.N,GND*%
X168910000Y-127000000D03*
%TO.P,CARTE_MICR_COTROL1,40*%
%TO.N,Net-(CARTE_MICR_COTROL1-Pad40)*%
X168910000Y-124460000D03*
%TO.P,CARTE_MICR_COTROL1,41*%
%TO.N,Net-(CARTE_MICR_COTROL1-Pad41)*%
X168910000Y-121920000D03*
%TO.P,CARTE_MICR_COTROL1,42*%
%TO.N,Net-(CARTE_MICR_COTROL1-Pad42)*%
X168910000Y-119380000D03*
%TO.P,CARTE_MICR_COTROL1,43*%
%TO.N,R_COD_1_phA*%
X168910000Y-116840000D03*
%TO.P,CARTE_MICR_COTROL1,44*%
%TO.N,R_COD_1_phB*%
X168910000Y-114300000D03*
%TO.P,CARTE_MICR_COTROL1,45*%
%TO.N,I2C_SDAO*%
X168910000Y-111760000D03*
%TO.P,CARTE_MICR_COTROL1,46*%
%TO.N,I2C_SCLO*%
X168910000Y-109220000D03*
%TO.P,CARTE_MICR_COTROL1,47*%
%TO.N,MOT_1_COD_phB*%
X168910000Y-106680000D03*
%TO.P,CARTE_MICR_COTROL1,48*%
%TO.N,MOT_1_COD_phA*%
X168910000Y-104140000D03*
%TO.P,CARTE_MICR_COTROL1,49*%
%TO.N,MOT_2_COD_phB*%
X168910000Y-101600000D03*
%TO.P,CARTE_MICR_COTROL1,50*%
%TO.N,MOT_2_COD_phA*%
X168910000Y-99060000D03*
%TO.P,CARTE_MICR_COTROL1,51*%
%TO.N,Net-(CARTE_MICR_COTROL1-Pad51)*%
X168910000Y-96520000D03*
%TO.P,CARTE_MICR_COTROL1,52*%
%TO.N,GND*%
X168910000Y-93980000D03*
%TO.P,CARTE_MICR_COTROL1,53*%
%TO.N,+5V*%
X168910000Y-91440000D03*
%TD*%
D14*
%TO.P,ALIM_1,1*%
%TO.N,+12V*%
X151130000Y-82550000D03*
D15*
%TO.P,ALIM_1,2*%
%TO.N,GND*%
X146050000Y-82550000D03*
%TD*%
D16*
%TO.P,CONN->DISP1,4*%
%TO.N,GPIO_DISPLAY_2*%
X140850000Y-109220000D03*
%TO.P,CONN->DISP1,3*%
%TO.N,GPIO_DISPLAY_1*%
X138350000Y-109220000D03*
%TO.P,CONN->DISP1,2*%
%TO.N,GND*%
X135850000Y-109220000D03*
%TO.P,CONN->DISP1,1*%
%TO.N,+5V*%
%TA.AperFunction,ComponentPad*%
G36*
G01*
X132500000Y-109945000D02*
X132500000Y-108495000D01*
G75*
G02*
X132750000Y-108245000I250000J0D01*
G01*
X133950000Y-108245000D01*
G75*
G02*
X134200000Y-108495000I0J-250000D01*
G01*
X134200000Y-109945000D01*
G75*
G02*
X133950000Y-110195000I-250000J0D01*
G01*
X132750000Y-110195000D01*
G75*
G02*
X132500000Y-109945000I0J250000D01*
G01*
G37*
%TD.AperFunction*%
%TD*%
%TO.P,CONN->LID1,4*%
%TO.N,LID_RX*%
X142120000Y-93980000D03*
%TO.P,CONN->LID1,3*%
%TO.N,LID_TX*%
X139620000Y-93980000D03*
%TO.P,CONN->LID1,2*%
%TO.N,GND*%
X137120000Y-93980000D03*
%TO.P,CONN->LID1,1*%
%TO.N,+5V*%
%TA.AperFunction,ComponentPad*%
G36*
G01*
X133770000Y-94705000D02*
X133770000Y-93255000D01*
G75*
G02*
X134020000Y-93005000I250000J0D01*
G01*
X135220000Y-93005000D01*
G75*
G02*
X135470000Y-93255000I0J-250000D01*
G01*
X135470000Y-94705000D01*
G75*
G02*
X135220000Y-94955000I-250000J0D01*
G01*
X134020000Y-94955000D01*
G75*
G02*
X133770000Y-94705000I0J250000D01*
G01*
G37*
%TD.AperFunction*%
%TD*%
%TO.P,CONN->MD10_MOT_1,1*%
%TO.N,GND*%
%TA.AperFunction,ComponentPad*%
G36*
G01*
X141470000Y-151855000D02*
X141470000Y-150405000D01*
G75*
G02*
X141720000Y-150155000I250000J0D01*
G01*
X142920000Y-150155000D01*
G75*
G02*
X143170000Y-150405000I0J-250000D01*
G01*
X143170000Y-151855000D01*
G75*
G02*
X142920000Y-152105000I-250000J0D01*
G01*
X141720000Y-152105000D01*
G75*
G02*
X141470000Y-151855000I0J250000D01*
G01*
G37*
%TD.AperFunction*%
%TO.P,CONN->MD10_MOT_1,2*%
%TO.N,MOT_1_PWM*%
X144820000Y-151130000D03*
%TO.P,CONN->MD10_MOT_1,3*%
%TO.N,MOT_1_DIR*%
X147320000Y-151130000D03*
%TD*%
%TO.P,CONN->MD10_MOT_2,3*%
%TO.N,MOT_2_DIR*%
X175340000Y-152400000D03*
%TO.P,CONN->MD10_MOT_2,2*%
%TO.N,MOT_2_PWM*%
X177840000Y-152400000D03*
%TO.P,CONN->MD10_MOT_2,1*%
%TO.N,GND*%
%TA.AperFunction,ComponentPad*%
G36*
G01*
X181190000Y-151675000D02*
X181190000Y-153125000D01*
G75*
G02*
X180940000Y-153375000I-250000J0D01*
G01*
X179740000Y-153375000D01*
G75*
G02*
X179490000Y-153125000I0J250000D01*
G01*
X179490000Y-151675000D01*
G75*
G02*
X179740000Y-151425000I250000J0D01*
G01*
X180940000Y-151425000D01*
G75*
G02*
X181190000Y-151675000I0J-250000D01*
G01*
G37*
%TD.AperFunction*%
%TD*%
D17*
%TO.P,CONN->MOT_LID1,2*%
%TO.N,+5V*%
X135930000Y-102870000D03*
%TO.P,CONN->MOT_LID1,1*%
%TO.N,Net-(CONN->MOT_LID1-Pad1)*%
%TA.AperFunction,ComponentPad*%
G36*
G01*
X139280000Y-102120000D02*
X139280000Y-103620000D01*
G75*
G02*
X139030000Y-103870000I-250000J0D01*
G01*
X137830000Y-103870000D01*
G75*
G02*
X137580000Y-103620000I0J250000D01*
G01*
X137580000Y-102120000D01*
G75*
G02*
X137830000Y-101870000I250000J0D01*
G01*
X139030000Y-101870000D01*
G75*
G02*
X139280000Y-102120000I0J-250000D01*
G01*
G37*
%TD.AperFunction*%
%TD*%
D11*
%TO.P,CONN->SERV_PAV1,1*%
%TO.N,GND*%
X185420000Y-144780000D03*
D10*
%TO.P,CONN->SERV_PAV1,2*%
%TO.N,+5V*%
X182880000Y-144780000D03*
%TO.P,CONN->SERV_PAV1,3*%
%TO.N,PAV_SERV*%
X180340000Y-144780000D03*
%TD*%
%TO.P,CONN->X-BEE1,1*%
%TO.N,+5V*%
%TA.AperFunction,ComponentPad*%
G36*
G01*
X132500000Y-118835000D02*
X132500000Y-117385000D01*
G75*
G02*
X132750000Y-117135000I250000J0D01*
G01*
X133950000Y-117135000D01*
G75*
G02*
X134200000Y-117385000I0J-250000D01*
G01*
X134200000Y-118835000D01*
G75*
G02*
X133950000Y-119085000I-250000J0D01*
G01*
X132750000Y-119085000D01*
G75*
G02*
X132500000Y-118835000I0J250000D01*
G01*
G37*
%TD.AperFunction*%
D16*
%TO.P,CONN->X-BEE1,2*%
%TO.N,GND*%
X135850000Y-118110000D03*
%TO.P,CONN->X-BEE1,3*%
%TO.N,X-BEE_TX*%
X138350000Y-118110000D03*
%TO.P,CONN->X-BEE1,4*%
%TO.N,X-BEE_RX*%
X140850000Y-118110000D03*
%TD*%
%TO.P,CONN_COL1,1*%
%TO.N,COL_GPIO*%
%TA.AperFunction,ComponentPad*%
G36*
G01*
X139280000Y-133870000D02*
X139280000Y-135370000D01*
G75*
G02*
X139030000Y-135620000I-250000J0D01*
G01*
X137830000Y-135620000D01*
G75*
G02*
X137580000Y-135370000I0J250000D01*
G01*
X137580000Y-133870000D01*
G75*
G02*
X137830000Y-133620000I250000J0D01*
G01*
X139030000Y-133620000D01*
G75*
G02*
X139280000Y-133870000I0J-250000D01*
G01*
G37*
%TD.AperFunction*%
D17*
%TO.P,CONN_COL1,2*%
%TO.N,GND*%
X135930000Y-134620000D03*
%TD*%
%TO.P,CONN_TIR1,1*%
%TO.N,TIR_GPIO*%
%TA.AperFunction,ComponentPad*%
G36*
G01*
X139280000Y-126250000D02*
X139280000Y-127750000D01*
G75*
G02*
X139030000Y-128000000I-250000J0D01*
G01*
X137830000Y-128000000D01*
G75*
G02*
X137580000Y-127750000I0J250000D01*
G01*
X137580000Y-126250000D01*
G75*
G02*
X137830000Y-126000000I250000J0D01*
G01*
X139030000Y-126000000D01*
G75*
G02*
X139280000Y-126250000I0J-250000D01*
G01*
G37*
%TD.AperFunction*%
%TO.P,CONN_TIR1,2*%
%TO.N,GND*%
X135930000Y-127000000D03*
%TD*%
D16*
%TO.P,J1,4*%
%TO.N,MOT_1_COD_phB*%
X181730000Y-106680000D03*
%TO.P,J1,3*%
%TO.N,MOT_1_COD_phA*%
X184230000Y-106680000D03*
%TO.P,J1,2*%
%TO.N,GND*%
X186730000Y-106680000D03*
%TO.P,J1,1*%
%TO.N,+5V*%
%TA.AperFunction,ComponentPad*%
G36*
G01*
X190080000Y-105955000D02*
X190080000Y-107405000D01*
G75*
G02*
X189830000Y-107655000I-250000J0D01*
G01*
X188630000Y-107655000D01*
G75*
G02*
X188380000Y-107405000I0J250000D01*
G01*
X188380000Y-105955000D01*
G75*
G02*
X188630000Y-105705000I250000J0D01*
G01*
X189830000Y-105705000D01*
G75*
G02*
X190080000Y-105955000I0J-250000D01*
G01*
G37*
%TD.AperFunction*%
%TD*%
%TO.P,J2,1*%
%TO.N,+5V*%
%TA.AperFunction,ComponentPad*%
G36*
G01*
X190080000Y-97065000D02*
X190080000Y-98515000D01*
G75*
G02*
X189830000Y-98765000I-250000J0D01*
G01*
X188630000Y-98765000D01*
G75*
G02*
X188380000Y-98515000I0J250000D01*
G01*
X188380000Y-97065000D01*
G75*
G02*
X188630000Y-96815000I250000J0D01*
G01*
X189830000Y-96815000D01*
G75*
G02*
X190080000Y-97065000I0J-250000D01*
G01*
G37*
%TD.AperFunction*%
%TO.P,J2,2*%
%TO.N,GND*%
X186730000Y-97790000D03*
%TO.P,J2,3*%
%TO.N,MOT_2_COD_phA*%
X184230000Y-97790000D03*
%TO.P,J2,4*%
%TO.N,MOT_2_COD_phB*%
X181730000Y-97790000D03*
%TD*%
%TO.P,J_FTM->R_COD_1,4*%
%TO.N,R_COD_1_phB*%
X181730000Y-133350000D03*
%TO.P,J_FTM->R_COD_1,3*%
%TO.N,R_COD_1_phA*%
X184230000Y-133350000D03*
%TO.P,J_FTM->R_COD_1,2*%
%TO.N,GND*%
X186730000Y-133350000D03*
%TO.P,J_FTM->R_COD_1,1*%
%TO.N,+5V*%
%TA.AperFunction,ComponentPad*%
G36*
G01*
X190080000Y-132625000D02*
X190080000Y-134075000D01*
G75*
G02*
X189830000Y-134325000I-250000J0D01*
G01*
X188630000Y-134325000D01*
G75*
G02*
X188380000Y-134075000I0J250000D01*
G01*
X188380000Y-132625000D01*
G75*
G02*
X188630000Y-132375000I250000J0D01*
G01*
X189830000Y-132375000D01*
G75*
G02*
X190080000Y-132625000I0J-250000D01*
G01*
G37*
%TD.AperFunction*%
%TD*%
%TO.P,J_FTM->R_COD_2,1*%
%TO.N,+5V*%
%TA.AperFunction,ComponentPad*%
G36*
G01*
X133770000Y-142965000D02*
X133770000Y-141515000D01*
G75*
G02*
X134020000Y-141265000I250000J0D01*
G01*
X135220000Y-141265000D01*
G75*
G02*
X135470000Y-141515000I0J-250000D01*
G01*
X135470000Y-142965000D01*
G75*
G02*
X135220000Y-143215000I-250000J0D01*
G01*
X134020000Y-143215000D01*
G75*
G02*
X133770000Y-142965000I0J250000D01*
G01*
G37*
%TD.AperFunction*%
%TO.P,J_FTM->R_COD_2,2*%
%TO.N,GND*%
X137120000Y-142240000D03*
%TO.P,J_FTM->R_COD_2,3*%
%TO.N,R_COD_2_phA*%
X139620000Y-142240000D03*
%TO.P,J_FTM->R_COD_2,4*%
%TO.N,R_COD_2_phB*%
X142120000Y-142240000D03*
%TD*%
%TO.P,J_I2C->MULTIPLEX1,1*%
%TO.N,+5V*%
%TA.AperFunction,ComponentPad*%
G36*
G01*
X190080000Y-114845000D02*
X190080000Y-116295000D01*
G75*
G02*
X189830000Y-116545000I-250000J0D01*
G01*
X188630000Y-116545000D01*
G75*
G02*
X188380000Y-116295000I0J250000D01*
G01*
X188380000Y-114845000D01*
G75*
G02*
X188630000Y-114595000I250000J0D01*
G01*
X189830000Y-114595000D01*
G75*
G02*
X190080000Y-114845000I0J-250000D01*
G01*
G37*
%TD.AperFunction*%
%TO.P,J_I2C->MULTIPLEX1,2*%
%TO.N,GND*%
X186730000Y-115570000D03*
%TO.P,J_I2C->MULTIPLEX1,3*%
%TO.N,I2C_SDAO*%
X184230000Y-115570000D03*
%TO.P,J_I2C->MULTIPLEX1,4*%
%TO.N,I2C_SCLO*%
X181730000Y-115570000D03*
%TD*%
%TO.P,J_I2C->MULTIPLEX2,1*%
%TO.N,+5V*%
%TA.AperFunction,ComponentPad*%
G36*
G01*
X190080000Y-123735000D02*
X190080000Y-125185000D01*
G75*
G02*
X189830000Y-125435000I-250000J0D01*
G01*
X188630000Y-125435000D01*
G75*
G02*
X188380000Y-125185000I0J250000D01*
G01*
X188380000Y-123735000D01*
G75*
G02*
X188630000Y-123485000I250000J0D01*
G01*
X189830000Y-123485000D01*
G75*
G02*
X190080000Y-123735000I0J-250000D01*
G01*
G37*
%TD.AperFunction*%
%TO.P,J_I2C->MULTIPLEX2,2*%
%TO.N,GND*%
X186730000Y-124460000D03*
%TO.P,J_I2C->MULTIPLEX2,3*%
%TO.N,I2C_SDAO*%
X184230000Y-124460000D03*
%TO.P,J_I2C->MULTIPLEX2,4*%
%TO.N,I2C_SCLO*%
X181730000Y-124460000D03*
%TD*%
D18*
%TO.P,Q1,1*%
%TO.N,LID_PWM*%
X148270000Y-100600000D03*
%TO.P,Q1,2*%
%TO.N,GND*%
X146370000Y-100600000D03*
%TO.P,Q1,3*%
%TO.N,Net-(CONN->MOT_LID1-Pad1)*%
X147320000Y-102600000D03*
%TD*%
%TO.P,R1,2*%
%TO.N,I2C_SCLO*%
%TA.AperFunction,SMDPad,CuDef*%
G36*
G01*
X162322500Y-103295000D02*
X162797500Y-103295000D01*
G75*
G02*
X163035000Y-103532500I0J-237500D01*
G01*
X163035000Y-104032500D01*
G75*
G02*
X162797500Y-104270000I-237500J0D01*
G01*
X162322500Y-104270000D01*
G75*
G02*
X162085000Y-104032500I0J237500D01*
G01*
X162085000Y-103532500D01*
G75*
G02*
X162322500Y-103295000I237500J0D01*
G01*
G37*
%TD.AperFunction*%
%TO.P,R1,1*%
%TO.N,Net-(CARTE_MICR_COTROL1-Pad51)*%
%TA.AperFunction,SMDPad,CuDef*%
G36*
G01*
X162322500Y-101470000D02*
X162797500Y-101470000D01*
G75*
G02*
X163035000Y-101707500I0J-237500D01*
G01*
X163035000Y-102207500D01*
G75*
G02*
X162797500Y-102445000I-237500J0D01*
G01*
X162322500Y-102445000D01*
G75*
G02*
X162085000Y-102207500I0J237500D01*
G01*
X162085000Y-101707500D01*
G75*
G02*
X162322500Y-101470000I237500J0D01*
G01*
G37*
%TD.AperFunction*%
%TD*%
%TO.P,R2,1*%
%TO.N,Net-(CARTE_MICR_COTROL1-Pad51)*%
%TA.AperFunction,SMDPad,CuDef*%
G36*
G01*
X158512500Y-101470000D02*
X158987500Y-101470000D01*
G75*
G02*
X159225000Y-101707500I0J-237500D01*
G01*
X159225000Y-102207500D01*
G75*
G02*
X158987500Y-102445000I-237500J0D01*
G01*
X158512500Y-102445000D01*
G75*
G02*
X158275000Y-102207500I0J237500D01*
G01*
X158275000Y-101707500D01*
G75*
G02*
X158512500Y-101470000I237500J0D01*
G01*
G37*
%TD.AperFunction*%
%TO.P,R2,2*%
%TO.N,I2C_SDAO*%
%TA.AperFunction,SMDPad,CuDef*%
G36*
G01*
X158512500Y-103295000D02*
X158987500Y-103295000D01*
G75*
G02*
X159225000Y-103532500I0J-237500D01*
G01*
X159225000Y-104032500D01*
G75*
G02*
X158987500Y-104270000I-237500J0D01*
G01*
X158512500Y-104270000D01*
G75*
G02*
X158275000Y-104032500I0J237500D01*
G01*
X158275000Y-103532500D01*
G75*
G02*
X158512500Y-103295000I237500J0D01*
G01*
G37*
%TD.AperFunction*%
%TD*%
%TO.P,R_Pull_D_MOT_LID1,1*%
%TO.N,LID_PWM*%
%TA.AperFunction,SMDPad,CuDef*%
G36*
G01*
X149632500Y-97552500D02*
X149632500Y-98027500D01*
G75*
G02*
X149395000Y-98265000I-237500J0D01*
G01*
X148895000Y-98265000D01*
G75*
G02*
X148657500Y-98027500I0J237500D01*
G01*
X148657500Y-97552500D01*
G75*
G02*
X148895000Y-97315000I237500J0D01*
G01*
X149395000Y-97315000D01*
G75*
G02*
X149632500Y-97552500I0J-237500D01*
G01*
G37*
%TD.AperFunction*%
%TO.P,R_Pull_D_MOT_LID1,2*%
%TO.N,GND*%
%TA.AperFunction,SMDPad,CuDef*%
G36*
G01*
X147807500Y-97552500D02*
X147807500Y-98027500D01*
G75*
G02*
X147570000Y-98265000I-237500J0D01*
G01*
X147070000Y-98265000D01*
G75*
G02*
X146832500Y-98027500I0J237500D01*
G01*
X146832500Y-97552500D01*
G75*
G02*
X147070000Y-97315000I237500J0D01*
G01*
X147570000Y-97315000D01*
G75*
G02*
X147807500Y-97552500I0J-237500D01*
G01*
G37*
%TD.AperFunction*%
%TD*%
D19*
%TO.P,U12->5,1*%
%TO.N,+12V*%
X177800000Y-81280000D03*
D20*
%TO.P,U12->5,2*%
%TO.N,GND*%
X177800000Y-83820000D03*
%TO.P,U12->5,3*%
%TO.N,+5V*%
X177800000Y-86360000D03*
%TD*%
D21*
%TO.N,GND*%
X144510000Y-100600000D03*
%TO.N,R_COD_1_phA*%
X172720000Y-128270000D03*
%TD*%
D22*
%TO.N,+12V*%
X177800000Y-81280000D02*
X157480000Y-81280000D01*
X157480000Y-81280000D02*
X156210000Y-82550000D01*
X156210000Y-82550000D02*
X151130000Y-82550000D01*
%TO.N,GND*%
X160020000Y-83820000D02*
X177800000Y-83820000D01*
X157480000Y-86360000D02*
X160020000Y-83820000D01*
X149860000Y-86360000D02*
X148590000Y-86360000D01*
D23*
X153670000Y-91440000D02*
X161290000Y-91440000D01*
X163830000Y-93980000D02*
X168910000Y-93980000D01*
X161290000Y-91440000D02*
X163830000Y-93980000D01*
X146370000Y-100600000D02*
X144510000Y-100600000D01*
X144510000Y-100600000D02*
X144510000Y-100600000D01*
X135930000Y-127000000D02*
X135930000Y-134620000D01*
X135930000Y-134620000D02*
X135930000Y-137200000D01*
X137120000Y-138390000D02*
X137120000Y-142240000D01*
X135930000Y-137200000D02*
X137120000Y-138390000D01*
D24*
X186730000Y-97790000D02*
X186730000Y-106680000D01*
D22*
X146050000Y-82550000D02*
X146050000Y-83820000D01*
X146050000Y-83820000D02*
X148590000Y-86360000D01*
D24*
X144510000Y-100600000D02*
X142510000Y-100600000D01*
X137120000Y-95210000D02*
X137120000Y-93980000D01*
X142510000Y-100600000D02*
X137120000Y-95210000D01*
X146370000Y-98740000D02*
X147320000Y-97790000D01*
X146370000Y-100600000D02*
X146370000Y-98740000D01*
X147320000Y-87630000D02*
X148590000Y-86360000D01*
X147320000Y-97790000D02*
X147320000Y-87630000D01*
X153670000Y-91440000D02*
X153670000Y-87630000D01*
X153670000Y-87630000D02*
X153670000Y-86360000D01*
D22*
X153670000Y-86360000D02*
X157480000Y-86360000D01*
X149860000Y-86360000D02*
X153670000Y-86360000D01*
D24*
X137120000Y-145930000D02*
X142320000Y-151130000D01*
X137120000Y-142240000D02*
X137120000Y-145930000D01*
X180340000Y-152400000D02*
X180340000Y-151130000D01*
X185420000Y-146050000D02*
X185420000Y-144780000D01*
X180340000Y-151130000D02*
X185420000Y-146050000D01*
X185420000Y-144780000D02*
X185420000Y-139700000D01*
X186730000Y-106680000D02*
X186730000Y-115570000D01*
X186730000Y-138390000D02*
X185420000Y-139700000D01*
X186730000Y-133350000D02*
X186730000Y-138390000D01*
X186730000Y-124460000D02*
X186730000Y-123230000D01*
X186730000Y-115570000D02*
X186730000Y-123230000D01*
X186690000Y-127000000D02*
X186730000Y-127040000D01*
X168910000Y-127000000D02*
X186690000Y-127000000D01*
X186730000Y-127040000D02*
X186730000Y-133350000D01*
X186730000Y-124460000D02*
X186730000Y-127040000D01*
D23*
X135850000Y-109220000D02*
X135850000Y-118110000D01*
X135850000Y-126920000D02*
X135930000Y-127000000D01*
X135850000Y-118110000D02*
X135850000Y-126920000D01*
D25*
%TO.N,COL_GPIO*%
X147320000Y-134620000D02*
X138430000Y-134620000D01*
X149860000Y-132080000D02*
X147320000Y-134620000D01*
X153670000Y-132080000D02*
X149860000Y-132080000D01*
%TO.N,TIR_GPIO*%
X146050000Y-127000000D02*
X138430000Y-127000000D01*
X148590000Y-129540000D02*
X146050000Y-127000000D01*
X153670000Y-129540000D02*
X148590000Y-129540000D01*
%TO.N,R_COD_2_phA*%
X153670000Y-142240000D02*
X149860000Y-142240000D01*
X149860000Y-142240000D02*
X147320000Y-139700000D01*
X142160000Y-139700000D02*
X139620000Y-142240000D01*
X147320000Y-139700000D02*
X142160000Y-139700000D01*
%TO.N,R_COD_2_phB*%
X144660000Y-144780000D02*
X142120000Y-142240000D01*
X153670000Y-144780000D02*
X144660000Y-144780000D01*
D24*
%TO.N,MOT_1_DIR*%
X168910000Y-149860000D02*
X165100000Y-153670000D01*
X165100000Y-153670000D02*
X149860000Y-153670000D01*
X149860000Y-153670000D02*
X147320000Y-151130000D01*
%TO.N,MOT_2_DIR*%
X173990000Y-152400000D02*
X168910000Y-147320000D01*
X175340000Y-152400000D02*
X173990000Y-152400000D01*
%TO.N,MOT_2_PWM*%
X170220000Y-144780000D02*
X168910000Y-144780000D01*
X177840000Y-152400000D02*
X170220000Y-144780000D01*
%TO.N,MOT_1_PWM*%
X144820000Y-149820000D02*
X144820000Y-151130000D01*
X146050000Y-148590000D02*
X144820000Y-149820000D01*
X148590000Y-148590000D02*
X146050000Y-148590000D01*
X152400000Y-152400000D02*
X148590000Y-148590000D01*
X156210000Y-152400000D02*
X152400000Y-152400000D01*
X166370000Y-142240000D02*
X156210000Y-152400000D01*
X168910000Y-142240000D02*
X166370000Y-142240000D01*
%TO.N,PAV_SERV*%
X180340000Y-144780000D02*
X176530000Y-144780000D01*
X171450000Y-139700000D02*
X168910000Y-139700000D01*
X176530000Y-144780000D02*
X171450000Y-139700000D01*
%TO.N,BAR_SERV*%
X180340000Y-139700000D02*
X176530000Y-139700000D01*
X173990000Y-137160000D02*
X168910000Y-137160000D01*
X176530000Y-139700000D02*
X173990000Y-137160000D01*
D25*
%TO.N,X-BEE_TX*%
X138350000Y-119935000D02*
X138350000Y-118110000D01*
X140335000Y-121920000D02*
X138350000Y-119935000D01*
X148590000Y-121920000D02*
X140335000Y-121920000D01*
X151130000Y-119380000D02*
X148590000Y-121920000D01*
X153670000Y-119380000D02*
X151130000Y-119380000D01*
%TO.N,X-BEE_RX*%
X142120000Y-116840000D02*
X140850000Y-118110000D01*
X153670000Y-116840000D02*
X142120000Y-116840000D01*
%TO.N,GPIO_DISPLAY_2*%
X145930000Y-114300000D02*
X140850000Y-109220000D01*
X153670000Y-114300000D02*
X145930000Y-114300000D01*
%TO.N,GPIO_DISPLAY_1*%
X140890000Y-106680000D02*
X138350000Y-109220000D01*
X146050000Y-106680000D02*
X140890000Y-106680000D01*
X151130000Y-111760000D02*
X146050000Y-106680000D01*
X153670000Y-111760000D02*
X151130000Y-111760000D01*
%TO.N,LID_PWM*%
X149810000Y-99060000D02*
X148270000Y-100600000D01*
X149860000Y-97790000D02*
X151130000Y-99060000D01*
X149145000Y-97790000D02*
X149860000Y-97790000D01*
X151130000Y-99060000D02*
X149810000Y-99060000D01*
X153670000Y-99060000D02*
X151130000Y-99060000D01*
D24*
%TO.N,R_COD_1_phA*%
X184230000Y-133350000D02*
X184230000Y-132160000D01*
X184230000Y-132160000D02*
X181610000Y-129540000D01*
X181610000Y-129540000D02*
X173990000Y-129540000D01*
X173990000Y-129540000D02*
X172720000Y-128270000D01*
X172720000Y-128270000D02*
X172720000Y-128270000D01*
D25*
%TO.N,I2C_SDAO*%
X158750000Y-103782500D02*
X159662500Y-103782500D01*
X167640000Y-111760000D02*
X168910000Y-111760000D01*
X159662500Y-103782500D02*
X167640000Y-111760000D01*
D24*
X184230000Y-124460000D02*
X184230000Y-115570000D01*
X184230000Y-115570000D02*
X184230000Y-114380000D01*
X181610000Y-111760000D02*
X168910000Y-111760000D01*
X184230000Y-114380000D02*
X181610000Y-111760000D01*
D25*
%TO.N,I2C_SCLO*%
X168910000Y-109220000D02*
X167640000Y-109220000D01*
X167640000Y-109220000D02*
X162560000Y-104140000D01*
D24*
X181730000Y-115570000D02*
X181730000Y-124460000D01*
D25*
%TO.N,Net-(CARTE_MICR_COTROL1-Pad51)*%
X163472500Y-101957500D02*
X168910000Y-96520000D01*
X158750000Y-101957500D02*
X162917500Y-101957500D01*
X162917500Y-101957500D02*
X163472500Y-101957500D01*
X162560000Y-101957500D02*
X162917500Y-101957500D01*
D23*
%TO.N,+5V*%
X173990000Y-86360000D02*
X168910000Y-91440000D01*
X177800000Y-86360000D02*
X173990000Y-86360000D01*
X134620000Y-101560000D02*
X135930000Y-102870000D01*
X134620000Y-93980000D02*
X134620000Y-101560000D01*
X135930000Y-102870000D02*
X135890000Y-102870000D01*
X133350000Y-105410000D02*
X133350000Y-109220000D01*
X135890000Y-102870000D02*
X133350000Y-105410000D01*
X133350000Y-119380000D02*
X133350000Y-140970000D01*
X133350000Y-140970000D02*
X134620000Y-142240000D01*
D24*
X177800000Y-86360000D02*
X179070000Y-86360000D01*
X189230000Y-96520000D02*
X189230000Y-97790000D01*
X179070000Y-86360000D02*
X189230000Y-96520000D01*
X189230000Y-97790000D02*
X189230000Y-106680000D01*
X182880000Y-144780000D02*
X182880000Y-139700000D01*
X189230000Y-106680000D02*
X189230000Y-115570000D01*
X189230000Y-115570000D02*
X189230000Y-124460000D01*
X189230000Y-124460000D02*
X189230000Y-133350000D01*
X133350000Y-118110000D02*
X133350000Y-109220000D01*
D23*
%TO.N,Net-(CONN->MOT_LID1-Pad1)*%
X138700000Y-102600000D02*
X138430000Y-102870000D01*
X147320000Y-102600000D02*
X138700000Y-102600000D01*
D25*
%TO.N,MOT_1_COD_phB*%
X168910000Y-106680000D02*
X181730000Y-106680000D01*
%TO.N,MOT_1_COD_phA*%
X184230000Y-105490000D02*
X184230000Y-106680000D01*
X182880000Y-104140000D02*
X184230000Y-105490000D01*
X168910000Y-104140000D02*
X182880000Y-104140000D01*
%TO.N,MOT_2_COD_phB*%
X177920000Y-101600000D02*
X181730000Y-97790000D01*
X168910000Y-101600000D02*
X177920000Y-101600000D01*
%TO.N,MOT_2_COD_phA*%
X168910000Y-99060000D02*
X175260000Y-99060000D01*
X175260000Y-99060000D02*
X179070000Y-95250000D01*
X179070000Y-95250000D02*
X182880000Y-95250000D01*
X184230000Y-96600000D02*
X184230000Y-97790000D01*
X182880000Y-95250000D02*
X184230000Y-96600000D01*
%TD*%
M02*
