%TF.GenerationSoftware,KiCad,Pcbnew,(5.1.9)-1*%
%TF.CreationDate,2021-03-25T13:19:16+01:00*%
%TF.ProjectId,kicad_robot_teensy,6b696361-645f-4726-9f62-6f745f746565,rev?*%
%TF.SameCoordinates,Original*%
%TF.FileFunction,Paste,Top*%
%TF.FilePolarity,Positive*%
%FSLAX46Y46*%
G04 Gerber Fmt 4.6, Leading zero omitted, Abs format (unit mm)*
G04 Created by KiCad (PCBNEW (5.1.9)-1) date 2021-03-25 13:19:16*
%MOMM*%
%LPD*%
G01*
G04 APERTURE LIST*
%ADD10R,0.800000X0.900000*%
G04 APERTURE END LIST*
D10*
%TO.C,Q1*%
X148270000Y-100600000D03*
X146370000Y-100600000D03*
X147320000Y-102600000D03*
%TD*%
%TO.C,R1*%
G36*
G01*
X162322500Y-103295000D02*
X162797500Y-103295000D01*
G75*
G02*
X163035000Y-103532500I0J-237500D01*
G01*
X163035000Y-104032500D01*
G75*
G02*
X162797500Y-104270000I-237500J0D01*
G01*
X162322500Y-104270000D01*
G75*
G02*
X162085000Y-104032500I0J237500D01*
G01*
X162085000Y-103532500D01*
G75*
G02*
X162322500Y-103295000I237500J0D01*
G01*
G37*
G36*
G01*
X162322500Y-101470000D02*
X162797500Y-101470000D01*
G75*
G02*
X163035000Y-101707500I0J-237500D01*
G01*
X163035000Y-102207500D01*
G75*
G02*
X162797500Y-102445000I-237500J0D01*
G01*
X162322500Y-102445000D01*
G75*
G02*
X162085000Y-102207500I0J237500D01*
G01*
X162085000Y-101707500D01*
G75*
G02*
X162322500Y-101470000I237500J0D01*
G01*
G37*
%TD*%
%TO.C,R2*%
G36*
G01*
X158512500Y-101470000D02*
X158987500Y-101470000D01*
G75*
G02*
X159225000Y-101707500I0J-237500D01*
G01*
X159225000Y-102207500D01*
G75*
G02*
X158987500Y-102445000I-237500J0D01*
G01*
X158512500Y-102445000D01*
G75*
G02*
X158275000Y-102207500I0J237500D01*
G01*
X158275000Y-101707500D01*
G75*
G02*
X158512500Y-101470000I237500J0D01*
G01*
G37*
G36*
G01*
X158512500Y-103295000D02*
X158987500Y-103295000D01*
G75*
G02*
X159225000Y-103532500I0J-237500D01*
G01*
X159225000Y-104032500D01*
G75*
G02*
X158987500Y-104270000I-237500J0D01*
G01*
X158512500Y-104270000D01*
G75*
G02*
X158275000Y-104032500I0J237500D01*
G01*
X158275000Y-103532500D01*
G75*
G02*
X158512500Y-103295000I237500J0D01*
G01*
G37*
%TD*%
%TO.C,R_Pull_D_MOT_LID1*%
G36*
G01*
X149632500Y-97552500D02*
X149632500Y-98027500D01*
G75*
G02*
X149395000Y-98265000I-237500J0D01*
G01*
X148895000Y-98265000D01*
G75*
G02*
X148657500Y-98027500I0J237500D01*
G01*
X148657500Y-97552500D01*
G75*
G02*
X148895000Y-97315000I237500J0D01*
G01*
X149395000Y-97315000D01*
G75*
G02*
X149632500Y-97552500I0J-237500D01*
G01*
G37*
G36*
G01*
X147807500Y-97552500D02*
X147807500Y-98027500D01*
G75*
G02*
X147570000Y-98265000I-237500J0D01*
G01*
X147070000Y-98265000D01*
G75*
G02*
X146832500Y-98027500I0J237500D01*
G01*
X146832500Y-97552500D01*
G75*
G02*
X147070000Y-97315000I237500J0D01*
G01*
X147570000Y-97315000D01*
G75*
G02*
X147807500Y-97552500I0J-237500D01*
G01*
G37*
%TD*%
M02*
