%TF.GenerationSoftware,KiCad,Pcbnew,(5.1.9)-1*%
%TF.CreationDate,2021-03-25T13:19:16+01:00*%
%TF.ProjectId,kicad_robot_teensy,6b696361-645f-4726-9f62-6f745f746565,rev?*%
%TF.SameCoordinates,Original*%
%TF.FileFunction,Soldermask,Top*%
%TF.FilePolarity,Negative*%
%FSLAX46Y46*%
G04 Gerber Fmt 4.6, Leading zero omitted, Abs format (unit mm)*
G04 Created by KiCad (PCBNEW (5.1.9)-1) date 2021-03-25 13:19:16*
%MOMM*%
%LPD*%
G01*
G04 APERTURE LIST*
%ADD10C,3.200000*%
%ADD11O,1.700000X1.700000*%
%ADD12R,1.700000X1.700000*%
%ADD13C,1.600000*%
%ADD14R,1.600000X1.600000*%
%ADD15R,3.000000X3.000000*%
%ADD16C,3.000000*%
%ADD17O,1.700000X1.950000*%
%ADD18O,1.700000X2.000000*%
%ADD19R,0.800000X0.900000*%
%ADD20R,2.300000X1.500000*%
%ADD21O,2.300000X1.500000*%
G04 APERTURE END LIST*
D10*
%TO.C,REF\u002A\u002A*%
X190000000Y-152000000D03*
%TD*%
%TO.C,REF\u002A\u002A*%
X133000000Y-152000000D03*
%TD*%
D11*
%TO.C,CONN->SERV_BAR1*%
X180340000Y-139700000D03*
X182880000Y-139700000D03*
D12*
X185420000Y-139700000D03*
%TD*%
D10*
%TO.C,REF\u002A\u002A*%
X133000000Y-81000000D03*
%TD*%
%TO.C,REF\u002A\u002A*%
X190000000Y-81000000D03*
%TD*%
D13*
%TO.C,CARTE_MICR_COTROL1*%
X153670000Y-132080000D03*
X153670000Y-134620000D03*
X153670000Y-137160000D03*
X153670000Y-139700000D03*
X153670000Y-129540000D03*
X153670000Y-127000000D03*
X153670000Y-124460000D03*
X153670000Y-142240000D03*
X153670000Y-144780000D03*
X153670000Y-147320000D03*
X153670000Y-149860000D03*
X168910000Y-149860000D03*
X168910000Y-147320000D03*
X168910000Y-144780000D03*
X168910000Y-142240000D03*
X168910000Y-139700000D03*
X168910000Y-137160000D03*
X168910000Y-134620000D03*
X168910000Y-132080000D03*
X153670000Y-121920000D03*
X153670000Y-119380000D03*
X153670000Y-116840000D03*
X153670000Y-114300000D03*
X153670000Y-111760000D03*
X153670000Y-109220000D03*
X153670000Y-106680000D03*
X153670000Y-104140000D03*
X153670000Y-101600000D03*
X153670000Y-99060000D03*
X153670000Y-96520000D03*
X153670000Y-93980000D03*
D14*
X153670000Y-91440000D03*
D13*
X168910000Y-129540000D03*
X168910000Y-127000000D03*
X168910000Y-124460000D03*
X168910000Y-121920000D03*
X168910000Y-119380000D03*
X168910000Y-116840000D03*
X168910000Y-114300000D03*
X168910000Y-111760000D03*
X168910000Y-109220000D03*
X168910000Y-106680000D03*
X168910000Y-104140000D03*
X168910000Y-101600000D03*
X168910000Y-99060000D03*
X168910000Y-96520000D03*
X168910000Y-93980000D03*
X168910000Y-91440000D03*
%TD*%
D15*
%TO.C,ALIM_1*%
X151130000Y-82550000D03*
D16*
X146050000Y-82550000D03*
%TD*%
D17*
%TO.C,CONN->DISP1*%
X140850000Y-109220000D03*
X138350000Y-109220000D03*
X135850000Y-109220000D03*
G36*
G01*
X132500000Y-109945000D02*
X132500000Y-108495000D01*
G75*
G02*
X132750000Y-108245000I250000J0D01*
G01*
X133950000Y-108245000D01*
G75*
G02*
X134200000Y-108495000I0J-250000D01*
G01*
X134200000Y-109945000D01*
G75*
G02*
X133950000Y-110195000I-250000J0D01*
G01*
X132750000Y-110195000D01*
G75*
G02*
X132500000Y-109945000I0J250000D01*
G01*
G37*
%TD*%
%TO.C,CONN->LID1*%
X142120000Y-93980000D03*
X139620000Y-93980000D03*
X137120000Y-93980000D03*
G36*
G01*
X133770000Y-94705000D02*
X133770000Y-93255000D01*
G75*
G02*
X134020000Y-93005000I250000J0D01*
G01*
X135220000Y-93005000D01*
G75*
G02*
X135470000Y-93255000I0J-250000D01*
G01*
X135470000Y-94705000D01*
G75*
G02*
X135220000Y-94955000I-250000J0D01*
G01*
X134020000Y-94955000D01*
G75*
G02*
X133770000Y-94705000I0J250000D01*
G01*
G37*
%TD*%
%TO.C,CONN->MD10_MOT_1*%
G36*
G01*
X141470000Y-151855000D02*
X141470000Y-150405000D01*
G75*
G02*
X141720000Y-150155000I250000J0D01*
G01*
X142920000Y-150155000D01*
G75*
G02*
X143170000Y-150405000I0J-250000D01*
G01*
X143170000Y-151855000D01*
G75*
G02*
X142920000Y-152105000I-250000J0D01*
G01*
X141720000Y-152105000D01*
G75*
G02*
X141470000Y-151855000I0J250000D01*
G01*
G37*
X144820000Y-151130000D03*
X147320000Y-151130000D03*
%TD*%
%TO.C,CONN->MD10_MOT_2*%
X175340000Y-152400000D03*
X177840000Y-152400000D03*
G36*
G01*
X181190000Y-151675000D02*
X181190000Y-153125000D01*
G75*
G02*
X180940000Y-153375000I-250000J0D01*
G01*
X179740000Y-153375000D01*
G75*
G02*
X179490000Y-153125000I0J250000D01*
G01*
X179490000Y-151675000D01*
G75*
G02*
X179740000Y-151425000I250000J0D01*
G01*
X180940000Y-151425000D01*
G75*
G02*
X181190000Y-151675000I0J-250000D01*
G01*
G37*
%TD*%
D18*
%TO.C,CONN->MOT_LID1*%
X135930000Y-102870000D03*
G36*
G01*
X139280000Y-102120000D02*
X139280000Y-103620000D01*
G75*
G02*
X139030000Y-103870000I-250000J0D01*
G01*
X137830000Y-103870000D01*
G75*
G02*
X137580000Y-103620000I0J250000D01*
G01*
X137580000Y-102120000D01*
G75*
G02*
X137830000Y-101870000I250000J0D01*
G01*
X139030000Y-101870000D01*
G75*
G02*
X139280000Y-102120000I0J-250000D01*
G01*
G37*
%TD*%
D12*
%TO.C,CONN->SERV_PAV1*%
X185420000Y-144780000D03*
D11*
X182880000Y-144780000D03*
X180340000Y-144780000D03*
%TD*%
%TO.C,CONN->X-BEE1*%
G36*
G01*
X132500000Y-118835000D02*
X132500000Y-117385000D01*
G75*
G02*
X132750000Y-117135000I250000J0D01*
G01*
X133950000Y-117135000D01*
G75*
G02*
X134200000Y-117385000I0J-250000D01*
G01*
X134200000Y-118835000D01*
G75*
G02*
X133950000Y-119085000I-250000J0D01*
G01*
X132750000Y-119085000D01*
G75*
G02*
X132500000Y-118835000I0J250000D01*
G01*
G37*
D17*
X135850000Y-118110000D03*
X138350000Y-118110000D03*
X140850000Y-118110000D03*
%TD*%
%TO.C,CONN_COL1*%
G36*
G01*
X139280000Y-133870000D02*
X139280000Y-135370000D01*
G75*
G02*
X139030000Y-135620000I-250000J0D01*
G01*
X137830000Y-135620000D01*
G75*
G02*
X137580000Y-135370000I0J250000D01*
G01*
X137580000Y-133870000D01*
G75*
G02*
X137830000Y-133620000I250000J0D01*
G01*
X139030000Y-133620000D01*
G75*
G02*
X139280000Y-133870000I0J-250000D01*
G01*
G37*
D18*
X135930000Y-134620000D03*
%TD*%
%TO.C,CONN_TIR1*%
G36*
G01*
X139280000Y-126250000D02*
X139280000Y-127750000D01*
G75*
G02*
X139030000Y-128000000I-250000J0D01*
G01*
X137830000Y-128000000D01*
G75*
G02*
X137580000Y-127750000I0J250000D01*
G01*
X137580000Y-126250000D01*
G75*
G02*
X137830000Y-126000000I250000J0D01*
G01*
X139030000Y-126000000D01*
G75*
G02*
X139280000Y-126250000I0J-250000D01*
G01*
G37*
X135930000Y-127000000D03*
%TD*%
D17*
%TO.C,J1*%
X181730000Y-106680000D03*
X184230000Y-106680000D03*
X186730000Y-106680000D03*
G36*
G01*
X190080000Y-105955000D02*
X190080000Y-107405000D01*
G75*
G02*
X189830000Y-107655000I-250000J0D01*
G01*
X188630000Y-107655000D01*
G75*
G02*
X188380000Y-107405000I0J250000D01*
G01*
X188380000Y-105955000D01*
G75*
G02*
X188630000Y-105705000I250000J0D01*
G01*
X189830000Y-105705000D01*
G75*
G02*
X190080000Y-105955000I0J-250000D01*
G01*
G37*
%TD*%
%TO.C,J2*%
G36*
G01*
X190080000Y-97065000D02*
X190080000Y-98515000D01*
G75*
G02*
X189830000Y-98765000I-250000J0D01*
G01*
X188630000Y-98765000D01*
G75*
G02*
X188380000Y-98515000I0J250000D01*
G01*
X188380000Y-97065000D01*
G75*
G02*
X188630000Y-96815000I250000J0D01*
G01*
X189830000Y-96815000D01*
G75*
G02*
X190080000Y-97065000I0J-250000D01*
G01*
G37*
X186730000Y-97790000D03*
X184230000Y-97790000D03*
X181730000Y-97790000D03*
%TD*%
%TO.C,J_FTM->R_COD_1*%
X181730000Y-133350000D03*
X184230000Y-133350000D03*
X186730000Y-133350000D03*
G36*
G01*
X190080000Y-132625000D02*
X190080000Y-134075000D01*
G75*
G02*
X189830000Y-134325000I-250000J0D01*
G01*
X188630000Y-134325000D01*
G75*
G02*
X188380000Y-134075000I0J250000D01*
G01*
X188380000Y-132625000D01*
G75*
G02*
X188630000Y-132375000I250000J0D01*
G01*
X189830000Y-132375000D01*
G75*
G02*
X190080000Y-132625000I0J-250000D01*
G01*
G37*
%TD*%
%TO.C,J_FTM->R_COD_2*%
G36*
G01*
X133770000Y-142965000D02*
X133770000Y-141515000D01*
G75*
G02*
X134020000Y-141265000I250000J0D01*
G01*
X135220000Y-141265000D01*
G75*
G02*
X135470000Y-141515000I0J-250000D01*
G01*
X135470000Y-142965000D01*
G75*
G02*
X135220000Y-143215000I-250000J0D01*
G01*
X134020000Y-143215000D01*
G75*
G02*
X133770000Y-142965000I0J250000D01*
G01*
G37*
X137120000Y-142240000D03*
X139620000Y-142240000D03*
X142120000Y-142240000D03*
%TD*%
%TO.C,J_I2C->MULTIPLEX1*%
G36*
G01*
X190080000Y-114845000D02*
X190080000Y-116295000D01*
G75*
G02*
X189830000Y-116545000I-250000J0D01*
G01*
X188630000Y-116545000D01*
G75*
G02*
X188380000Y-116295000I0J250000D01*
G01*
X188380000Y-114845000D01*
G75*
G02*
X188630000Y-114595000I250000J0D01*
G01*
X189830000Y-114595000D01*
G75*
G02*
X190080000Y-114845000I0J-250000D01*
G01*
G37*
X186730000Y-115570000D03*
X184230000Y-115570000D03*
X181730000Y-115570000D03*
%TD*%
%TO.C,J_I2C->MULTIPLEX2*%
G36*
G01*
X190080000Y-123735000D02*
X190080000Y-125185000D01*
G75*
G02*
X189830000Y-125435000I-250000J0D01*
G01*
X188630000Y-125435000D01*
G75*
G02*
X188380000Y-125185000I0J250000D01*
G01*
X188380000Y-123735000D01*
G75*
G02*
X188630000Y-123485000I250000J0D01*
G01*
X189830000Y-123485000D01*
G75*
G02*
X190080000Y-123735000I0J-250000D01*
G01*
G37*
X186730000Y-124460000D03*
X184230000Y-124460000D03*
X181730000Y-124460000D03*
%TD*%
D19*
%TO.C,Q1*%
X148270000Y-100600000D03*
X146370000Y-100600000D03*
X147320000Y-102600000D03*
%TD*%
%TO.C,R1*%
G36*
G01*
X162322500Y-103295000D02*
X162797500Y-103295000D01*
G75*
G02*
X163035000Y-103532500I0J-237500D01*
G01*
X163035000Y-104032500D01*
G75*
G02*
X162797500Y-104270000I-237500J0D01*
G01*
X162322500Y-104270000D01*
G75*
G02*
X162085000Y-104032500I0J237500D01*
G01*
X162085000Y-103532500D01*
G75*
G02*
X162322500Y-103295000I237500J0D01*
G01*
G37*
G36*
G01*
X162322500Y-101470000D02*
X162797500Y-101470000D01*
G75*
G02*
X163035000Y-101707500I0J-237500D01*
G01*
X163035000Y-102207500D01*
G75*
G02*
X162797500Y-102445000I-237500J0D01*
G01*
X162322500Y-102445000D01*
G75*
G02*
X162085000Y-102207500I0J237500D01*
G01*
X162085000Y-101707500D01*
G75*
G02*
X162322500Y-101470000I237500J0D01*
G01*
G37*
%TD*%
%TO.C,R2*%
G36*
G01*
X158512500Y-101470000D02*
X158987500Y-101470000D01*
G75*
G02*
X159225000Y-101707500I0J-237500D01*
G01*
X159225000Y-102207500D01*
G75*
G02*
X158987500Y-102445000I-237500J0D01*
G01*
X158512500Y-102445000D01*
G75*
G02*
X158275000Y-102207500I0J237500D01*
G01*
X158275000Y-101707500D01*
G75*
G02*
X158512500Y-101470000I237500J0D01*
G01*
G37*
G36*
G01*
X158512500Y-103295000D02*
X158987500Y-103295000D01*
G75*
G02*
X159225000Y-103532500I0J-237500D01*
G01*
X159225000Y-104032500D01*
G75*
G02*
X158987500Y-104270000I-237500J0D01*
G01*
X158512500Y-104270000D01*
G75*
G02*
X158275000Y-104032500I0J237500D01*
G01*
X158275000Y-103532500D01*
G75*
G02*
X158512500Y-103295000I237500J0D01*
G01*
G37*
%TD*%
%TO.C,R_Pull_D_MOT_LID1*%
G36*
G01*
X149632500Y-97552500D02*
X149632500Y-98027500D01*
G75*
G02*
X149395000Y-98265000I-237500J0D01*
G01*
X148895000Y-98265000D01*
G75*
G02*
X148657500Y-98027500I0J237500D01*
G01*
X148657500Y-97552500D01*
G75*
G02*
X148895000Y-97315000I237500J0D01*
G01*
X149395000Y-97315000D01*
G75*
G02*
X149632500Y-97552500I0J-237500D01*
G01*
G37*
G36*
G01*
X147807500Y-97552500D02*
X147807500Y-98027500D01*
G75*
G02*
X147570000Y-98265000I-237500J0D01*
G01*
X147070000Y-98265000D01*
G75*
G02*
X146832500Y-98027500I0J237500D01*
G01*
X146832500Y-97552500D01*
G75*
G02*
X147070000Y-97315000I237500J0D01*
G01*
X147570000Y-97315000D01*
G75*
G02*
X147807500Y-97552500I0J-237500D01*
G01*
G37*
%TD*%
D20*
%TO.C,U12->5*%
X177800000Y-81280000D03*
D21*
X177800000Y-83820000D03*
X177800000Y-86360000D03*
%TD*%
M02*
