%TF.GenerationSoftware,KiCad,Pcbnew,5.1.9*%
%TF.CreationDate,2021-03-25T13:41:33+01:00*%
%TF.ProjectId,kicad_robot_servos_ev_pompes,6b696361-645f-4726-9f62-6f745f736572,rev?*%
%TF.SameCoordinates,Original*%
%TF.FileFunction,Soldermask,Bot*%
%TF.FilePolarity,Negative*%
%FSLAX46Y46*%
G04 Gerber Fmt 4.6, Leading zero omitted, Abs format (unit mm)*
G04 Created by KiCad (PCBNEW 5.1.9) date 2021-03-25 13:41:33*
%MOMM*%
%LPD*%
G01*
G04 APERTURE LIST*
%ADD10C,3.200000*%
%ADD11O,1.700000X1.700000*%
%ADD12R,1.700000X1.700000*%
%ADD13O,1.950000X1.700000*%
%ADD14R,3.000000X3.000000*%
%ADD15C,3.000000*%
%ADD16O,1.700000X2.000000*%
%ADD17O,2.000000X1.700000*%
%ADD18R,2.500000X1.500000*%
%ADD19O,2.500000X1.500000*%
G04 APERTURE END LIST*
D10*
%TO.C,REF\u002A\u002A*%
X16500000Y-70500000D03*
%TD*%
%TO.C,REF\u002A\u002A*%
X16500000Y-16500000D03*
%TD*%
%TO.C,REF\u002A\u002A*%
X108500000Y-70500000D03*
%TD*%
%TO.C,REF\u002A\u002A*%
X108500000Y-16500000D03*
%TD*%
D11*
%TO.C,J10*%
X65405000Y-22225000D03*
X65405000Y-19685000D03*
D12*
X65405000Y-17145000D03*
%TD*%
%TO.C,J1*%
G36*
G01*
X23585000Y-41490000D02*
X22135000Y-41490000D01*
G75*
G02*
X21885000Y-41240000I0J250000D01*
G01*
X21885000Y-40040000D01*
G75*
G02*
X22135000Y-39790000I250000J0D01*
G01*
X23585000Y-39790000D01*
G75*
G02*
X23835000Y-40040000I0J-250000D01*
G01*
X23835000Y-41240000D01*
G75*
G02*
X23585000Y-41490000I-250000J0D01*
G01*
G37*
D13*
X22860000Y-38140000D03*
X22860000Y-35640000D03*
X22860000Y-33140000D03*
%TD*%
D14*
%TO.C,J2*%
X24130000Y-24130000D03*
D15*
X24130000Y-19050000D03*
%TD*%
D16*
%TO.C,J3*%
X88225000Y-64135000D03*
G36*
G01*
X84875000Y-64885000D02*
X84875000Y-63385000D01*
G75*
G02*
X85125000Y-63135000I250000J0D01*
G01*
X86325000Y-63135000D01*
G75*
G02*
X86575000Y-63385000I0J-250000D01*
G01*
X86575000Y-64885000D01*
G75*
G02*
X86325000Y-65135000I-250000J0D01*
G01*
X85125000Y-65135000D01*
G75*
G02*
X84875000Y-64885000I0J250000D01*
G01*
G37*
%TD*%
%TO.C,J4*%
G36*
G01*
X23915000Y-64885000D02*
X23915000Y-63385000D01*
G75*
G02*
X24165000Y-63135000I250000J0D01*
G01*
X25365000Y-63135000D01*
G75*
G02*
X25615000Y-63385000I0J-250000D01*
G01*
X25615000Y-64885000D01*
G75*
G02*
X25365000Y-65135000I-250000J0D01*
G01*
X24165000Y-65135000D01*
G75*
G02*
X23915000Y-64885000I0J250000D01*
G01*
G37*
X27265000Y-64135000D03*
%TD*%
%TO.C,J5*%
G36*
G01*
X69635000Y-64885000D02*
X69635000Y-63385000D01*
G75*
G02*
X69885000Y-63135000I250000J0D01*
G01*
X71085000Y-63135000D01*
G75*
G02*
X71335000Y-63385000I0J-250000D01*
G01*
X71335000Y-64885000D01*
G75*
G02*
X71085000Y-65135000I-250000J0D01*
G01*
X69885000Y-65135000D01*
G75*
G02*
X69635000Y-64885000I0J250000D01*
G01*
G37*
X72985000Y-64135000D03*
%TD*%
%TO.C,J6*%
G36*
G01*
X54395000Y-64885000D02*
X54395000Y-63385000D01*
G75*
G02*
X54645000Y-63135000I250000J0D01*
G01*
X55845000Y-63135000D01*
G75*
G02*
X56095000Y-63385000I0J-250000D01*
G01*
X56095000Y-64885000D01*
G75*
G02*
X55845000Y-65135000I-250000J0D01*
G01*
X54645000Y-65135000D01*
G75*
G02*
X54395000Y-64885000I0J250000D01*
G01*
G37*
X57745000Y-64135000D03*
%TD*%
%TO.C,J7*%
X42505000Y-64135000D03*
G36*
G01*
X39155000Y-64885000D02*
X39155000Y-63385000D01*
G75*
G02*
X39405000Y-63135000I250000J0D01*
G01*
X40605000Y-63135000D01*
G75*
G02*
X40855000Y-63385000I0J-250000D01*
G01*
X40855000Y-64885000D01*
G75*
G02*
X40605000Y-65135000I-250000J0D01*
G01*
X39405000Y-65135000D01*
G75*
G02*
X39155000Y-64885000I0J250000D01*
G01*
G37*
%TD*%
D11*
%TO.C,J8*%
X83185000Y-22225000D03*
X83185000Y-19685000D03*
D12*
X83185000Y-17145000D03*
%TD*%
%TO.C,J9*%
X74295000Y-17145000D03*
D11*
X74295000Y-19685000D03*
X74295000Y-22225000D03*
%TD*%
D12*
%TO.C,J11*%
X56515000Y-17145000D03*
D11*
X56515000Y-19685000D03*
X56515000Y-22225000D03*
%TD*%
D12*
%TO.C,J12*%
X47625000Y-17145000D03*
D11*
X47625000Y-19685000D03*
X47625000Y-22225000D03*
%TD*%
D17*
%TO.C,J13*%
X107315000Y-63460000D03*
G36*
G01*
X106565000Y-60110000D02*
X108065000Y-60110000D01*
G75*
G02*
X108315000Y-60360000I0J-250000D01*
G01*
X108315000Y-61560000D01*
G75*
G02*
X108065000Y-61810000I-250000J0D01*
G01*
X106565000Y-61810000D01*
G75*
G02*
X106315000Y-61560000I0J250000D01*
G01*
X106315000Y-60360000D01*
G75*
G02*
X106565000Y-60110000I250000J0D01*
G01*
G37*
%TD*%
%TO.C,J14*%
G36*
G01*
X106565000Y-49950000D02*
X108065000Y-49950000D01*
G75*
G02*
X108315000Y-50200000I0J-250000D01*
G01*
X108315000Y-51400000D01*
G75*
G02*
X108065000Y-51650000I-250000J0D01*
G01*
X106565000Y-51650000D01*
G75*
G02*
X106315000Y-51400000I0J250000D01*
G01*
X106315000Y-50200000D01*
G75*
G02*
X106565000Y-49950000I250000J0D01*
G01*
G37*
X107315000Y-53300000D03*
%TD*%
%TO.C,J15*%
X107315000Y-43140000D03*
G36*
G01*
X106565000Y-39790000D02*
X108065000Y-39790000D01*
G75*
G02*
X108315000Y-40040000I0J-250000D01*
G01*
X108315000Y-41240000D01*
G75*
G02*
X108065000Y-41490000I-250000J0D01*
G01*
X106565000Y-41490000D01*
G75*
G02*
X106315000Y-41240000I0J250000D01*
G01*
X106315000Y-40040000D01*
G75*
G02*
X106565000Y-39790000I250000J0D01*
G01*
G37*
%TD*%
%TO.C,J16*%
G36*
G01*
X106565000Y-29630000D02*
X108065000Y-29630000D01*
G75*
G02*
X108315000Y-29880000I0J-250000D01*
G01*
X108315000Y-31080000D01*
G75*
G02*
X108065000Y-31330000I-250000J0D01*
G01*
X106565000Y-31330000D01*
G75*
G02*
X106315000Y-31080000I0J250000D01*
G01*
X106315000Y-29880000D01*
G75*
G02*
X106565000Y-29630000I250000J0D01*
G01*
G37*
X107315000Y-32980000D03*
%TD*%
%TO.C,J17*%
X100965000Y-21550000D03*
G36*
G01*
X100215000Y-18200000D02*
X101715000Y-18200000D01*
G75*
G02*
X101965000Y-18450000I0J-250000D01*
G01*
X101965000Y-19650000D01*
G75*
G02*
X101715000Y-19900000I-250000J0D01*
G01*
X100215000Y-19900000D01*
G75*
G02*
X99965000Y-19650000I0J250000D01*
G01*
X99965000Y-18450000D01*
G75*
G02*
X100215000Y-18200000I250000J0D01*
G01*
G37*
%TD*%
D18*
%TO.C,U1*%
X38100000Y-22860000D03*
D19*
X38100000Y-20320000D03*
X38100000Y-17780000D03*
%TD*%
M02*
