%TF.GenerationSoftware,KiCad,Pcbnew,5.1.9*%
%TF.CreationDate,2021-03-25T13:41:33+01:00*%
%TF.ProjectId,kicad_robot_servos_ev_pompes,6b696361-645f-4726-9f62-6f745f736572,rev?*%
%TF.SameCoordinates,Original*%
%TF.FileFunction,Legend,Top*%
%TF.FilePolarity,Positive*%
%FSLAX46Y46*%
G04 Gerber Fmt 4.6, Leading zero omitted, Abs format (unit mm)*
G04 Created by KiCad (PCBNEW 5.1.9) date 2021-03-25 13:41:33*
%MOMM*%
%LPD*%
G01*
G04 APERTURE LIST*
%ADD10C,0.160000*%
%ADD11C,0.200000*%
%ADD12C,0.120000*%
%ADD13C,0.300000*%
%ADD14C,0.150000*%
G04 APERTURE END LIST*
D10*
X92828095Y-68966571D02*
X93161428Y-68966571D01*
X93304285Y-69490380D02*
X92828095Y-69490380D01*
X92828095Y-68490380D01*
X93304285Y-68490380D01*
X93732857Y-69490380D02*
X93732857Y-68490380D01*
X94304285Y-69490380D01*
X94304285Y-68490380D01*
X94732857Y-69204666D02*
X95209047Y-69204666D01*
X94637619Y-69490380D02*
X94970952Y-68490380D01*
X95304285Y-69490380D01*
X96209047Y-69395142D02*
X96161428Y-69442761D01*
X96018571Y-69490380D01*
X95923333Y-69490380D01*
X95780476Y-69442761D01*
X95685238Y-69347523D01*
X95637619Y-69252285D01*
X95590000Y-69061809D01*
X95590000Y-68918952D01*
X95637619Y-68728476D01*
X95685238Y-68633238D01*
X95780476Y-68538000D01*
X95923333Y-68490380D01*
X96018571Y-68490380D01*
X96161428Y-68538000D01*
X96209047Y-68585619D01*
X97970952Y-69490380D02*
X97637619Y-69014190D01*
X97399523Y-69490380D02*
X97399523Y-68490380D01*
X97780476Y-68490380D01*
X97875714Y-68538000D01*
X97923333Y-68585619D01*
X97970952Y-68680857D01*
X97970952Y-68823714D01*
X97923333Y-68918952D01*
X97875714Y-68966571D01*
X97780476Y-69014190D01*
X97399523Y-69014190D01*
X98542380Y-69490380D02*
X98447142Y-69442761D01*
X98399523Y-69395142D01*
X98351904Y-69299904D01*
X98351904Y-69014190D01*
X98399523Y-68918952D01*
X98447142Y-68871333D01*
X98542380Y-68823714D01*
X98685238Y-68823714D01*
X98780476Y-68871333D01*
X98828095Y-68918952D01*
X98875714Y-69014190D01*
X98875714Y-69299904D01*
X98828095Y-69395142D01*
X98780476Y-69442761D01*
X98685238Y-69490380D01*
X98542380Y-69490380D01*
X99304285Y-69490380D02*
X99304285Y-68490380D01*
X99304285Y-68871333D02*
X99399523Y-68823714D01*
X99590000Y-68823714D01*
X99685238Y-68871333D01*
X99732857Y-68918952D01*
X99780476Y-69014190D01*
X99780476Y-69299904D01*
X99732857Y-69395142D01*
X99685238Y-69442761D01*
X99590000Y-69490380D01*
X99399523Y-69490380D01*
X99304285Y-69442761D01*
X100351904Y-69490380D02*
X100256666Y-69442761D01*
X100209047Y-69395142D01*
X100161428Y-69299904D01*
X100161428Y-69014190D01*
X100209047Y-68918952D01*
X100256666Y-68871333D01*
X100351904Y-68823714D01*
X100494761Y-68823714D01*
X100590000Y-68871333D01*
X100637619Y-68918952D01*
X100685238Y-69014190D01*
X100685238Y-69299904D01*
X100637619Y-69395142D01*
X100590000Y-69442761D01*
X100494761Y-69490380D01*
X100351904Y-69490380D01*
X100970952Y-68823714D02*
X101351904Y-68823714D01*
X101113809Y-68490380D02*
X101113809Y-69347523D01*
X101161428Y-69442761D01*
X101256666Y-69490380D01*
X101351904Y-69490380D01*
X101685238Y-69490380D02*
X101685238Y-68823714D01*
X101685238Y-68490380D02*
X101637619Y-68538000D01*
X101685238Y-68585619D01*
X101732857Y-68538000D01*
X101685238Y-68490380D01*
X101685238Y-68585619D01*
X102590000Y-68823714D02*
X102590000Y-69823714D01*
X102590000Y-69442761D02*
X102494761Y-69490380D01*
X102304285Y-69490380D01*
X102209047Y-69442761D01*
X102161428Y-69395142D01*
X102113809Y-69299904D01*
X102113809Y-69014190D01*
X102161428Y-68918952D01*
X102209047Y-68871333D01*
X102304285Y-68823714D01*
X102494761Y-68823714D01*
X102590000Y-68871333D01*
X103494761Y-68823714D02*
X103494761Y-69490380D01*
X103066190Y-68823714D02*
X103066190Y-69347523D01*
X103113809Y-69442761D01*
X103209047Y-69490380D01*
X103351904Y-69490380D01*
X103447142Y-69442761D01*
X103494761Y-69395142D01*
X104351904Y-69442761D02*
X104256666Y-69490380D01*
X104066190Y-69490380D01*
X103970952Y-69442761D01*
X103923333Y-69347523D01*
X103923333Y-68966571D01*
X103970952Y-68871333D01*
X104066190Y-68823714D01*
X104256666Y-68823714D01*
X104351904Y-68871333D01*
X104399523Y-68966571D01*
X104399523Y-69061809D01*
X103923333Y-69157047D01*
X94780476Y-71150380D02*
X94447142Y-70674190D01*
X94209047Y-71150380D02*
X94209047Y-70150380D01*
X94589999Y-70150380D01*
X94685238Y-70198000D01*
X94732857Y-70245619D01*
X94780476Y-70340857D01*
X94780476Y-70483714D01*
X94732857Y-70578952D01*
X94685238Y-70626571D01*
X94589999Y-70674190D01*
X94209047Y-70674190D01*
X95351904Y-71150380D02*
X95256666Y-71102761D01*
X95209047Y-71055142D01*
X95161428Y-70959904D01*
X95161428Y-70674190D01*
X95209047Y-70578952D01*
X95256666Y-70531333D01*
X95351904Y-70483714D01*
X95494761Y-70483714D01*
X95589999Y-70531333D01*
X95637619Y-70578952D01*
X95685238Y-70674190D01*
X95685238Y-70959904D01*
X95637619Y-71055142D01*
X95589999Y-71102761D01*
X95494761Y-71150380D01*
X95351904Y-71150380D01*
X96113809Y-71150380D02*
X96113809Y-70150380D01*
X96113809Y-70531333D02*
X96209047Y-70483714D01*
X96399523Y-70483714D01*
X96494761Y-70531333D01*
X96542380Y-70578952D01*
X96589999Y-70674190D01*
X96589999Y-70959904D01*
X96542380Y-71055142D01*
X96494761Y-71102761D01*
X96399523Y-71150380D01*
X96209047Y-71150380D01*
X96113809Y-71102761D01*
X97161428Y-71150380D02*
X97066190Y-71102761D01*
X97018571Y-71055142D01*
X96970952Y-70959904D01*
X96970952Y-70674190D01*
X97018571Y-70578952D01*
X97066190Y-70531333D01*
X97161428Y-70483714D01*
X97304285Y-70483714D01*
X97399523Y-70531333D01*
X97447142Y-70578952D01*
X97494761Y-70674190D01*
X97494761Y-70959904D01*
X97447142Y-71055142D01*
X97399523Y-71102761D01*
X97304285Y-71150380D01*
X97161428Y-71150380D01*
X97780476Y-70483714D02*
X98161428Y-70483714D01*
X97923333Y-70150380D02*
X97923333Y-71007523D01*
X97970952Y-71102761D01*
X98066190Y-71150380D01*
X98161428Y-71150380D01*
X99209047Y-70245619D02*
X99256666Y-70198000D01*
X99351904Y-70150380D01*
X99590000Y-70150380D01*
X99685238Y-70198000D01*
X99732857Y-70245619D01*
X99780476Y-70340857D01*
X99780476Y-70436095D01*
X99732857Y-70578952D01*
X99161428Y-71150380D01*
X99780476Y-71150380D01*
X100399523Y-70150380D02*
X100494761Y-70150380D01*
X100590000Y-70198000D01*
X100637619Y-70245619D01*
X100685238Y-70340857D01*
X100732857Y-70531333D01*
X100732857Y-70769428D01*
X100685238Y-70959904D01*
X100637619Y-71055142D01*
X100590000Y-71102761D01*
X100494761Y-71150380D01*
X100399523Y-71150380D01*
X100304285Y-71102761D01*
X100256666Y-71055142D01*
X100209047Y-70959904D01*
X100161428Y-70769428D01*
X100161428Y-70531333D01*
X100209047Y-70340857D01*
X100256666Y-70245619D01*
X100304285Y-70198000D01*
X100399523Y-70150380D01*
X101113809Y-70245619D02*
X101161428Y-70198000D01*
X101256666Y-70150380D01*
X101494761Y-70150380D01*
X101590000Y-70198000D01*
X101637619Y-70245619D01*
X101685238Y-70340857D01*
X101685238Y-70436095D01*
X101637619Y-70578952D01*
X101066190Y-71150380D01*
X101685238Y-71150380D01*
X102637619Y-71150380D02*
X102066190Y-71150380D01*
X102351904Y-71150380D02*
X102351904Y-70150380D01*
X102256666Y-70293238D01*
X102161428Y-70388476D01*
X102066190Y-70436095D01*
X104161428Y-70626571D02*
X104304285Y-70674190D01*
X104351904Y-70721809D01*
X104399523Y-70817047D01*
X104399523Y-70959904D01*
X104351904Y-71055142D01*
X104304285Y-71102761D01*
X104209047Y-71150380D01*
X103828095Y-71150380D01*
X103828095Y-70150380D01*
X104161428Y-70150380D01*
X104256666Y-70198000D01*
X104304285Y-70245619D01*
X104351904Y-70340857D01*
X104351904Y-70436095D01*
X104304285Y-70531333D01*
X104256666Y-70578952D01*
X104161428Y-70626571D01*
X103828095Y-70626571D01*
X88590000Y-72810380D02*
X88590000Y-71810380D01*
X88970952Y-71810380D01*
X89066190Y-71858000D01*
X89113809Y-71905619D01*
X89161428Y-72000857D01*
X89161428Y-72143714D01*
X89113809Y-72238952D01*
X89066190Y-72286571D01*
X88970952Y-72334190D01*
X88590000Y-72334190D01*
X90161428Y-72715142D02*
X90113809Y-72762761D01*
X89970952Y-72810380D01*
X89875714Y-72810380D01*
X89732857Y-72762761D01*
X89637619Y-72667523D01*
X89590000Y-72572285D01*
X89542380Y-72381809D01*
X89542380Y-72238952D01*
X89590000Y-72048476D01*
X89637619Y-71953238D01*
X89732857Y-71858000D01*
X89875714Y-71810380D01*
X89970952Y-71810380D01*
X90113809Y-71858000D01*
X90161428Y-71905619D01*
X90923333Y-72286571D02*
X91066190Y-72334190D01*
X91113809Y-72381809D01*
X91161428Y-72477047D01*
X91161428Y-72619904D01*
X91113809Y-72715142D01*
X91066190Y-72762761D01*
X90970952Y-72810380D01*
X90590000Y-72810380D01*
X90590000Y-71810380D01*
X90923333Y-71810380D01*
X91018571Y-71858000D01*
X91066190Y-71905619D01*
X91113809Y-72000857D01*
X91113809Y-72096095D01*
X91066190Y-72191333D01*
X91018571Y-72238952D01*
X90923333Y-72286571D01*
X90590000Y-72286571D01*
X92351904Y-72810380D02*
X92351904Y-71810380D01*
X92351904Y-72191333D02*
X92447142Y-72143714D01*
X92637619Y-72143714D01*
X92732857Y-72191333D01*
X92780476Y-72238952D01*
X92828095Y-72334190D01*
X92828095Y-72619904D01*
X92780476Y-72715142D01*
X92732857Y-72762761D01*
X92637619Y-72810380D01*
X92447142Y-72810380D01*
X92351904Y-72762761D01*
X93161428Y-72143714D02*
X93399523Y-72810380D01*
X93637619Y-72143714D02*
X93399523Y-72810380D01*
X93304285Y-73048476D01*
X93256666Y-73096095D01*
X93161428Y-73143714D01*
X95351904Y-72810380D02*
X95018571Y-72334190D01*
X94780476Y-72810380D02*
X94780476Y-71810380D01*
X95161428Y-71810380D01*
X95256666Y-71858000D01*
X95304285Y-71905619D01*
X95351904Y-72000857D01*
X95351904Y-72143714D01*
X95304285Y-72238952D01*
X95256666Y-72286571D01*
X95161428Y-72334190D01*
X94780476Y-72334190D01*
X96161428Y-72762761D02*
X96066190Y-72810380D01*
X95875714Y-72810380D01*
X95780476Y-72762761D01*
X95732857Y-72667523D01*
X95732857Y-72286571D01*
X95780476Y-72191333D01*
X95875714Y-72143714D01*
X96066190Y-72143714D01*
X96161428Y-72191333D01*
X96209047Y-72286571D01*
X96209047Y-72381809D01*
X95732857Y-72477047D01*
X96066190Y-71762761D02*
X95923333Y-71905619D01*
X96637619Y-72810380D02*
X96637619Y-72143714D01*
X96637619Y-72238952D02*
X96685238Y-72191333D01*
X96780476Y-72143714D01*
X96923333Y-72143714D01*
X97018571Y-72191333D01*
X97066190Y-72286571D01*
X97066190Y-72810380D01*
X97066190Y-72286571D02*
X97113809Y-72191333D01*
X97209047Y-72143714D01*
X97351904Y-72143714D01*
X97447142Y-72191333D01*
X97494761Y-72286571D01*
X97494761Y-72810380D01*
X97875714Y-72143714D02*
X98113809Y-72810380D01*
X98351904Y-72143714D02*
X98113809Y-72810380D01*
X98018571Y-73048476D01*
X97970952Y-73096095D01*
X97875714Y-73143714D01*
X99828095Y-72286571D02*
X99970952Y-72334190D01*
X100018571Y-72381809D01*
X100066190Y-72477047D01*
X100066190Y-72619904D01*
X100018571Y-72715142D01*
X99970952Y-72762761D01*
X99875714Y-72810380D01*
X99494761Y-72810380D01*
X99494761Y-71810380D01*
X99828095Y-71810380D01*
X99923333Y-71858000D01*
X99970952Y-71905619D01*
X100018571Y-72000857D01*
X100018571Y-72096095D01*
X99970952Y-72191333D01*
X99923333Y-72238952D01*
X99828095Y-72286571D01*
X99494761Y-72286571D01*
X100494761Y-72810380D02*
X100494761Y-72143714D01*
X100494761Y-72334190D02*
X100542380Y-72238952D01*
X100590000Y-72191333D01*
X100685238Y-72143714D01*
X100780476Y-72143714D01*
X101494761Y-72762761D02*
X101399523Y-72810380D01*
X101209047Y-72810380D01*
X101113809Y-72762761D01*
X101066190Y-72667523D01*
X101066190Y-72286571D01*
X101113809Y-72191333D01*
X101209047Y-72143714D01*
X101399523Y-72143714D01*
X101494761Y-72191333D01*
X101542380Y-72286571D01*
X101542380Y-72381809D01*
X101066190Y-72477047D01*
X101399523Y-71762761D02*
X101256666Y-71905619D01*
X101875714Y-72143714D02*
X102113809Y-72810380D01*
X102351904Y-72143714D01*
X103161428Y-72810380D02*
X103161428Y-72286571D01*
X103113809Y-72191333D01*
X103018571Y-72143714D01*
X102828095Y-72143714D01*
X102732857Y-72191333D01*
X103161428Y-72762761D02*
X103066190Y-72810380D01*
X102828095Y-72810380D01*
X102732857Y-72762761D01*
X102685238Y-72667523D01*
X102685238Y-72572285D01*
X102732857Y-72477047D01*
X102828095Y-72429428D01*
X103066190Y-72429428D01*
X103161428Y-72381809D01*
X103637619Y-72810380D02*
X103637619Y-72143714D01*
X103637619Y-72334190D02*
X103685238Y-72238952D01*
X103732857Y-72191333D01*
X103828095Y-72143714D01*
X103923333Y-72143714D01*
X104113809Y-72143714D02*
X104494761Y-72143714D01*
X104256666Y-71810380D02*
X104256666Y-72667523D01*
X104304285Y-72762761D01*
X104399523Y-72810380D01*
X104494761Y-72810380D01*
D11*
X44805619Y-34179285D02*
X45805619Y-34179285D01*
X45710380Y-34607857D02*
X45758000Y-34655476D01*
X45805619Y-34750714D01*
X45805619Y-34988809D01*
X45758000Y-35084047D01*
X45710380Y-35131666D01*
X45615142Y-35179285D01*
X45519904Y-35179285D01*
X45377047Y-35131666D01*
X44805619Y-34560238D01*
X44805619Y-35179285D01*
X44900857Y-36179285D02*
X44853238Y-36131666D01*
X44805619Y-35988809D01*
X44805619Y-35893571D01*
X44853238Y-35750714D01*
X44948476Y-35655476D01*
X45043714Y-35607857D01*
X45234190Y-35560238D01*
X45377047Y-35560238D01*
X45567523Y-35607857D01*
X45662761Y-35655476D01*
X45758000Y-35750714D01*
X45805619Y-35893571D01*
X45805619Y-35988809D01*
X45758000Y-36131666D01*
X45710380Y-36179285D01*
X45091333Y-37322142D02*
X45091333Y-37798333D01*
X44805619Y-37226904D02*
X45805619Y-37560238D01*
X44805619Y-37893571D01*
X44805619Y-38226904D02*
X45805619Y-38226904D01*
X45805619Y-38465000D01*
X45758000Y-38607857D01*
X45662761Y-38703095D01*
X45567523Y-38750714D01*
X45377047Y-38798333D01*
X45234190Y-38798333D01*
X45043714Y-38750714D01*
X44948476Y-38703095D01*
X44853238Y-38607857D01*
X44805619Y-38465000D01*
X44805619Y-38226904D01*
X44805619Y-39226904D02*
X45805619Y-39226904D01*
X45805619Y-39465000D01*
X45758000Y-39607857D01*
X45662761Y-39703095D01*
X45567523Y-39750714D01*
X45377047Y-39798333D01*
X45234190Y-39798333D01*
X45043714Y-39750714D01*
X44948476Y-39703095D01*
X44853238Y-39607857D01*
X44805619Y-39465000D01*
X44805619Y-39226904D01*
X44805619Y-40798333D02*
X45281809Y-40465000D01*
X44805619Y-40226904D02*
X45805619Y-40226904D01*
X45805619Y-40607857D01*
X45758000Y-40703095D01*
X45710380Y-40750714D01*
X45615142Y-40798333D01*
X45472285Y-40798333D01*
X45377047Y-40750714D01*
X45329428Y-40703095D01*
X45281809Y-40607857D01*
X45281809Y-40226904D01*
D12*
X35606000Y-34122000D02*
G75*
G03*
X35606000Y-34122000I-254000J0D01*
G01*
X79548000Y-32852000D02*
G75*
G03*
X79548000Y-32852000I-254000J0D01*
G01*
X60498000Y-32598000D02*
G75*
G03*
X60498000Y-32598000I-254000J0D01*
G01*
X86660000Y-54950000D02*
G75*
G03*
X86660000Y-54950000I-254000J0D01*
G01*
X71420000Y-54950000D02*
G75*
G03*
X71420000Y-54950000I-254000J0D01*
G01*
X56180000Y-54950000D02*
G75*
G03*
X56180000Y-54950000I-254000J0D01*
G01*
X40940000Y-54950000D02*
G75*
G03*
X40940000Y-54950000I-254000J0D01*
G01*
X25700000Y-54950000D02*
G75*
G03*
X25700000Y-54950000I-254000J0D01*
G01*
D11*
X90622380Y-36305714D02*
X89622380Y-36305714D01*
X89717619Y-35877142D02*
X89670000Y-35829523D01*
X89622380Y-35734285D01*
X89622380Y-35496190D01*
X89670000Y-35400952D01*
X89717619Y-35353333D01*
X89812857Y-35305714D01*
X89908095Y-35305714D01*
X90050952Y-35353333D01*
X90622380Y-35924761D01*
X90622380Y-35305714D01*
X90527142Y-34305714D02*
X90574761Y-34353333D01*
X90622380Y-34496190D01*
X90622380Y-34591428D01*
X90574761Y-34734285D01*
X90479523Y-34829523D01*
X90384285Y-34877142D01*
X90193809Y-34924761D01*
X90050952Y-34924761D01*
X89860476Y-34877142D01*
X89765238Y-34829523D01*
X89670000Y-34734285D01*
X89622380Y-34591428D01*
X89622380Y-34496190D01*
X89670000Y-34353333D01*
X89717619Y-34305714D01*
X90336666Y-33162857D02*
X90336666Y-32686666D01*
X90622380Y-33258095D02*
X89622380Y-32924761D01*
X90622380Y-32591428D01*
X90622380Y-32258095D02*
X89622380Y-32258095D01*
X89622380Y-32020000D01*
X89670000Y-31877142D01*
X89765238Y-31781904D01*
X89860476Y-31734285D01*
X90050952Y-31686666D01*
X90193809Y-31686666D01*
X90384285Y-31734285D01*
X90479523Y-31781904D01*
X90574761Y-31877142D01*
X90622380Y-32020000D01*
X90622380Y-32258095D01*
X90622380Y-31258095D02*
X89622380Y-31258095D01*
X89622380Y-31020000D01*
X89670000Y-30877142D01*
X89765238Y-30781904D01*
X89860476Y-30734285D01*
X90050952Y-30686666D01*
X90193809Y-30686666D01*
X90384285Y-30734285D01*
X90479523Y-30781904D01*
X90574761Y-30877142D01*
X90622380Y-31020000D01*
X90622380Y-31258095D01*
X90622380Y-29686666D02*
X90146190Y-30020000D01*
X90622380Y-30258095D02*
X89622380Y-30258095D01*
X89622380Y-29877142D01*
X89670000Y-29781904D01*
X89717619Y-29734285D01*
X89812857Y-29686666D01*
X89955714Y-29686666D01*
X90050952Y-29734285D01*
X90098571Y-29781904D01*
X90146190Y-29877142D01*
X90146190Y-30258095D01*
D13*
X22987142Y-14490000D02*
X22844285Y-14418571D01*
X22630000Y-14418571D01*
X22415714Y-14490000D01*
X22272857Y-14632857D01*
X22201428Y-14775714D01*
X22130000Y-15061428D01*
X22130000Y-15275714D01*
X22201428Y-15561428D01*
X22272857Y-15704285D01*
X22415714Y-15847142D01*
X22630000Y-15918571D01*
X22772857Y-15918571D01*
X22987142Y-15847142D01*
X23058571Y-15775714D01*
X23058571Y-15275714D01*
X22772857Y-15275714D01*
X23701428Y-15918571D02*
X23701428Y-14418571D01*
X24558571Y-15918571D01*
X24558571Y-14418571D01*
X25272857Y-15918571D02*
X25272857Y-14418571D01*
X25630000Y-14418571D01*
X25844285Y-14490000D01*
X25987142Y-14632857D01*
X26058571Y-14775714D01*
X26130000Y-15061428D01*
X26130000Y-15275714D01*
X26058571Y-15561428D01*
X25987142Y-15704285D01*
X25844285Y-15847142D01*
X25630000Y-15918571D01*
X25272857Y-15918571D01*
X23201428Y-28618571D02*
X22344285Y-28618571D01*
X22772857Y-28618571D02*
X22772857Y-27118571D01*
X22630000Y-27332857D01*
X22487142Y-27475714D01*
X22344285Y-27547142D01*
X23772857Y-27261428D02*
X23844285Y-27190000D01*
X23987142Y-27118571D01*
X24344285Y-27118571D01*
X24487142Y-27190000D01*
X24558571Y-27261428D01*
X24630000Y-27404285D01*
X24630000Y-27547142D01*
X24558571Y-27761428D01*
X23701428Y-28618571D01*
X24630000Y-28618571D01*
X25058571Y-27118571D02*
X25558571Y-28618571D01*
X26058571Y-27118571D01*
X102127857Y-63845000D02*
X102127857Y-63345000D01*
X102913571Y-63130714D02*
X102913571Y-63845000D01*
X101413571Y-63845000D01*
X101413571Y-63130714D01*
X101413571Y-62702142D02*
X102913571Y-62202142D01*
X101413571Y-61702142D01*
X102913571Y-59273571D02*
X102913571Y-60130714D01*
X102913571Y-59702142D02*
X101413571Y-59702142D01*
X101627857Y-59845000D01*
X101770714Y-59987857D01*
X101842142Y-60130714D01*
X102127857Y-53685000D02*
X102127857Y-53185000D01*
X102913571Y-52970714D02*
X102913571Y-53685000D01*
X101413571Y-53685000D01*
X101413571Y-52970714D01*
X101413571Y-52542142D02*
X102913571Y-52042142D01*
X101413571Y-51542142D01*
X101556428Y-49970714D02*
X101485000Y-49899285D01*
X101413571Y-49756428D01*
X101413571Y-49399285D01*
X101485000Y-49256428D01*
X101556428Y-49185000D01*
X101699285Y-49113571D01*
X101842142Y-49113571D01*
X102056428Y-49185000D01*
X102913571Y-50042142D01*
X102913571Y-49113571D01*
X102127857Y-43525000D02*
X102127857Y-43025000D01*
X102913571Y-42810714D02*
X102913571Y-43525000D01*
X101413571Y-43525000D01*
X101413571Y-42810714D01*
X101413571Y-42382142D02*
X102913571Y-41882142D01*
X101413571Y-41382142D01*
X101413571Y-39882142D02*
X101413571Y-38953571D01*
X101985000Y-39453571D01*
X101985000Y-39239285D01*
X102056428Y-39096428D01*
X102127857Y-39025000D01*
X102270714Y-38953571D01*
X102627857Y-38953571D01*
X102770714Y-39025000D01*
X102842142Y-39096428D01*
X102913571Y-39239285D01*
X102913571Y-39667857D01*
X102842142Y-39810714D01*
X102770714Y-39882142D01*
X102127857Y-33365000D02*
X102127857Y-32865000D01*
X102913571Y-32650714D02*
X102913571Y-33365000D01*
X101413571Y-33365000D01*
X101413571Y-32650714D01*
X101413571Y-32222142D02*
X102913571Y-31722142D01*
X101413571Y-31222142D01*
X101913571Y-28936428D02*
X102913571Y-28936428D01*
X101342142Y-29293571D02*
X102413571Y-29650714D01*
X102413571Y-28722142D01*
X95777857Y-21935000D02*
X95777857Y-21435000D01*
X96563571Y-21220714D02*
X96563571Y-21935000D01*
X95063571Y-21935000D01*
X95063571Y-21220714D01*
X95063571Y-20792142D02*
X96563571Y-20292142D01*
X95063571Y-19792142D01*
X95063571Y-17435000D02*
X95063571Y-18149285D01*
X95777857Y-18220714D01*
X95706428Y-18149285D01*
X95635000Y-18006428D01*
X95635000Y-17649285D01*
X95706428Y-17506428D01*
X95777857Y-17435000D01*
X95920714Y-17363571D01*
X96277857Y-17363571D01*
X96420714Y-17435000D01*
X96492142Y-17506428D01*
X96563571Y-17649285D01*
X96563571Y-18006428D01*
X96492142Y-18149285D01*
X96420714Y-18220714D01*
X21356428Y-70528571D02*
X21356428Y-69028571D01*
X21927857Y-69028571D01*
X22070714Y-69100000D01*
X22142142Y-69171428D01*
X22213571Y-69314285D01*
X22213571Y-69528571D01*
X22142142Y-69671428D01*
X22070714Y-69742857D01*
X21927857Y-69814285D01*
X21356428Y-69814285D01*
X23070714Y-70528571D02*
X22927857Y-70457142D01*
X22856428Y-70385714D01*
X22785000Y-70242857D01*
X22785000Y-69814285D01*
X22856428Y-69671428D01*
X22927857Y-69600000D01*
X23070714Y-69528571D01*
X23285000Y-69528571D01*
X23427857Y-69600000D01*
X23499285Y-69671428D01*
X23570714Y-69814285D01*
X23570714Y-70242857D01*
X23499285Y-70385714D01*
X23427857Y-70457142D01*
X23285000Y-70528571D01*
X23070714Y-70528571D01*
X24213571Y-70528571D02*
X24213571Y-69528571D01*
X24213571Y-69671428D02*
X24285000Y-69600000D01*
X24427857Y-69528571D01*
X24642142Y-69528571D01*
X24785000Y-69600000D01*
X24856428Y-69742857D01*
X24856428Y-70528571D01*
X24856428Y-69742857D02*
X24927857Y-69600000D01*
X25070714Y-69528571D01*
X25285000Y-69528571D01*
X25427857Y-69600000D01*
X25499285Y-69742857D01*
X25499285Y-70528571D01*
X26213571Y-69528571D02*
X26213571Y-71028571D01*
X26213571Y-69600000D02*
X26356428Y-69528571D01*
X26642142Y-69528571D01*
X26785000Y-69600000D01*
X26856428Y-69671428D01*
X26927857Y-69814285D01*
X26927857Y-70242857D01*
X26856428Y-70385714D01*
X26785000Y-70457142D01*
X26642142Y-70528571D01*
X26356428Y-70528571D01*
X26213571Y-70457142D01*
X28142142Y-70457142D02*
X27999285Y-70528571D01*
X27713571Y-70528571D01*
X27570714Y-70457142D01*
X27499285Y-70314285D01*
X27499285Y-69742857D01*
X27570714Y-69600000D01*
X27713571Y-69528571D01*
X27999285Y-69528571D01*
X28142142Y-69600000D01*
X28213571Y-69742857D01*
X28213571Y-69885714D01*
X27499285Y-70028571D01*
X30713571Y-69028571D02*
X29999285Y-69028571D01*
X29927857Y-69742857D01*
X29999285Y-69671428D01*
X30142142Y-69600000D01*
X30499285Y-69600000D01*
X30642142Y-69671428D01*
X30713571Y-69742857D01*
X30785000Y-69885714D01*
X30785000Y-70242857D01*
X30713571Y-70385714D01*
X30642142Y-70457142D01*
X30499285Y-70528571D01*
X30142142Y-70528571D01*
X29999285Y-70457142D01*
X29927857Y-70385714D01*
X36596428Y-70528571D02*
X36596428Y-69028571D01*
X37167857Y-69028571D01*
X37310714Y-69100000D01*
X37382142Y-69171428D01*
X37453571Y-69314285D01*
X37453571Y-69528571D01*
X37382142Y-69671428D01*
X37310714Y-69742857D01*
X37167857Y-69814285D01*
X36596428Y-69814285D01*
X38310714Y-70528571D02*
X38167857Y-70457142D01*
X38096428Y-70385714D01*
X38025000Y-70242857D01*
X38025000Y-69814285D01*
X38096428Y-69671428D01*
X38167857Y-69600000D01*
X38310714Y-69528571D01*
X38525000Y-69528571D01*
X38667857Y-69600000D01*
X38739285Y-69671428D01*
X38810714Y-69814285D01*
X38810714Y-70242857D01*
X38739285Y-70385714D01*
X38667857Y-70457142D01*
X38525000Y-70528571D01*
X38310714Y-70528571D01*
X39453571Y-70528571D02*
X39453571Y-69528571D01*
X39453571Y-69671428D02*
X39525000Y-69600000D01*
X39667857Y-69528571D01*
X39882142Y-69528571D01*
X40025000Y-69600000D01*
X40096428Y-69742857D01*
X40096428Y-70528571D01*
X40096428Y-69742857D02*
X40167857Y-69600000D01*
X40310714Y-69528571D01*
X40525000Y-69528571D01*
X40667857Y-69600000D01*
X40739285Y-69742857D01*
X40739285Y-70528571D01*
X41453571Y-69528571D02*
X41453571Y-71028571D01*
X41453571Y-69600000D02*
X41596428Y-69528571D01*
X41882142Y-69528571D01*
X42025000Y-69600000D01*
X42096428Y-69671428D01*
X42167857Y-69814285D01*
X42167857Y-70242857D01*
X42096428Y-70385714D01*
X42025000Y-70457142D01*
X41882142Y-70528571D01*
X41596428Y-70528571D01*
X41453571Y-70457142D01*
X43382142Y-70457142D02*
X43239285Y-70528571D01*
X42953571Y-70528571D01*
X42810714Y-70457142D01*
X42739285Y-70314285D01*
X42739285Y-69742857D01*
X42810714Y-69600000D01*
X42953571Y-69528571D01*
X43239285Y-69528571D01*
X43382142Y-69600000D01*
X43453571Y-69742857D01*
X43453571Y-69885714D01*
X42739285Y-70028571D01*
X45882142Y-69528571D02*
X45882142Y-70528571D01*
X45525000Y-68957142D02*
X45167857Y-70028571D01*
X46096428Y-70028571D01*
X51836428Y-70528571D02*
X51836428Y-69028571D01*
X52407857Y-69028571D01*
X52550714Y-69100000D01*
X52622142Y-69171428D01*
X52693571Y-69314285D01*
X52693571Y-69528571D01*
X52622142Y-69671428D01*
X52550714Y-69742857D01*
X52407857Y-69814285D01*
X51836428Y-69814285D01*
X53550714Y-70528571D02*
X53407857Y-70457142D01*
X53336428Y-70385714D01*
X53265000Y-70242857D01*
X53265000Y-69814285D01*
X53336428Y-69671428D01*
X53407857Y-69600000D01*
X53550714Y-69528571D01*
X53765000Y-69528571D01*
X53907857Y-69600000D01*
X53979285Y-69671428D01*
X54050714Y-69814285D01*
X54050714Y-70242857D01*
X53979285Y-70385714D01*
X53907857Y-70457142D01*
X53765000Y-70528571D01*
X53550714Y-70528571D01*
X54693571Y-70528571D02*
X54693571Y-69528571D01*
X54693571Y-69671428D02*
X54765000Y-69600000D01*
X54907857Y-69528571D01*
X55122142Y-69528571D01*
X55265000Y-69600000D01*
X55336428Y-69742857D01*
X55336428Y-70528571D01*
X55336428Y-69742857D02*
X55407857Y-69600000D01*
X55550714Y-69528571D01*
X55765000Y-69528571D01*
X55907857Y-69600000D01*
X55979285Y-69742857D01*
X55979285Y-70528571D01*
X56693571Y-69528571D02*
X56693571Y-71028571D01*
X56693571Y-69600000D02*
X56836428Y-69528571D01*
X57122142Y-69528571D01*
X57265000Y-69600000D01*
X57336428Y-69671428D01*
X57407857Y-69814285D01*
X57407857Y-70242857D01*
X57336428Y-70385714D01*
X57265000Y-70457142D01*
X57122142Y-70528571D01*
X56836428Y-70528571D01*
X56693571Y-70457142D01*
X58622142Y-70457142D02*
X58479285Y-70528571D01*
X58193571Y-70528571D01*
X58050714Y-70457142D01*
X57979285Y-70314285D01*
X57979285Y-69742857D01*
X58050714Y-69600000D01*
X58193571Y-69528571D01*
X58479285Y-69528571D01*
X58622142Y-69600000D01*
X58693571Y-69742857D01*
X58693571Y-69885714D01*
X57979285Y-70028571D01*
X60336428Y-69028571D02*
X61265000Y-69028571D01*
X60765000Y-69600000D01*
X60979285Y-69600000D01*
X61122142Y-69671428D01*
X61193571Y-69742857D01*
X61265000Y-69885714D01*
X61265000Y-70242857D01*
X61193571Y-70385714D01*
X61122142Y-70457142D01*
X60979285Y-70528571D01*
X60550714Y-70528571D01*
X60407857Y-70457142D01*
X60336428Y-70385714D01*
X67076428Y-70528571D02*
X67076428Y-69028571D01*
X67647857Y-69028571D01*
X67790714Y-69100000D01*
X67862142Y-69171428D01*
X67933571Y-69314285D01*
X67933571Y-69528571D01*
X67862142Y-69671428D01*
X67790714Y-69742857D01*
X67647857Y-69814285D01*
X67076428Y-69814285D01*
X68790714Y-70528571D02*
X68647857Y-70457142D01*
X68576428Y-70385714D01*
X68505000Y-70242857D01*
X68505000Y-69814285D01*
X68576428Y-69671428D01*
X68647857Y-69600000D01*
X68790714Y-69528571D01*
X69005000Y-69528571D01*
X69147857Y-69600000D01*
X69219285Y-69671428D01*
X69290714Y-69814285D01*
X69290714Y-70242857D01*
X69219285Y-70385714D01*
X69147857Y-70457142D01*
X69005000Y-70528571D01*
X68790714Y-70528571D01*
X69933571Y-70528571D02*
X69933571Y-69528571D01*
X69933571Y-69671428D02*
X70005000Y-69600000D01*
X70147857Y-69528571D01*
X70362142Y-69528571D01*
X70505000Y-69600000D01*
X70576428Y-69742857D01*
X70576428Y-70528571D01*
X70576428Y-69742857D02*
X70647857Y-69600000D01*
X70790714Y-69528571D01*
X71005000Y-69528571D01*
X71147857Y-69600000D01*
X71219285Y-69742857D01*
X71219285Y-70528571D01*
X71933571Y-69528571D02*
X71933571Y-71028571D01*
X71933571Y-69600000D02*
X72076428Y-69528571D01*
X72362142Y-69528571D01*
X72505000Y-69600000D01*
X72576428Y-69671428D01*
X72647857Y-69814285D01*
X72647857Y-70242857D01*
X72576428Y-70385714D01*
X72505000Y-70457142D01*
X72362142Y-70528571D01*
X72076428Y-70528571D01*
X71933571Y-70457142D01*
X73862142Y-70457142D02*
X73719285Y-70528571D01*
X73433571Y-70528571D01*
X73290714Y-70457142D01*
X73219285Y-70314285D01*
X73219285Y-69742857D01*
X73290714Y-69600000D01*
X73433571Y-69528571D01*
X73719285Y-69528571D01*
X73862142Y-69600000D01*
X73933571Y-69742857D01*
X73933571Y-69885714D01*
X73219285Y-70028571D01*
X75647857Y-69171428D02*
X75719285Y-69100000D01*
X75862142Y-69028571D01*
X76219285Y-69028571D01*
X76362142Y-69100000D01*
X76433571Y-69171428D01*
X76505000Y-69314285D01*
X76505000Y-69457142D01*
X76433571Y-69671428D01*
X75576428Y-70528571D01*
X76505000Y-70528571D01*
X82316428Y-70528571D02*
X82316428Y-69028571D01*
X82887857Y-69028571D01*
X83030714Y-69100000D01*
X83102142Y-69171428D01*
X83173571Y-69314285D01*
X83173571Y-69528571D01*
X83102142Y-69671428D01*
X83030714Y-69742857D01*
X82887857Y-69814285D01*
X82316428Y-69814285D01*
X84030714Y-70528571D02*
X83887857Y-70457142D01*
X83816428Y-70385714D01*
X83745000Y-70242857D01*
X83745000Y-69814285D01*
X83816428Y-69671428D01*
X83887857Y-69600000D01*
X84030714Y-69528571D01*
X84245000Y-69528571D01*
X84387857Y-69600000D01*
X84459285Y-69671428D01*
X84530714Y-69814285D01*
X84530714Y-70242857D01*
X84459285Y-70385714D01*
X84387857Y-70457142D01*
X84245000Y-70528571D01*
X84030714Y-70528571D01*
X85173571Y-70528571D02*
X85173571Y-69528571D01*
X85173571Y-69671428D02*
X85245000Y-69600000D01*
X85387857Y-69528571D01*
X85602142Y-69528571D01*
X85745000Y-69600000D01*
X85816428Y-69742857D01*
X85816428Y-70528571D01*
X85816428Y-69742857D02*
X85887857Y-69600000D01*
X86030714Y-69528571D01*
X86245000Y-69528571D01*
X86387857Y-69600000D01*
X86459285Y-69742857D01*
X86459285Y-70528571D01*
X87173571Y-69528571D02*
X87173571Y-71028571D01*
X87173571Y-69600000D02*
X87316428Y-69528571D01*
X87602142Y-69528571D01*
X87745000Y-69600000D01*
X87816428Y-69671428D01*
X87887857Y-69814285D01*
X87887857Y-70242857D01*
X87816428Y-70385714D01*
X87745000Y-70457142D01*
X87602142Y-70528571D01*
X87316428Y-70528571D01*
X87173571Y-70457142D01*
X89102142Y-70457142D02*
X88959285Y-70528571D01*
X88673571Y-70528571D01*
X88530714Y-70457142D01*
X88459285Y-70314285D01*
X88459285Y-69742857D01*
X88530714Y-69600000D01*
X88673571Y-69528571D01*
X88959285Y-69528571D01*
X89102142Y-69600000D01*
X89173571Y-69742857D01*
X89173571Y-69885714D01*
X88459285Y-70028571D01*
X91745000Y-70528571D02*
X90887857Y-70528571D01*
X91316428Y-70528571D02*
X91316428Y-69028571D01*
X91173571Y-69242857D01*
X91030714Y-69385714D01*
X90887857Y-69457142D01*
X45057142Y-23756428D02*
X45128571Y-23542142D01*
X45128571Y-23185000D01*
X45057142Y-23042142D01*
X44985714Y-22970714D01*
X44842857Y-22899285D01*
X44700000Y-22899285D01*
X44557142Y-22970714D01*
X44485714Y-23042142D01*
X44414285Y-23185000D01*
X44342857Y-23470714D01*
X44271428Y-23613571D01*
X44200000Y-23685000D01*
X44057142Y-23756428D01*
X43914285Y-23756428D01*
X43771428Y-23685000D01*
X43700000Y-23613571D01*
X43628571Y-23470714D01*
X43628571Y-23113571D01*
X43700000Y-22899285D01*
X45057142Y-21685000D02*
X45128571Y-21827857D01*
X45128571Y-22113571D01*
X45057142Y-22256428D01*
X44914285Y-22327857D01*
X44342857Y-22327857D01*
X44200000Y-22256428D01*
X44128571Y-22113571D01*
X44128571Y-21827857D01*
X44200000Y-21685000D01*
X44342857Y-21613571D01*
X44485714Y-21613571D01*
X44628571Y-22327857D01*
X45128571Y-20970714D02*
X44128571Y-20970714D01*
X44414285Y-20970714D02*
X44271428Y-20899285D01*
X44200000Y-20827857D01*
X44128571Y-20685000D01*
X44128571Y-20542142D01*
X44128571Y-20185000D02*
X45128571Y-19827857D01*
X44128571Y-19470714D01*
X45128571Y-18685000D02*
X45057142Y-18827857D01*
X44985714Y-18899285D01*
X44842857Y-18970714D01*
X44414285Y-18970714D01*
X44271428Y-18899285D01*
X44200000Y-18827857D01*
X44128571Y-18685000D01*
X44128571Y-18470714D01*
X44200000Y-18327857D01*
X44271428Y-18256428D01*
X44414285Y-18185000D01*
X44842857Y-18185000D01*
X44985714Y-18256428D01*
X45057142Y-18327857D01*
X45128571Y-18470714D01*
X45128571Y-18685000D01*
X43628571Y-15685000D02*
X43628571Y-16399285D01*
X44342857Y-16470714D01*
X44271428Y-16399285D01*
X44200000Y-16256428D01*
X44200000Y-15899285D01*
X44271428Y-15756428D01*
X44342857Y-15685000D01*
X44485714Y-15613571D01*
X44842857Y-15613571D01*
X44985714Y-15685000D01*
X45057142Y-15756428D01*
X45128571Y-15899285D01*
X45128571Y-16256428D01*
X45057142Y-16399285D01*
X44985714Y-16470714D01*
X53947142Y-23756428D02*
X54018571Y-23542142D01*
X54018571Y-23185000D01*
X53947142Y-23042142D01*
X53875714Y-22970714D01*
X53732857Y-22899285D01*
X53590000Y-22899285D01*
X53447142Y-22970714D01*
X53375714Y-23042142D01*
X53304285Y-23185000D01*
X53232857Y-23470714D01*
X53161428Y-23613571D01*
X53090000Y-23685000D01*
X52947142Y-23756428D01*
X52804285Y-23756428D01*
X52661428Y-23685000D01*
X52590000Y-23613571D01*
X52518571Y-23470714D01*
X52518571Y-23113571D01*
X52590000Y-22899285D01*
X53947142Y-21685000D02*
X54018571Y-21827857D01*
X54018571Y-22113571D01*
X53947142Y-22256428D01*
X53804285Y-22327857D01*
X53232857Y-22327857D01*
X53090000Y-22256428D01*
X53018571Y-22113571D01*
X53018571Y-21827857D01*
X53090000Y-21685000D01*
X53232857Y-21613571D01*
X53375714Y-21613571D01*
X53518571Y-22327857D01*
X54018571Y-20970714D02*
X53018571Y-20970714D01*
X53304285Y-20970714D02*
X53161428Y-20899285D01*
X53090000Y-20827857D01*
X53018571Y-20685000D01*
X53018571Y-20542142D01*
X53018571Y-20185000D02*
X54018571Y-19827857D01*
X53018571Y-19470714D01*
X54018571Y-18685000D02*
X53947142Y-18827857D01*
X53875714Y-18899285D01*
X53732857Y-18970714D01*
X53304285Y-18970714D01*
X53161428Y-18899285D01*
X53090000Y-18827857D01*
X53018571Y-18685000D01*
X53018571Y-18470714D01*
X53090000Y-18327857D01*
X53161428Y-18256428D01*
X53304285Y-18185000D01*
X53732857Y-18185000D01*
X53875714Y-18256428D01*
X53947142Y-18327857D01*
X54018571Y-18470714D01*
X54018571Y-18685000D01*
X53018571Y-15756428D02*
X54018571Y-15756428D01*
X52447142Y-16113571D02*
X53518571Y-16470714D01*
X53518571Y-15542142D01*
X62837142Y-23756428D02*
X62908571Y-23542142D01*
X62908571Y-23185000D01*
X62837142Y-23042142D01*
X62765714Y-22970714D01*
X62622857Y-22899285D01*
X62480000Y-22899285D01*
X62337142Y-22970714D01*
X62265714Y-23042142D01*
X62194285Y-23185000D01*
X62122857Y-23470714D01*
X62051428Y-23613571D01*
X61980000Y-23685000D01*
X61837142Y-23756428D01*
X61694285Y-23756428D01*
X61551428Y-23685000D01*
X61480000Y-23613571D01*
X61408571Y-23470714D01*
X61408571Y-23113571D01*
X61480000Y-22899285D01*
X62837142Y-21685000D02*
X62908571Y-21827857D01*
X62908571Y-22113571D01*
X62837142Y-22256428D01*
X62694285Y-22327857D01*
X62122857Y-22327857D01*
X61980000Y-22256428D01*
X61908571Y-22113571D01*
X61908571Y-21827857D01*
X61980000Y-21685000D01*
X62122857Y-21613571D01*
X62265714Y-21613571D01*
X62408571Y-22327857D01*
X62908571Y-20970714D02*
X61908571Y-20970714D01*
X62194285Y-20970714D02*
X62051428Y-20899285D01*
X61980000Y-20827857D01*
X61908571Y-20685000D01*
X61908571Y-20542142D01*
X61908571Y-20185000D02*
X62908571Y-19827857D01*
X61908571Y-19470714D01*
X62908571Y-18685000D02*
X62837142Y-18827857D01*
X62765714Y-18899285D01*
X62622857Y-18970714D01*
X62194285Y-18970714D01*
X62051428Y-18899285D01*
X61980000Y-18827857D01*
X61908571Y-18685000D01*
X61908571Y-18470714D01*
X61980000Y-18327857D01*
X62051428Y-18256428D01*
X62194285Y-18185000D01*
X62622857Y-18185000D01*
X62765714Y-18256428D01*
X62837142Y-18327857D01*
X62908571Y-18470714D01*
X62908571Y-18685000D01*
X61408571Y-16542142D02*
X61408571Y-15613571D01*
X61980000Y-16113571D01*
X61980000Y-15899285D01*
X62051428Y-15756428D01*
X62122857Y-15685000D01*
X62265714Y-15613571D01*
X62622857Y-15613571D01*
X62765714Y-15685000D01*
X62837142Y-15756428D01*
X62908571Y-15899285D01*
X62908571Y-16327857D01*
X62837142Y-16470714D01*
X62765714Y-16542142D01*
X71727142Y-23756428D02*
X71798571Y-23542142D01*
X71798571Y-23185000D01*
X71727142Y-23042142D01*
X71655714Y-22970714D01*
X71512857Y-22899285D01*
X71370000Y-22899285D01*
X71227142Y-22970714D01*
X71155714Y-23042142D01*
X71084285Y-23185000D01*
X71012857Y-23470714D01*
X70941428Y-23613571D01*
X70870000Y-23685000D01*
X70727142Y-23756428D01*
X70584285Y-23756428D01*
X70441428Y-23685000D01*
X70370000Y-23613571D01*
X70298571Y-23470714D01*
X70298571Y-23113571D01*
X70370000Y-22899285D01*
X71727142Y-21685000D02*
X71798571Y-21827857D01*
X71798571Y-22113571D01*
X71727142Y-22256428D01*
X71584285Y-22327857D01*
X71012857Y-22327857D01*
X70870000Y-22256428D01*
X70798571Y-22113571D01*
X70798571Y-21827857D01*
X70870000Y-21685000D01*
X71012857Y-21613571D01*
X71155714Y-21613571D01*
X71298571Y-22327857D01*
X71798571Y-20970714D02*
X70798571Y-20970714D01*
X71084285Y-20970714D02*
X70941428Y-20899285D01*
X70870000Y-20827857D01*
X70798571Y-20685000D01*
X70798571Y-20542142D01*
X70798571Y-20185000D02*
X71798571Y-19827857D01*
X70798571Y-19470714D01*
X71798571Y-18685000D02*
X71727142Y-18827857D01*
X71655714Y-18899285D01*
X71512857Y-18970714D01*
X71084285Y-18970714D01*
X70941428Y-18899285D01*
X70870000Y-18827857D01*
X70798571Y-18685000D01*
X70798571Y-18470714D01*
X70870000Y-18327857D01*
X70941428Y-18256428D01*
X71084285Y-18185000D01*
X71512857Y-18185000D01*
X71655714Y-18256428D01*
X71727142Y-18327857D01*
X71798571Y-18470714D01*
X71798571Y-18685000D01*
X70441428Y-16470714D02*
X70370000Y-16399285D01*
X70298571Y-16256428D01*
X70298571Y-15899285D01*
X70370000Y-15756428D01*
X70441428Y-15685000D01*
X70584285Y-15613571D01*
X70727142Y-15613571D01*
X70941428Y-15685000D01*
X71798571Y-16542142D01*
X71798571Y-15613571D01*
X80617142Y-23756428D02*
X80688571Y-23542142D01*
X80688571Y-23185000D01*
X80617142Y-23042142D01*
X80545714Y-22970714D01*
X80402857Y-22899285D01*
X80260000Y-22899285D01*
X80117142Y-22970714D01*
X80045714Y-23042142D01*
X79974285Y-23185000D01*
X79902857Y-23470714D01*
X79831428Y-23613571D01*
X79760000Y-23685000D01*
X79617142Y-23756428D01*
X79474285Y-23756428D01*
X79331428Y-23685000D01*
X79260000Y-23613571D01*
X79188571Y-23470714D01*
X79188571Y-23113571D01*
X79260000Y-22899285D01*
X80617142Y-21685000D02*
X80688571Y-21827857D01*
X80688571Y-22113571D01*
X80617142Y-22256428D01*
X80474285Y-22327857D01*
X79902857Y-22327857D01*
X79760000Y-22256428D01*
X79688571Y-22113571D01*
X79688571Y-21827857D01*
X79760000Y-21685000D01*
X79902857Y-21613571D01*
X80045714Y-21613571D01*
X80188571Y-22327857D01*
X80688571Y-20970714D02*
X79688571Y-20970714D01*
X79974285Y-20970714D02*
X79831428Y-20899285D01*
X79760000Y-20827857D01*
X79688571Y-20685000D01*
X79688571Y-20542142D01*
X79688571Y-20185000D02*
X80688571Y-19827857D01*
X79688571Y-19470714D01*
X80688571Y-18685000D02*
X80617142Y-18827857D01*
X80545714Y-18899285D01*
X80402857Y-18970714D01*
X79974285Y-18970714D01*
X79831428Y-18899285D01*
X79760000Y-18827857D01*
X79688571Y-18685000D01*
X79688571Y-18470714D01*
X79760000Y-18327857D01*
X79831428Y-18256428D01*
X79974285Y-18185000D01*
X80402857Y-18185000D01*
X80545714Y-18256428D01*
X80617142Y-18327857D01*
X80688571Y-18470714D01*
X80688571Y-18685000D01*
X80688571Y-15613571D02*
X80688571Y-16470714D01*
X80688571Y-16042142D02*
X79188571Y-16042142D01*
X79402857Y-16185000D01*
X79545714Y-16327857D01*
X79617142Y-16470714D01*
D12*
%TO.C,J10*%
X64075000Y-15815000D02*
X65405000Y-15815000D01*
X64075000Y-17145000D02*
X64075000Y-15815000D01*
X64075000Y-18415000D02*
X66735000Y-18415000D01*
X66735000Y-18415000D02*
X66735000Y-23555000D01*
X64075000Y-18415000D02*
X64075000Y-23555000D01*
X64075000Y-23555000D02*
X66735000Y-23555000D01*
%TO.C,U4*%
X69970000Y-34290000D02*
X69970000Y-36600000D01*
X69970000Y-36600000D02*
X70245000Y-36600000D01*
X69970000Y-34290000D02*
X69970000Y-31980000D01*
X69970000Y-31980000D02*
X70245000Y-31980000D01*
X79890000Y-34290000D02*
X79890000Y-36600000D01*
X79890000Y-36600000D02*
X79615000Y-36600000D01*
X79890000Y-34290000D02*
X79890000Y-31980000D01*
X79890000Y-31980000D02*
X79615000Y-31980000D01*
X79615000Y-31980000D02*
X79615000Y-30690000D01*
%TO.C,C1*%
X47706233Y-31625000D02*
X47998767Y-31625000D01*
X47706233Y-30605000D02*
X47998767Y-30605000D01*
%TO.C,C2*%
X83558767Y-37340000D02*
X83266233Y-37340000D01*
X83558767Y-36320000D02*
X83266233Y-36320000D01*
%TO.C,C3*%
X84308733Y-45845000D02*
X84601267Y-45845000D01*
X84308733Y-46865000D02*
X84601267Y-46865000D01*
%TO.C,C4*%
X89388733Y-46865000D02*
X89681267Y-46865000D01*
X89388733Y-45845000D02*
X89681267Y-45845000D01*
%TO.C,C5*%
X23348733Y-46865000D02*
X23641267Y-46865000D01*
X23348733Y-45845000D02*
X23641267Y-45845000D01*
%TO.C,C6*%
X28428733Y-45845000D02*
X28721267Y-45845000D01*
X28428733Y-46865000D02*
X28721267Y-46865000D01*
%TO.C,C7*%
X68661233Y-45845000D02*
X68953767Y-45845000D01*
X68661233Y-46865000D02*
X68953767Y-46865000D01*
%TO.C,C8*%
X74148733Y-46865000D02*
X74441267Y-46865000D01*
X74148733Y-45845000D02*
X74441267Y-45845000D01*
%TO.C,C9*%
X53828733Y-46865000D02*
X54121267Y-46865000D01*
X53828733Y-45845000D02*
X54121267Y-45845000D01*
%TO.C,C10*%
X58908733Y-45845000D02*
X59201267Y-45845000D01*
X58908733Y-46865000D02*
X59201267Y-46865000D01*
%TO.C,C11*%
X38588733Y-46865000D02*
X38881267Y-46865000D01*
X38588733Y-45845000D02*
X38881267Y-45845000D01*
%TO.C,C12*%
X43668733Y-45845000D02*
X43961267Y-45845000D01*
X43668733Y-46865000D02*
X43961267Y-46865000D01*
%TO.C,J1*%
X20400000Y-43200000D02*
X26370000Y-43200000D01*
X26370000Y-43200000D02*
X26370000Y-30580000D01*
X26370000Y-30580000D02*
X20400000Y-30580000D01*
X20400000Y-30580000D02*
X20400000Y-43200000D01*
X20410000Y-39890000D02*
X21160000Y-39890000D01*
X21160000Y-39890000D02*
X21160000Y-33890000D01*
X21160000Y-33890000D02*
X20410000Y-33890000D01*
X20410000Y-33890000D02*
X20410000Y-39890000D01*
X20410000Y-43190000D02*
X21160000Y-43190000D01*
X21160000Y-43190000D02*
X21160000Y-41390000D01*
X21160000Y-41390000D02*
X20410000Y-41390000D01*
X20410000Y-41390000D02*
X20410000Y-43190000D01*
X20410000Y-32390000D02*
X21160000Y-32390000D01*
X21160000Y-32390000D02*
X21160000Y-30590000D01*
X21160000Y-30590000D02*
X20410000Y-30590000D01*
X20410000Y-30590000D02*
X20410000Y-32390000D01*
X22660000Y-43190000D02*
X22660000Y-42440000D01*
X22660000Y-42440000D02*
X25610000Y-42440000D01*
X25610000Y-42440000D02*
X25610000Y-36890000D01*
X22660000Y-30590000D02*
X22660000Y-31340000D01*
X22660000Y-31340000D02*
X25610000Y-31340000D01*
X25610000Y-31340000D02*
X25610000Y-36890000D01*
X20110000Y-42240000D02*
X20110000Y-43490000D01*
X20110000Y-43490000D02*
X21360000Y-43490000D01*
%TO.C,J2*%
X26670000Y-16510000D02*
X26670000Y-26670000D01*
X27940000Y-16510000D02*
X20320000Y-16510000D01*
X20320000Y-16510000D02*
X20320000Y-26670000D01*
X20320000Y-26670000D02*
X27940000Y-26670000D01*
X27940000Y-26670000D02*
X27940000Y-16510000D01*
%TO.C,J3*%
X82875000Y-61385000D02*
X82875000Y-62635000D01*
X84125000Y-61385000D02*
X82875000Y-61385000D01*
X90025000Y-66885000D02*
X86975000Y-66885000D01*
X90025000Y-63935000D02*
X90025000Y-66885000D01*
X90775000Y-63935000D02*
X90025000Y-63935000D01*
X83925000Y-66885000D02*
X86975000Y-66885000D01*
X83925000Y-63935000D02*
X83925000Y-66885000D01*
X83175000Y-63935000D02*
X83925000Y-63935000D01*
X90775000Y-61685000D02*
X88975000Y-61685000D01*
X90775000Y-62435000D02*
X90775000Y-61685000D01*
X88975000Y-62435000D02*
X90775000Y-62435000D01*
X88975000Y-61685000D02*
X88975000Y-62435000D01*
X84975000Y-61685000D02*
X83175000Y-61685000D01*
X84975000Y-62435000D02*
X84975000Y-61685000D01*
X83175000Y-62435000D02*
X84975000Y-62435000D01*
X83175000Y-61685000D02*
X83175000Y-62435000D01*
X87475000Y-61685000D02*
X86475000Y-61685000D01*
X87475000Y-62435000D02*
X87475000Y-61685000D01*
X86475000Y-62435000D02*
X87475000Y-62435000D01*
X86475000Y-61685000D02*
X86475000Y-62435000D01*
X90785000Y-61675000D02*
X83165000Y-61675000D01*
X90785000Y-67645000D02*
X90785000Y-61675000D01*
X83165000Y-67645000D02*
X90785000Y-67645000D01*
X83165000Y-61675000D02*
X83165000Y-67645000D01*
%TO.C,J4*%
X22205000Y-61675000D02*
X22205000Y-67645000D01*
X22205000Y-67645000D02*
X29825000Y-67645000D01*
X29825000Y-67645000D02*
X29825000Y-61675000D01*
X29825000Y-61675000D02*
X22205000Y-61675000D01*
X25515000Y-61685000D02*
X25515000Y-62435000D01*
X25515000Y-62435000D02*
X26515000Y-62435000D01*
X26515000Y-62435000D02*
X26515000Y-61685000D01*
X26515000Y-61685000D02*
X25515000Y-61685000D01*
X22215000Y-61685000D02*
X22215000Y-62435000D01*
X22215000Y-62435000D02*
X24015000Y-62435000D01*
X24015000Y-62435000D02*
X24015000Y-61685000D01*
X24015000Y-61685000D02*
X22215000Y-61685000D01*
X28015000Y-61685000D02*
X28015000Y-62435000D01*
X28015000Y-62435000D02*
X29815000Y-62435000D01*
X29815000Y-62435000D02*
X29815000Y-61685000D01*
X29815000Y-61685000D02*
X28015000Y-61685000D01*
X22215000Y-63935000D02*
X22965000Y-63935000D01*
X22965000Y-63935000D02*
X22965000Y-66885000D01*
X22965000Y-66885000D02*
X26015000Y-66885000D01*
X29815000Y-63935000D02*
X29065000Y-63935000D01*
X29065000Y-63935000D02*
X29065000Y-66885000D01*
X29065000Y-66885000D02*
X26015000Y-66885000D01*
X23165000Y-61385000D02*
X21915000Y-61385000D01*
X21915000Y-61385000D02*
X21915000Y-62635000D01*
%TO.C,J5*%
X67925000Y-61675000D02*
X67925000Y-67645000D01*
X67925000Y-67645000D02*
X75545000Y-67645000D01*
X75545000Y-67645000D02*
X75545000Y-61675000D01*
X75545000Y-61675000D02*
X67925000Y-61675000D01*
X71235000Y-61685000D02*
X71235000Y-62435000D01*
X71235000Y-62435000D02*
X72235000Y-62435000D01*
X72235000Y-62435000D02*
X72235000Y-61685000D01*
X72235000Y-61685000D02*
X71235000Y-61685000D01*
X67935000Y-61685000D02*
X67935000Y-62435000D01*
X67935000Y-62435000D02*
X69735000Y-62435000D01*
X69735000Y-62435000D02*
X69735000Y-61685000D01*
X69735000Y-61685000D02*
X67935000Y-61685000D01*
X73735000Y-61685000D02*
X73735000Y-62435000D01*
X73735000Y-62435000D02*
X75535000Y-62435000D01*
X75535000Y-62435000D02*
X75535000Y-61685000D01*
X75535000Y-61685000D02*
X73735000Y-61685000D01*
X67935000Y-63935000D02*
X68685000Y-63935000D01*
X68685000Y-63935000D02*
X68685000Y-66885000D01*
X68685000Y-66885000D02*
X71735000Y-66885000D01*
X75535000Y-63935000D02*
X74785000Y-63935000D01*
X74785000Y-63935000D02*
X74785000Y-66885000D01*
X74785000Y-66885000D02*
X71735000Y-66885000D01*
X68885000Y-61385000D02*
X67635000Y-61385000D01*
X67635000Y-61385000D02*
X67635000Y-62635000D01*
%TO.C,J6*%
X52685000Y-61675000D02*
X52685000Y-67645000D01*
X52685000Y-67645000D02*
X60305000Y-67645000D01*
X60305000Y-67645000D02*
X60305000Y-61675000D01*
X60305000Y-61675000D02*
X52685000Y-61675000D01*
X55995000Y-61685000D02*
X55995000Y-62435000D01*
X55995000Y-62435000D02*
X56995000Y-62435000D01*
X56995000Y-62435000D02*
X56995000Y-61685000D01*
X56995000Y-61685000D02*
X55995000Y-61685000D01*
X52695000Y-61685000D02*
X52695000Y-62435000D01*
X52695000Y-62435000D02*
X54495000Y-62435000D01*
X54495000Y-62435000D02*
X54495000Y-61685000D01*
X54495000Y-61685000D02*
X52695000Y-61685000D01*
X58495000Y-61685000D02*
X58495000Y-62435000D01*
X58495000Y-62435000D02*
X60295000Y-62435000D01*
X60295000Y-62435000D02*
X60295000Y-61685000D01*
X60295000Y-61685000D02*
X58495000Y-61685000D01*
X52695000Y-63935000D02*
X53445000Y-63935000D01*
X53445000Y-63935000D02*
X53445000Y-66885000D01*
X53445000Y-66885000D02*
X56495000Y-66885000D01*
X60295000Y-63935000D02*
X59545000Y-63935000D01*
X59545000Y-63935000D02*
X59545000Y-66885000D01*
X59545000Y-66885000D02*
X56495000Y-66885000D01*
X53645000Y-61385000D02*
X52395000Y-61385000D01*
X52395000Y-61385000D02*
X52395000Y-62635000D01*
%TO.C,J7*%
X37155000Y-61385000D02*
X37155000Y-62635000D01*
X38405000Y-61385000D02*
X37155000Y-61385000D01*
X44305000Y-66885000D02*
X41255000Y-66885000D01*
X44305000Y-63935000D02*
X44305000Y-66885000D01*
X45055000Y-63935000D02*
X44305000Y-63935000D01*
X38205000Y-66885000D02*
X41255000Y-66885000D01*
X38205000Y-63935000D02*
X38205000Y-66885000D01*
X37455000Y-63935000D02*
X38205000Y-63935000D01*
X45055000Y-61685000D02*
X43255000Y-61685000D01*
X45055000Y-62435000D02*
X45055000Y-61685000D01*
X43255000Y-62435000D02*
X45055000Y-62435000D01*
X43255000Y-61685000D02*
X43255000Y-62435000D01*
X39255000Y-61685000D02*
X37455000Y-61685000D01*
X39255000Y-62435000D02*
X39255000Y-61685000D01*
X37455000Y-62435000D02*
X39255000Y-62435000D01*
X37455000Y-61685000D02*
X37455000Y-62435000D01*
X41755000Y-61685000D02*
X40755000Y-61685000D01*
X41755000Y-62435000D02*
X41755000Y-61685000D01*
X40755000Y-62435000D02*
X41755000Y-62435000D01*
X40755000Y-61685000D02*
X40755000Y-62435000D01*
X45065000Y-61675000D02*
X37445000Y-61675000D01*
X45065000Y-67645000D02*
X45065000Y-61675000D01*
X37445000Y-67645000D02*
X45065000Y-67645000D01*
X37445000Y-61675000D02*
X37445000Y-67645000D01*
%TO.C,J8*%
X81855000Y-15815000D02*
X83185000Y-15815000D01*
X81855000Y-17145000D02*
X81855000Y-15815000D01*
X81855000Y-18415000D02*
X84515000Y-18415000D01*
X84515000Y-18415000D02*
X84515000Y-23555000D01*
X81855000Y-18415000D02*
X81855000Y-23555000D01*
X81855000Y-23555000D02*
X84515000Y-23555000D01*
%TO.C,J9*%
X72965000Y-23555000D02*
X75625000Y-23555000D01*
X72965000Y-18415000D02*
X72965000Y-23555000D01*
X75625000Y-18415000D02*
X75625000Y-23555000D01*
X72965000Y-18415000D02*
X75625000Y-18415000D01*
X72965000Y-17145000D02*
X72965000Y-15815000D01*
X72965000Y-15815000D02*
X74295000Y-15815000D01*
%TO.C,J11*%
X55185000Y-23555000D02*
X57845000Y-23555000D01*
X55185000Y-18415000D02*
X55185000Y-23555000D01*
X57845000Y-18415000D02*
X57845000Y-23555000D01*
X55185000Y-18415000D02*
X57845000Y-18415000D01*
X55185000Y-17145000D02*
X55185000Y-15815000D01*
X55185000Y-15815000D02*
X56515000Y-15815000D01*
%TO.C,J12*%
X46295000Y-23555000D02*
X48955000Y-23555000D01*
X46295000Y-18415000D02*
X46295000Y-23555000D01*
X48955000Y-18415000D02*
X48955000Y-23555000D01*
X46295000Y-18415000D02*
X48955000Y-18415000D01*
X46295000Y-17145000D02*
X46295000Y-15815000D01*
X46295000Y-15815000D02*
X47625000Y-15815000D01*
%TO.C,J13*%
X110065000Y-58110000D02*
X108815000Y-58110000D01*
X110065000Y-59360000D02*
X110065000Y-58110000D01*
X104565000Y-65260000D02*
X104565000Y-62210000D01*
X107515000Y-65260000D02*
X104565000Y-65260000D01*
X107515000Y-66010000D02*
X107515000Y-65260000D01*
X104565000Y-59160000D02*
X104565000Y-62210000D01*
X107515000Y-59160000D02*
X104565000Y-59160000D01*
X107515000Y-58410000D02*
X107515000Y-59160000D01*
X109765000Y-66010000D02*
X109765000Y-64210000D01*
X109015000Y-66010000D02*
X109765000Y-66010000D01*
X109015000Y-64210000D02*
X109015000Y-66010000D01*
X109765000Y-64210000D02*
X109015000Y-64210000D01*
X109765000Y-60210000D02*
X109765000Y-58410000D01*
X109015000Y-60210000D02*
X109765000Y-60210000D01*
X109015000Y-58410000D02*
X109015000Y-60210000D01*
X109765000Y-58410000D02*
X109015000Y-58410000D01*
X109765000Y-62710000D02*
X109765000Y-61710000D01*
X109015000Y-62710000D02*
X109765000Y-62710000D01*
X109015000Y-61710000D02*
X109015000Y-62710000D01*
X109765000Y-61710000D02*
X109015000Y-61710000D01*
X109775000Y-66020000D02*
X109775000Y-58400000D01*
X103805000Y-66020000D02*
X109775000Y-66020000D01*
X103805000Y-58400000D02*
X103805000Y-66020000D01*
X109775000Y-58400000D02*
X103805000Y-58400000D01*
%TO.C,J14*%
X109775000Y-48240000D02*
X103805000Y-48240000D01*
X103805000Y-48240000D02*
X103805000Y-55860000D01*
X103805000Y-55860000D02*
X109775000Y-55860000D01*
X109775000Y-55860000D02*
X109775000Y-48240000D01*
X109765000Y-51550000D02*
X109015000Y-51550000D01*
X109015000Y-51550000D02*
X109015000Y-52550000D01*
X109015000Y-52550000D02*
X109765000Y-52550000D01*
X109765000Y-52550000D02*
X109765000Y-51550000D01*
X109765000Y-48250000D02*
X109015000Y-48250000D01*
X109015000Y-48250000D02*
X109015000Y-50050000D01*
X109015000Y-50050000D02*
X109765000Y-50050000D01*
X109765000Y-50050000D02*
X109765000Y-48250000D01*
X109765000Y-54050000D02*
X109015000Y-54050000D01*
X109015000Y-54050000D02*
X109015000Y-55850000D01*
X109015000Y-55850000D02*
X109765000Y-55850000D01*
X109765000Y-55850000D02*
X109765000Y-54050000D01*
X107515000Y-48250000D02*
X107515000Y-49000000D01*
X107515000Y-49000000D02*
X104565000Y-49000000D01*
X104565000Y-49000000D02*
X104565000Y-52050000D01*
X107515000Y-55850000D02*
X107515000Y-55100000D01*
X107515000Y-55100000D02*
X104565000Y-55100000D01*
X104565000Y-55100000D02*
X104565000Y-52050000D01*
X110065000Y-49200000D02*
X110065000Y-47950000D01*
X110065000Y-47950000D02*
X108815000Y-47950000D01*
%TO.C,J15*%
X110065000Y-37790000D02*
X108815000Y-37790000D01*
X110065000Y-39040000D02*
X110065000Y-37790000D01*
X104565000Y-44940000D02*
X104565000Y-41890000D01*
X107515000Y-44940000D02*
X104565000Y-44940000D01*
X107515000Y-45690000D02*
X107515000Y-44940000D01*
X104565000Y-38840000D02*
X104565000Y-41890000D01*
X107515000Y-38840000D02*
X104565000Y-38840000D01*
X107515000Y-38090000D02*
X107515000Y-38840000D01*
X109765000Y-45690000D02*
X109765000Y-43890000D01*
X109015000Y-45690000D02*
X109765000Y-45690000D01*
X109015000Y-43890000D02*
X109015000Y-45690000D01*
X109765000Y-43890000D02*
X109015000Y-43890000D01*
X109765000Y-39890000D02*
X109765000Y-38090000D01*
X109015000Y-39890000D02*
X109765000Y-39890000D01*
X109015000Y-38090000D02*
X109015000Y-39890000D01*
X109765000Y-38090000D02*
X109015000Y-38090000D01*
X109765000Y-42390000D02*
X109765000Y-41390000D01*
X109015000Y-42390000D02*
X109765000Y-42390000D01*
X109015000Y-41390000D02*
X109015000Y-42390000D01*
X109765000Y-41390000D02*
X109015000Y-41390000D01*
X109775000Y-45700000D02*
X109775000Y-38080000D01*
X103805000Y-45700000D02*
X109775000Y-45700000D01*
X103805000Y-38080000D02*
X103805000Y-45700000D01*
X109775000Y-38080000D02*
X103805000Y-38080000D01*
%TO.C,J16*%
X109775000Y-27920000D02*
X103805000Y-27920000D01*
X103805000Y-27920000D02*
X103805000Y-35540000D01*
X103805000Y-35540000D02*
X109775000Y-35540000D01*
X109775000Y-35540000D02*
X109775000Y-27920000D01*
X109765000Y-31230000D02*
X109015000Y-31230000D01*
X109015000Y-31230000D02*
X109015000Y-32230000D01*
X109015000Y-32230000D02*
X109765000Y-32230000D01*
X109765000Y-32230000D02*
X109765000Y-31230000D01*
X109765000Y-27930000D02*
X109015000Y-27930000D01*
X109015000Y-27930000D02*
X109015000Y-29730000D01*
X109015000Y-29730000D02*
X109765000Y-29730000D01*
X109765000Y-29730000D02*
X109765000Y-27930000D01*
X109765000Y-33730000D02*
X109015000Y-33730000D01*
X109015000Y-33730000D02*
X109015000Y-35530000D01*
X109015000Y-35530000D02*
X109765000Y-35530000D01*
X109765000Y-35530000D02*
X109765000Y-33730000D01*
X107515000Y-27930000D02*
X107515000Y-28680000D01*
X107515000Y-28680000D02*
X104565000Y-28680000D01*
X104565000Y-28680000D02*
X104565000Y-31730000D01*
X107515000Y-35530000D02*
X107515000Y-34780000D01*
X107515000Y-34780000D02*
X104565000Y-34780000D01*
X104565000Y-34780000D02*
X104565000Y-31730000D01*
X110065000Y-28880000D02*
X110065000Y-27630000D01*
X110065000Y-27630000D02*
X108815000Y-27630000D01*
%TO.C,J17*%
X103715000Y-16200000D02*
X102465000Y-16200000D01*
X103715000Y-17450000D02*
X103715000Y-16200000D01*
X98215000Y-23350000D02*
X98215000Y-20300000D01*
X101165000Y-23350000D02*
X98215000Y-23350000D01*
X101165000Y-24100000D02*
X101165000Y-23350000D01*
X98215000Y-17250000D02*
X98215000Y-20300000D01*
X101165000Y-17250000D02*
X98215000Y-17250000D01*
X101165000Y-16500000D02*
X101165000Y-17250000D01*
X103415000Y-24100000D02*
X103415000Y-22300000D01*
X102665000Y-24100000D02*
X103415000Y-24100000D01*
X102665000Y-22300000D02*
X102665000Y-24100000D01*
X103415000Y-22300000D02*
X102665000Y-22300000D01*
X103415000Y-18300000D02*
X103415000Y-16500000D01*
X102665000Y-18300000D02*
X103415000Y-18300000D01*
X102665000Y-16500000D02*
X102665000Y-18300000D01*
X103415000Y-16500000D02*
X102665000Y-16500000D01*
X103415000Y-20800000D02*
X103415000Y-19800000D01*
X102665000Y-20800000D02*
X103415000Y-20800000D01*
X102665000Y-19800000D02*
X102665000Y-20800000D01*
X103415000Y-19800000D02*
X102665000Y-19800000D01*
X103425000Y-24110000D02*
X103425000Y-16490000D01*
X97455000Y-24110000D02*
X103425000Y-24110000D01*
X97455000Y-16490000D02*
X97455000Y-24110000D01*
X103425000Y-16490000D02*
X97455000Y-16490000D01*
%TO.C,Q1*%
X80335000Y-57275000D02*
X81265000Y-57275000D01*
X83495000Y-57275000D02*
X82565000Y-57275000D01*
X83495000Y-57275000D02*
X83495000Y-55115000D01*
X80335000Y-57275000D02*
X80335000Y-55815000D01*
%TO.C,Q2*%
X19375000Y-57275000D02*
X20305000Y-57275000D01*
X22535000Y-57275000D02*
X21605000Y-57275000D01*
X22535000Y-57275000D02*
X22535000Y-55115000D01*
X19375000Y-57275000D02*
X19375000Y-55815000D01*
%TO.C,Q3*%
X65095000Y-57275000D02*
X65095000Y-55815000D01*
X68255000Y-57275000D02*
X68255000Y-55115000D01*
X68255000Y-57275000D02*
X67325000Y-57275000D01*
X65095000Y-57275000D02*
X66025000Y-57275000D01*
%TO.C,Q4*%
X49855000Y-57275000D02*
X49855000Y-55815000D01*
X53015000Y-57275000D02*
X53015000Y-55115000D01*
X53015000Y-57275000D02*
X52085000Y-57275000D01*
X49855000Y-57275000D02*
X50785000Y-57275000D01*
%TO.C,Q5*%
X34615000Y-57275000D02*
X34615000Y-55815000D01*
X37775000Y-57275000D02*
X37775000Y-55115000D01*
X37775000Y-57275000D02*
X36845000Y-57275000D01*
X34615000Y-57275000D02*
X35545000Y-57275000D01*
%TO.C,Q6*%
X99820000Y-62540000D02*
X98360000Y-62540000D01*
X99820000Y-59380000D02*
X97660000Y-59380000D01*
X99820000Y-59380000D02*
X99820000Y-60310000D01*
X99820000Y-62540000D02*
X99820000Y-61610000D01*
%TO.C,Q7*%
X99820000Y-52380000D02*
X99820000Y-51450000D01*
X99820000Y-49220000D02*
X99820000Y-50150000D01*
X99820000Y-49220000D02*
X97660000Y-49220000D01*
X99820000Y-52380000D02*
X98360000Y-52380000D01*
%TO.C,Q8*%
X99820000Y-42220000D02*
X98360000Y-42220000D01*
X99820000Y-39060000D02*
X97660000Y-39060000D01*
X99820000Y-39060000D02*
X99820000Y-39990000D01*
X99820000Y-42220000D02*
X99820000Y-41290000D01*
%TO.C,Q9*%
X99820000Y-32060000D02*
X99820000Y-31130000D01*
X99820000Y-28900000D02*
X99820000Y-29830000D01*
X99820000Y-28900000D02*
X97660000Y-28900000D01*
X99820000Y-32060000D02*
X98360000Y-32060000D01*
%TO.C,Q10*%
X93470000Y-20630000D02*
X93470000Y-19700000D01*
X93470000Y-17470000D02*
X93470000Y-18400000D01*
X93470000Y-17470000D02*
X91310000Y-17470000D01*
X93470000Y-20630000D02*
X92010000Y-20630000D01*
%TO.C,R1*%
X87375276Y-36082500D02*
X87884724Y-36082500D01*
X87375276Y-35037500D02*
X87884724Y-35037500D01*
%TO.C,R2*%
X87375276Y-29957500D02*
X87884724Y-29957500D01*
X87375276Y-31002500D02*
X87884724Y-31002500D01*
%TO.C,R3*%
X47647776Y-35447500D02*
X48157224Y-35447500D01*
X47647776Y-34402500D02*
X48157224Y-34402500D01*
%TO.C,R4*%
X47647776Y-39482500D02*
X48157224Y-39482500D01*
X47647776Y-40527500D02*
X48157224Y-40527500D01*
%TO.C,R5*%
X82169724Y-50912500D02*
X81660276Y-50912500D01*
X82169724Y-51957500D02*
X81660276Y-51957500D01*
%TO.C,R6*%
X21209724Y-51957500D02*
X20700276Y-51957500D01*
X21209724Y-50912500D02*
X20700276Y-50912500D01*
%TO.C,R7*%
X66929724Y-50912500D02*
X66420276Y-50912500D01*
X66929724Y-51957500D02*
X66420276Y-51957500D01*
%TO.C,R8*%
X51689724Y-51957500D02*
X51180276Y-51957500D01*
X51689724Y-50912500D02*
X51180276Y-50912500D01*
%TO.C,R9*%
X36449724Y-50912500D02*
X35940276Y-50912500D01*
X36449724Y-51957500D02*
X35940276Y-51957500D01*
%TO.C,R10*%
X95137500Y-60705276D02*
X95137500Y-61214724D01*
X94092500Y-60705276D02*
X94092500Y-61214724D01*
%TO.C,R11*%
X94092500Y-50545276D02*
X94092500Y-51054724D01*
X95137500Y-50545276D02*
X95137500Y-51054724D01*
%TO.C,R12*%
X94092500Y-40385276D02*
X94092500Y-40894724D01*
X95137500Y-40385276D02*
X95137500Y-40894724D01*
%TO.C,R13*%
X95137500Y-30225276D02*
X95137500Y-30734724D01*
X94092500Y-30225276D02*
X94092500Y-30734724D01*
%TO.C,R14*%
X88787500Y-18795276D02*
X88787500Y-19304724D01*
X87742500Y-18795276D02*
X87742500Y-19304724D01*
%TO.C,U1*%
X40550000Y-26610000D02*
X40550000Y-24280000D01*
X38100000Y-26610000D02*
X40550000Y-26610000D01*
X40220000Y-14340000D02*
X40220000Y-26280000D01*
X32370000Y-14340000D02*
X40220000Y-14340000D01*
X32370000Y-26280000D02*
X32370000Y-14340000D01*
X40220000Y-26280000D02*
X32370000Y-26280000D01*
%TO.C,U2*%
X38740000Y-40240000D02*
X38740000Y-38980000D01*
X38740000Y-33420000D02*
X38740000Y-34680000D01*
X34980000Y-40240000D02*
X38740000Y-40240000D01*
X32730000Y-33420000D02*
X38740000Y-33420000D01*
%TO.C,U3*%
X54415000Y-35560000D02*
X54415000Y-37760000D01*
X54415000Y-35560000D02*
X54415000Y-33360000D01*
X59885000Y-35560000D02*
X59885000Y-37760000D01*
X59885000Y-35560000D02*
X59885000Y-31960000D01*
%TO.C,U5*%
X90825000Y-53975000D02*
X90825000Y-52025000D01*
X90825000Y-53975000D02*
X90825000Y-55925000D01*
X85705000Y-53975000D02*
X85705000Y-52025000D01*
X85705000Y-53975000D02*
X85705000Y-57425000D01*
%TO.C,U6*%
X29865000Y-53975000D02*
X29865000Y-52025000D01*
X29865000Y-53975000D02*
X29865000Y-55925000D01*
X24745000Y-53975000D02*
X24745000Y-52025000D01*
X24745000Y-53975000D02*
X24745000Y-57425000D01*
%TO.C,U7*%
X70465000Y-53975000D02*
X70465000Y-57425000D01*
X70465000Y-53975000D02*
X70465000Y-52025000D01*
X75585000Y-53975000D02*
X75585000Y-55925000D01*
X75585000Y-53975000D02*
X75585000Y-52025000D01*
%TO.C,U8*%
X60345000Y-53975000D02*
X60345000Y-52025000D01*
X60345000Y-53975000D02*
X60345000Y-55925000D01*
X55225000Y-53975000D02*
X55225000Y-52025000D01*
X55225000Y-53975000D02*
X55225000Y-57425000D01*
%TO.C,U9*%
X39985000Y-53975000D02*
X39985000Y-57425000D01*
X39985000Y-53975000D02*
X39985000Y-52025000D01*
X45105000Y-53975000D02*
X45105000Y-55925000D01*
X45105000Y-53975000D02*
X45105000Y-52025000D01*
%TO.C,U4*%
D14*
X80182380Y-35051904D02*
X80991904Y-35051904D01*
X81087142Y-35004285D01*
X81134761Y-34956666D01*
X81182380Y-34861428D01*
X81182380Y-34670952D01*
X81134761Y-34575714D01*
X81087142Y-34528095D01*
X80991904Y-34480476D01*
X80182380Y-34480476D01*
X80515714Y-33575714D02*
X81182380Y-33575714D01*
X80134761Y-33813809D02*
X80849047Y-34051904D01*
X80849047Y-33432857D01*
%TO.C,C1*%
X47685833Y-30042142D02*
X47638214Y-30089761D01*
X47495357Y-30137380D01*
X47400119Y-30137380D01*
X47257261Y-30089761D01*
X47162023Y-29994523D01*
X47114404Y-29899285D01*
X47066785Y-29708809D01*
X47066785Y-29565952D01*
X47114404Y-29375476D01*
X47162023Y-29280238D01*
X47257261Y-29185000D01*
X47400119Y-29137380D01*
X47495357Y-29137380D01*
X47638214Y-29185000D01*
X47685833Y-29232619D01*
X48638214Y-30137380D02*
X48066785Y-30137380D01*
X48352500Y-30137380D02*
X48352500Y-29137380D01*
X48257261Y-29280238D01*
X48162023Y-29375476D01*
X48066785Y-29423095D01*
%TO.C,C2*%
X83245833Y-38617142D02*
X83198214Y-38664761D01*
X83055357Y-38712380D01*
X82960119Y-38712380D01*
X82817261Y-38664761D01*
X82722023Y-38569523D01*
X82674404Y-38474285D01*
X82626785Y-38283809D01*
X82626785Y-38140952D01*
X82674404Y-37950476D01*
X82722023Y-37855238D01*
X82817261Y-37760000D01*
X82960119Y-37712380D01*
X83055357Y-37712380D01*
X83198214Y-37760000D01*
X83245833Y-37807619D01*
X83626785Y-37807619D02*
X83674404Y-37760000D01*
X83769642Y-37712380D01*
X84007738Y-37712380D01*
X84102976Y-37760000D01*
X84150595Y-37807619D01*
X84198214Y-37902857D01*
X84198214Y-37998095D01*
X84150595Y-38140952D01*
X83579166Y-38712380D01*
X84198214Y-38712380D01*
%TO.C,C3*%
X84288333Y-45282142D02*
X84240714Y-45329761D01*
X84097857Y-45377380D01*
X84002619Y-45377380D01*
X83859761Y-45329761D01*
X83764523Y-45234523D01*
X83716904Y-45139285D01*
X83669285Y-44948809D01*
X83669285Y-44805952D01*
X83716904Y-44615476D01*
X83764523Y-44520238D01*
X83859761Y-44425000D01*
X84002619Y-44377380D01*
X84097857Y-44377380D01*
X84240714Y-44425000D01*
X84288333Y-44472619D01*
X84621666Y-44377380D02*
X85240714Y-44377380D01*
X84907380Y-44758333D01*
X85050238Y-44758333D01*
X85145476Y-44805952D01*
X85193095Y-44853571D01*
X85240714Y-44948809D01*
X85240714Y-45186904D01*
X85193095Y-45282142D01*
X85145476Y-45329761D01*
X85050238Y-45377380D01*
X84764523Y-45377380D01*
X84669285Y-45329761D01*
X84621666Y-45282142D01*
%TO.C,C4*%
X89368333Y-45282142D02*
X89320714Y-45329761D01*
X89177857Y-45377380D01*
X89082619Y-45377380D01*
X88939761Y-45329761D01*
X88844523Y-45234523D01*
X88796904Y-45139285D01*
X88749285Y-44948809D01*
X88749285Y-44805952D01*
X88796904Y-44615476D01*
X88844523Y-44520238D01*
X88939761Y-44425000D01*
X89082619Y-44377380D01*
X89177857Y-44377380D01*
X89320714Y-44425000D01*
X89368333Y-44472619D01*
X90225476Y-44710714D02*
X90225476Y-45377380D01*
X89987380Y-44329761D02*
X89749285Y-45044047D01*
X90368333Y-45044047D01*
%TO.C,C5*%
X23328333Y-45282142D02*
X23280714Y-45329761D01*
X23137857Y-45377380D01*
X23042619Y-45377380D01*
X22899761Y-45329761D01*
X22804523Y-45234523D01*
X22756904Y-45139285D01*
X22709285Y-44948809D01*
X22709285Y-44805952D01*
X22756904Y-44615476D01*
X22804523Y-44520238D01*
X22899761Y-44425000D01*
X23042619Y-44377380D01*
X23137857Y-44377380D01*
X23280714Y-44425000D01*
X23328333Y-44472619D01*
X24233095Y-44377380D02*
X23756904Y-44377380D01*
X23709285Y-44853571D01*
X23756904Y-44805952D01*
X23852142Y-44758333D01*
X24090238Y-44758333D01*
X24185476Y-44805952D01*
X24233095Y-44853571D01*
X24280714Y-44948809D01*
X24280714Y-45186904D01*
X24233095Y-45282142D01*
X24185476Y-45329761D01*
X24090238Y-45377380D01*
X23852142Y-45377380D01*
X23756904Y-45329761D01*
X23709285Y-45282142D01*
%TO.C,C6*%
X28408333Y-45282142D02*
X28360714Y-45329761D01*
X28217857Y-45377380D01*
X28122619Y-45377380D01*
X27979761Y-45329761D01*
X27884523Y-45234523D01*
X27836904Y-45139285D01*
X27789285Y-44948809D01*
X27789285Y-44805952D01*
X27836904Y-44615476D01*
X27884523Y-44520238D01*
X27979761Y-44425000D01*
X28122619Y-44377380D01*
X28217857Y-44377380D01*
X28360714Y-44425000D01*
X28408333Y-44472619D01*
X29265476Y-44377380D02*
X29075000Y-44377380D01*
X28979761Y-44425000D01*
X28932142Y-44472619D01*
X28836904Y-44615476D01*
X28789285Y-44805952D01*
X28789285Y-45186904D01*
X28836904Y-45282142D01*
X28884523Y-45329761D01*
X28979761Y-45377380D01*
X29170238Y-45377380D01*
X29265476Y-45329761D01*
X29313095Y-45282142D01*
X29360714Y-45186904D01*
X29360714Y-44948809D01*
X29313095Y-44853571D01*
X29265476Y-44805952D01*
X29170238Y-44758333D01*
X28979761Y-44758333D01*
X28884523Y-44805952D01*
X28836904Y-44853571D01*
X28789285Y-44948809D01*
%TO.C,C7*%
X68640833Y-45282142D02*
X68593214Y-45329761D01*
X68450357Y-45377380D01*
X68355119Y-45377380D01*
X68212261Y-45329761D01*
X68117023Y-45234523D01*
X68069404Y-45139285D01*
X68021785Y-44948809D01*
X68021785Y-44805952D01*
X68069404Y-44615476D01*
X68117023Y-44520238D01*
X68212261Y-44425000D01*
X68355119Y-44377380D01*
X68450357Y-44377380D01*
X68593214Y-44425000D01*
X68640833Y-44472619D01*
X68974166Y-44377380D02*
X69640833Y-44377380D01*
X69212261Y-45377380D01*
%TO.C,C8*%
X74128333Y-45282142D02*
X74080714Y-45329761D01*
X73937857Y-45377380D01*
X73842619Y-45377380D01*
X73699761Y-45329761D01*
X73604523Y-45234523D01*
X73556904Y-45139285D01*
X73509285Y-44948809D01*
X73509285Y-44805952D01*
X73556904Y-44615476D01*
X73604523Y-44520238D01*
X73699761Y-44425000D01*
X73842619Y-44377380D01*
X73937857Y-44377380D01*
X74080714Y-44425000D01*
X74128333Y-44472619D01*
X74699761Y-44805952D02*
X74604523Y-44758333D01*
X74556904Y-44710714D01*
X74509285Y-44615476D01*
X74509285Y-44567857D01*
X74556904Y-44472619D01*
X74604523Y-44425000D01*
X74699761Y-44377380D01*
X74890238Y-44377380D01*
X74985476Y-44425000D01*
X75033095Y-44472619D01*
X75080714Y-44567857D01*
X75080714Y-44615476D01*
X75033095Y-44710714D01*
X74985476Y-44758333D01*
X74890238Y-44805952D01*
X74699761Y-44805952D01*
X74604523Y-44853571D01*
X74556904Y-44901190D01*
X74509285Y-44996428D01*
X74509285Y-45186904D01*
X74556904Y-45282142D01*
X74604523Y-45329761D01*
X74699761Y-45377380D01*
X74890238Y-45377380D01*
X74985476Y-45329761D01*
X75033095Y-45282142D01*
X75080714Y-45186904D01*
X75080714Y-44996428D01*
X75033095Y-44901190D01*
X74985476Y-44853571D01*
X74890238Y-44805952D01*
%TO.C,C9*%
X53808333Y-45282142D02*
X53760714Y-45329761D01*
X53617857Y-45377380D01*
X53522619Y-45377380D01*
X53379761Y-45329761D01*
X53284523Y-45234523D01*
X53236904Y-45139285D01*
X53189285Y-44948809D01*
X53189285Y-44805952D01*
X53236904Y-44615476D01*
X53284523Y-44520238D01*
X53379761Y-44425000D01*
X53522619Y-44377380D01*
X53617857Y-44377380D01*
X53760714Y-44425000D01*
X53808333Y-44472619D01*
X54284523Y-45377380D02*
X54475000Y-45377380D01*
X54570238Y-45329761D01*
X54617857Y-45282142D01*
X54713095Y-45139285D01*
X54760714Y-44948809D01*
X54760714Y-44567857D01*
X54713095Y-44472619D01*
X54665476Y-44425000D01*
X54570238Y-44377380D01*
X54379761Y-44377380D01*
X54284523Y-44425000D01*
X54236904Y-44472619D01*
X54189285Y-44567857D01*
X54189285Y-44805952D01*
X54236904Y-44901190D01*
X54284523Y-44948809D01*
X54379761Y-44996428D01*
X54570238Y-44996428D01*
X54665476Y-44948809D01*
X54713095Y-44901190D01*
X54760714Y-44805952D01*
%TO.C,C10*%
X58412142Y-45282142D02*
X58364523Y-45329761D01*
X58221666Y-45377380D01*
X58126428Y-45377380D01*
X57983571Y-45329761D01*
X57888333Y-45234523D01*
X57840714Y-45139285D01*
X57793095Y-44948809D01*
X57793095Y-44805952D01*
X57840714Y-44615476D01*
X57888333Y-44520238D01*
X57983571Y-44425000D01*
X58126428Y-44377380D01*
X58221666Y-44377380D01*
X58364523Y-44425000D01*
X58412142Y-44472619D01*
X59364523Y-45377380D02*
X58793095Y-45377380D01*
X59078809Y-45377380D02*
X59078809Y-44377380D01*
X58983571Y-44520238D01*
X58888333Y-44615476D01*
X58793095Y-44663095D01*
X59983571Y-44377380D02*
X60078809Y-44377380D01*
X60174047Y-44425000D01*
X60221666Y-44472619D01*
X60269285Y-44567857D01*
X60316904Y-44758333D01*
X60316904Y-44996428D01*
X60269285Y-45186904D01*
X60221666Y-45282142D01*
X60174047Y-45329761D01*
X60078809Y-45377380D01*
X59983571Y-45377380D01*
X59888333Y-45329761D01*
X59840714Y-45282142D01*
X59793095Y-45186904D01*
X59745476Y-44996428D01*
X59745476Y-44758333D01*
X59793095Y-44567857D01*
X59840714Y-44472619D01*
X59888333Y-44425000D01*
X59983571Y-44377380D01*
%TO.C,C11*%
X38092142Y-45282142D02*
X38044523Y-45329761D01*
X37901666Y-45377380D01*
X37806428Y-45377380D01*
X37663571Y-45329761D01*
X37568333Y-45234523D01*
X37520714Y-45139285D01*
X37473095Y-44948809D01*
X37473095Y-44805952D01*
X37520714Y-44615476D01*
X37568333Y-44520238D01*
X37663571Y-44425000D01*
X37806428Y-44377380D01*
X37901666Y-44377380D01*
X38044523Y-44425000D01*
X38092142Y-44472619D01*
X39044523Y-45377380D02*
X38473095Y-45377380D01*
X38758809Y-45377380D02*
X38758809Y-44377380D01*
X38663571Y-44520238D01*
X38568333Y-44615476D01*
X38473095Y-44663095D01*
X39996904Y-45377380D02*
X39425476Y-45377380D01*
X39711190Y-45377380D02*
X39711190Y-44377380D01*
X39615952Y-44520238D01*
X39520714Y-44615476D01*
X39425476Y-44663095D01*
%TO.C,C12*%
X43172142Y-45282142D02*
X43124523Y-45329761D01*
X42981666Y-45377380D01*
X42886428Y-45377380D01*
X42743571Y-45329761D01*
X42648333Y-45234523D01*
X42600714Y-45139285D01*
X42553095Y-44948809D01*
X42553095Y-44805952D01*
X42600714Y-44615476D01*
X42648333Y-44520238D01*
X42743571Y-44425000D01*
X42886428Y-44377380D01*
X42981666Y-44377380D01*
X43124523Y-44425000D01*
X43172142Y-44472619D01*
X44124523Y-45377380D02*
X43553095Y-45377380D01*
X43838809Y-45377380D02*
X43838809Y-44377380D01*
X43743571Y-44520238D01*
X43648333Y-44615476D01*
X43553095Y-44663095D01*
X44505476Y-44472619D02*
X44553095Y-44425000D01*
X44648333Y-44377380D01*
X44886428Y-44377380D01*
X44981666Y-44425000D01*
X45029285Y-44472619D01*
X45076904Y-44567857D01*
X45076904Y-44663095D01*
X45029285Y-44805952D01*
X44457857Y-45377380D01*
X45076904Y-45377380D01*
%TO.C,J1*%
X18762380Y-37223333D02*
X19476666Y-37223333D01*
X19619523Y-37270952D01*
X19714761Y-37366190D01*
X19762380Y-37509047D01*
X19762380Y-37604285D01*
X19762380Y-36223333D02*
X19762380Y-36794761D01*
X19762380Y-36509047D02*
X18762380Y-36509047D01*
X18905238Y-36604285D01*
X19000476Y-36699523D01*
X19048095Y-36794761D01*
%TO.C,J2*%
X18502380Y-21923333D02*
X19216666Y-21923333D01*
X19359523Y-21970952D01*
X19454761Y-22066190D01*
X19502380Y-22209047D01*
X19502380Y-22304285D01*
X18597619Y-21494761D02*
X18550000Y-21447142D01*
X18502380Y-21351904D01*
X18502380Y-21113809D01*
X18550000Y-21018571D01*
X18597619Y-20970952D01*
X18692857Y-20923333D01*
X18788095Y-20923333D01*
X18930952Y-20970952D01*
X19502380Y-21542380D01*
X19502380Y-20923333D01*
%TO.C,R1*%
X87463333Y-34582380D02*
X87130000Y-34106190D01*
X86891904Y-34582380D02*
X86891904Y-33582380D01*
X87272857Y-33582380D01*
X87368095Y-33630000D01*
X87415714Y-33677619D01*
X87463333Y-33772857D01*
X87463333Y-33915714D01*
X87415714Y-34010952D01*
X87368095Y-34058571D01*
X87272857Y-34106190D01*
X86891904Y-34106190D01*
X88415714Y-34582380D02*
X87844285Y-34582380D01*
X88130000Y-34582380D02*
X88130000Y-33582380D01*
X88034761Y-33725238D01*
X87939523Y-33820476D01*
X87844285Y-33868095D01*
%TO.C,R2*%
X87463333Y-29502380D02*
X87130000Y-29026190D01*
X86891904Y-29502380D02*
X86891904Y-28502380D01*
X87272857Y-28502380D01*
X87368095Y-28550000D01*
X87415714Y-28597619D01*
X87463333Y-28692857D01*
X87463333Y-28835714D01*
X87415714Y-28930952D01*
X87368095Y-28978571D01*
X87272857Y-29026190D01*
X86891904Y-29026190D01*
X87844285Y-28597619D02*
X87891904Y-28550000D01*
X87987142Y-28502380D01*
X88225238Y-28502380D01*
X88320476Y-28550000D01*
X88368095Y-28597619D01*
X88415714Y-28692857D01*
X88415714Y-28788095D01*
X88368095Y-28930952D01*
X87796666Y-29502380D01*
X88415714Y-29502380D01*
%TO.C,R3*%
X47735833Y-33947380D02*
X47402500Y-33471190D01*
X47164404Y-33947380D02*
X47164404Y-32947380D01*
X47545357Y-32947380D01*
X47640595Y-32995000D01*
X47688214Y-33042619D01*
X47735833Y-33137857D01*
X47735833Y-33280714D01*
X47688214Y-33375952D01*
X47640595Y-33423571D01*
X47545357Y-33471190D01*
X47164404Y-33471190D01*
X48069166Y-32947380D02*
X48688214Y-32947380D01*
X48354880Y-33328333D01*
X48497738Y-33328333D01*
X48592976Y-33375952D01*
X48640595Y-33423571D01*
X48688214Y-33518809D01*
X48688214Y-33756904D01*
X48640595Y-33852142D01*
X48592976Y-33899761D01*
X48497738Y-33947380D01*
X48212023Y-33947380D01*
X48116785Y-33899761D01*
X48069166Y-33852142D01*
%TO.C,R4*%
X47735833Y-39187380D02*
X47402500Y-38711190D01*
X47164404Y-39187380D02*
X47164404Y-38187380D01*
X47545357Y-38187380D01*
X47640595Y-38235000D01*
X47688214Y-38282619D01*
X47735833Y-38377857D01*
X47735833Y-38520714D01*
X47688214Y-38615952D01*
X47640595Y-38663571D01*
X47545357Y-38711190D01*
X47164404Y-38711190D01*
X48592976Y-38520714D02*
X48592976Y-39187380D01*
X48354880Y-38139761D02*
X48116785Y-38854047D01*
X48735833Y-38854047D01*
%TO.C,R5*%
X81748333Y-53317380D02*
X81415000Y-52841190D01*
X81176904Y-53317380D02*
X81176904Y-52317380D01*
X81557857Y-52317380D01*
X81653095Y-52365000D01*
X81700714Y-52412619D01*
X81748333Y-52507857D01*
X81748333Y-52650714D01*
X81700714Y-52745952D01*
X81653095Y-52793571D01*
X81557857Y-52841190D01*
X81176904Y-52841190D01*
X82653095Y-52317380D02*
X82176904Y-52317380D01*
X82129285Y-52793571D01*
X82176904Y-52745952D01*
X82272142Y-52698333D01*
X82510238Y-52698333D01*
X82605476Y-52745952D01*
X82653095Y-52793571D01*
X82700714Y-52888809D01*
X82700714Y-53126904D01*
X82653095Y-53222142D01*
X82605476Y-53269761D01*
X82510238Y-53317380D01*
X82272142Y-53317380D01*
X82176904Y-53269761D01*
X82129285Y-53222142D01*
%TO.C,R6*%
X20788333Y-53317380D02*
X20455000Y-52841190D01*
X20216904Y-53317380D02*
X20216904Y-52317380D01*
X20597857Y-52317380D01*
X20693095Y-52365000D01*
X20740714Y-52412619D01*
X20788333Y-52507857D01*
X20788333Y-52650714D01*
X20740714Y-52745952D01*
X20693095Y-52793571D01*
X20597857Y-52841190D01*
X20216904Y-52841190D01*
X21645476Y-52317380D02*
X21455000Y-52317380D01*
X21359761Y-52365000D01*
X21312142Y-52412619D01*
X21216904Y-52555476D01*
X21169285Y-52745952D01*
X21169285Y-53126904D01*
X21216904Y-53222142D01*
X21264523Y-53269761D01*
X21359761Y-53317380D01*
X21550238Y-53317380D01*
X21645476Y-53269761D01*
X21693095Y-53222142D01*
X21740714Y-53126904D01*
X21740714Y-52888809D01*
X21693095Y-52793571D01*
X21645476Y-52745952D01*
X21550238Y-52698333D01*
X21359761Y-52698333D01*
X21264523Y-52745952D01*
X21216904Y-52793571D01*
X21169285Y-52888809D01*
%TO.C,R7*%
X66508333Y-53317380D02*
X66175000Y-52841190D01*
X65936904Y-53317380D02*
X65936904Y-52317380D01*
X66317857Y-52317380D01*
X66413095Y-52365000D01*
X66460714Y-52412619D01*
X66508333Y-52507857D01*
X66508333Y-52650714D01*
X66460714Y-52745952D01*
X66413095Y-52793571D01*
X66317857Y-52841190D01*
X65936904Y-52841190D01*
X66841666Y-52317380D02*
X67508333Y-52317380D01*
X67079761Y-53317380D01*
%TO.C,R8*%
X51268333Y-53317380D02*
X50935000Y-52841190D01*
X50696904Y-53317380D02*
X50696904Y-52317380D01*
X51077857Y-52317380D01*
X51173095Y-52365000D01*
X51220714Y-52412619D01*
X51268333Y-52507857D01*
X51268333Y-52650714D01*
X51220714Y-52745952D01*
X51173095Y-52793571D01*
X51077857Y-52841190D01*
X50696904Y-52841190D01*
X51839761Y-52745952D02*
X51744523Y-52698333D01*
X51696904Y-52650714D01*
X51649285Y-52555476D01*
X51649285Y-52507857D01*
X51696904Y-52412619D01*
X51744523Y-52365000D01*
X51839761Y-52317380D01*
X52030238Y-52317380D01*
X52125476Y-52365000D01*
X52173095Y-52412619D01*
X52220714Y-52507857D01*
X52220714Y-52555476D01*
X52173095Y-52650714D01*
X52125476Y-52698333D01*
X52030238Y-52745952D01*
X51839761Y-52745952D01*
X51744523Y-52793571D01*
X51696904Y-52841190D01*
X51649285Y-52936428D01*
X51649285Y-53126904D01*
X51696904Y-53222142D01*
X51744523Y-53269761D01*
X51839761Y-53317380D01*
X52030238Y-53317380D01*
X52125476Y-53269761D01*
X52173095Y-53222142D01*
X52220714Y-53126904D01*
X52220714Y-52936428D01*
X52173095Y-52841190D01*
X52125476Y-52793571D01*
X52030238Y-52745952D01*
%TO.C,R9*%
X36028333Y-53317380D02*
X35695000Y-52841190D01*
X35456904Y-53317380D02*
X35456904Y-52317380D01*
X35837857Y-52317380D01*
X35933095Y-52365000D01*
X35980714Y-52412619D01*
X36028333Y-52507857D01*
X36028333Y-52650714D01*
X35980714Y-52745952D01*
X35933095Y-52793571D01*
X35837857Y-52841190D01*
X35456904Y-52841190D01*
X36504523Y-53317380D02*
X36695000Y-53317380D01*
X36790238Y-53269761D01*
X36837857Y-53222142D01*
X36933095Y-53079285D01*
X36980714Y-52888809D01*
X36980714Y-52507857D01*
X36933095Y-52412619D01*
X36885476Y-52365000D01*
X36790238Y-52317380D01*
X36599761Y-52317380D01*
X36504523Y-52365000D01*
X36456904Y-52412619D01*
X36409285Y-52507857D01*
X36409285Y-52745952D01*
X36456904Y-52841190D01*
X36504523Y-52888809D01*
X36599761Y-52936428D01*
X36790238Y-52936428D01*
X36885476Y-52888809D01*
X36933095Y-52841190D01*
X36980714Y-52745952D01*
%TO.C,R10*%
X96497380Y-61602857D02*
X96021190Y-61936190D01*
X96497380Y-62174285D02*
X95497380Y-62174285D01*
X95497380Y-61793333D01*
X95545000Y-61698095D01*
X95592619Y-61650476D01*
X95687857Y-61602857D01*
X95830714Y-61602857D01*
X95925952Y-61650476D01*
X95973571Y-61698095D01*
X96021190Y-61793333D01*
X96021190Y-62174285D01*
X96497380Y-60650476D02*
X96497380Y-61221904D01*
X96497380Y-60936190D02*
X95497380Y-60936190D01*
X95640238Y-61031428D01*
X95735476Y-61126666D01*
X95783095Y-61221904D01*
X95497380Y-60031428D02*
X95497380Y-59936190D01*
X95545000Y-59840952D01*
X95592619Y-59793333D01*
X95687857Y-59745714D01*
X95878333Y-59698095D01*
X96116428Y-59698095D01*
X96306904Y-59745714D01*
X96402142Y-59793333D01*
X96449761Y-59840952D01*
X96497380Y-59936190D01*
X96497380Y-60031428D01*
X96449761Y-60126666D01*
X96402142Y-60174285D01*
X96306904Y-60221904D01*
X96116428Y-60269523D01*
X95878333Y-60269523D01*
X95687857Y-60221904D01*
X95592619Y-60174285D01*
X95545000Y-60126666D01*
X95497380Y-60031428D01*
%TO.C,R11*%
X96497380Y-51442857D02*
X96021190Y-51776190D01*
X96497380Y-52014285D02*
X95497380Y-52014285D01*
X95497380Y-51633333D01*
X95545000Y-51538095D01*
X95592619Y-51490476D01*
X95687857Y-51442857D01*
X95830714Y-51442857D01*
X95925952Y-51490476D01*
X95973571Y-51538095D01*
X96021190Y-51633333D01*
X96021190Y-52014285D01*
X96497380Y-50490476D02*
X96497380Y-51061904D01*
X96497380Y-50776190D02*
X95497380Y-50776190D01*
X95640238Y-50871428D01*
X95735476Y-50966666D01*
X95783095Y-51061904D01*
X96497380Y-49538095D02*
X96497380Y-50109523D01*
X96497380Y-49823809D02*
X95497380Y-49823809D01*
X95640238Y-49919047D01*
X95735476Y-50014285D01*
X95783095Y-50109523D01*
%TO.C,R12*%
X96497380Y-41282857D02*
X96021190Y-41616190D01*
X96497380Y-41854285D02*
X95497380Y-41854285D01*
X95497380Y-41473333D01*
X95545000Y-41378095D01*
X95592619Y-41330476D01*
X95687857Y-41282857D01*
X95830714Y-41282857D01*
X95925952Y-41330476D01*
X95973571Y-41378095D01*
X96021190Y-41473333D01*
X96021190Y-41854285D01*
X96497380Y-40330476D02*
X96497380Y-40901904D01*
X96497380Y-40616190D02*
X95497380Y-40616190D01*
X95640238Y-40711428D01*
X95735476Y-40806666D01*
X95783095Y-40901904D01*
X95592619Y-39949523D02*
X95545000Y-39901904D01*
X95497380Y-39806666D01*
X95497380Y-39568571D01*
X95545000Y-39473333D01*
X95592619Y-39425714D01*
X95687857Y-39378095D01*
X95783095Y-39378095D01*
X95925952Y-39425714D01*
X96497380Y-39997142D01*
X96497380Y-39378095D01*
%TO.C,R13*%
X96497380Y-31122857D02*
X96021190Y-31456190D01*
X96497380Y-31694285D02*
X95497380Y-31694285D01*
X95497380Y-31313333D01*
X95545000Y-31218095D01*
X95592619Y-31170476D01*
X95687857Y-31122857D01*
X95830714Y-31122857D01*
X95925952Y-31170476D01*
X95973571Y-31218095D01*
X96021190Y-31313333D01*
X96021190Y-31694285D01*
X96497380Y-30170476D02*
X96497380Y-30741904D01*
X96497380Y-30456190D02*
X95497380Y-30456190D01*
X95640238Y-30551428D01*
X95735476Y-30646666D01*
X95783095Y-30741904D01*
X95497380Y-29837142D02*
X95497380Y-29218095D01*
X95878333Y-29551428D01*
X95878333Y-29408571D01*
X95925952Y-29313333D01*
X95973571Y-29265714D01*
X96068809Y-29218095D01*
X96306904Y-29218095D01*
X96402142Y-29265714D01*
X96449761Y-29313333D01*
X96497380Y-29408571D01*
X96497380Y-29694285D01*
X96449761Y-29789523D01*
X96402142Y-29837142D01*
%TO.C,R14*%
X90147380Y-19692857D02*
X89671190Y-20026190D01*
X90147380Y-20264285D02*
X89147380Y-20264285D01*
X89147380Y-19883333D01*
X89195000Y-19788095D01*
X89242619Y-19740476D01*
X89337857Y-19692857D01*
X89480714Y-19692857D01*
X89575952Y-19740476D01*
X89623571Y-19788095D01*
X89671190Y-19883333D01*
X89671190Y-20264285D01*
X90147380Y-18740476D02*
X90147380Y-19311904D01*
X90147380Y-19026190D02*
X89147380Y-19026190D01*
X89290238Y-19121428D01*
X89385476Y-19216666D01*
X89433095Y-19311904D01*
X89480714Y-17883333D02*
X90147380Y-17883333D01*
X89099761Y-18121428D02*
X89814047Y-18359523D01*
X89814047Y-17740476D01*
%TO.C,U1*%
X30842380Y-25121904D02*
X31651904Y-25121904D01*
X31747142Y-25074285D01*
X31794761Y-25026666D01*
X31842380Y-24931428D01*
X31842380Y-24740952D01*
X31794761Y-24645714D01*
X31747142Y-24598095D01*
X31651904Y-24550476D01*
X30842380Y-24550476D01*
X31842380Y-23550476D02*
X31842380Y-24121904D01*
X31842380Y-23836190D02*
X30842380Y-23836190D01*
X30985238Y-23931428D01*
X31080476Y-24026666D01*
X31128095Y-24121904D01*
%TO.C,U2*%
X36068095Y-31782380D02*
X36068095Y-32591904D01*
X36115714Y-32687142D01*
X36163333Y-32734761D01*
X36258571Y-32782380D01*
X36449047Y-32782380D01*
X36544285Y-32734761D01*
X36591904Y-32687142D01*
X36639523Y-32591904D01*
X36639523Y-31782380D01*
X37068095Y-31877619D02*
X37115714Y-31830000D01*
X37210952Y-31782380D01*
X37449047Y-31782380D01*
X37544285Y-31830000D01*
X37591904Y-31877619D01*
X37639523Y-31972857D01*
X37639523Y-32068095D01*
X37591904Y-32210952D01*
X37020476Y-32782380D01*
X37639523Y-32782380D01*
%TO.C,U3*%
X60052380Y-36321904D02*
X60861904Y-36321904D01*
X60957142Y-36274285D01*
X61004761Y-36226666D01*
X61052380Y-36131428D01*
X61052380Y-35940952D01*
X61004761Y-35845714D01*
X60957142Y-35798095D01*
X60861904Y-35750476D01*
X60052380Y-35750476D01*
X60052380Y-35369523D02*
X60052380Y-34750476D01*
X60433333Y-35083809D01*
X60433333Y-34940952D01*
X60480952Y-34845714D01*
X60528571Y-34798095D01*
X60623809Y-34750476D01*
X60861904Y-34750476D01*
X60957142Y-34798095D01*
X61004761Y-34845714D01*
X61052380Y-34940952D01*
X61052380Y-35226666D01*
X61004761Y-35321904D01*
X60957142Y-35369523D01*
%TD*%
M02*
