%TF.GenerationSoftware,KiCad,Pcbnew,5.1.9*%
%TF.CreationDate,2021-03-25T13:41:33+01:00*%
%TF.ProjectId,kicad_robot_servos_ev_pompes,6b696361-645f-4726-9f62-6f745f736572,rev?*%
%TF.SameCoordinates,Original*%
%TF.FileFunction,Copper,L1,Top*%
%TF.FilePolarity,Positive*%
%FSLAX46Y46*%
G04 Gerber Fmt 4.6, Leading zero omitted, Abs format (unit mm)*
G04 Created by KiCad (PCBNEW 5.1.9) date 2021-03-25 13:41:33*
%MOMM*%
%LPD*%
G01*
G04 APERTURE LIST*
%TA.AperFunction,ComponentPad*%
%ADD10O,1.700000X1.700000*%
%TD*%
%TA.AperFunction,ComponentPad*%
%ADD11R,1.700000X1.700000*%
%TD*%
%TA.AperFunction,ComponentPad*%
%ADD12O,1.950000X1.700000*%
%TD*%
%TA.AperFunction,ComponentPad*%
%ADD13R,3.000000X3.000000*%
%TD*%
%TA.AperFunction,ComponentPad*%
%ADD14C,3.000000*%
%TD*%
%TA.AperFunction,ComponentPad*%
%ADD15O,1.700000X2.000000*%
%TD*%
%TA.AperFunction,ComponentPad*%
%ADD16O,2.000000X1.700000*%
%TD*%
%TA.AperFunction,SMDPad,CuDef*%
%ADD17R,0.800000X0.900000*%
%TD*%
%TA.AperFunction,SMDPad,CuDef*%
%ADD18R,0.900000X0.800000*%
%TD*%
%TA.AperFunction,ComponentPad*%
%ADD19R,2.500000X1.500000*%
%TD*%
%TA.AperFunction,ComponentPad*%
%ADD20O,2.500000X1.500000*%
%TD*%
%TA.AperFunction,SMDPad,CuDef*%
%ADD21R,2.000000X3.800000*%
%TD*%
%TA.AperFunction,SMDPad,CuDef*%
%ADD22R,2.000000X1.500000*%
%TD*%
%TA.AperFunction,ViaPad*%
%ADD23C,0.800000*%
%TD*%
%TA.AperFunction,ViaPad*%
%ADD24C,1.200000*%
%TD*%
%TA.AperFunction,Conductor*%
%ADD25C,0.800000*%
%TD*%
%TA.AperFunction,Conductor*%
%ADD26C,0.600000*%
%TD*%
%TA.AperFunction,Conductor*%
%ADD27C,0.400000*%
%TD*%
%TA.AperFunction,Conductor*%
%ADD28C,1.200000*%
%TD*%
G04 APERTURE END LIST*
D10*
%TO.P,J10,3*%
%TO.N,/SERVO_3*%
X65405000Y-22225000D03*
%TO.P,J10,2*%
%TO.N,+5V*%
X65405000Y-19685000D03*
D11*
%TO.P,J10,1*%
%TO.N,GND*%
X65405000Y-17145000D03*
%TD*%
%TO.P,U4,1*%
%TO.N,Net-(R1-Pad2)*%
%TA.AperFunction,SMDPad,CuDef*%
G36*
G01*
X79055000Y-30690000D02*
X79255000Y-30690000D01*
G75*
G02*
X79355000Y-30790000I0J-100000D01*
G01*
X79355000Y-32065000D01*
G75*
G02*
X79255000Y-32165000I-100000J0D01*
G01*
X79055000Y-32165000D01*
G75*
G02*
X78955000Y-32065000I0J100000D01*
G01*
X78955000Y-30790000D01*
G75*
G02*
X79055000Y-30690000I100000J0D01*
G01*
G37*
%TD.AperFunction*%
%TO.P,U4,2*%
%TO.N,+3V3*%
%TA.AperFunction,SMDPad,CuDef*%
G36*
G01*
X78405000Y-30690000D02*
X78605000Y-30690000D01*
G75*
G02*
X78705000Y-30790000I0J-100000D01*
G01*
X78705000Y-32065000D01*
G75*
G02*
X78605000Y-32165000I-100000J0D01*
G01*
X78405000Y-32165000D01*
G75*
G02*
X78305000Y-32065000I0J100000D01*
G01*
X78305000Y-30790000D01*
G75*
G02*
X78405000Y-30690000I100000J0D01*
G01*
G37*
%TD.AperFunction*%
%TO.P,U4,3*%
%TA.AperFunction,SMDPad,CuDef*%
G36*
G01*
X77755000Y-30690000D02*
X77955000Y-30690000D01*
G75*
G02*
X78055000Y-30790000I0J-100000D01*
G01*
X78055000Y-32065000D01*
G75*
G02*
X77955000Y-32165000I-100000J0D01*
G01*
X77755000Y-32165000D01*
G75*
G02*
X77655000Y-32065000I0J100000D01*
G01*
X77655000Y-30790000D01*
G75*
G02*
X77755000Y-30690000I100000J0D01*
G01*
G37*
%TD.AperFunction*%
%TO.P,U4,4*%
%TO.N,GND*%
%TA.AperFunction,SMDPad,CuDef*%
G36*
G01*
X77105000Y-30690000D02*
X77305000Y-30690000D01*
G75*
G02*
X77405000Y-30790000I0J-100000D01*
G01*
X77405000Y-32065000D01*
G75*
G02*
X77305000Y-32165000I-100000J0D01*
G01*
X77105000Y-32165000D01*
G75*
G02*
X77005000Y-32065000I0J100000D01*
G01*
X77005000Y-30790000D01*
G75*
G02*
X77105000Y-30690000I100000J0D01*
G01*
G37*
%TD.AperFunction*%
%TO.P,U4,5*%
%TA.AperFunction,SMDPad,CuDef*%
G36*
G01*
X76455000Y-30690000D02*
X76655000Y-30690000D01*
G75*
G02*
X76755000Y-30790000I0J-100000D01*
G01*
X76755000Y-32065000D01*
G75*
G02*
X76655000Y-32165000I-100000J0D01*
G01*
X76455000Y-32165000D01*
G75*
G02*
X76355000Y-32065000I0J100000D01*
G01*
X76355000Y-30790000D01*
G75*
G02*
X76455000Y-30690000I100000J0D01*
G01*
G37*
%TD.AperFunction*%
%TO.P,U4,6*%
%TO.N,/SERVO_1*%
%TA.AperFunction,SMDPad,CuDef*%
G36*
G01*
X75805000Y-30690000D02*
X76005000Y-30690000D01*
G75*
G02*
X76105000Y-30790000I0J-100000D01*
G01*
X76105000Y-32065000D01*
G75*
G02*
X76005000Y-32165000I-100000J0D01*
G01*
X75805000Y-32165000D01*
G75*
G02*
X75705000Y-32065000I0J100000D01*
G01*
X75705000Y-30790000D01*
G75*
G02*
X75805000Y-30690000I100000J0D01*
G01*
G37*
%TD.AperFunction*%
%TO.P,U4,7*%
%TO.N,/SERVO_2*%
%TA.AperFunction,SMDPad,CuDef*%
G36*
G01*
X75155000Y-30690000D02*
X75355000Y-30690000D01*
G75*
G02*
X75455000Y-30790000I0J-100000D01*
G01*
X75455000Y-32065000D01*
G75*
G02*
X75355000Y-32165000I-100000J0D01*
G01*
X75155000Y-32165000D01*
G75*
G02*
X75055000Y-32065000I0J100000D01*
G01*
X75055000Y-30790000D01*
G75*
G02*
X75155000Y-30690000I100000J0D01*
G01*
G37*
%TD.AperFunction*%
%TO.P,U4,8*%
%TO.N,/SERVO_3*%
%TA.AperFunction,SMDPad,CuDef*%
G36*
G01*
X74505000Y-30690000D02*
X74705000Y-30690000D01*
G75*
G02*
X74805000Y-30790000I0J-100000D01*
G01*
X74805000Y-32065000D01*
G75*
G02*
X74705000Y-32165000I-100000J0D01*
G01*
X74505000Y-32165000D01*
G75*
G02*
X74405000Y-32065000I0J100000D01*
G01*
X74405000Y-30790000D01*
G75*
G02*
X74505000Y-30690000I100000J0D01*
G01*
G37*
%TD.AperFunction*%
%TO.P,U4,9*%
%TO.N,/SERVO_4*%
%TA.AperFunction,SMDPad,CuDef*%
G36*
G01*
X73855000Y-30690000D02*
X74055000Y-30690000D01*
G75*
G02*
X74155000Y-30790000I0J-100000D01*
G01*
X74155000Y-32065000D01*
G75*
G02*
X74055000Y-32165000I-100000J0D01*
G01*
X73855000Y-32165000D01*
G75*
G02*
X73755000Y-32065000I0J100000D01*
G01*
X73755000Y-30790000D01*
G75*
G02*
X73855000Y-30690000I100000J0D01*
G01*
G37*
%TD.AperFunction*%
%TO.P,U4,10*%
%TO.N,/SERVO_5*%
%TA.AperFunction,SMDPad,CuDef*%
G36*
G01*
X73205000Y-30690000D02*
X73405000Y-30690000D01*
G75*
G02*
X73505000Y-30790000I0J-100000D01*
G01*
X73505000Y-32065000D01*
G75*
G02*
X73405000Y-32165000I-100000J0D01*
G01*
X73205000Y-32165000D01*
G75*
G02*
X73105000Y-32065000I0J100000D01*
G01*
X73105000Y-30790000D01*
G75*
G02*
X73205000Y-30690000I100000J0D01*
G01*
G37*
%TD.AperFunction*%
%TO.P,U4,11*%
%TO.N,/POMPE_1*%
%TA.AperFunction,SMDPad,CuDef*%
G36*
G01*
X72555000Y-30690000D02*
X72755000Y-30690000D01*
G75*
G02*
X72855000Y-30790000I0J-100000D01*
G01*
X72855000Y-32065000D01*
G75*
G02*
X72755000Y-32165000I-100000J0D01*
G01*
X72555000Y-32165000D01*
G75*
G02*
X72455000Y-32065000I0J100000D01*
G01*
X72455000Y-30790000D01*
G75*
G02*
X72555000Y-30690000I100000J0D01*
G01*
G37*
%TD.AperFunction*%
%TO.P,U4,12*%
%TO.N,/POMPE_2*%
%TA.AperFunction,SMDPad,CuDef*%
G36*
G01*
X71905000Y-30690000D02*
X72105000Y-30690000D01*
G75*
G02*
X72205000Y-30790000I0J-100000D01*
G01*
X72205000Y-32065000D01*
G75*
G02*
X72105000Y-32165000I-100000J0D01*
G01*
X71905000Y-32165000D01*
G75*
G02*
X71805000Y-32065000I0J100000D01*
G01*
X71805000Y-30790000D01*
G75*
G02*
X71905000Y-30690000I100000J0D01*
G01*
G37*
%TD.AperFunction*%
%TO.P,U4,13*%
%TO.N,/POMPE_3*%
%TA.AperFunction,SMDPad,CuDef*%
G36*
G01*
X71255000Y-30690000D02*
X71455000Y-30690000D01*
G75*
G02*
X71555000Y-30790000I0J-100000D01*
G01*
X71555000Y-32065000D01*
G75*
G02*
X71455000Y-32165000I-100000J0D01*
G01*
X71255000Y-32165000D01*
G75*
G02*
X71155000Y-32065000I0J100000D01*
G01*
X71155000Y-30790000D01*
G75*
G02*
X71255000Y-30690000I100000J0D01*
G01*
G37*
%TD.AperFunction*%
%TO.P,U4,14*%
%TO.N,GND*%
%TA.AperFunction,SMDPad,CuDef*%
G36*
G01*
X70605000Y-30690000D02*
X70805000Y-30690000D01*
G75*
G02*
X70905000Y-30790000I0J-100000D01*
G01*
X70905000Y-32065000D01*
G75*
G02*
X70805000Y-32165000I-100000J0D01*
G01*
X70605000Y-32165000D01*
G75*
G02*
X70505000Y-32065000I0J100000D01*
G01*
X70505000Y-30790000D01*
G75*
G02*
X70605000Y-30690000I100000J0D01*
G01*
G37*
%TD.AperFunction*%
%TO.P,U4,15*%
%TO.N,/POMPE_4*%
%TA.AperFunction,SMDPad,CuDef*%
G36*
G01*
X70605000Y-36415000D02*
X70805000Y-36415000D01*
G75*
G02*
X70905000Y-36515000I0J-100000D01*
G01*
X70905000Y-37790000D01*
G75*
G02*
X70805000Y-37890000I-100000J0D01*
G01*
X70605000Y-37890000D01*
G75*
G02*
X70505000Y-37790000I0J100000D01*
G01*
X70505000Y-36515000D01*
G75*
G02*
X70605000Y-36415000I100000J0D01*
G01*
G37*
%TD.AperFunction*%
%TO.P,U4,16*%
%TO.N,/POMPE_5*%
%TA.AperFunction,SMDPad,CuDef*%
G36*
G01*
X71255000Y-36415000D02*
X71455000Y-36415000D01*
G75*
G02*
X71555000Y-36515000I0J-100000D01*
G01*
X71555000Y-37790000D01*
G75*
G02*
X71455000Y-37890000I-100000J0D01*
G01*
X71255000Y-37890000D01*
G75*
G02*
X71155000Y-37790000I0J100000D01*
G01*
X71155000Y-36515000D01*
G75*
G02*
X71255000Y-36415000I100000J0D01*
G01*
G37*
%TD.AperFunction*%
%TO.P,U4,17*%
%TO.N,/EV_1*%
%TA.AperFunction,SMDPad,CuDef*%
G36*
G01*
X71905000Y-36415000D02*
X72105000Y-36415000D01*
G75*
G02*
X72205000Y-36515000I0J-100000D01*
G01*
X72205000Y-37790000D01*
G75*
G02*
X72105000Y-37890000I-100000J0D01*
G01*
X71905000Y-37890000D01*
G75*
G02*
X71805000Y-37790000I0J100000D01*
G01*
X71805000Y-36515000D01*
G75*
G02*
X71905000Y-36415000I100000J0D01*
G01*
G37*
%TD.AperFunction*%
%TO.P,U4,18*%
%TO.N,/EV_2*%
%TA.AperFunction,SMDPad,CuDef*%
G36*
G01*
X72555000Y-36415000D02*
X72755000Y-36415000D01*
G75*
G02*
X72855000Y-36515000I0J-100000D01*
G01*
X72855000Y-37790000D01*
G75*
G02*
X72755000Y-37890000I-100000J0D01*
G01*
X72555000Y-37890000D01*
G75*
G02*
X72455000Y-37790000I0J100000D01*
G01*
X72455000Y-36515000D01*
G75*
G02*
X72555000Y-36415000I100000J0D01*
G01*
G37*
%TD.AperFunction*%
%TO.P,U4,19*%
%TO.N,/EV_3*%
%TA.AperFunction,SMDPad,CuDef*%
G36*
G01*
X73205000Y-36415000D02*
X73405000Y-36415000D01*
G75*
G02*
X73505000Y-36515000I0J-100000D01*
G01*
X73505000Y-37790000D01*
G75*
G02*
X73405000Y-37890000I-100000J0D01*
G01*
X73205000Y-37890000D01*
G75*
G02*
X73105000Y-37790000I0J100000D01*
G01*
X73105000Y-36515000D01*
G75*
G02*
X73205000Y-36415000I100000J0D01*
G01*
G37*
%TD.AperFunction*%
%TO.P,U4,20*%
%TO.N,/EV_4*%
%TA.AperFunction,SMDPad,CuDef*%
G36*
G01*
X73855000Y-36415000D02*
X74055000Y-36415000D01*
G75*
G02*
X74155000Y-36515000I0J-100000D01*
G01*
X74155000Y-37790000D01*
G75*
G02*
X74055000Y-37890000I-100000J0D01*
G01*
X73855000Y-37890000D01*
G75*
G02*
X73755000Y-37790000I0J100000D01*
G01*
X73755000Y-36515000D01*
G75*
G02*
X73855000Y-36415000I100000J0D01*
G01*
G37*
%TD.AperFunction*%
%TO.P,U4,21*%
%TO.N,/EV_5*%
%TA.AperFunction,SMDPad,CuDef*%
G36*
G01*
X74505000Y-36415000D02*
X74705000Y-36415000D01*
G75*
G02*
X74805000Y-36515000I0J-100000D01*
G01*
X74805000Y-37790000D01*
G75*
G02*
X74705000Y-37890000I-100000J0D01*
G01*
X74505000Y-37890000D01*
G75*
G02*
X74405000Y-37790000I0J100000D01*
G01*
X74405000Y-36515000D01*
G75*
G02*
X74505000Y-36415000I100000J0D01*
G01*
G37*
%TD.AperFunction*%
%TO.P,U4,22*%
%TO.N,Net-(U4-Pad22)*%
%TA.AperFunction,SMDPad,CuDef*%
G36*
G01*
X75155000Y-36415000D02*
X75355000Y-36415000D01*
G75*
G02*
X75455000Y-36515000I0J-100000D01*
G01*
X75455000Y-37790000D01*
G75*
G02*
X75355000Y-37890000I-100000J0D01*
G01*
X75155000Y-37890000D01*
G75*
G02*
X75055000Y-37790000I0J100000D01*
G01*
X75055000Y-36515000D01*
G75*
G02*
X75155000Y-36415000I100000J0D01*
G01*
G37*
%TD.AperFunction*%
%TO.P,U4,23*%
%TO.N,GND*%
%TA.AperFunction,SMDPad,CuDef*%
G36*
G01*
X75805000Y-36415000D02*
X76005000Y-36415000D01*
G75*
G02*
X76105000Y-36515000I0J-100000D01*
G01*
X76105000Y-37790000D01*
G75*
G02*
X76005000Y-37890000I-100000J0D01*
G01*
X75805000Y-37890000D01*
G75*
G02*
X75705000Y-37790000I0J100000D01*
G01*
X75705000Y-36515000D01*
G75*
G02*
X75805000Y-36415000I100000J0D01*
G01*
G37*
%TD.AperFunction*%
%TO.P,U4,24*%
%TA.AperFunction,SMDPad,CuDef*%
G36*
G01*
X76455000Y-36415000D02*
X76655000Y-36415000D01*
G75*
G02*
X76755000Y-36515000I0J-100000D01*
G01*
X76755000Y-37790000D01*
G75*
G02*
X76655000Y-37890000I-100000J0D01*
G01*
X76455000Y-37890000D01*
G75*
G02*
X76355000Y-37790000I0J100000D01*
G01*
X76355000Y-36515000D01*
G75*
G02*
X76455000Y-36415000I100000J0D01*
G01*
G37*
%TD.AperFunction*%
%TO.P,U4,25*%
%TA.AperFunction,SMDPad,CuDef*%
G36*
G01*
X77105000Y-36415000D02*
X77305000Y-36415000D01*
G75*
G02*
X77405000Y-36515000I0J-100000D01*
G01*
X77405000Y-37790000D01*
G75*
G02*
X77305000Y-37890000I-100000J0D01*
G01*
X77105000Y-37890000D01*
G75*
G02*
X77005000Y-37790000I0J100000D01*
G01*
X77005000Y-36515000D01*
G75*
G02*
X77105000Y-36415000I100000J0D01*
G01*
G37*
%TD.AperFunction*%
%TO.P,U4,26*%
%TO.N,/EXT_SCL*%
%TA.AperFunction,SMDPad,CuDef*%
G36*
G01*
X77755000Y-36415000D02*
X77955000Y-36415000D01*
G75*
G02*
X78055000Y-36515000I0J-100000D01*
G01*
X78055000Y-37790000D01*
G75*
G02*
X77955000Y-37890000I-100000J0D01*
G01*
X77755000Y-37890000D01*
G75*
G02*
X77655000Y-37790000I0J100000D01*
G01*
X77655000Y-36515000D01*
G75*
G02*
X77755000Y-36415000I100000J0D01*
G01*
G37*
%TD.AperFunction*%
%TO.P,U4,27*%
%TO.N,/EXT_SDA*%
%TA.AperFunction,SMDPad,CuDef*%
G36*
G01*
X78405000Y-36415000D02*
X78605000Y-36415000D01*
G75*
G02*
X78705000Y-36515000I0J-100000D01*
G01*
X78705000Y-37790000D01*
G75*
G02*
X78605000Y-37890000I-100000J0D01*
G01*
X78405000Y-37890000D01*
G75*
G02*
X78305000Y-37790000I0J100000D01*
G01*
X78305000Y-36515000D01*
G75*
G02*
X78405000Y-36415000I100000J0D01*
G01*
G37*
%TD.AperFunction*%
%TO.P,U4,28*%
%TO.N,+3V3*%
%TA.AperFunction,SMDPad,CuDef*%
G36*
G01*
X79055000Y-36415000D02*
X79255000Y-36415000D01*
G75*
G02*
X79355000Y-36515000I0J-100000D01*
G01*
X79355000Y-37790000D01*
G75*
G02*
X79255000Y-37890000I-100000J0D01*
G01*
X79055000Y-37890000D01*
G75*
G02*
X78955000Y-37790000I0J100000D01*
G01*
X78955000Y-36515000D01*
G75*
G02*
X79055000Y-36415000I100000J0D01*
G01*
G37*
%TD.AperFunction*%
%TD*%
%TO.P,C1,2*%
%TO.N,+3V3*%
%TA.AperFunction,SMDPad,CuDef*%
G36*
G01*
X48177500Y-31352500D02*
X48177500Y-30877500D01*
G75*
G02*
X48415000Y-30640000I237500J0D01*
G01*
X49015000Y-30640000D01*
G75*
G02*
X49252500Y-30877500I0J-237500D01*
G01*
X49252500Y-31352500D01*
G75*
G02*
X49015000Y-31590000I-237500J0D01*
G01*
X48415000Y-31590000D01*
G75*
G02*
X48177500Y-31352500I0J237500D01*
G01*
G37*
%TD.AperFunction*%
%TO.P,C1,1*%
%TO.N,GND*%
%TA.AperFunction,SMDPad,CuDef*%
G36*
G01*
X46452500Y-31352500D02*
X46452500Y-30877500D01*
G75*
G02*
X46690000Y-30640000I237500J0D01*
G01*
X47290000Y-30640000D01*
G75*
G02*
X47527500Y-30877500I0J-237500D01*
G01*
X47527500Y-31352500D01*
G75*
G02*
X47290000Y-31590000I-237500J0D01*
G01*
X46690000Y-31590000D01*
G75*
G02*
X46452500Y-31352500I0J237500D01*
G01*
G37*
%TD.AperFunction*%
%TD*%
%TO.P,C2,1*%
%TO.N,GND*%
%TA.AperFunction,SMDPad,CuDef*%
G36*
G01*
X84812500Y-36592500D02*
X84812500Y-37067500D01*
G75*
G02*
X84575000Y-37305000I-237500J0D01*
G01*
X83975000Y-37305000D01*
G75*
G02*
X83737500Y-37067500I0J237500D01*
G01*
X83737500Y-36592500D01*
G75*
G02*
X83975000Y-36355000I237500J0D01*
G01*
X84575000Y-36355000D01*
G75*
G02*
X84812500Y-36592500I0J-237500D01*
G01*
G37*
%TD.AperFunction*%
%TO.P,C2,2*%
%TO.N,+3V3*%
%TA.AperFunction,SMDPad,CuDef*%
G36*
G01*
X83087500Y-36592500D02*
X83087500Y-37067500D01*
G75*
G02*
X82850000Y-37305000I-237500J0D01*
G01*
X82250000Y-37305000D01*
G75*
G02*
X82012500Y-37067500I0J237500D01*
G01*
X82012500Y-36592500D01*
G75*
G02*
X82250000Y-36355000I237500J0D01*
G01*
X82850000Y-36355000D01*
G75*
G02*
X83087500Y-36592500I0J-237500D01*
G01*
G37*
%TD.AperFunction*%
%TD*%
%TO.P,C3,1*%
%TO.N,GND*%
%TA.AperFunction,SMDPad,CuDef*%
G36*
G01*
X83055000Y-46592500D02*
X83055000Y-46117500D01*
G75*
G02*
X83292500Y-45880000I237500J0D01*
G01*
X83892500Y-45880000D01*
G75*
G02*
X84130000Y-46117500I0J-237500D01*
G01*
X84130000Y-46592500D01*
G75*
G02*
X83892500Y-46830000I-237500J0D01*
G01*
X83292500Y-46830000D01*
G75*
G02*
X83055000Y-46592500I0J237500D01*
G01*
G37*
%TD.AperFunction*%
%TO.P,C3,2*%
%TO.N,+3V3*%
%TA.AperFunction,SMDPad,CuDef*%
G36*
G01*
X84780000Y-46592500D02*
X84780000Y-46117500D01*
G75*
G02*
X85017500Y-45880000I237500J0D01*
G01*
X85617500Y-45880000D01*
G75*
G02*
X85855000Y-46117500I0J-237500D01*
G01*
X85855000Y-46592500D01*
G75*
G02*
X85617500Y-46830000I-237500J0D01*
G01*
X85017500Y-46830000D01*
G75*
G02*
X84780000Y-46592500I0J237500D01*
G01*
G37*
%TD.AperFunction*%
%TD*%
%TO.P,C4,2*%
%TO.N,GND*%
%TA.AperFunction,SMDPad,CuDef*%
G36*
G01*
X89860000Y-46592500D02*
X89860000Y-46117500D01*
G75*
G02*
X90097500Y-45880000I237500J0D01*
G01*
X90697500Y-45880000D01*
G75*
G02*
X90935000Y-46117500I0J-237500D01*
G01*
X90935000Y-46592500D01*
G75*
G02*
X90697500Y-46830000I-237500J0D01*
G01*
X90097500Y-46830000D01*
G75*
G02*
X89860000Y-46592500I0J237500D01*
G01*
G37*
%TD.AperFunction*%
%TO.P,C4,1*%
%TO.N,/ADC_1*%
%TA.AperFunction,SMDPad,CuDef*%
G36*
G01*
X88135000Y-46592500D02*
X88135000Y-46117500D01*
G75*
G02*
X88372500Y-45880000I237500J0D01*
G01*
X88972500Y-45880000D01*
G75*
G02*
X89210000Y-46117500I0J-237500D01*
G01*
X89210000Y-46592500D01*
G75*
G02*
X88972500Y-46830000I-237500J0D01*
G01*
X88372500Y-46830000D01*
G75*
G02*
X88135000Y-46592500I0J237500D01*
G01*
G37*
%TD.AperFunction*%
%TD*%
%TO.P,C5,2*%
%TO.N,+3V3*%
%TA.AperFunction,SMDPad,CuDef*%
G36*
G01*
X23820000Y-46592500D02*
X23820000Y-46117500D01*
G75*
G02*
X24057500Y-45880000I237500J0D01*
G01*
X24657500Y-45880000D01*
G75*
G02*
X24895000Y-46117500I0J-237500D01*
G01*
X24895000Y-46592500D01*
G75*
G02*
X24657500Y-46830000I-237500J0D01*
G01*
X24057500Y-46830000D01*
G75*
G02*
X23820000Y-46592500I0J237500D01*
G01*
G37*
%TD.AperFunction*%
%TO.P,C5,1*%
%TO.N,GND*%
%TA.AperFunction,SMDPad,CuDef*%
G36*
G01*
X22095000Y-46592500D02*
X22095000Y-46117500D01*
G75*
G02*
X22332500Y-45880000I237500J0D01*
G01*
X22932500Y-45880000D01*
G75*
G02*
X23170000Y-46117500I0J-237500D01*
G01*
X23170000Y-46592500D01*
G75*
G02*
X22932500Y-46830000I-237500J0D01*
G01*
X22332500Y-46830000D01*
G75*
G02*
X22095000Y-46592500I0J237500D01*
G01*
G37*
%TD.AperFunction*%
%TD*%
%TO.P,C6,1*%
%TO.N,/ADC_5*%
%TA.AperFunction,SMDPad,CuDef*%
G36*
G01*
X27175000Y-46592500D02*
X27175000Y-46117500D01*
G75*
G02*
X27412500Y-45880000I237500J0D01*
G01*
X28012500Y-45880000D01*
G75*
G02*
X28250000Y-46117500I0J-237500D01*
G01*
X28250000Y-46592500D01*
G75*
G02*
X28012500Y-46830000I-237500J0D01*
G01*
X27412500Y-46830000D01*
G75*
G02*
X27175000Y-46592500I0J237500D01*
G01*
G37*
%TD.AperFunction*%
%TO.P,C6,2*%
%TO.N,GND*%
%TA.AperFunction,SMDPad,CuDef*%
G36*
G01*
X28900000Y-46592500D02*
X28900000Y-46117500D01*
G75*
G02*
X29137500Y-45880000I237500J0D01*
G01*
X29737500Y-45880000D01*
G75*
G02*
X29975000Y-46117500I0J-237500D01*
G01*
X29975000Y-46592500D01*
G75*
G02*
X29737500Y-46830000I-237500J0D01*
G01*
X29137500Y-46830000D01*
G75*
G02*
X28900000Y-46592500I0J237500D01*
G01*
G37*
%TD.AperFunction*%
%TD*%
%TO.P,C7,1*%
%TO.N,GND*%
%TA.AperFunction,SMDPad,CuDef*%
G36*
G01*
X67407500Y-46592500D02*
X67407500Y-46117500D01*
G75*
G02*
X67645000Y-45880000I237500J0D01*
G01*
X68245000Y-45880000D01*
G75*
G02*
X68482500Y-46117500I0J-237500D01*
G01*
X68482500Y-46592500D01*
G75*
G02*
X68245000Y-46830000I-237500J0D01*
G01*
X67645000Y-46830000D01*
G75*
G02*
X67407500Y-46592500I0J237500D01*
G01*
G37*
%TD.AperFunction*%
%TO.P,C7,2*%
%TO.N,+3V3*%
%TA.AperFunction,SMDPad,CuDef*%
G36*
G01*
X69132500Y-46592500D02*
X69132500Y-46117500D01*
G75*
G02*
X69370000Y-45880000I237500J0D01*
G01*
X69970000Y-45880000D01*
G75*
G02*
X70207500Y-46117500I0J-237500D01*
G01*
X70207500Y-46592500D01*
G75*
G02*
X69970000Y-46830000I-237500J0D01*
G01*
X69370000Y-46830000D01*
G75*
G02*
X69132500Y-46592500I0J237500D01*
G01*
G37*
%TD.AperFunction*%
%TD*%
%TO.P,C8,2*%
%TO.N,GND*%
%TA.AperFunction,SMDPad,CuDef*%
G36*
G01*
X74620000Y-46592500D02*
X74620000Y-46117500D01*
G75*
G02*
X74857500Y-45880000I237500J0D01*
G01*
X75457500Y-45880000D01*
G75*
G02*
X75695000Y-46117500I0J-237500D01*
G01*
X75695000Y-46592500D01*
G75*
G02*
X75457500Y-46830000I-237500J0D01*
G01*
X74857500Y-46830000D01*
G75*
G02*
X74620000Y-46592500I0J237500D01*
G01*
G37*
%TD.AperFunction*%
%TO.P,C8,1*%
%TO.N,/ADC_2*%
%TA.AperFunction,SMDPad,CuDef*%
G36*
G01*
X72895000Y-46592500D02*
X72895000Y-46117500D01*
G75*
G02*
X73132500Y-45880000I237500J0D01*
G01*
X73732500Y-45880000D01*
G75*
G02*
X73970000Y-46117500I0J-237500D01*
G01*
X73970000Y-46592500D01*
G75*
G02*
X73732500Y-46830000I-237500J0D01*
G01*
X73132500Y-46830000D01*
G75*
G02*
X72895000Y-46592500I0J237500D01*
G01*
G37*
%TD.AperFunction*%
%TD*%
%TO.P,C9,2*%
%TO.N,+3V3*%
%TA.AperFunction,SMDPad,CuDef*%
G36*
G01*
X54300000Y-46592500D02*
X54300000Y-46117500D01*
G75*
G02*
X54537500Y-45880000I237500J0D01*
G01*
X55137500Y-45880000D01*
G75*
G02*
X55375000Y-46117500I0J-237500D01*
G01*
X55375000Y-46592500D01*
G75*
G02*
X55137500Y-46830000I-237500J0D01*
G01*
X54537500Y-46830000D01*
G75*
G02*
X54300000Y-46592500I0J237500D01*
G01*
G37*
%TD.AperFunction*%
%TO.P,C9,1*%
%TO.N,GND*%
%TA.AperFunction,SMDPad,CuDef*%
G36*
G01*
X52575000Y-46592500D02*
X52575000Y-46117500D01*
G75*
G02*
X52812500Y-45880000I237500J0D01*
G01*
X53412500Y-45880000D01*
G75*
G02*
X53650000Y-46117500I0J-237500D01*
G01*
X53650000Y-46592500D01*
G75*
G02*
X53412500Y-46830000I-237500J0D01*
G01*
X52812500Y-46830000D01*
G75*
G02*
X52575000Y-46592500I0J237500D01*
G01*
G37*
%TD.AperFunction*%
%TD*%
%TO.P,C10,1*%
%TO.N,/ADC_3*%
%TA.AperFunction,SMDPad,CuDef*%
G36*
G01*
X57655000Y-46592500D02*
X57655000Y-46117500D01*
G75*
G02*
X57892500Y-45880000I237500J0D01*
G01*
X58492500Y-45880000D01*
G75*
G02*
X58730000Y-46117500I0J-237500D01*
G01*
X58730000Y-46592500D01*
G75*
G02*
X58492500Y-46830000I-237500J0D01*
G01*
X57892500Y-46830000D01*
G75*
G02*
X57655000Y-46592500I0J237500D01*
G01*
G37*
%TD.AperFunction*%
%TO.P,C10,2*%
%TO.N,GND*%
%TA.AperFunction,SMDPad,CuDef*%
G36*
G01*
X59380000Y-46592500D02*
X59380000Y-46117500D01*
G75*
G02*
X59617500Y-45880000I237500J0D01*
G01*
X60217500Y-45880000D01*
G75*
G02*
X60455000Y-46117500I0J-237500D01*
G01*
X60455000Y-46592500D01*
G75*
G02*
X60217500Y-46830000I-237500J0D01*
G01*
X59617500Y-46830000D01*
G75*
G02*
X59380000Y-46592500I0J237500D01*
G01*
G37*
%TD.AperFunction*%
%TD*%
%TO.P,C11,2*%
%TO.N,+3V3*%
%TA.AperFunction,SMDPad,CuDef*%
G36*
G01*
X39060000Y-46592500D02*
X39060000Y-46117500D01*
G75*
G02*
X39297500Y-45880000I237500J0D01*
G01*
X39897500Y-45880000D01*
G75*
G02*
X40135000Y-46117500I0J-237500D01*
G01*
X40135000Y-46592500D01*
G75*
G02*
X39897500Y-46830000I-237500J0D01*
G01*
X39297500Y-46830000D01*
G75*
G02*
X39060000Y-46592500I0J237500D01*
G01*
G37*
%TD.AperFunction*%
%TO.P,C11,1*%
%TO.N,GND*%
%TA.AperFunction,SMDPad,CuDef*%
G36*
G01*
X37335000Y-46592500D02*
X37335000Y-46117500D01*
G75*
G02*
X37572500Y-45880000I237500J0D01*
G01*
X38172500Y-45880000D01*
G75*
G02*
X38410000Y-46117500I0J-237500D01*
G01*
X38410000Y-46592500D01*
G75*
G02*
X38172500Y-46830000I-237500J0D01*
G01*
X37572500Y-46830000D01*
G75*
G02*
X37335000Y-46592500I0J237500D01*
G01*
G37*
%TD.AperFunction*%
%TD*%
%TO.P,C12,1*%
%TO.N,/ADC_4*%
%TA.AperFunction,SMDPad,CuDef*%
G36*
G01*
X42415000Y-46592500D02*
X42415000Y-46117500D01*
G75*
G02*
X42652500Y-45880000I237500J0D01*
G01*
X43252500Y-45880000D01*
G75*
G02*
X43490000Y-46117500I0J-237500D01*
G01*
X43490000Y-46592500D01*
G75*
G02*
X43252500Y-46830000I-237500J0D01*
G01*
X42652500Y-46830000D01*
G75*
G02*
X42415000Y-46592500I0J237500D01*
G01*
G37*
%TD.AperFunction*%
%TO.P,C12,2*%
%TO.N,GND*%
%TA.AperFunction,SMDPad,CuDef*%
G36*
G01*
X44140000Y-46592500D02*
X44140000Y-46117500D01*
G75*
G02*
X44377500Y-45880000I237500J0D01*
G01*
X44977500Y-45880000D01*
G75*
G02*
X45215000Y-46117500I0J-237500D01*
G01*
X45215000Y-46592500D01*
G75*
G02*
X44977500Y-46830000I-237500J0D01*
G01*
X44377500Y-46830000D01*
G75*
G02*
X44140000Y-46592500I0J237500D01*
G01*
G37*
%TD.AperFunction*%
%TD*%
%TO.P,J1,1*%
%TO.N,+5VA*%
%TA.AperFunction,ComponentPad*%
G36*
G01*
X23585000Y-41490000D02*
X22135000Y-41490000D01*
G75*
G02*
X21885000Y-41240000I0J250000D01*
G01*
X21885000Y-40040000D01*
G75*
G02*
X22135000Y-39790000I250000J0D01*
G01*
X23585000Y-39790000D01*
G75*
G02*
X23835000Y-40040000I0J-250000D01*
G01*
X23835000Y-41240000D01*
G75*
G02*
X23585000Y-41490000I-250000J0D01*
G01*
G37*
%TD.AperFunction*%
D12*
%TO.P,J1,2*%
%TO.N,GND*%
X22860000Y-38140000D03*
%TO.P,J1,3*%
%TO.N,/EXT_SDA*%
X22860000Y-35640000D03*
%TO.P,J1,4*%
%TO.N,/EXT_SCL*%
X22860000Y-33140000D03*
%TD*%
D13*
%TO.P,J2,1*%
%TO.N,+12V*%
X24130000Y-24130000D03*
D14*
%TO.P,J2,2*%
%TO.N,GND*%
X24130000Y-19050000D03*
%TD*%
D15*
%TO.P,J3,2*%
%TO.N,Net-(J3-Pad2)*%
X88225000Y-64135000D03*
%TO.P,J3,1*%
%TO.N,Net-(J3-Pad1)*%
%TA.AperFunction,ComponentPad*%
G36*
G01*
X84875000Y-64885000D02*
X84875000Y-63385000D01*
G75*
G02*
X85125000Y-63135000I250000J0D01*
G01*
X86325000Y-63135000D01*
G75*
G02*
X86575000Y-63385000I0J-250000D01*
G01*
X86575000Y-64885000D01*
G75*
G02*
X86325000Y-65135000I-250000J0D01*
G01*
X85125000Y-65135000D01*
G75*
G02*
X84875000Y-64885000I0J250000D01*
G01*
G37*
%TD.AperFunction*%
%TD*%
%TO.P,J4,1*%
%TO.N,Net-(J4-Pad1)*%
%TA.AperFunction,ComponentPad*%
G36*
G01*
X23915000Y-64885000D02*
X23915000Y-63385000D01*
G75*
G02*
X24165000Y-63135000I250000J0D01*
G01*
X25365000Y-63135000D01*
G75*
G02*
X25615000Y-63385000I0J-250000D01*
G01*
X25615000Y-64885000D01*
G75*
G02*
X25365000Y-65135000I-250000J0D01*
G01*
X24165000Y-65135000D01*
G75*
G02*
X23915000Y-64885000I0J250000D01*
G01*
G37*
%TD.AperFunction*%
%TO.P,J4,2*%
%TO.N,Net-(J4-Pad2)*%
X27265000Y-64135000D03*
%TD*%
%TO.P,J5,1*%
%TO.N,Net-(J5-Pad1)*%
%TA.AperFunction,ComponentPad*%
G36*
G01*
X69635000Y-64885000D02*
X69635000Y-63385000D01*
G75*
G02*
X69885000Y-63135000I250000J0D01*
G01*
X71085000Y-63135000D01*
G75*
G02*
X71335000Y-63385000I0J-250000D01*
G01*
X71335000Y-64885000D01*
G75*
G02*
X71085000Y-65135000I-250000J0D01*
G01*
X69885000Y-65135000D01*
G75*
G02*
X69635000Y-64885000I0J250000D01*
G01*
G37*
%TD.AperFunction*%
%TO.P,J5,2*%
%TO.N,Net-(J5-Pad2)*%
X72985000Y-64135000D03*
%TD*%
%TO.P,J6,1*%
%TO.N,Net-(J6-Pad1)*%
%TA.AperFunction,ComponentPad*%
G36*
G01*
X54395000Y-64885000D02*
X54395000Y-63385000D01*
G75*
G02*
X54645000Y-63135000I250000J0D01*
G01*
X55845000Y-63135000D01*
G75*
G02*
X56095000Y-63385000I0J-250000D01*
G01*
X56095000Y-64885000D01*
G75*
G02*
X55845000Y-65135000I-250000J0D01*
G01*
X54645000Y-65135000D01*
G75*
G02*
X54395000Y-64885000I0J250000D01*
G01*
G37*
%TD.AperFunction*%
%TO.P,J6,2*%
%TO.N,Net-(J6-Pad2)*%
X57745000Y-64135000D03*
%TD*%
%TO.P,J7,2*%
%TO.N,Net-(J7-Pad2)*%
X42505000Y-64135000D03*
%TO.P,J7,1*%
%TO.N,Net-(J7-Pad1)*%
%TA.AperFunction,ComponentPad*%
G36*
G01*
X39155000Y-64885000D02*
X39155000Y-63385000D01*
G75*
G02*
X39405000Y-63135000I250000J0D01*
G01*
X40605000Y-63135000D01*
G75*
G02*
X40855000Y-63385000I0J-250000D01*
G01*
X40855000Y-64885000D01*
G75*
G02*
X40605000Y-65135000I-250000J0D01*
G01*
X39405000Y-65135000D01*
G75*
G02*
X39155000Y-64885000I0J250000D01*
G01*
G37*
%TD.AperFunction*%
%TD*%
D10*
%TO.P,J8,3*%
%TO.N,/SERVO_1*%
X83185000Y-22225000D03*
%TO.P,J8,2*%
%TO.N,+5V*%
X83185000Y-19685000D03*
D11*
%TO.P,J8,1*%
%TO.N,GND*%
X83185000Y-17145000D03*
%TD*%
%TO.P,J9,1*%
%TO.N,GND*%
X74295000Y-17145000D03*
D10*
%TO.P,J9,2*%
%TO.N,+5V*%
X74295000Y-19685000D03*
%TO.P,J9,3*%
%TO.N,/SERVO_2*%
X74295000Y-22225000D03*
%TD*%
D11*
%TO.P,J11,1*%
%TO.N,GND*%
X56515000Y-17145000D03*
D10*
%TO.P,J11,2*%
%TO.N,+5V*%
X56515000Y-19685000D03*
%TO.P,J11,3*%
%TO.N,/SERVO_4*%
X56515000Y-22225000D03*
%TD*%
D11*
%TO.P,J12,1*%
%TO.N,GND*%
X47625000Y-17145000D03*
D10*
%TO.P,J12,2*%
%TO.N,+5V*%
X47625000Y-19685000D03*
%TO.P,J12,3*%
%TO.N,/SERVO_5*%
X47625000Y-22225000D03*
%TD*%
D16*
%TO.P,J13,2*%
%TO.N,+12V*%
X107315000Y-63460000D03*
%TO.P,J13,1*%
%TO.N,Net-(J13-Pad1)*%
%TA.AperFunction,ComponentPad*%
G36*
G01*
X106565000Y-60110000D02*
X108065000Y-60110000D01*
G75*
G02*
X108315000Y-60360000I0J-250000D01*
G01*
X108315000Y-61560000D01*
G75*
G02*
X108065000Y-61810000I-250000J0D01*
G01*
X106565000Y-61810000D01*
G75*
G02*
X106315000Y-61560000I0J250000D01*
G01*
X106315000Y-60360000D01*
G75*
G02*
X106565000Y-60110000I250000J0D01*
G01*
G37*
%TD.AperFunction*%
%TD*%
%TO.P,J14,1*%
%TO.N,Net-(J14-Pad1)*%
%TA.AperFunction,ComponentPad*%
G36*
G01*
X106565000Y-49950000D02*
X108065000Y-49950000D01*
G75*
G02*
X108315000Y-50200000I0J-250000D01*
G01*
X108315000Y-51400000D01*
G75*
G02*
X108065000Y-51650000I-250000J0D01*
G01*
X106565000Y-51650000D01*
G75*
G02*
X106315000Y-51400000I0J250000D01*
G01*
X106315000Y-50200000D01*
G75*
G02*
X106565000Y-49950000I250000J0D01*
G01*
G37*
%TD.AperFunction*%
%TO.P,J14,2*%
%TO.N,+12V*%
X107315000Y-53300000D03*
%TD*%
%TO.P,J15,2*%
%TO.N,+12V*%
X107315000Y-43140000D03*
%TO.P,J15,1*%
%TO.N,Net-(J15-Pad1)*%
%TA.AperFunction,ComponentPad*%
G36*
G01*
X106565000Y-39790000D02*
X108065000Y-39790000D01*
G75*
G02*
X108315000Y-40040000I0J-250000D01*
G01*
X108315000Y-41240000D01*
G75*
G02*
X108065000Y-41490000I-250000J0D01*
G01*
X106565000Y-41490000D01*
G75*
G02*
X106315000Y-41240000I0J250000D01*
G01*
X106315000Y-40040000D01*
G75*
G02*
X106565000Y-39790000I250000J0D01*
G01*
G37*
%TD.AperFunction*%
%TD*%
%TO.P,J16,1*%
%TO.N,Net-(J16-Pad1)*%
%TA.AperFunction,ComponentPad*%
G36*
G01*
X106565000Y-29630000D02*
X108065000Y-29630000D01*
G75*
G02*
X108315000Y-29880000I0J-250000D01*
G01*
X108315000Y-31080000D01*
G75*
G02*
X108065000Y-31330000I-250000J0D01*
G01*
X106565000Y-31330000D01*
G75*
G02*
X106315000Y-31080000I0J250000D01*
G01*
X106315000Y-29880000D01*
G75*
G02*
X106565000Y-29630000I250000J0D01*
G01*
G37*
%TD.AperFunction*%
%TO.P,J16,2*%
%TO.N,+12V*%
X107315000Y-32980000D03*
%TD*%
%TO.P,J17,2*%
%TO.N,+12V*%
X100965000Y-21550000D03*
%TO.P,J17,1*%
%TO.N,Net-(J17-Pad1)*%
%TA.AperFunction,ComponentPad*%
G36*
G01*
X100215000Y-18200000D02*
X101715000Y-18200000D01*
G75*
G02*
X101965000Y-18450000I0J-250000D01*
G01*
X101965000Y-19650000D01*
G75*
G02*
X101715000Y-19900000I-250000J0D01*
G01*
X100215000Y-19900000D01*
G75*
G02*
X99965000Y-19650000I0J250000D01*
G01*
X99965000Y-18450000D01*
G75*
G02*
X100215000Y-18200000I250000J0D01*
G01*
G37*
%TD.AperFunction*%
%TD*%
D17*
%TO.P,Q1,1*%
%TO.N,/POMPE_1*%
X82865000Y-55515000D03*
%TO.P,Q1,2*%
%TO.N,GND*%
X80965000Y-55515000D03*
%TO.P,Q1,3*%
%TO.N,Net-(J3-Pad1)*%
X81915000Y-57515000D03*
%TD*%
%TO.P,Q2,1*%
%TO.N,/POMPE_5*%
X21905000Y-55515000D03*
%TO.P,Q2,2*%
%TO.N,GND*%
X20005000Y-55515000D03*
%TO.P,Q2,3*%
%TO.N,Net-(J4-Pad1)*%
X20955000Y-57515000D03*
%TD*%
%TO.P,Q3,3*%
%TO.N,Net-(J5-Pad1)*%
X66675000Y-57515000D03*
%TO.P,Q3,2*%
%TO.N,GND*%
X65725000Y-55515000D03*
%TO.P,Q3,1*%
%TO.N,/POMPE_2*%
X67625000Y-55515000D03*
%TD*%
%TO.P,Q4,3*%
%TO.N,Net-(J6-Pad1)*%
X51435000Y-57515000D03*
%TO.P,Q4,2*%
%TO.N,GND*%
X50485000Y-55515000D03*
%TO.P,Q4,1*%
%TO.N,/POMPE_3*%
X52385000Y-55515000D03*
%TD*%
%TO.P,Q5,3*%
%TO.N,Net-(J7-Pad1)*%
X36195000Y-57515000D03*
%TO.P,Q5,2*%
%TO.N,GND*%
X35245000Y-55515000D03*
%TO.P,Q5,1*%
%TO.N,/POMPE_4*%
X37145000Y-55515000D03*
%TD*%
D18*
%TO.P,Q6,3*%
%TO.N,Net-(J13-Pad1)*%
X100060000Y-60960000D03*
%TO.P,Q6,2*%
%TO.N,GND*%
X98060000Y-61910000D03*
%TO.P,Q6,1*%
%TO.N,/EV_1*%
X98060000Y-60010000D03*
%TD*%
%TO.P,Q7,1*%
%TO.N,/EV_2*%
X98060000Y-49850000D03*
%TO.P,Q7,2*%
%TO.N,GND*%
X98060000Y-51750000D03*
%TO.P,Q7,3*%
%TO.N,Net-(J14-Pad1)*%
X100060000Y-50800000D03*
%TD*%
%TO.P,Q8,3*%
%TO.N,Net-(J15-Pad1)*%
X100060000Y-40640000D03*
%TO.P,Q8,2*%
%TO.N,GND*%
X98060000Y-41590000D03*
%TO.P,Q8,1*%
%TO.N,/EV_3*%
X98060000Y-39690000D03*
%TD*%
%TO.P,Q9,1*%
%TO.N,/EV_4*%
X98060000Y-29530000D03*
%TO.P,Q9,2*%
%TO.N,GND*%
X98060000Y-31430000D03*
%TO.P,Q9,3*%
%TO.N,Net-(J16-Pad1)*%
X100060000Y-30480000D03*
%TD*%
%TO.P,Q10,1*%
%TO.N,/EV_5*%
X91710000Y-18100000D03*
%TO.P,Q10,2*%
%TO.N,GND*%
X91710000Y-20000000D03*
%TO.P,Q10,3*%
%TO.N,Net-(J17-Pad1)*%
X93710000Y-19050000D03*
%TD*%
%TO.P,R1,2*%
%TO.N,Net-(R1-Pad2)*%
%TA.AperFunction,SMDPad,CuDef*%
G36*
G01*
X88055000Y-35797500D02*
X88055000Y-35322500D01*
G75*
G02*
X88292500Y-35085000I237500J0D01*
G01*
X88792500Y-35085000D01*
G75*
G02*
X89030000Y-35322500I0J-237500D01*
G01*
X89030000Y-35797500D01*
G75*
G02*
X88792500Y-36035000I-237500J0D01*
G01*
X88292500Y-36035000D01*
G75*
G02*
X88055000Y-35797500I0J237500D01*
G01*
G37*
%TD.AperFunction*%
%TO.P,R1,1*%
%TO.N,+3V3*%
%TA.AperFunction,SMDPad,CuDef*%
G36*
G01*
X86230000Y-35797500D02*
X86230000Y-35322500D01*
G75*
G02*
X86467500Y-35085000I237500J0D01*
G01*
X86967500Y-35085000D01*
G75*
G02*
X87205000Y-35322500I0J-237500D01*
G01*
X87205000Y-35797500D01*
G75*
G02*
X86967500Y-36035000I-237500J0D01*
G01*
X86467500Y-36035000D01*
G75*
G02*
X86230000Y-35797500I0J237500D01*
G01*
G37*
%TD.AperFunction*%
%TD*%
%TO.P,R2,1*%
%TO.N,GND*%
%TA.AperFunction,SMDPad,CuDef*%
G36*
G01*
X86230000Y-30717500D02*
X86230000Y-30242500D01*
G75*
G02*
X86467500Y-30005000I237500J0D01*
G01*
X86967500Y-30005000D01*
G75*
G02*
X87205000Y-30242500I0J-237500D01*
G01*
X87205000Y-30717500D01*
G75*
G02*
X86967500Y-30955000I-237500J0D01*
G01*
X86467500Y-30955000D01*
G75*
G02*
X86230000Y-30717500I0J237500D01*
G01*
G37*
%TD.AperFunction*%
%TO.P,R2,2*%
%TO.N,Net-(R1-Pad2)*%
%TA.AperFunction,SMDPad,CuDef*%
G36*
G01*
X88055000Y-30717500D02*
X88055000Y-30242500D01*
G75*
G02*
X88292500Y-30005000I237500J0D01*
G01*
X88792500Y-30005000D01*
G75*
G02*
X89030000Y-30242500I0J-237500D01*
G01*
X89030000Y-30717500D01*
G75*
G02*
X88792500Y-30955000I-237500J0D01*
G01*
X88292500Y-30955000D01*
G75*
G02*
X88055000Y-30717500I0J237500D01*
G01*
G37*
%TD.AperFunction*%
%TD*%
%TO.P,R3,2*%
%TO.N,Net-(R3-Pad2)*%
%TA.AperFunction,SMDPad,CuDef*%
G36*
G01*
X48327500Y-35162500D02*
X48327500Y-34687500D01*
G75*
G02*
X48565000Y-34450000I237500J0D01*
G01*
X49065000Y-34450000D01*
G75*
G02*
X49302500Y-34687500I0J-237500D01*
G01*
X49302500Y-35162500D01*
G75*
G02*
X49065000Y-35400000I-237500J0D01*
G01*
X48565000Y-35400000D01*
G75*
G02*
X48327500Y-35162500I0J237500D01*
G01*
G37*
%TD.AperFunction*%
%TO.P,R3,1*%
%TO.N,GND*%
%TA.AperFunction,SMDPad,CuDef*%
G36*
G01*
X46502500Y-35162500D02*
X46502500Y-34687500D01*
G75*
G02*
X46740000Y-34450000I237500J0D01*
G01*
X47240000Y-34450000D01*
G75*
G02*
X47477500Y-34687500I0J-237500D01*
G01*
X47477500Y-35162500D01*
G75*
G02*
X47240000Y-35400000I-237500J0D01*
G01*
X46740000Y-35400000D01*
G75*
G02*
X46502500Y-35162500I0J237500D01*
G01*
G37*
%TD.AperFunction*%
%TD*%
%TO.P,R4,1*%
%TO.N,+3V3*%
%TA.AperFunction,SMDPad,CuDef*%
G36*
G01*
X46502500Y-40242500D02*
X46502500Y-39767500D01*
G75*
G02*
X46740000Y-39530000I237500J0D01*
G01*
X47240000Y-39530000D01*
G75*
G02*
X47477500Y-39767500I0J-237500D01*
G01*
X47477500Y-40242500D01*
G75*
G02*
X47240000Y-40480000I-237500J0D01*
G01*
X46740000Y-40480000D01*
G75*
G02*
X46502500Y-40242500I0J237500D01*
G01*
G37*
%TD.AperFunction*%
%TO.P,R4,2*%
%TO.N,Net-(R3-Pad2)*%
%TA.AperFunction,SMDPad,CuDef*%
G36*
G01*
X48327500Y-40242500D02*
X48327500Y-39767500D01*
G75*
G02*
X48565000Y-39530000I237500J0D01*
G01*
X49065000Y-39530000D01*
G75*
G02*
X49302500Y-39767500I0J-237500D01*
G01*
X49302500Y-40242500D01*
G75*
G02*
X49065000Y-40480000I-237500J0D01*
G01*
X48565000Y-40480000D01*
G75*
G02*
X48327500Y-40242500I0J237500D01*
G01*
G37*
%TD.AperFunction*%
%TD*%
%TO.P,R5,2*%
%TO.N,GND*%
%TA.AperFunction,SMDPad,CuDef*%
G36*
G01*
X81490000Y-51197500D02*
X81490000Y-51672500D01*
G75*
G02*
X81252500Y-51910000I-237500J0D01*
G01*
X80752500Y-51910000D01*
G75*
G02*
X80515000Y-51672500I0J237500D01*
G01*
X80515000Y-51197500D01*
G75*
G02*
X80752500Y-50960000I237500J0D01*
G01*
X81252500Y-50960000D01*
G75*
G02*
X81490000Y-51197500I0J-237500D01*
G01*
G37*
%TD.AperFunction*%
%TO.P,R5,1*%
%TO.N,/POMPE_1*%
%TA.AperFunction,SMDPad,CuDef*%
G36*
G01*
X83315000Y-51197500D02*
X83315000Y-51672500D01*
G75*
G02*
X83077500Y-51910000I-237500J0D01*
G01*
X82577500Y-51910000D01*
G75*
G02*
X82340000Y-51672500I0J237500D01*
G01*
X82340000Y-51197500D01*
G75*
G02*
X82577500Y-50960000I237500J0D01*
G01*
X83077500Y-50960000D01*
G75*
G02*
X83315000Y-51197500I0J-237500D01*
G01*
G37*
%TD.AperFunction*%
%TD*%
%TO.P,R6,1*%
%TO.N,/POMPE_5*%
%TA.AperFunction,SMDPad,CuDef*%
G36*
G01*
X22355000Y-51197500D02*
X22355000Y-51672500D01*
G75*
G02*
X22117500Y-51910000I-237500J0D01*
G01*
X21617500Y-51910000D01*
G75*
G02*
X21380000Y-51672500I0J237500D01*
G01*
X21380000Y-51197500D01*
G75*
G02*
X21617500Y-50960000I237500J0D01*
G01*
X22117500Y-50960000D01*
G75*
G02*
X22355000Y-51197500I0J-237500D01*
G01*
G37*
%TD.AperFunction*%
%TO.P,R6,2*%
%TO.N,GND*%
%TA.AperFunction,SMDPad,CuDef*%
G36*
G01*
X20530000Y-51197500D02*
X20530000Y-51672500D01*
G75*
G02*
X20292500Y-51910000I-237500J0D01*
G01*
X19792500Y-51910000D01*
G75*
G02*
X19555000Y-51672500I0J237500D01*
G01*
X19555000Y-51197500D01*
G75*
G02*
X19792500Y-50960000I237500J0D01*
G01*
X20292500Y-50960000D01*
G75*
G02*
X20530000Y-51197500I0J-237500D01*
G01*
G37*
%TD.AperFunction*%
%TD*%
%TO.P,R7,2*%
%TO.N,GND*%
%TA.AperFunction,SMDPad,CuDef*%
G36*
G01*
X66250000Y-51197500D02*
X66250000Y-51672500D01*
G75*
G02*
X66012500Y-51910000I-237500J0D01*
G01*
X65512500Y-51910000D01*
G75*
G02*
X65275000Y-51672500I0J237500D01*
G01*
X65275000Y-51197500D01*
G75*
G02*
X65512500Y-50960000I237500J0D01*
G01*
X66012500Y-50960000D01*
G75*
G02*
X66250000Y-51197500I0J-237500D01*
G01*
G37*
%TD.AperFunction*%
%TO.P,R7,1*%
%TO.N,/POMPE_2*%
%TA.AperFunction,SMDPad,CuDef*%
G36*
G01*
X68075000Y-51197500D02*
X68075000Y-51672500D01*
G75*
G02*
X67837500Y-51910000I-237500J0D01*
G01*
X67337500Y-51910000D01*
G75*
G02*
X67100000Y-51672500I0J237500D01*
G01*
X67100000Y-51197500D01*
G75*
G02*
X67337500Y-50960000I237500J0D01*
G01*
X67837500Y-50960000D01*
G75*
G02*
X68075000Y-51197500I0J-237500D01*
G01*
G37*
%TD.AperFunction*%
%TD*%
%TO.P,R8,1*%
%TO.N,/POMPE_3*%
%TA.AperFunction,SMDPad,CuDef*%
G36*
G01*
X52835000Y-51197500D02*
X52835000Y-51672500D01*
G75*
G02*
X52597500Y-51910000I-237500J0D01*
G01*
X52097500Y-51910000D01*
G75*
G02*
X51860000Y-51672500I0J237500D01*
G01*
X51860000Y-51197500D01*
G75*
G02*
X52097500Y-50960000I237500J0D01*
G01*
X52597500Y-50960000D01*
G75*
G02*
X52835000Y-51197500I0J-237500D01*
G01*
G37*
%TD.AperFunction*%
%TO.P,R8,2*%
%TO.N,GND*%
%TA.AperFunction,SMDPad,CuDef*%
G36*
G01*
X51010000Y-51197500D02*
X51010000Y-51672500D01*
G75*
G02*
X50772500Y-51910000I-237500J0D01*
G01*
X50272500Y-51910000D01*
G75*
G02*
X50035000Y-51672500I0J237500D01*
G01*
X50035000Y-51197500D01*
G75*
G02*
X50272500Y-50960000I237500J0D01*
G01*
X50772500Y-50960000D01*
G75*
G02*
X51010000Y-51197500I0J-237500D01*
G01*
G37*
%TD.AperFunction*%
%TD*%
%TO.P,R9,2*%
%TO.N,GND*%
%TA.AperFunction,SMDPad,CuDef*%
G36*
G01*
X35770000Y-51197500D02*
X35770000Y-51672500D01*
G75*
G02*
X35532500Y-51910000I-237500J0D01*
G01*
X35032500Y-51910000D01*
G75*
G02*
X34795000Y-51672500I0J237500D01*
G01*
X34795000Y-51197500D01*
G75*
G02*
X35032500Y-50960000I237500J0D01*
G01*
X35532500Y-50960000D01*
G75*
G02*
X35770000Y-51197500I0J-237500D01*
G01*
G37*
%TD.AperFunction*%
%TO.P,R9,1*%
%TO.N,/POMPE_4*%
%TA.AperFunction,SMDPad,CuDef*%
G36*
G01*
X37595000Y-51197500D02*
X37595000Y-51672500D01*
G75*
G02*
X37357500Y-51910000I-237500J0D01*
G01*
X36857500Y-51910000D01*
G75*
G02*
X36620000Y-51672500I0J237500D01*
G01*
X36620000Y-51197500D01*
G75*
G02*
X36857500Y-50960000I237500J0D01*
G01*
X37357500Y-50960000D01*
G75*
G02*
X37595000Y-51197500I0J-237500D01*
G01*
G37*
%TD.AperFunction*%
%TD*%
%TO.P,R10,1*%
%TO.N,/EV_1*%
%TA.AperFunction,SMDPad,CuDef*%
G36*
G01*
X94377500Y-59560000D02*
X94852500Y-59560000D01*
G75*
G02*
X95090000Y-59797500I0J-237500D01*
G01*
X95090000Y-60297500D01*
G75*
G02*
X94852500Y-60535000I-237500J0D01*
G01*
X94377500Y-60535000D01*
G75*
G02*
X94140000Y-60297500I0J237500D01*
G01*
X94140000Y-59797500D01*
G75*
G02*
X94377500Y-59560000I237500J0D01*
G01*
G37*
%TD.AperFunction*%
%TO.P,R10,2*%
%TO.N,GND*%
%TA.AperFunction,SMDPad,CuDef*%
G36*
G01*
X94377500Y-61385000D02*
X94852500Y-61385000D01*
G75*
G02*
X95090000Y-61622500I0J-237500D01*
G01*
X95090000Y-62122500D01*
G75*
G02*
X94852500Y-62360000I-237500J0D01*
G01*
X94377500Y-62360000D01*
G75*
G02*
X94140000Y-62122500I0J237500D01*
G01*
X94140000Y-61622500D01*
G75*
G02*
X94377500Y-61385000I237500J0D01*
G01*
G37*
%TD.AperFunction*%
%TD*%
%TO.P,R11,2*%
%TO.N,GND*%
%TA.AperFunction,SMDPad,CuDef*%
G36*
G01*
X94377500Y-51225000D02*
X94852500Y-51225000D01*
G75*
G02*
X95090000Y-51462500I0J-237500D01*
G01*
X95090000Y-51962500D01*
G75*
G02*
X94852500Y-52200000I-237500J0D01*
G01*
X94377500Y-52200000D01*
G75*
G02*
X94140000Y-51962500I0J237500D01*
G01*
X94140000Y-51462500D01*
G75*
G02*
X94377500Y-51225000I237500J0D01*
G01*
G37*
%TD.AperFunction*%
%TO.P,R11,1*%
%TO.N,/EV_2*%
%TA.AperFunction,SMDPad,CuDef*%
G36*
G01*
X94377500Y-49400000D02*
X94852500Y-49400000D01*
G75*
G02*
X95090000Y-49637500I0J-237500D01*
G01*
X95090000Y-50137500D01*
G75*
G02*
X94852500Y-50375000I-237500J0D01*
G01*
X94377500Y-50375000D01*
G75*
G02*
X94140000Y-50137500I0J237500D01*
G01*
X94140000Y-49637500D01*
G75*
G02*
X94377500Y-49400000I237500J0D01*
G01*
G37*
%TD.AperFunction*%
%TD*%
%TO.P,R12,2*%
%TO.N,GND*%
%TA.AperFunction,SMDPad,CuDef*%
G36*
G01*
X94377500Y-41065000D02*
X94852500Y-41065000D01*
G75*
G02*
X95090000Y-41302500I0J-237500D01*
G01*
X95090000Y-41802500D01*
G75*
G02*
X94852500Y-42040000I-237500J0D01*
G01*
X94377500Y-42040000D01*
G75*
G02*
X94140000Y-41802500I0J237500D01*
G01*
X94140000Y-41302500D01*
G75*
G02*
X94377500Y-41065000I237500J0D01*
G01*
G37*
%TD.AperFunction*%
%TO.P,R12,1*%
%TO.N,/EV_3*%
%TA.AperFunction,SMDPad,CuDef*%
G36*
G01*
X94377500Y-39240000D02*
X94852500Y-39240000D01*
G75*
G02*
X95090000Y-39477500I0J-237500D01*
G01*
X95090000Y-39977500D01*
G75*
G02*
X94852500Y-40215000I-237500J0D01*
G01*
X94377500Y-40215000D01*
G75*
G02*
X94140000Y-39977500I0J237500D01*
G01*
X94140000Y-39477500D01*
G75*
G02*
X94377500Y-39240000I237500J0D01*
G01*
G37*
%TD.AperFunction*%
%TD*%
%TO.P,R13,1*%
%TO.N,/EV_4*%
%TA.AperFunction,SMDPad,CuDef*%
G36*
G01*
X94377500Y-29080000D02*
X94852500Y-29080000D01*
G75*
G02*
X95090000Y-29317500I0J-237500D01*
G01*
X95090000Y-29817500D01*
G75*
G02*
X94852500Y-30055000I-237500J0D01*
G01*
X94377500Y-30055000D01*
G75*
G02*
X94140000Y-29817500I0J237500D01*
G01*
X94140000Y-29317500D01*
G75*
G02*
X94377500Y-29080000I237500J0D01*
G01*
G37*
%TD.AperFunction*%
%TO.P,R13,2*%
%TO.N,GND*%
%TA.AperFunction,SMDPad,CuDef*%
G36*
G01*
X94377500Y-30905000D02*
X94852500Y-30905000D01*
G75*
G02*
X95090000Y-31142500I0J-237500D01*
G01*
X95090000Y-31642500D01*
G75*
G02*
X94852500Y-31880000I-237500J0D01*
G01*
X94377500Y-31880000D01*
G75*
G02*
X94140000Y-31642500I0J237500D01*
G01*
X94140000Y-31142500D01*
G75*
G02*
X94377500Y-30905000I237500J0D01*
G01*
G37*
%TD.AperFunction*%
%TD*%
%TO.P,R14,1*%
%TO.N,/EV_5*%
%TA.AperFunction,SMDPad,CuDef*%
G36*
G01*
X88027500Y-17650000D02*
X88502500Y-17650000D01*
G75*
G02*
X88740000Y-17887500I0J-237500D01*
G01*
X88740000Y-18387500D01*
G75*
G02*
X88502500Y-18625000I-237500J0D01*
G01*
X88027500Y-18625000D01*
G75*
G02*
X87790000Y-18387500I0J237500D01*
G01*
X87790000Y-17887500D01*
G75*
G02*
X88027500Y-17650000I237500J0D01*
G01*
G37*
%TD.AperFunction*%
%TO.P,R14,2*%
%TO.N,GND*%
%TA.AperFunction,SMDPad,CuDef*%
G36*
G01*
X88027500Y-19475000D02*
X88502500Y-19475000D01*
G75*
G02*
X88740000Y-19712500I0J-237500D01*
G01*
X88740000Y-20212500D01*
G75*
G02*
X88502500Y-20450000I-237500J0D01*
G01*
X88027500Y-20450000D01*
G75*
G02*
X87790000Y-20212500I0J237500D01*
G01*
X87790000Y-19712500D01*
G75*
G02*
X88027500Y-19475000I237500J0D01*
G01*
G37*
%TD.AperFunction*%
%TD*%
D19*
%TO.P,U1,1*%
%TO.N,+12V*%
X38100000Y-22860000D03*
D20*
%TO.P,U1,2*%
%TO.N,GND*%
X38100000Y-20320000D03*
%TO.P,U1,3*%
%TO.N,+5V*%
X38100000Y-17780000D03*
%TD*%
D21*
%TO.P,U2,2*%
%TO.N,GND*%
X39980000Y-36830000D03*
D22*
X33680000Y-36830000D03*
%TO.P,U2,3*%
%TO.N,+3V3*%
X33680000Y-39130000D03*
%TO.P,U2,1*%
%TO.N,+5VA*%
X33680000Y-34530000D03*
%TD*%
%TO.P,U3,1*%
%TO.N,Net-(U3-Pad1)*%
%TA.AperFunction,SMDPad,CuDef*%
G36*
G01*
X59325000Y-31960000D02*
X59525000Y-31960000D01*
G75*
G02*
X59625000Y-32060000I0J-100000D01*
G01*
X59625000Y-33335000D01*
G75*
G02*
X59525000Y-33435000I-100000J0D01*
G01*
X59325000Y-33435000D01*
G75*
G02*
X59225000Y-33335000I0J100000D01*
G01*
X59225000Y-32060000D01*
G75*
G02*
X59325000Y-31960000I100000J0D01*
G01*
G37*
%TD.AperFunction*%
%TO.P,U3,2*%
%TO.N,/EXT_SDA*%
%TA.AperFunction,SMDPad,CuDef*%
G36*
G01*
X58675000Y-31960000D02*
X58875000Y-31960000D01*
G75*
G02*
X58975000Y-32060000I0J-100000D01*
G01*
X58975000Y-33335000D01*
G75*
G02*
X58875000Y-33435000I-100000J0D01*
G01*
X58675000Y-33435000D01*
G75*
G02*
X58575000Y-33335000I0J100000D01*
G01*
X58575000Y-32060000D01*
G75*
G02*
X58675000Y-31960000I100000J0D01*
G01*
G37*
%TD.AperFunction*%
%TO.P,U3,3*%
%TO.N,/EXT_SCL*%
%TA.AperFunction,SMDPad,CuDef*%
G36*
G01*
X58025000Y-31960000D02*
X58225000Y-31960000D01*
G75*
G02*
X58325000Y-32060000I0J-100000D01*
G01*
X58325000Y-33335000D01*
G75*
G02*
X58225000Y-33435000I-100000J0D01*
G01*
X58025000Y-33435000D01*
G75*
G02*
X57925000Y-33335000I0J100000D01*
G01*
X57925000Y-32060000D01*
G75*
G02*
X58025000Y-31960000I100000J0D01*
G01*
G37*
%TD.AperFunction*%
%TO.P,U3,4*%
%TO.N,GND*%
%TA.AperFunction,SMDPad,CuDef*%
G36*
G01*
X57375000Y-31960000D02*
X57575000Y-31960000D01*
G75*
G02*
X57675000Y-32060000I0J-100000D01*
G01*
X57675000Y-33335000D01*
G75*
G02*
X57575000Y-33435000I-100000J0D01*
G01*
X57375000Y-33435000D01*
G75*
G02*
X57275000Y-33335000I0J100000D01*
G01*
X57275000Y-32060000D01*
G75*
G02*
X57375000Y-31960000I100000J0D01*
G01*
G37*
%TD.AperFunction*%
%TO.P,U3,5*%
%TO.N,+3V3*%
%TA.AperFunction,SMDPad,CuDef*%
G36*
G01*
X56725000Y-31960000D02*
X56925000Y-31960000D01*
G75*
G02*
X57025000Y-32060000I0J-100000D01*
G01*
X57025000Y-33335000D01*
G75*
G02*
X56925000Y-33435000I-100000J0D01*
G01*
X56725000Y-33435000D01*
G75*
G02*
X56625000Y-33335000I0J100000D01*
G01*
X56625000Y-32060000D01*
G75*
G02*
X56725000Y-31960000I100000J0D01*
G01*
G37*
%TD.AperFunction*%
%TO.P,U3,6*%
%TO.N,Net-(U3-Pad6)*%
%TA.AperFunction,SMDPad,CuDef*%
G36*
G01*
X56075000Y-31960000D02*
X56275000Y-31960000D01*
G75*
G02*
X56375000Y-32060000I0J-100000D01*
G01*
X56375000Y-33335000D01*
G75*
G02*
X56275000Y-33435000I-100000J0D01*
G01*
X56075000Y-33435000D01*
G75*
G02*
X55975000Y-33335000I0J100000D01*
G01*
X55975000Y-32060000D01*
G75*
G02*
X56075000Y-31960000I100000J0D01*
G01*
G37*
%TD.AperFunction*%
%TO.P,U3,7*%
%TO.N,Net-(R3-Pad2)*%
%TA.AperFunction,SMDPad,CuDef*%
G36*
G01*
X55425000Y-31960000D02*
X55625000Y-31960000D01*
G75*
G02*
X55725000Y-32060000I0J-100000D01*
G01*
X55725000Y-33335000D01*
G75*
G02*
X55625000Y-33435000I-100000J0D01*
G01*
X55425000Y-33435000D01*
G75*
G02*
X55325000Y-33335000I0J100000D01*
G01*
X55325000Y-32060000D01*
G75*
G02*
X55425000Y-31960000I100000J0D01*
G01*
G37*
%TD.AperFunction*%
%TO.P,U3,8*%
%TO.N,GND*%
%TA.AperFunction,SMDPad,CuDef*%
G36*
G01*
X54775000Y-31960000D02*
X54975000Y-31960000D01*
G75*
G02*
X55075000Y-32060000I0J-100000D01*
G01*
X55075000Y-33335000D01*
G75*
G02*
X54975000Y-33435000I-100000J0D01*
G01*
X54775000Y-33435000D01*
G75*
G02*
X54675000Y-33335000I0J100000D01*
G01*
X54675000Y-32060000D01*
G75*
G02*
X54775000Y-31960000I100000J0D01*
G01*
G37*
%TD.AperFunction*%
%TO.P,U3,9*%
%TO.N,Net-(U3-Pad9)*%
%TA.AperFunction,SMDPad,CuDef*%
G36*
G01*
X54775000Y-37685000D02*
X54975000Y-37685000D01*
G75*
G02*
X55075000Y-37785000I0J-100000D01*
G01*
X55075000Y-39060000D01*
G75*
G02*
X54975000Y-39160000I-100000J0D01*
G01*
X54775000Y-39160000D01*
G75*
G02*
X54675000Y-39060000I0J100000D01*
G01*
X54675000Y-37785000D01*
G75*
G02*
X54775000Y-37685000I100000J0D01*
G01*
G37*
%TD.AperFunction*%
%TO.P,U3,10*%
%TO.N,Net-(U3-Pad10)*%
%TA.AperFunction,SMDPad,CuDef*%
G36*
G01*
X55425000Y-37685000D02*
X55625000Y-37685000D01*
G75*
G02*
X55725000Y-37785000I0J-100000D01*
G01*
X55725000Y-39060000D01*
G75*
G02*
X55625000Y-39160000I-100000J0D01*
G01*
X55425000Y-39160000D01*
G75*
G02*
X55325000Y-39060000I0J100000D01*
G01*
X55325000Y-37785000D01*
G75*
G02*
X55425000Y-37685000I100000J0D01*
G01*
G37*
%TD.AperFunction*%
%TO.P,U3,11*%
%TO.N,Net-(U3-Pad11)*%
%TA.AperFunction,SMDPad,CuDef*%
G36*
G01*
X56075000Y-37685000D02*
X56275000Y-37685000D01*
G75*
G02*
X56375000Y-37785000I0J-100000D01*
G01*
X56375000Y-39060000D01*
G75*
G02*
X56275000Y-39160000I-100000J0D01*
G01*
X56075000Y-39160000D01*
G75*
G02*
X55975000Y-39060000I0J100000D01*
G01*
X55975000Y-37785000D01*
G75*
G02*
X56075000Y-37685000I100000J0D01*
G01*
G37*
%TD.AperFunction*%
%TO.P,U3,12*%
%TO.N,/ADC_5*%
%TA.AperFunction,SMDPad,CuDef*%
G36*
G01*
X56725000Y-37685000D02*
X56925000Y-37685000D01*
G75*
G02*
X57025000Y-37785000I0J-100000D01*
G01*
X57025000Y-39060000D01*
G75*
G02*
X56925000Y-39160000I-100000J0D01*
G01*
X56725000Y-39160000D01*
G75*
G02*
X56625000Y-39060000I0J100000D01*
G01*
X56625000Y-37785000D01*
G75*
G02*
X56725000Y-37685000I100000J0D01*
G01*
G37*
%TD.AperFunction*%
%TO.P,U3,13*%
%TO.N,/ADC_4*%
%TA.AperFunction,SMDPad,CuDef*%
G36*
G01*
X57375000Y-37685000D02*
X57575000Y-37685000D01*
G75*
G02*
X57675000Y-37785000I0J-100000D01*
G01*
X57675000Y-39060000D01*
G75*
G02*
X57575000Y-39160000I-100000J0D01*
G01*
X57375000Y-39160000D01*
G75*
G02*
X57275000Y-39060000I0J100000D01*
G01*
X57275000Y-37785000D01*
G75*
G02*
X57375000Y-37685000I100000J0D01*
G01*
G37*
%TD.AperFunction*%
%TO.P,U3,14*%
%TO.N,/ADC_3*%
%TA.AperFunction,SMDPad,CuDef*%
G36*
G01*
X58025000Y-37685000D02*
X58225000Y-37685000D01*
G75*
G02*
X58325000Y-37785000I0J-100000D01*
G01*
X58325000Y-39060000D01*
G75*
G02*
X58225000Y-39160000I-100000J0D01*
G01*
X58025000Y-39160000D01*
G75*
G02*
X57925000Y-39060000I0J100000D01*
G01*
X57925000Y-37785000D01*
G75*
G02*
X58025000Y-37685000I100000J0D01*
G01*
G37*
%TD.AperFunction*%
%TO.P,U3,15*%
%TO.N,/ADC_2*%
%TA.AperFunction,SMDPad,CuDef*%
G36*
G01*
X58675000Y-37685000D02*
X58875000Y-37685000D01*
G75*
G02*
X58975000Y-37785000I0J-100000D01*
G01*
X58975000Y-39060000D01*
G75*
G02*
X58875000Y-39160000I-100000J0D01*
G01*
X58675000Y-39160000D01*
G75*
G02*
X58575000Y-39060000I0J100000D01*
G01*
X58575000Y-37785000D01*
G75*
G02*
X58675000Y-37685000I100000J0D01*
G01*
G37*
%TD.AperFunction*%
%TO.P,U3,16*%
%TO.N,/ADC_1*%
%TA.AperFunction,SMDPad,CuDef*%
G36*
G01*
X59325000Y-37685000D02*
X59525000Y-37685000D01*
G75*
G02*
X59625000Y-37785000I0J-100000D01*
G01*
X59625000Y-39060000D01*
G75*
G02*
X59525000Y-39160000I-100000J0D01*
G01*
X59325000Y-39160000D01*
G75*
G02*
X59225000Y-39060000I0J100000D01*
G01*
X59225000Y-37785000D01*
G75*
G02*
X59325000Y-37685000I100000J0D01*
G01*
G37*
%TD.AperFunction*%
%TD*%
%TO.P,U5,1*%
%TO.N,+12V*%
%TA.AperFunction,SMDPad,CuDef*%
G36*
G01*
X86510000Y-57425000D02*
X86210000Y-57425000D01*
G75*
G02*
X86060000Y-57275000I0J150000D01*
G01*
X86060000Y-55625000D01*
G75*
G02*
X86210000Y-55475000I150000J0D01*
G01*
X86510000Y-55475000D01*
G75*
G02*
X86660000Y-55625000I0J-150000D01*
G01*
X86660000Y-57275000D01*
G75*
G02*
X86510000Y-57425000I-150000J0D01*
G01*
G37*
%TD.AperFunction*%
%TO.P,U5,2*%
%TA.AperFunction,SMDPad,CuDef*%
G36*
G01*
X87780000Y-57425000D02*
X87480000Y-57425000D01*
G75*
G02*
X87330000Y-57275000I0J150000D01*
G01*
X87330000Y-55625000D01*
G75*
G02*
X87480000Y-55475000I150000J0D01*
G01*
X87780000Y-55475000D01*
G75*
G02*
X87930000Y-55625000I0J-150000D01*
G01*
X87930000Y-57275000D01*
G75*
G02*
X87780000Y-57425000I-150000J0D01*
G01*
G37*
%TD.AperFunction*%
%TO.P,U5,3*%
%TO.N,Net-(J3-Pad2)*%
%TA.AperFunction,SMDPad,CuDef*%
G36*
G01*
X89050000Y-57425000D02*
X88750000Y-57425000D01*
G75*
G02*
X88600000Y-57275000I0J150000D01*
G01*
X88600000Y-55625000D01*
G75*
G02*
X88750000Y-55475000I150000J0D01*
G01*
X89050000Y-55475000D01*
G75*
G02*
X89200000Y-55625000I0J-150000D01*
G01*
X89200000Y-57275000D01*
G75*
G02*
X89050000Y-57425000I-150000J0D01*
G01*
G37*
%TD.AperFunction*%
%TO.P,U5,4*%
%TA.AperFunction,SMDPad,CuDef*%
G36*
G01*
X90320000Y-57425000D02*
X90020000Y-57425000D01*
G75*
G02*
X89870000Y-57275000I0J150000D01*
G01*
X89870000Y-55625000D01*
G75*
G02*
X90020000Y-55475000I150000J0D01*
G01*
X90320000Y-55475000D01*
G75*
G02*
X90470000Y-55625000I0J-150000D01*
G01*
X90470000Y-57275000D01*
G75*
G02*
X90320000Y-57425000I-150000J0D01*
G01*
G37*
%TD.AperFunction*%
%TO.P,U5,5*%
%TO.N,GND*%
%TA.AperFunction,SMDPad,CuDef*%
G36*
G01*
X90320000Y-52475000D02*
X90020000Y-52475000D01*
G75*
G02*
X89870000Y-52325000I0J150000D01*
G01*
X89870000Y-50675000D01*
G75*
G02*
X90020000Y-50525000I150000J0D01*
G01*
X90320000Y-50525000D01*
G75*
G02*
X90470000Y-50675000I0J-150000D01*
G01*
X90470000Y-52325000D01*
G75*
G02*
X90320000Y-52475000I-150000J0D01*
G01*
G37*
%TD.AperFunction*%
%TO.P,U5,6*%
%TA.AperFunction,SMDPad,CuDef*%
G36*
G01*
X89050000Y-52475000D02*
X88750000Y-52475000D01*
G75*
G02*
X88600000Y-52325000I0J150000D01*
G01*
X88600000Y-50675000D01*
G75*
G02*
X88750000Y-50525000I150000J0D01*
G01*
X89050000Y-50525000D01*
G75*
G02*
X89200000Y-50675000I0J-150000D01*
G01*
X89200000Y-52325000D01*
G75*
G02*
X89050000Y-52475000I-150000J0D01*
G01*
G37*
%TD.AperFunction*%
%TO.P,U5,7*%
%TO.N,/ADC_1*%
%TA.AperFunction,SMDPad,CuDef*%
G36*
G01*
X87780000Y-52475000D02*
X87480000Y-52475000D01*
G75*
G02*
X87330000Y-52325000I0J150000D01*
G01*
X87330000Y-50675000D01*
G75*
G02*
X87480000Y-50525000I150000J0D01*
G01*
X87780000Y-50525000D01*
G75*
G02*
X87930000Y-50675000I0J-150000D01*
G01*
X87930000Y-52325000D01*
G75*
G02*
X87780000Y-52475000I-150000J0D01*
G01*
G37*
%TD.AperFunction*%
%TO.P,U5,8*%
%TO.N,+3V3*%
%TA.AperFunction,SMDPad,CuDef*%
G36*
G01*
X86510000Y-52475000D02*
X86210000Y-52475000D01*
G75*
G02*
X86060000Y-52325000I0J150000D01*
G01*
X86060000Y-50675000D01*
G75*
G02*
X86210000Y-50525000I150000J0D01*
G01*
X86510000Y-50525000D01*
G75*
G02*
X86660000Y-50675000I0J-150000D01*
G01*
X86660000Y-52325000D01*
G75*
G02*
X86510000Y-52475000I-150000J0D01*
G01*
G37*
%TD.AperFunction*%
%TD*%
%TO.P,U6,1*%
%TO.N,+12V*%
%TA.AperFunction,SMDPad,CuDef*%
G36*
G01*
X25550000Y-57425000D02*
X25250000Y-57425000D01*
G75*
G02*
X25100000Y-57275000I0J150000D01*
G01*
X25100000Y-55625000D01*
G75*
G02*
X25250000Y-55475000I150000J0D01*
G01*
X25550000Y-55475000D01*
G75*
G02*
X25700000Y-55625000I0J-150000D01*
G01*
X25700000Y-57275000D01*
G75*
G02*
X25550000Y-57425000I-150000J0D01*
G01*
G37*
%TD.AperFunction*%
%TO.P,U6,2*%
%TA.AperFunction,SMDPad,CuDef*%
G36*
G01*
X26820000Y-57425000D02*
X26520000Y-57425000D01*
G75*
G02*
X26370000Y-57275000I0J150000D01*
G01*
X26370000Y-55625000D01*
G75*
G02*
X26520000Y-55475000I150000J0D01*
G01*
X26820000Y-55475000D01*
G75*
G02*
X26970000Y-55625000I0J-150000D01*
G01*
X26970000Y-57275000D01*
G75*
G02*
X26820000Y-57425000I-150000J0D01*
G01*
G37*
%TD.AperFunction*%
%TO.P,U6,3*%
%TO.N,Net-(J4-Pad2)*%
%TA.AperFunction,SMDPad,CuDef*%
G36*
G01*
X28090000Y-57425000D02*
X27790000Y-57425000D01*
G75*
G02*
X27640000Y-57275000I0J150000D01*
G01*
X27640000Y-55625000D01*
G75*
G02*
X27790000Y-55475000I150000J0D01*
G01*
X28090000Y-55475000D01*
G75*
G02*
X28240000Y-55625000I0J-150000D01*
G01*
X28240000Y-57275000D01*
G75*
G02*
X28090000Y-57425000I-150000J0D01*
G01*
G37*
%TD.AperFunction*%
%TO.P,U6,4*%
%TA.AperFunction,SMDPad,CuDef*%
G36*
G01*
X29360000Y-57425000D02*
X29060000Y-57425000D01*
G75*
G02*
X28910000Y-57275000I0J150000D01*
G01*
X28910000Y-55625000D01*
G75*
G02*
X29060000Y-55475000I150000J0D01*
G01*
X29360000Y-55475000D01*
G75*
G02*
X29510000Y-55625000I0J-150000D01*
G01*
X29510000Y-57275000D01*
G75*
G02*
X29360000Y-57425000I-150000J0D01*
G01*
G37*
%TD.AperFunction*%
%TO.P,U6,5*%
%TO.N,GND*%
%TA.AperFunction,SMDPad,CuDef*%
G36*
G01*
X29360000Y-52475000D02*
X29060000Y-52475000D01*
G75*
G02*
X28910000Y-52325000I0J150000D01*
G01*
X28910000Y-50675000D01*
G75*
G02*
X29060000Y-50525000I150000J0D01*
G01*
X29360000Y-50525000D01*
G75*
G02*
X29510000Y-50675000I0J-150000D01*
G01*
X29510000Y-52325000D01*
G75*
G02*
X29360000Y-52475000I-150000J0D01*
G01*
G37*
%TD.AperFunction*%
%TO.P,U6,6*%
%TA.AperFunction,SMDPad,CuDef*%
G36*
G01*
X28090000Y-52475000D02*
X27790000Y-52475000D01*
G75*
G02*
X27640000Y-52325000I0J150000D01*
G01*
X27640000Y-50675000D01*
G75*
G02*
X27790000Y-50525000I150000J0D01*
G01*
X28090000Y-50525000D01*
G75*
G02*
X28240000Y-50675000I0J-150000D01*
G01*
X28240000Y-52325000D01*
G75*
G02*
X28090000Y-52475000I-150000J0D01*
G01*
G37*
%TD.AperFunction*%
%TO.P,U6,7*%
%TO.N,/ADC_5*%
%TA.AperFunction,SMDPad,CuDef*%
G36*
G01*
X26820000Y-52475000D02*
X26520000Y-52475000D01*
G75*
G02*
X26370000Y-52325000I0J150000D01*
G01*
X26370000Y-50675000D01*
G75*
G02*
X26520000Y-50525000I150000J0D01*
G01*
X26820000Y-50525000D01*
G75*
G02*
X26970000Y-50675000I0J-150000D01*
G01*
X26970000Y-52325000D01*
G75*
G02*
X26820000Y-52475000I-150000J0D01*
G01*
G37*
%TD.AperFunction*%
%TO.P,U6,8*%
%TO.N,+3V3*%
%TA.AperFunction,SMDPad,CuDef*%
G36*
G01*
X25550000Y-52475000D02*
X25250000Y-52475000D01*
G75*
G02*
X25100000Y-52325000I0J150000D01*
G01*
X25100000Y-50675000D01*
G75*
G02*
X25250000Y-50525000I150000J0D01*
G01*
X25550000Y-50525000D01*
G75*
G02*
X25700000Y-50675000I0J-150000D01*
G01*
X25700000Y-52325000D01*
G75*
G02*
X25550000Y-52475000I-150000J0D01*
G01*
G37*
%TD.AperFunction*%
%TD*%
%TO.P,U7,8*%
%TO.N,+3V3*%
%TA.AperFunction,SMDPad,CuDef*%
G36*
G01*
X71270000Y-52475000D02*
X70970000Y-52475000D01*
G75*
G02*
X70820000Y-52325000I0J150000D01*
G01*
X70820000Y-50675000D01*
G75*
G02*
X70970000Y-50525000I150000J0D01*
G01*
X71270000Y-50525000D01*
G75*
G02*
X71420000Y-50675000I0J-150000D01*
G01*
X71420000Y-52325000D01*
G75*
G02*
X71270000Y-52475000I-150000J0D01*
G01*
G37*
%TD.AperFunction*%
%TO.P,U7,7*%
%TO.N,/ADC_2*%
%TA.AperFunction,SMDPad,CuDef*%
G36*
G01*
X72540000Y-52475000D02*
X72240000Y-52475000D01*
G75*
G02*
X72090000Y-52325000I0J150000D01*
G01*
X72090000Y-50675000D01*
G75*
G02*
X72240000Y-50525000I150000J0D01*
G01*
X72540000Y-50525000D01*
G75*
G02*
X72690000Y-50675000I0J-150000D01*
G01*
X72690000Y-52325000D01*
G75*
G02*
X72540000Y-52475000I-150000J0D01*
G01*
G37*
%TD.AperFunction*%
%TO.P,U7,6*%
%TO.N,GND*%
%TA.AperFunction,SMDPad,CuDef*%
G36*
G01*
X73810000Y-52475000D02*
X73510000Y-52475000D01*
G75*
G02*
X73360000Y-52325000I0J150000D01*
G01*
X73360000Y-50675000D01*
G75*
G02*
X73510000Y-50525000I150000J0D01*
G01*
X73810000Y-50525000D01*
G75*
G02*
X73960000Y-50675000I0J-150000D01*
G01*
X73960000Y-52325000D01*
G75*
G02*
X73810000Y-52475000I-150000J0D01*
G01*
G37*
%TD.AperFunction*%
%TO.P,U7,5*%
%TA.AperFunction,SMDPad,CuDef*%
G36*
G01*
X75080000Y-52475000D02*
X74780000Y-52475000D01*
G75*
G02*
X74630000Y-52325000I0J150000D01*
G01*
X74630000Y-50675000D01*
G75*
G02*
X74780000Y-50525000I150000J0D01*
G01*
X75080000Y-50525000D01*
G75*
G02*
X75230000Y-50675000I0J-150000D01*
G01*
X75230000Y-52325000D01*
G75*
G02*
X75080000Y-52475000I-150000J0D01*
G01*
G37*
%TD.AperFunction*%
%TO.P,U7,4*%
%TO.N,Net-(J5-Pad2)*%
%TA.AperFunction,SMDPad,CuDef*%
G36*
G01*
X75080000Y-57425000D02*
X74780000Y-57425000D01*
G75*
G02*
X74630000Y-57275000I0J150000D01*
G01*
X74630000Y-55625000D01*
G75*
G02*
X74780000Y-55475000I150000J0D01*
G01*
X75080000Y-55475000D01*
G75*
G02*
X75230000Y-55625000I0J-150000D01*
G01*
X75230000Y-57275000D01*
G75*
G02*
X75080000Y-57425000I-150000J0D01*
G01*
G37*
%TD.AperFunction*%
%TO.P,U7,3*%
%TA.AperFunction,SMDPad,CuDef*%
G36*
G01*
X73810000Y-57425000D02*
X73510000Y-57425000D01*
G75*
G02*
X73360000Y-57275000I0J150000D01*
G01*
X73360000Y-55625000D01*
G75*
G02*
X73510000Y-55475000I150000J0D01*
G01*
X73810000Y-55475000D01*
G75*
G02*
X73960000Y-55625000I0J-150000D01*
G01*
X73960000Y-57275000D01*
G75*
G02*
X73810000Y-57425000I-150000J0D01*
G01*
G37*
%TD.AperFunction*%
%TO.P,U7,2*%
%TO.N,+12V*%
%TA.AperFunction,SMDPad,CuDef*%
G36*
G01*
X72540000Y-57425000D02*
X72240000Y-57425000D01*
G75*
G02*
X72090000Y-57275000I0J150000D01*
G01*
X72090000Y-55625000D01*
G75*
G02*
X72240000Y-55475000I150000J0D01*
G01*
X72540000Y-55475000D01*
G75*
G02*
X72690000Y-55625000I0J-150000D01*
G01*
X72690000Y-57275000D01*
G75*
G02*
X72540000Y-57425000I-150000J0D01*
G01*
G37*
%TD.AperFunction*%
%TO.P,U7,1*%
%TA.AperFunction,SMDPad,CuDef*%
G36*
G01*
X71270000Y-57425000D02*
X70970000Y-57425000D01*
G75*
G02*
X70820000Y-57275000I0J150000D01*
G01*
X70820000Y-55625000D01*
G75*
G02*
X70970000Y-55475000I150000J0D01*
G01*
X71270000Y-55475000D01*
G75*
G02*
X71420000Y-55625000I0J-150000D01*
G01*
X71420000Y-57275000D01*
G75*
G02*
X71270000Y-57425000I-150000J0D01*
G01*
G37*
%TD.AperFunction*%
%TD*%
%TO.P,U8,1*%
%TO.N,+12V*%
%TA.AperFunction,SMDPad,CuDef*%
G36*
G01*
X56030000Y-57425000D02*
X55730000Y-57425000D01*
G75*
G02*
X55580000Y-57275000I0J150000D01*
G01*
X55580000Y-55625000D01*
G75*
G02*
X55730000Y-55475000I150000J0D01*
G01*
X56030000Y-55475000D01*
G75*
G02*
X56180000Y-55625000I0J-150000D01*
G01*
X56180000Y-57275000D01*
G75*
G02*
X56030000Y-57425000I-150000J0D01*
G01*
G37*
%TD.AperFunction*%
%TO.P,U8,2*%
%TA.AperFunction,SMDPad,CuDef*%
G36*
G01*
X57300000Y-57425000D02*
X57000000Y-57425000D01*
G75*
G02*
X56850000Y-57275000I0J150000D01*
G01*
X56850000Y-55625000D01*
G75*
G02*
X57000000Y-55475000I150000J0D01*
G01*
X57300000Y-55475000D01*
G75*
G02*
X57450000Y-55625000I0J-150000D01*
G01*
X57450000Y-57275000D01*
G75*
G02*
X57300000Y-57425000I-150000J0D01*
G01*
G37*
%TD.AperFunction*%
%TO.P,U8,3*%
%TO.N,Net-(J6-Pad2)*%
%TA.AperFunction,SMDPad,CuDef*%
G36*
G01*
X58570000Y-57425000D02*
X58270000Y-57425000D01*
G75*
G02*
X58120000Y-57275000I0J150000D01*
G01*
X58120000Y-55625000D01*
G75*
G02*
X58270000Y-55475000I150000J0D01*
G01*
X58570000Y-55475000D01*
G75*
G02*
X58720000Y-55625000I0J-150000D01*
G01*
X58720000Y-57275000D01*
G75*
G02*
X58570000Y-57425000I-150000J0D01*
G01*
G37*
%TD.AperFunction*%
%TO.P,U8,4*%
%TA.AperFunction,SMDPad,CuDef*%
G36*
G01*
X59840000Y-57425000D02*
X59540000Y-57425000D01*
G75*
G02*
X59390000Y-57275000I0J150000D01*
G01*
X59390000Y-55625000D01*
G75*
G02*
X59540000Y-55475000I150000J0D01*
G01*
X59840000Y-55475000D01*
G75*
G02*
X59990000Y-55625000I0J-150000D01*
G01*
X59990000Y-57275000D01*
G75*
G02*
X59840000Y-57425000I-150000J0D01*
G01*
G37*
%TD.AperFunction*%
%TO.P,U8,5*%
%TO.N,GND*%
%TA.AperFunction,SMDPad,CuDef*%
G36*
G01*
X59840000Y-52475000D02*
X59540000Y-52475000D01*
G75*
G02*
X59390000Y-52325000I0J150000D01*
G01*
X59390000Y-50675000D01*
G75*
G02*
X59540000Y-50525000I150000J0D01*
G01*
X59840000Y-50525000D01*
G75*
G02*
X59990000Y-50675000I0J-150000D01*
G01*
X59990000Y-52325000D01*
G75*
G02*
X59840000Y-52475000I-150000J0D01*
G01*
G37*
%TD.AperFunction*%
%TO.P,U8,6*%
%TA.AperFunction,SMDPad,CuDef*%
G36*
G01*
X58570000Y-52475000D02*
X58270000Y-52475000D01*
G75*
G02*
X58120000Y-52325000I0J150000D01*
G01*
X58120000Y-50675000D01*
G75*
G02*
X58270000Y-50525000I150000J0D01*
G01*
X58570000Y-50525000D01*
G75*
G02*
X58720000Y-50675000I0J-150000D01*
G01*
X58720000Y-52325000D01*
G75*
G02*
X58570000Y-52475000I-150000J0D01*
G01*
G37*
%TD.AperFunction*%
%TO.P,U8,7*%
%TO.N,/ADC_3*%
%TA.AperFunction,SMDPad,CuDef*%
G36*
G01*
X57300000Y-52475000D02*
X57000000Y-52475000D01*
G75*
G02*
X56850000Y-52325000I0J150000D01*
G01*
X56850000Y-50675000D01*
G75*
G02*
X57000000Y-50525000I150000J0D01*
G01*
X57300000Y-50525000D01*
G75*
G02*
X57450000Y-50675000I0J-150000D01*
G01*
X57450000Y-52325000D01*
G75*
G02*
X57300000Y-52475000I-150000J0D01*
G01*
G37*
%TD.AperFunction*%
%TO.P,U8,8*%
%TO.N,+3V3*%
%TA.AperFunction,SMDPad,CuDef*%
G36*
G01*
X56030000Y-52475000D02*
X55730000Y-52475000D01*
G75*
G02*
X55580000Y-52325000I0J150000D01*
G01*
X55580000Y-50675000D01*
G75*
G02*
X55730000Y-50525000I150000J0D01*
G01*
X56030000Y-50525000D01*
G75*
G02*
X56180000Y-50675000I0J-150000D01*
G01*
X56180000Y-52325000D01*
G75*
G02*
X56030000Y-52475000I-150000J0D01*
G01*
G37*
%TD.AperFunction*%
%TD*%
%TO.P,U9,8*%
%TO.N,+3V3*%
%TA.AperFunction,SMDPad,CuDef*%
G36*
G01*
X40790000Y-52475000D02*
X40490000Y-52475000D01*
G75*
G02*
X40340000Y-52325000I0J150000D01*
G01*
X40340000Y-50675000D01*
G75*
G02*
X40490000Y-50525000I150000J0D01*
G01*
X40790000Y-50525000D01*
G75*
G02*
X40940000Y-50675000I0J-150000D01*
G01*
X40940000Y-52325000D01*
G75*
G02*
X40790000Y-52475000I-150000J0D01*
G01*
G37*
%TD.AperFunction*%
%TO.P,U9,7*%
%TO.N,/ADC_4*%
%TA.AperFunction,SMDPad,CuDef*%
G36*
G01*
X42060000Y-52475000D02*
X41760000Y-52475000D01*
G75*
G02*
X41610000Y-52325000I0J150000D01*
G01*
X41610000Y-50675000D01*
G75*
G02*
X41760000Y-50525000I150000J0D01*
G01*
X42060000Y-50525000D01*
G75*
G02*
X42210000Y-50675000I0J-150000D01*
G01*
X42210000Y-52325000D01*
G75*
G02*
X42060000Y-52475000I-150000J0D01*
G01*
G37*
%TD.AperFunction*%
%TO.P,U9,6*%
%TO.N,GND*%
%TA.AperFunction,SMDPad,CuDef*%
G36*
G01*
X43330000Y-52475000D02*
X43030000Y-52475000D01*
G75*
G02*
X42880000Y-52325000I0J150000D01*
G01*
X42880000Y-50675000D01*
G75*
G02*
X43030000Y-50525000I150000J0D01*
G01*
X43330000Y-50525000D01*
G75*
G02*
X43480000Y-50675000I0J-150000D01*
G01*
X43480000Y-52325000D01*
G75*
G02*
X43330000Y-52475000I-150000J0D01*
G01*
G37*
%TD.AperFunction*%
%TO.P,U9,5*%
%TA.AperFunction,SMDPad,CuDef*%
G36*
G01*
X44600000Y-52475000D02*
X44300000Y-52475000D01*
G75*
G02*
X44150000Y-52325000I0J150000D01*
G01*
X44150000Y-50675000D01*
G75*
G02*
X44300000Y-50525000I150000J0D01*
G01*
X44600000Y-50525000D01*
G75*
G02*
X44750000Y-50675000I0J-150000D01*
G01*
X44750000Y-52325000D01*
G75*
G02*
X44600000Y-52475000I-150000J0D01*
G01*
G37*
%TD.AperFunction*%
%TO.P,U9,4*%
%TO.N,Net-(J7-Pad2)*%
%TA.AperFunction,SMDPad,CuDef*%
G36*
G01*
X44600000Y-57425000D02*
X44300000Y-57425000D01*
G75*
G02*
X44150000Y-57275000I0J150000D01*
G01*
X44150000Y-55625000D01*
G75*
G02*
X44300000Y-55475000I150000J0D01*
G01*
X44600000Y-55475000D01*
G75*
G02*
X44750000Y-55625000I0J-150000D01*
G01*
X44750000Y-57275000D01*
G75*
G02*
X44600000Y-57425000I-150000J0D01*
G01*
G37*
%TD.AperFunction*%
%TO.P,U9,3*%
%TA.AperFunction,SMDPad,CuDef*%
G36*
G01*
X43330000Y-57425000D02*
X43030000Y-57425000D01*
G75*
G02*
X42880000Y-57275000I0J150000D01*
G01*
X42880000Y-55625000D01*
G75*
G02*
X43030000Y-55475000I150000J0D01*
G01*
X43330000Y-55475000D01*
G75*
G02*
X43480000Y-55625000I0J-150000D01*
G01*
X43480000Y-57275000D01*
G75*
G02*
X43330000Y-57425000I-150000J0D01*
G01*
G37*
%TD.AperFunction*%
%TO.P,U9,2*%
%TO.N,+12V*%
%TA.AperFunction,SMDPad,CuDef*%
G36*
G01*
X42060000Y-57425000D02*
X41760000Y-57425000D01*
G75*
G02*
X41610000Y-57275000I0J150000D01*
G01*
X41610000Y-55625000D01*
G75*
G02*
X41760000Y-55475000I150000J0D01*
G01*
X42060000Y-55475000D01*
G75*
G02*
X42210000Y-55625000I0J-150000D01*
G01*
X42210000Y-57275000D01*
G75*
G02*
X42060000Y-57425000I-150000J0D01*
G01*
G37*
%TD.AperFunction*%
%TO.P,U9,1*%
%TA.AperFunction,SMDPad,CuDef*%
G36*
G01*
X40790000Y-57425000D02*
X40490000Y-57425000D01*
G75*
G02*
X40340000Y-57275000I0J150000D01*
G01*
X40340000Y-55625000D01*
G75*
G02*
X40490000Y-55475000I150000J0D01*
G01*
X40790000Y-55475000D01*
G75*
G02*
X40940000Y-55625000I0J-150000D01*
G01*
X40940000Y-57275000D01*
G75*
G02*
X40790000Y-57425000I-150000J0D01*
G01*
G37*
%TD.AperFunction*%
%TD*%
D23*
%TO.N,+3V3*%
X27940000Y-53340000D03*
X85090000Y-53340000D03*
X71120000Y-53340000D03*
X55880000Y-53340000D03*
X40640000Y-53340000D03*
X85175000Y-34290000D03*
X81280000Y-34290000D03*
X48015000Y-36830000D03*
X50800000Y-36830000D03*
X50465000Y-31455000D03*
D24*
%TO.N,GND*%
X91440000Y-58420000D03*
X30480000Y-36830000D03*
X78740000Y-58420000D03*
X63500000Y-58420000D03*
X48260000Y-58420000D03*
X33020000Y-58420000D03*
X90170000Y-22860000D03*
D23*
X73660000Y-33020000D03*
D24*
X17780000Y-55880000D03*
D23*
X88900000Y-53340000D03*
X59690000Y-34290000D03*
X69850000Y-33020000D03*
X53017500Y-32697500D03*
X86360000Y-33020000D03*
X96312000Y-32598000D03*
X96312000Y-42758000D03*
X96312000Y-52664000D03*
%TO.N,/EXT_SDA*%
X77470000Y-33020000D03*
X59690000Y-29210000D03*
X29210000Y-29210000D03*
%TO.N,/EXT_SCL*%
X58420000Y-30480000D03*
X77470000Y-34630000D03*
D24*
%TO.N,+12V*%
X25400000Y-60960000D03*
X40640000Y-60960000D03*
X55880000Y-60960000D03*
X71120000Y-60960000D03*
X86360000Y-60960000D03*
X17780000Y-60960000D03*
D23*
%TO.N,/POMPE_1*%
X73660000Y-35560000D03*
X81280000Y-49530000D03*
%TO.N,/POMPE_5*%
X68580000Y-40640000D03*
X22860000Y-49530000D03*
%TO.N,/POMPE_2*%
X72390000Y-35560000D03*
X68580000Y-49530000D03*
%TO.N,/POMPE_3*%
X71120000Y-34290000D03*
X53340000Y-49530000D03*
%TO.N,/POMPE_4*%
X69850000Y-39370000D03*
X38100000Y-49530000D03*
%TD*%
D25*
%TO.N,+3V3*%
X39597500Y-50457500D02*
X40640000Y-51500000D01*
X39597500Y-46355000D02*
X39597500Y-50457500D01*
X54837500Y-50457500D02*
X55880000Y-51500000D01*
X54837500Y-46355000D02*
X54837500Y-50457500D01*
X69670000Y-50050000D02*
X71120000Y-51500000D01*
X69670000Y-46355000D02*
X69670000Y-50050000D01*
X85317500Y-50457500D02*
X86360000Y-51500000D01*
X85317500Y-46355000D02*
X85317500Y-50457500D01*
X24357500Y-50457500D02*
X25400000Y-51500000D01*
X24357500Y-46355000D02*
X24357500Y-50457500D01*
D26*
X79527510Y-36830000D02*
X79205010Y-37152500D01*
D25*
X46990000Y-40005000D02*
X46990000Y-38100000D01*
D27*
X56825000Y-34615000D02*
X56825000Y-32697500D01*
X54610000Y-36830000D02*
X56825000Y-34615000D01*
D25*
X31582500Y-39130000D02*
X33680000Y-39130000D01*
X24357500Y-46355000D02*
X31582500Y-39130000D01*
X26265000Y-53340000D02*
X27940000Y-53340000D01*
X25400000Y-52475000D02*
X26265000Y-53340000D01*
X25400000Y-51500000D02*
X25400000Y-52475000D01*
X85090000Y-53340000D02*
X86360000Y-52070000D01*
X86360000Y-52070000D02*
X86360000Y-51500000D01*
X71120000Y-51500000D02*
X71120000Y-53340000D01*
X55880000Y-51500000D02*
X55880000Y-53340000D01*
D26*
X40640000Y-51500000D02*
X40640000Y-53340000D01*
D27*
X77855000Y-31427500D02*
X78505000Y-31427500D01*
X81280000Y-35981458D02*
X81280000Y-36830000D01*
X78505000Y-31427500D02*
X78505000Y-33206458D01*
D26*
X81280000Y-36830000D02*
X79527510Y-36830000D01*
X82550000Y-36830000D02*
X81280000Y-36830000D01*
D27*
X86445000Y-35560000D02*
X85175000Y-34290000D01*
X86717500Y-35560000D02*
X86445000Y-35560000D01*
X80010000Y-34290000D02*
X79799271Y-34500729D01*
X81280000Y-34290000D02*
X80010000Y-34290000D01*
X79799271Y-34500729D02*
X81280000Y-35981458D01*
X78505000Y-33206458D02*
X79799271Y-34500729D01*
D25*
X34555000Y-40005000D02*
X46990000Y-40005000D01*
X33680000Y-39130000D02*
X34555000Y-40005000D01*
X46990000Y-37855000D02*
X48015000Y-36830000D01*
D26*
X46990000Y-38100000D02*
X46990000Y-37855000D01*
D27*
X50800000Y-36830000D02*
X54610000Y-36830000D01*
D25*
X50165000Y-31115000D02*
X48715000Y-31115000D01*
X50165000Y-31155000D02*
X50465000Y-31455000D01*
X50165000Y-31115000D02*
X50165000Y-31155000D01*
D26*
%TO.N,GND*%
X91672500Y-19962500D02*
X91710000Y-20000000D01*
D25*
X88265000Y-19962500D02*
X91672500Y-19962500D01*
D26*
X98022500Y-31392500D02*
X98060000Y-31430000D01*
X98022500Y-41552500D02*
X98060000Y-41590000D01*
X98022500Y-61872500D02*
X98060000Y-61910000D01*
D25*
X94615000Y-61872500D02*
X98022500Y-61872500D01*
D26*
X50522500Y-55477500D02*
X50485000Y-55515000D01*
D25*
X50522500Y-51435000D02*
X50522500Y-55477500D01*
X58420000Y-51500000D02*
X59120000Y-51500000D01*
X59120000Y-51500000D02*
X59690000Y-51500000D01*
X27940000Y-51500000D02*
X29210000Y-51500000D01*
X88900000Y-51500000D02*
X90170000Y-51500000D01*
D26*
X90170000Y-46582500D02*
X90397500Y-46355000D01*
D25*
X90170000Y-51500000D02*
X90170000Y-46582500D01*
D26*
X74930000Y-46582500D02*
X75157500Y-46355000D01*
D25*
X74930000Y-51500000D02*
X74930000Y-46582500D01*
X73660000Y-51500000D02*
X74930000Y-51500000D01*
D26*
X80965000Y-51472500D02*
X81002500Y-51435000D01*
D25*
X80965000Y-55515000D02*
X80965000Y-51472500D01*
D26*
X35282500Y-55477500D02*
X35245000Y-55515000D01*
D25*
X35282500Y-51435000D02*
X35282500Y-55477500D01*
D26*
X44450000Y-46582500D02*
X44677500Y-46355000D01*
X29210000Y-46582500D02*
X29437500Y-46355000D01*
D25*
X29210000Y-51500000D02*
X29210000Y-46582500D01*
D26*
X20042500Y-55477500D02*
X20005000Y-55515000D01*
D25*
X20042500Y-51435000D02*
X20042500Y-55477500D01*
D26*
X65762500Y-55477500D02*
X65725000Y-55515000D01*
D25*
X65762500Y-51435000D02*
X65762500Y-55477500D01*
D26*
X84275000Y-32922500D02*
X84275000Y-36830000D01*
D25*
X33680000Y-36830000D02*
X39980000Y-36830000D01*
D27*
X75905000Y-37152500D02*
X76555000Y-37152500D01*
X76555000Y-37152500D02*
X77205000Y-37152500D01*
X76555000Y-31427500D02*
X77205000Y-31427500D01*
D25*
X96162500Y-31392500D02*
X98022500Y-31392500D01*
X94615000Y-31392500D02*
X96162500Y-31392500D01*
X94615000Y-41552500D02*
X96162500Y-41552500D01*
X96162500Y-41552500D02*
X98022500Y-41552500D01*
X91440000Y-59172500D02*
X91440000Y-58420000D01*
X94140000Y-61872500D02*
X91440000Y-59172500D01*
X94615000Y-61872500D02*
X94140000Y-61872500D01*
X20042500Y-48945000D02*
X20042500Y-51435000D01*
X22632500Y-46355000D02*
X20042500Y-48945000D01*
X30480000Y-36830000D02*
X33680000Y-36830000D01*
X45085000Y-36830000D02*
X46990000Y-34925000D01*
X39980000Y-36830000D02*
X45085000Y-36830000D01*
X47312500Y-32697500D02*
X46990000Y-33020000D01*
X46990000Y-33020000D02*
X46990000Y-34925000D01*
X46990000Y-31115000D02*
X46990000Y-33020000D01*
D27*
X35217500Y-51500000D02*
X35282500Y-51435000D01*
D25*
X29210000Y-51500000D02*
X35217500Y-51500000D01*
X35282500Y-48945000D02*
X35282500Y-51435000D01*
X37872500Y-46355000D02*
X35282500Y-48945000D01*
X50522500Y-48945000D02*
X50522500Y-51435000D01*
X53112500Y-46355000D02*
X50522500Y-48945000D01*
D27*
X59690000Y-46582500D02*
X59917500Y-46355000D01*
D25*
X59690000Y-51500000D02*
X59690000Y-46582500D01*
X65762500Y-48537500D02*
X65762500Y-51435000D01*
X67945000Y-46355000D02*
X65762500Y-48537500D01*
D27*
X80937500Y-51500000D02*
X81002500Y-51435000D01*
D25*
X88900000Y-51500000D02*
X88900000Y-52157166D01*
X80965000Y-56195000D02*
X78740000Y-58420000D01*
X80965000Y-55515000D02*
X80965000Y-56195000D01*
X65725000Y-56195000D02*
X63500000Y-58420000D01*
X65725000Y-55515000D02*
X65725000Y-56195000D01*
X50485000Y-55515000D02*
X50485000Y-56195000D01*
X50485000Y-56195000D02*
X48260000Y-58420000D01*
D27*
X59755000Y-51435000D02*
X59690000Y-51500000D01*
D25*
X65762500Y-51435000D02*
X59755000Y-51435000D01*
X35245000Y-56195000D02*
X33020000Y-58420000D01*
X35245000Y-55515000D02*
X35245000Y-56195000D01*
D27*
X54875000Y-32697500D02*
X53017500Y-32697500D01*
D25*
X53017500Y-32697500D02*
X47312500Y-32697500D01*
D28*
X90170000Y-22860000D02*
X90170000Y-20320000D01*
D27*
X74575000Y-33935000D02*
X73660000Y-33020000D01*
X76555000Y-33935000D02*
X74575000Y-33935000D01*
X76555000Y-37152500D02*
X76555000Y-33935000D01*
X76555000Y-33935000D02*
X76555000Y-31427500D01*
D26*
X86717500Y-30480000D02*
X85268750Y-31928750D01*
X85268750Y-31928750D02*
X84275000Y-32922500D01*
D25*
X19640000Y-55880000D02*
X20005000Y-55515000D01*
X17780000Y-55880000D02*
X19640000Y-55880000D01*
X88900000Y-51500000D02*
X88900000Y-53340000D01*
X44450000Y-49530000D02*
X44450000Y-46582500D01*
X43245000Y-51435000D02*
X43180000Y-51500000D01*
X50522500Y-51435000D02*
X43245000Y-51435000D01*
X44450000Y-51500000D02*
X44450000Y-49530000D01*
D27*
X57475000Y-33492124D02*
X57475000Y-32697500D01*
X57817886Y-34290000D02*
X57475000Y-33492124D01*
X59690000Y-34290000D02*
X57817886Y-34290000D01*
X70705000Y-32165000D02*
X69850000Y-33020000D01*
X70705000Y-31427500D02*
X70705000Y-32165000D01*
D26*
X84372500Y-33020000D02*
X84275000Y-32922500D01*
X86360000Y-33020000D02*
X84372500Y-33020000D01*
D25*
X79675000Y-51140000D02*
X79315000Y-51500000D01*
X79675000Y-48600000D02*
X79675000Y-51140000D01*
X83055000Y-46355000D02*
X79675000Y-48600000D01*
X83592500Y-46355000D02*
X83055000Y-46355000D01*
X79315000Y-51500000D02*
X80937500Y-51500000D01*
X74930000Y-51500000D02*
X79315000Y-51500000D01*
X96162500Y-32448500D02*
X96312000Y-32598000D01*
X96162500Y-31392500D02*
X96162500Y-32448500D01*
X96162500Y-42608500D02*
X96312000Y-42758000D01*
X96162500Y-41552500D02*
X96162500Y-42608500D01*
X98022500Y-51712500D02*
X98060000Y-51750000D01*
X96122500Y-52474500D02*
X96312000Y-52664000D01*
X96122500Y-51712500D02*
X96122500Y-52474500D01*
X94615000Y-51712500D02*
X96122500Y-51712500D01*
X96122500Y-51712500D02*
X98022500Y-51712500D01*
%TO.N,/ADC_1*%
X87630000Y-47397500D02*
X88672500Y-46355000D01*
X87630000Y-51500000D02*
X87630000Y-47397500D01*
D27*
X59425000Y-38422500D02*
X59425000Y-40375000D01*
X59425000Y-40375000D02*
X60960000Y-41910000D01*
X60960000Y-41910000D02*
X76200000Y-41910000D01*
X76200000Y-41910000D02*
X78740000Y-44450000D01*
X86767500Y-44450000D02*
X88672500Y-46355000D01*
X78740000Y-44450000D02*
X86767500Y-44450000D01*
D25*
%TO.N,/ADC_5*%
X26670000Y-47397500D02*
X27712500Y-46355000D01*
X26670000Y-51500000D02*
X26670000Y-47397500D01*
D27*
X30866000Y-41910000D02*
X27712500Y-45063500D01*
X54132124Y-41910000D02*
X30866000Y-41910000D01*
X56825000Y-39217124D02*
X54132124Y-41910000D01*
X27712500Y-45063500D02*
X27712500Y-46355000D01*
X56825000Y-38422500D02*
X56825000Y-39217124D01*
D25*
%TO.N,/ADC_2*%
X72390000Y-47397500D02*
X73432500Y-46355000D01*
X72390000Y-51500000D02*
X72390000Y-47397500D01*
D27*
X58775000Y-38422500D02*
X58775000Y-41860010D01*
X58775000Y-41860010D02*
X60094990Y-43180000D01*
X70257500Y-43180000D02*
X73432500Y-46355000D01*
X60094990Y-43180000D02*
X70257500Y-43180000D01*
D25*
%TO.N,/ADC_3*%
X57150000Y-47397500D02*
X58192500Y-46355000D01*
X57150000Y-51500000D02*
X57150000Y-47397500D01*
D27*
X58125000Y-46287500D02*
X58192500Y-46355000D01*
X58125000Y-38422500D02*
X58125000Y-46287500D01*
D25*
%TO.N,/ADC_4*%
X41910000Y-47397500D02*
X42952500Y-46355000D01*
X41910000Y-51500000D02*
X41910000Y-47397500D01*
D27*
X42952500Y-45317500D02*
X42952500Y-46355000D01*
X45090000Y-43180000D02*
X42952500Y-45317500D01*
X53710666Y-43180000D02*
X45090000Y-43180000D01*
X57475000Y-39415666D02*
X53710666Y-43180000D01*
X57475000Y-38422500D02*
X57475000Y-39415666D01*
D25*
%TO.N,+5VA*%
X22860000Y-40640000D02*
X26670000Y-40640000D01*
X26670000Y-40640000D02*
X27940000Y-39370000D01*
X27940000Y-39370000D02*
X27940000Y-35560000D01*
X28970000Y-34530000D02*
X33680000Y-34530000D01*
X27940000Y-35560000D02*
X28970000Y-34530000D01*
D27*
%TO.N,/EXT_SDA*%
X78505000Y-34055000D02*
X77470000Y-33020000D01*
X78505000Y-37152500D02*
X78505000Y-34055000D01*
X58775000Y-31902876D02*
X58775000Y-32697500D01*
X59690000Y-30987876D02*
X58775000Y-31902876D01*
X59690000Y-29210000D02*
X59690000Y-30987876D01*
D26*
X27940000Y-30560000D02*
X22860000Y-35640000D01*
X29210000Y-29210000D02*
X27940000Y-30560000D01*
D27*
%TO.N,/EXT_SCL*%
X58125000Y-30775000D02*
X58125000Y-32697500D01*
X58420000Y-30480000D02*
X58125000Y-30775000D01*
D25*
X22740000Y-33140000D02*
X22860000Y-33140000D01*
D27*
X77855000Y-35015000D02*
X77470000Y-34630000D01*
X77855000Y-37152500D02*
X77855000Y-35015000D01*
D25*
%TO.N,+12V*%
X86360000Y-56450000D02*
X87630000Y-56450000D01*
X72390000Y-56450000D02*
X71120000Y-56450000D01*
X55880000Y-56450000D02*
X57150000Y-56450000D01*
X41910000Y-56450000D02*
X40640000Y-56450000D01*
X26670000Y-56450000D02*
X25400000Y-56450000D01*
D28*
X107649942Y-63460000D02*
X107315000Y-63460000D01*
D25*
X25400000Y-56450000D02*
X25400000Y-60960000D01*
X40640000Y-56450000D02*
X40640000Y-60960000D01*
X55880000Y-56450000D02*
X55880000Y-60960000D01*
X71120000Y-56450000D02*
X71120000Y-60960000D01*
X86360000Y-56450000D02*
X86360000Y-60960000D01*
D28*
X22860000Y-24130000D02*
X24130000Y-24130000D01*
X15240000Y-31750000D02*
X22860000Y-24130000D01*
X15240000Y-58420000D02*
X15240000Y-31750000D01*
X17780000Y-60960000D02*
X15240000Y-58420000D01*
X25400000Y-22860000D02*
X24130000Y-24130000D01*
X38100000Y-22860000D02*
X25400000Y-22860000D01*
D26*
%TO.N,Net-(J3-Pad2)*%
X88900000Y-63460000D02*
X88225000Y-64135000D01*
D25*
X88900000Y-56450000D02*
X88900000Y-63460000D01*
X90170000Y-56450000D02*
X88900000Y-56450000D01*
%TO.N,Net-(J3-Pad1)*%
X81915000Y-60325000D02*
X85725000Y-64135000D01*
X81915000Y-57515000D02*
X81915000Y-60325000D01*
%TO.N,Net-(J4-Pad1)*%
X20955000Y-60325000D02*
X24765000Y-64135000D01*
X20955000Y-57515000D02*
X20955000Y-60325000D01*
D26*
%TO.N,Net-(J4-Pad2)*%
X27940000Y-63460000D02*
X27265000Y-64135000D01*
D25*
X27940000Y-56450000D02*
X27940000Y-63460000D01*
X29210000Y-56450000D02*
X27940000Y-56450000D01*
%TO.N,Net-(J5-Pad1)*%
X66675000Y-60325000D02*
X70485000Y-64135000D01*
X66675000Y-57515000D02*
X66675000Y-60325000D01*
%TO.N,Net-(J5-Pad2)*%
X73660000Y-63460000D02*
X73660000Y-56450000D01*
D26*
X72985000Y-64135000D02*
X73660000Y-63460000D01*
D25*
X73660000Y-56450000D02*
X74930000Y-56450000D01*
%TO.N,Net-(J6-Pad1)*%
X51435000Y-60325000D02*
X55245000Y-64135000D01*
X51435000Y-57515000D02*
X51435000Y-60325000D01*
D26*
%TO.N,Net-(J6-Pad2)*%
X58420000Y-63460000D02*
X57745000Y-64135000D01*
D25*
X58420000Y-56450000D02*
X58420000Y-63460000D01*
X59690000Y-56450000D02*
X58990000Y-56450000D01*
X58990000Y-56450000D02*
X58420000Y-56450000D01*
%TO.N,Net-(J7-Pad2)*%
X44450000Y-56450000D02*
X43180000Y-56450000D01*
D26*
X43180000Y-63460000D02*
X42505000Y-64135000D01*
D25*
X43180000Y-56450000D02*
X43180000Y-63460000D01*
%TO.N,Net-(J7-Pad1)*%
X36195000Y-60325000D02*
X40005000Y-64135000D01*
X36195000Y-57515000D02*
X36195000Y-60325000D01*
D27*
%TO.N,/SERVO_1*%
X75905000Y-31427500D02*
X75905000Y-28235000D01*
X75905000Y-28235000D02*
X78740000Y-25400000D01*
X80010000Y-25400000D02*
X83185000Y-22225000D01*
X78740000Y-25400000D02*
X80010000Y-25400000D01*
D25*
%TO.N,+5V*%
X38100000Y-17780000D02*
X43180000Y-17780000D01*
X45085000Y-19685000D02*
X47625000Y-19685000D01*
X43180000Y-17780000D02*
X45085000Y-19685000D01*
X47625000Y-19685000D02*
X56515000Y-19685000D01*
X56515000Y-19685000D02*
X65405000Y-19685000D01*
X65405000Y-19685000D02*
X74295000Y-19685000D01*
X74295000Y-19685000D02*
X83185000Y-19685000D01*
D27*
%TO.N,/SERVO_2*%
X75255000Y-23185000D02*
X74295000Y-22225000D01*
X75255000Y-31427500D02*
X75255000Y-23185000D01*
%TO.N,/SERVO_3*%
X74605000Y-31427500D02*
X74605000Y-26345000D01*
X74605000Y-26345000D02*
X73660000Y-25400000D01*
X73660000Y-25400000D02*
X67310000Y-25400000D01*
X65405000Y-23495000D02*
X65405000Y-22225000D01*
X67310000Y-25400000D02*
X65405000Y-23495000D01*
%TO.N,/SERVO_4*%
X59690000Y-26670000D02*
X56515000Y-23495000D01*
X56515000Y-23495000D02*
X56515000Y-22225000D01*
X73955000Y-28656458D02*
X71968542Y-26670000D01*
X73955000Y-31427500D02*
X73955000Y-28656458D01*
X71968542Y-26670000D02*
X59690000Y-26670000D01*
%TO.N,/SERVO_5*%
X47625000Y-23495000D02*
X47625000Y-22225000D01*
X49530000Y-25400000D02*
X47625000Y-23495000D01*
X55880000Y-25400000D02*
X49530000Y-25400000D01*
X58420000Y-27940000D02*
X55880000Y-25400000D01*
X72390000Y-27940000D02*
X58420000Y-27940000D01*
X73305000Y-28855000D02*
X72390000Y-27940000D01*
X73305000Y-31427500D02*
X73305000Y-28855000D01*
D25*
%TO.N,Net-(J13-Pad1)*%
X100060000Y-60960000D02*
X107315000Y-60960000D01*
%TO.N,Net-(J14-Pad1)*%
X100060000Y-50800000D02*
X107315000Y-50800000D01*
%TO.N,Net-(J15-Pad1)*%
X100060000Y-40640000D02*
X107315000Y-40640000D01*
%TO.N,Net-(J16-Pad1)*%
X100060000Y-30480000D02*
X107315000Y-30480000D01*
%TO.N,Net-(J17-Pad1)*%
X93710000Y-19050000D02*
X100965000Y-19050000D01*
D26*
%TO.N,/POMPE_1*%
X82865000Y-51472500D02*
X82827500Y-51435000D01*
D25*
X82865000Y-55515000D02*
X82865000Y-51472500D01*
D27*
X72655000Y-34555000D02*
X73660000Y-35560000D01*
X72655000Y-31427500D02*
X72655000Y-34555000D01*
X81280000Y-49887500D02*
X82827500Y-51435000D01*
X81280000Y-49530000D02*
X81280000Y-49887500D01*
D26*
%TO.N,/POMPE_5*%
X21905000Y-51472500D02*
X21867500Y-51435000D01*
D25*
X21905000Y-55515000D02*
X21905000Y-51472500D01*
D27*
X71355000Y-37152500D02*
X71355000Y-40405000D01*
X71120000Y-40640000D02*
X68580000Y-40640000D01*
X71355000Y-40405000D02*
X71120000Y-40640000D01*
D25*
X22860000Y-50442500D02*
X21867500Y-51435000D01*
X22860000Y-49530000D02*
X22860000Y-50442500D01*
D26*
%TO.N,/POMPE_2*%
X67587500Y-55477500D02*
X67625000Y-55515000D01*
D25*
X67587500Y-51435000D02*
X67587500Y-55477500D01*
D27*
X72005000Y-35175000D02*
X72390000Y-35560000D01*
X72005000Y-31427500D02*
X72005000Y-35175000D01*
D25*
X68580000Y-50442500D02*
X67587500Y-51435000D01*
X68580000Y-49530000D02*
X68580000Y-50442500D01*
D26*
%TO.N,/POMPE_3*%
X52347500Y-55477500D02*
X52385000Y-55515000D01*
D25*
X52347500Y-51435000D02*
X52347500Y-55477500D01*
D27*
X71355000Y-34055000D02*
X71120000Y-34290000D01*
X71355000Y-31427500D02*
X71355000Y-34055000D01*
D25*
X53340000Y-50442500D02*
X52347500Y-51435000D01*
X53340000Y-49530000D02*
X53340000Y-50442500D01*
D26*
%TO.N,/POMPE_4*%
X37145000Y-51472500D02*
X37107500Y-51435000D01*
D25*
X37145000Y-55515000D02*
X37145000Y-51472500D01*
D27*
X70705000Y-38515000D02*
X69850000Y-39370000D01*
X70705000Y-37152500D02*
X70705000Y-38515000D01*
D25*
X38100000Y-50442500D02*
X37107500Y-51435000D01*
X38100000Y-49530000D02*
X38100000Y-50442500D01*
D26*
%TO.N,/EV_1*%
X98022500Y-60047500D02*
X98060000Y-60010000D01*
D25*
X94615000Y-60047500D02*
X98022500Y-60047500D01*
D27*
X92075000Y-56872500D02*
X94615000Y-60047500D01*
X92075000Y-45958424D02*
X92075000Y-56872500D01*
X90805000Y-44450000D02*
X92075000Y-45958424D01*
X88900000Y-44450000D02*
X90805000Y-44450000D01*
X87630000Y-43180000D02*
X88900000Y-44450000D01*
X76869990Y-41309990D02*
X78740000Y-43180000D01*
X73059990Y-41309990D02*
X76869990Y-41309990D01*
X72005000Y-40255000D02*
X73059990Y-41309990D01*
X78740000Y-43180000D02*
X87630000Y-43180000D01*
X72005000Y-37152500D02*
X72005000Y-40255000D01*
D26*
%TO.N,/EV_2*%
X98022500Y-49887500D02*
X98060000Y-49850000D01*
D25*
X94615000Y-49887500D02*
X98022500Y-49887500D01*
D27*
X94615000Y-46990000D02*
X94615000Y-49887500D01*
X91440000Y-43849991D02*
X94615000Y-46990000D01*
X89148532Y-43849990D02*
X91440000Y-43849991D01*
X87878532Y-42579990D02*
X89148532Y-43849990D01*
X79164271Y-42579990D02*
X87878532Y-42579990D01*
X77224281Y-40640000D02*
X79164271Y-42579990D01*
X73660000Y-40640000D02*
X77224281Y-40640000D01*
X72655000Y-39635000D02*
X73660000Y-40640000D01*
X72655000Y-37152500D02*
X72655000Y-39635000D01*
D26*
%TO.N,/EV_3*%
X98022500Y-39727500D02*
X98060000Y-39690000D01*
D25*
X94615000Y-39727500D02*
X98022500Y-39727500D01*
D27*
X94302510Y-40039990D02*
X94615000Y-39727500D01*
X73354990Y-37169990D02*
X73354990Y-39486448D01*
X73354990Y-39486448D02*
X73908532Y-40039990D01*
X73337500Y-37152500D02*
X73354990Y-37169990D01*
X73908532Y-40039990D02*
X94302510Y-40039990D01*
X73305000Y-37152500D02*
X73337500Y-37152500D01*
D26*
%TO.N,/EV_4*%
X98022500Y-29567500D02*
X98060000Y-29530000D01*
D25*
X94615000Y-29567500D02*
X98022500Y-29567500D01*
D27*
X74295000Y-39370000D02*
X89662000Y-39370000D01*
X91440000Y-32742500D02*
X94615000Y-29567500D01*
X89662000Y-39370000D02*
X91440000Y-36830000D01*
X73955000Y-39030000D02*
X74295000Y-39370000D01*
X91440000Y-36830000D02*
X91440000Y-32742500D01*
X73955000Y-37152500D02*
X73955000Y-39030000D01*
D26*
%TO.N,/EV_5*%
X91672500Y-18137500D02*
X91710000Y-18100000D01*
D25*
X88265000Y-18137500D02*
X91672500Y-18137500D01*
D27*
X86995000Y-19050000D02*
X88265000Y-18137500D01*
X86995000Y-26670000D02*
X86995000Y-19050000D01*
X90170000Y-29845000D02*
X86995000Y-26670000D01*
X88900000Y-38735000D02*
X90170000Y-36830000D01*
X74947886Y-38735000D02*
X88900000Y-38735000D01*
X74605000Y-38392114D02*
X74947886Y-38735000D01*
X90170000Y-36830000D02*
X90170000Y-29845000D01*
X74605000Y-37152500D02*
X74605000Y-38392114D01*
D26*
%TO.N,Net-(R1-Pad2)*%
X88542500Y-30480000D02*
X88542500Y-35560000D01*
X79205010Y-31377490D02*
X79205010Y-31427500D01*
X81077510Y-29210000D02*
X79205010Y-31377490D01*
X87567490Y-29210000D02*
X81077510Y-29210000D01*
X88542500Y-30480000D02*
X87567490Y-29210000D01*
D27*
%TO.N,Net-(R3-Pad2)*%
X55525000Y-33492124D02*
X55525000Y-32697500D01*
X54092124Y-34925000D02*
X55525000Y-33492124D01*
X48815000Y-34925000D02*
X54092124Y-34925000D01*
X48815000Y-34925000D02*
X48815000Y-40005000D01*
%TD*%
M02*
