M48
; DRILL file {KiCad 5.1.9} date Thu Mar 25 14:58:05 2021
; FORMAT={-:-/ absolute / inch / decimal}
; #@! TF.CreationDate,2021-03-25T14:58:05+01:00
; #@! TF.GenerationSoftware,Kicad,Pcbnew,5.1.9
; #@! TF.FileFunction,Plated,1,2,PTH
FMAT,2
INCH
T1C0.0157
T2C0.0315
T3C0.0374
T4C0.0394
T5C0.0598
%
G90
G05
T1
X0.9Y-1.95
X1.1Y-2.1
X1.15Y-1.15
X1.5Y-1.95
X1.6Y-2.1
X1.8904Y-1.45
X1.9868Y-1.2384
X2.0Y-1.45
X2.0873Y-1.2873
X2.1Y-1.95
X2.2Y-2.1
X2.3Y-1.2
X2.35Y-1.15
X2.35Y-1.35
X2.7Y-1.6
X2.7Y-1.95
X2.75Y-1.3
X2.75Y-1.55
X2.8Y-1.35
X2.8Y-2.1
X2.85Y-1.4
X2.9Y-1.3
X2.9Y-1.4
X3.05Y-1.3
X3.05Y-1.3634
X3.2Y-1.35
X3.2Y-1.95
X3.35Y-2.1
X3.3533Y-1.35
X3.4Y-1.3
X3.5Y-2.1
X3.7918Y-1.2834
X3.7918Y-1.6834
X3.7918Y-2.0734
T2
X0.7Y-2.2
X0.7Y-2.4
X1.0Y-2.4
X1.2Y-1.45
X1.3Y-2.3
X1.6Y-2.4
X1.9Y-2.3
X2.2Y-2.4
X2.5Y-2.3
X2.8Y-2.4
X3.1Y-2.3
X3.4Y-2.4
X3.55Y-0.9
X3.6Y-2.3
T3
X0.9Y-1.3047
X0.9Y-1.4031
X0.9Y-1.5016
X0.9Y-1.6
T4
X0.975Y-2.525
X1.0734Y-2.525
X1.5Y-0.7
X1.5Y-0.8
X1.5Y-0.9
X1.575Y-2.525
X1.6734Y-2.525
X1.875Y-0.675
X1.875Y-0.775
X1.875Y-0.875
X2.175Y-2.525
X2.225Y-0.675
X2.225Y-0.775
X2.225Y-0.875
X2.2734Y-2.525
X2.575Y-0.675
X2.575Y-0.775
X2.575Y-0.875
X2.775Y-2.525
X2.8734Y-2.525
X2.925Y-0.675
X2.925Y-0.775
X2.925Y-0.875
X3.275Y-0.675
X3.275Y-0.775
X3.275Y-0.875
X3.375Y-2.525
X3.4734Y-2.525
X3.975Y-0.75
X3.975Y-0.8484
X4.225Y-1.2
X4.225Y-1.2984
X4.225Y-1.6
X4.225Y-1.6984
X4.225Y-2.0
X4.225Y-2.0984
X4.225Y-2.4
X4.225Y-2.4984
T5
X0.95Y-0.75
X0.95Y-0.95
T0
M30
