%TF.GenerationSoftware,KiCad,Pcbnew,5.1.9*%
%TF.CreationDate,2021-03-25T13:41:33+01:00*%
%TF.ProjectId,kicad_robot_servos_ev_pompes,6b696361-645f-4726-9f62-6f745f736572,rev?*%
%TF.SameCoordinates,Original*%
%TF.FileFunction,Soldermask,Top*%
%TF.FilePolarity,Negative*%
%FSLAX46Y46*%
G04 Gerber Fmt 4.6, Leading zero omitted, Abs format (unit mm)*
G04 Created by KiCad (PCBNEW 5.1.9) date 2021-03-25 13:41:33*
%MOMM*%
%LPD*%
G01*
G04 APERTURE LIST*
%ADD10C,3.200000*%
%ADD11O,1.700000X1.700000*%
%ADD12R,1.700000X1.700000*%
%ADD13O,1.950000X1.700000*%
%ADD14R,3.000000X3.000000*%
%ADD15C,3.000000*%
%ADD16O,1.700000X2.000000*%
%ADD17O,2.000000X1.700000*%
%ADD18R,0.800000X0.900000*%
%ADD19R,0.900000X0.800000*%
%ADD20R,2.500000X1.500000*%
%ADD21O,2.500000X1.500000*%
%ADD22R,2.000000X3.800000*%
%ADD23R,2.000000X1.500000*%
G04 APERTURE END LIST*
D10*
%TO.C,REF\u002A\u002A*%
X16500000Y-70500000D03*
%TD*%
%TO.C,REF\u002A\u002A*%
X16500000Y-16500000D03*
%TD*%
%TO.C,REF\u002A\u002A*%
X108500000Y-70500000D03*
%TD*%
%TO.C,REF\u002A\u002A*%
X108500000Y-16500000D03*
%TD*%
D11*
%TO.C,J10*%
X65405000Y-22225000D03*
X65405000Y-19685000D03*
D12*
X65405000Y-17145000D03*
%TD*%
%TO.C,U4*%
G36*
G01*
X79055000Y-30690000D02*
X79255000Y-30690000D01*
G75*
G02*
X79355000Y-30790000I0J-100000D01*
G01*
X79355000Y-32065000D01*
G75*
G02*
X79255000Y-32165000I-100000J0D01*
G01*
X79055000Y-32165000D01*
G75*
G02*
X78955000Y-32065000I0J100000D01*
G01*
X78955000Y-30790000D01*
G75*
G02*
X79055000Y-30690000I100000J0D01*
G01*
G37*
G36*
G01*
X78405000Y-30690000D02*
X78605000Y-30690000D01*
G75*
G02*
X78705000Y-30790000I0J-100000D01*
G01*
X78705000Y-32065000D01*
G75*
G02*
X78605000Y-32165000I-100000J0D01*
G01*
X78405000Y-32165000D01*
G75*
G02*
X78305000Y-32065000I0J100000D01*
G01*
X78305000Y-30790000D01*
G75*
G02*
X78405000Y-30690000I100000J0D01*
G01*
G37*
G36*
G01*
X77755000Y-30690000D02*
X77955000Y-30690000D01*
G75*
G02*
X78055000Y-30790000I0J-100000D01*
G01*
X78055000Y-32065000D01*
G75*
G02*
X77955000Y-32165000I-100000J0D01*
G01*
X77755000Y-32165000D01*
G75*
G02*
X77655000Y-32065000I0J100000D01*
G01*
X77655000Y-30790000D01*
G75*
G02*
X77755000Y-30690000I100000J0D01*
G01*
G37*
G36*
G01*
X77105000Y-30690000D02*
X77305000Y-30690000D01*
G75*
G02*
X77405000Y-30790000I0J-100000D01*
G01*
X77405000Y-32065000D01*
G75*
G02*
X77305000Y-32165000I-100000J0D01*
G01*
X77105000Y-32165000D01*
G75*
G02*
X77005000Y-32065000I0J100000D01*
G01*
X77005000Y-30790000D01*
G75*
G02*
X77105000Y-30690000I100000J0D01*
G01*
G37*
G36*
G01*
X76455000Y-30690000D02*
X76655000Y-30690000D01*
G75*
G02*
X76755000Y-30790000I0J-100000D01*
G01*
X76755000Y-32065000D01*
G75*
G02*
X76655000Y-32165000I-100000J0D01*
G01*
X76455000Y-32165000D01*
G75*
G02*
X76355000Y-32065000I0J100000D01*
G01*
X76355000Y-30790000D01*
G75*
G02*
X76455000Y-30690000I100000J0D01*
G01*
G37*
G36*
G01*
X75805000Y-30690000D02*
X76005000Y-30690000D01*
G75*
G02*
X76105000Y-30790000I0J-100000D01*
G01*
X76105000Y-32065000D01*
G75*
G02*
X76005000Y-32165000I-100000J0D01*
G01*
X75805000Y-32165000D01*
G75*
G02*
X75705000Y-32065000I0J100000D01*
G01*
X75705000Y-30790000D01*
G75*
G02*
X75805000Y-30690000I100000J0D01*
G01*
G37*
G36*
G01*
X75155000Y-30690000D02*
X75355000Y-30690000D01*
G75*
G02*
X75455000Y-30790000I0J-100000D01*
G01*
X75455000Y-32065000D01*
G75*
G02*
X75355000Y-32165000I-100000J0D01*
G01*
X75155000Y-32165000D01*
G75*
G02*
X75055000Y-32065000I0J100000D01*
G01*
X75055000Y-30790000D01*
G75*
G02*
X75155000Y-30690000I100000J0D01*
G01*
G37*
G36*
G01*
X74505000Y-30690000D02*
X74705000Y-30690000D01*
G75*
G02*
X74805000Y-30790000I0J-100000D01*
G01*
X74805000Y-32065000D01*
G75*
G02*
X74705000Y-32165000I-100000J0D01*
G01*
X74505000Y-32165000D01*
G75*
G02*
X74405000Y-32065000I0J100000D01*
G01*
X74405000Y-30790000D01*
G75*
G02*
X74505000Y-30690000I100000J0D01*
G01*
G37*
G36*
G01*
X73855000Y-30690000D02*
X74055000Y-30690000D01*
G75*
G02*
X74155000Y-30790000I0J-100000D01*
G01*
X74155000Y-32065000D01*
G75*
G02*
X74055000Y-32165000I-100000J0D01*
G01*
X73855000Y-32165000D01*
G75*
G02*
X73755000Y-32065000I0J100000D01*
G01*
X73755000Y-30790000D01*
G75*
G02*
X73855000Y-30690000I100000J0D01*
G01*
G37*
G36*
G01*
X73205000Y-30690000D02*
X73405000Y-30690000D01*
G75*
G02*
X73505000Y-30790000I0J-100000D01*
G01*
X73505000Y-32065000D01*
G75*
G02*
X73405000Y-32165000I-100000J0D01*
G01*
X73205000Y-32165000D01*
G75*
G02*
X73105000Y-32065000I0J100000D01*
G01*
X73105000Y-30790000D01*
G75*
G02*
X73205000Y-30690000I100000J0D01*
G01*
G37*
G36*
G01*
X72555000Y-30690000D02*
X72755000Y-30690000D01*
G75*
G02*
X72855000Y-30790000I0J-100000D01*
G01*
X72855000Y-32065000D01*
G75*
G02*
X72755000Y-32165000I-100000J0D01*
G01*
X72555000Y-32165000D01*
G75*
G02*
X72455000Y-32065000I0J100000D01*
G01*
X72455000Y-30790000D01*
G75*
G02*
X72555000Y-30690000I100000J0D01*
G01*
G37*
G36*
G01*
X71905000Y-30690000D02*
X72105000Y-30690000D01*
G75*
G02*
X72205000Y-30790000I0J-100000D01*
G01*
X72205000Y-32065000D01*
G75*
G02*
X72105000Y-32165000I-100000J0D01*
G01*
X71905000Y-32165000D01*
G75*
G02*
X71805000Y-32065000I0J100000D01*
G01*
X71805000Y-30790000D01*
G75*
G02*
X71905000Y-30690000I100000J0D01*
G01*
G37*
G36*
G01*
X71255000Y-30690000D02*
X71455000Y-30690000D01*
G75*
G02*
X71555000Y-30790000I0J-100000D01*
G01*
X71555000Y-32065000D01*
G75*
G02*
X71455000Y-32165000I-100000J0D01*
G01*
X71255000Y-32165000D01*
G75*
G02*
X71155000Y-32065000I0J100000D01*
G01*
X71155000Y-30790000D01*
G75*
G02*
X71255000Y-30690000I100000J0D01*
G01*
G37*
G36*
G01*
X70605000Y-30690000D02*
X70805000Y-30690000D01*
G75*
G02*
X70905000Y-30790000I0J-100000D01*
G01*
X70905000Y-32065000D01*
G75*
G02*
X70805000Y-32165000I-100000J0D01*
G01*
X70605000Y-32165000D01*
G75*
G02*
X70505000Y-32065000I0J100000D01*
G01*
X70505000Y-30790000D01*
G75*
G02*
X70605000Y-30690000I100000J0D01*
G01*
G37*
G36*
G01*
X70605000Y-36415000D02*
X70805000Y-36415000D01*
G75*
G02*
X70905000Y-36515000I0J-100000D01*
G01*
X70905000Y-37790000D01*
G75*
G02*
X70805000Y-37890000I-100000J0D01*
G01*
X70605000Y-37890000D01*
G75*
G02*
X70505000Y-37790000I0J100000D01*
G01*
X70505000Y-36515000D01*
G75*
G02*
X70605000Y-36415000I100000J0D01*
G01*
G37*
G36*
G01*
X71255000Y-36415000D02*
X71455000Y-36415000D01*
G75*
G02*
X71555000Y-36515000I0J-100000D01*
G01*
X71555000Y-37790000D01*
G75*
G02*
X71455000Y-37890000I-100000J0D01*
G01*
X71255000Y-37890000D01*
G75*
G02*
X71155000Y-37790000I0J100000D01*
G01*
X71155000Y-36515000D01*
G75*
G02*
X71255000Y-36415000I100000J0D01*
G01*
G37*
G36*
G01*
X71905000Y-36415000D02*
X72105000Y-36415000D01*
G75*
G02*
X72205000Y-36515000I0J-100000D01*
G01*
X72205000Y-37790000D01*
G75*
G02*
X72105000Y-37890000I-100000J0D01*
G01*
X71905000Y-37890000D01*
G75*
G02*
X71805000Y-37790000I0J100000D01*
G01*
X71805000Y-36515000D01*
G75*
G02*
X71905000Y-36415000I100000J0D01*
G01*
G37*
G36*
G01*
X72555000Y-36415000D02*
X72755000Y-36415000D01*
G75*
G02*
X72855000Y-36515000I0J-100000D01*
G01*
X72855000Y-37790000D01*
G75*
G02*
X72755000Y-37890000I-100000J0D01*
G01*
X72555000Y-37890000D01*
G75*
G02*
X72455000Y-37790000I0J100000D01*
G01*
X72455000Y-36515000D01*
G75*
G02*
X72555000Y-36415000I100000J0D01*
G01*
G37*
G36*
G01*
X73205000Y-36415000D02*
X73405000Y-36415000D01*
G75*
G02*
X73505000Y-36515000I0J-100000D01*
G01*
X73505000Y-37790000D01*
G75*
G02*
X73405000Y-37890000I-100000J0D01*
G01*
X73205000Y-37890000D01*
G75*
G02*
X73105000Y-37790000I0J100000D01*
G01*
X73105000Y-36515000D01*
G75*
G02*
X73205000Y-36415000I100000J0D01*
G01*
G37*
G36*
G01*
X73855000Y-36415000D02*
X74055000Y-36415000D01*
G75*
G02*
X74155000Y-36515000I0J-100000D01*
G01*
X74155000Y-37790000D01*
G75*
G02*
X74055000Y-37890000I-100000J0D01*
G01*
X73855000Y-37890000D01*
G75*
G02*
X73755000Y-37790000I0J100000D01*
G01*
X73755000Y-36515000D01*
G75*
G02*
X73855000Y-36415000I100000J0D01*
G01*
G37*
G36*
G01*
X74505000Y-36415000D02*
X74705000Y-36415000D01*
G75*
G02*
X74805000Y-36515000I0J-100000D01*
G01*
X74805000Y-37790000D01*
G75*
G02*
X74705000Y-37890000I-100000J0D01*
G01*
X74505000Y-37890000D01*
G75*
G02*
X74405000Y-37790000I0J100000D01*
G01*
X74405000Y-36515000D01*
G75*
G02*
X74505000Y-36415000I100000J0D01*
G01*
G37*
G36*
G01*
X75155000Y-36415000D02*
X75355000Y-36415000D01*
G75*
G02*
X75455000Y-36515000I0J-100000D01*
G01*
X75455000Y-37790000D01*
G75*
G02*
X75355000Y-37890000I-100000J0D01*
G01*
X75155000Y-37890000D01*
G75*
G02*
X75055000Y-37790000I0J100000D01*
G01*
X75055000Y-36515000D01*
G75*
G02*
X75155000Y-36415000I100000J0D01*
G01*
G37*
G36*
G01*
X75805000Y-36415000D02*
X76005000Y-36415000D01*
G75*
G02*
X76105000Y-36515000I0J-100000D01*
G01*
X76105000Y-37790000D01*
G75*
G02*
X76005000Y-37890000I-100000J0D01*
G01*
X75805000Y-37890000D01*
G75*
G02*
X75705000Y-37790000I0J100000D01*
G01*
X75705000Y-36515000D01*
G75*
G02*
X75805000Y-36415000I100000J0D01*
G01*
G37*
G36*
G01*
X76455000Y-36415000D02*
X76655000Y-36415000D01*
G75*
G02*
X76755000Y-36515000I0J-100000D01*
G01*
X76755000Y-37790000D01*
G75*
G02*
X76655000Y-37890000I-100000J0D01*
G01*
X76455000Y-37890000D01*
G75*
G02*
X76355000Y-37790000I0J100000D01*
G01*
X76355000Y-36515000D01*
G75*
G02*
X76455000Y-36415000I100000J0D01*
G01*
G37*
G36*
G01*
X77105000Y-36415000D02*
X77305000Y-36415000D01*
G75*
G02*
X77405000Y-36515000I0J-100000D01*
G01*
X77405000Y-37790000D01*
G75*
G02*
X77305000Y-37890000I-100000J0D01*
G01*
X77105000Y-37890000D01*
G75*
G02*
X77005000Y-37790000I0J100000D01*
G01*
X77005000Y-36515000D01*
G75*
G02*
X77105000Y-36415000I100000J0D01*
G01*
G37*
G36*
G01*
X77755000Y-36415000D02*
X77955000Y-36415000D01*
G75*
G02*
X78055000Y-36515000I0J-100000D01*
G01*
X78055000Y-37790000D01*
G75*
G02*
X77955000Y-37890000I-100000J0D01*
G01*
X77755000Y-37890000D01*
G75*
G02*
X77655000Y-37790000I0J100000D01*
G01*
X77655000Y-36515000D01*
G75*
G02*
X77755000Y-36415000I100000J0D01*
G01*
G37*
G36*
G01*
X78405000Y-36415000D02*
X78605000Y-36415000D01*
G75*
G02*
X78705000Y-36515000I0J-100000D01*
G01*
X78705000Y-37790000D01*
G75*
G02*
X78605000Y-37890000I-100000J0D01*
G01*
X78405000Y-37890000D01*
G75*
G02*
X78305000Y-37790000I0J100000D01*
G01*
X78305000Y-36515000D01*
G75*
G02*
X78405000Y-36415000I100000J0D01*
G01*
G37*
G36*
G01*
X79055000Y-36415000D02*
X79255000Y-36415000D01*
G75*
G02*
X79355000Y-36515000I0J-100000D01*
G01*
X79355000Y-37790000D01*
G75*
G02*
X79255000Y-37890000I-100000J0D01*
G01*
X79055000Y-37890000D01*
G75*
G02*
X78955000Y-37790000I0J100000D01*
G01*
X78955000Y-36515000D01*
G75*
G02*
X79055000Y-36415000I100000J0D01*
G01*
G37*
%TD*%
%TO.C,C1*%
G36*
G01*
X48177500Y-31352500D02*
X48177500Y-30877500D01*
G75*
G02*
X48415000Y-30640000I237500J0D01*
G01*
X49015000Y-30640000D01*
G75*
G02*
X49252500Y-30877500I0J-237500D01*
G01*
X49252500Y-31352500D01*
G75*
G02*
X49015000Y-31590000I-237500J0D01*
G01*
X48415000Y-31590000D01*
G75*
G02*
X48177500Y-31352500I0J237500D01*
G01*
G37*
G36*
G01*
X46452500Y-31352500D02*
X46452500Y-30877500D01*
G75*
G02*
X46690000Y-30640000I237500J0D01*
G01*
X47290000Y-30640000D01*
G75*
G02*
X47527500Y-30877500I0J-237500D01*
G01*
X47527500Y-31352500D01*
G75*
G02*
X47290000Y-31590000I-237500J0D01*
G01*
X46690000Y-31590000D01*
G75*
G02*
X46452500Y-31352500I0J237500D01*
G01*
G37*
%TD*%
%TO.C,C2*%
G36*
G01*
X84812500Y-36592500D02*
X84812500Y-37067500D01*
G75*
G02*
X84575000Y-37305000I-237500J0D01*
G01*
X83975000Y-37305000D01*
G75*
G02*
X83737500Y-37067500I0J237500D01*
G01*
X83737500Y-36592500D01*
G75*
G02*
X83975000Y-36355000I237500J0D01*
G01*
X84575000Y-36355000D01*
G75*
G02*
X84812500Y-36592500I0J-237500D01*
G01*
G37*
G36*
G01*
X83087500Y-36592500D02*
X83087500Y-37067500D01*
G75*
G02*
X82850000Y-37305000I-237500J0D01*
G01*
X82250000Y-37305000D01*
G75*
G02*
X82012500Y-37067500I0J237500D01*
G01*
X82012500Y-36592500D01*
G75*
G02*
X82250000Y-36355000I237500J0D01*
G01*
X82850000Y-36355000D01*
G75*
G02*
X83087500Y-36592500I0J-237500D01*
G01*
G37*
%TD*%
%TO.C,C3*%
G36*
G01*
X83055000Y-46592500D02*
X83055000Y-46117500D01*
G75*
G02*
X83292500Y-45880000I237500J0D01*
G01*
X83892500Y-45880000D01*
G75*
G02*
X84130000Y-46117500I0J-237500D01*
G01*
X84130000Y-46592500D01*
G75*
G02*
X83892500Y-46830000I-237500J0D01*
G01*
X83292500Y-46830000D01*
G75*
G02*
X83055000Y-46592500I0J237500D01*
G01*
G37*
G36*
G01*
X84780000Y-46592500D02*
X84780000Y-46117500D01*
G75*
G02*
X85017500Y-45880000I237500J0D01*
G01*
X85617500Y-45880000D01*
G75*
G02*
X85855000Y-46117500I0J-237500D01*
G01*
X85855000Y-46592500D01*
G75*
G02*
X85617500Y-46830000I-237500J0D01*
G01*
X85017500Y-46830000D01*
G75*
G02*
X84780000Y-46592500I0J237500D01*
G01*
G37*
%TD*%
%TO.C,C4*%
G36*
G01*
X89860000Y-46592500D02*
X89860000Y-46117500D01*
G75*
G02*
X90097500Y-45880000I237500J0D01*
G01*
X90697500Y-45880000D01*
G75*
G02*
X90935000Y-46117500I0J-237500D01*
G01*
X90935000Y-46592500D01*
G75*
G02*
X90697500Y-46830000I-237500J0D01*
G01*
X90097500Y-46830000D01*
G75*
G02*
X89860000Y-46592500I0J237500D01*
G01*
G37*
G36*
G01*
X88135000Y-46592500D02*
X88135000Y-46117500D01*
G75*
G02*
X88372500Y-45880000I237500J0D01*
G01*
X88972500Y-45880000D01*
G75*
G02*
X89210000Y-46117500I0J-237500D01*
G01*
X89210000Y-46592500D01*
G75*
G02*
X88972500Y-46830000I-237500J0D01*
G01*
X88372500Y-46830000D01*
G75*
G02*
X88135000Y-46592500I0J237500D01*
G01*
G37*
%TD*%
%TO.C,C5*%
G36*
G01*
X23820000Y-46592500D02*
X23820000Y-46117500D01*
G75*
G02*
X24057500Y-45880000I237500J0D01*
G01*
X24657500Y-45880000D01*
G75*
G02*
X24895000Y-46117500I0J-237500D01*
G01*
X24895000Y-46592500D01*
G75*
G02*
X24657500Y-46830000I-237500J0D01*
G01*
X24057500Y-46830000D01*
G75*
G02*
X23820000Y-46592500I0J237500D01*
G01*
G37*
G36*
G01*
X22095000Y-46592500D02*
X22095000Y-46117500D01*
G75*
G02*
X22332500Y-45880000I237500J0D01*
G01*
X22932500Y-45880000D01*
G75*
G02*
X23170000Y-46117500I0J-237500D01*
G01*
X23170000Y-46592500D01*
G75*
G02*
X22932500Y-46830000I-237500J0D01*
G01*
X22332500Y-46830000D01*
G75*
G02*
X22095000Y-46592500I0J237500D01*
G01*
G37*
%TD*%
%TO.C,C6*%
G36*
G01*
X27175000Y-46592500D02*
X27175000Y-46117500D01*
G75*
G02*
X27412500Y-45880000I237500J0D01*
G01*
X28012500Y-45880000D01*
G75*
G02*
X28250000Y-46117500I0J-237500D01*
G01*
X28250000Y-46592500D01*
G75*
G02*
X28012500Y-46830000I-237500J0D01*
G01*
X27412500Y-46830000D01*
G75*
G02*
X27175000Y-46592500I0J237500D01*
G01*
G37*
G36*
G01*
X28900000Y-46592500D02*
X28900000Y-46117500D01*
G75*
G02*
X29137500Y-45880000I237500J0D01*
G01*
X29737500Y-45880000D01*
G75*
G02*
X29975000Y-46117500I0J-237500D01*
G01*
X29975000Y-46592500D01*
G75*
G02*
X29737500Y-46830000I-237500J0D01*
G01*
X29137500Y-46830000D01*
G75*
G02*
X28900000Y-46592500I0J237500D01*
G01*
G37*
%TD*%
%TO.C,C7*%
G36*
G01*
X67407500Y-46592500D02*
X67407500Y-46117500D01*
G75*
G02*
X67645000Y-45880000I237500J0D01*
G01*
X68245000Y-45880000D01*
G75*
G02*
X68482500Y-46117500I0J-237500D01*
G01*
X68482500Y-46592500D01*
G75*
G02*
X68245000Y-46830000I-237500J0D01*
G01*
X67645000Y-46830000D01*
G75*
G02*
X67407500Y-46592500I0J237500D01*
G01*
G37*
G36*
G01*
X69132500Y-46592500D02*
X69132500Y-46117500D01*
G75*
G02*
X69370000Y-45880000I237500J0D01*
G01*
X69970000Y-45880000D01*
G75*
G02*
X70207500Y-46117500I0J-237500D01*
G01*
X70207500Y-46592500D01*
G75*
G02*
X69970000Y-46830000I-237500J0D01*
G01*
X69370000Y-46830000D01*
G75*
G02*
X69132500Y-46592500I0J237500D01*
G01*
G37*
%TD*%
%TO.C,C8*%
G36*
G01*
X74620000Y-46592500D02*
X74620000Y-46117500D01*
G75*
G02*
X74857500Y-45880000I237500J0D01*
G01*
X75457500Y-45880000D01*
G75*
G02*
X75695000Y-46117500I0J-237500D01*
G01*
X75695000Y-46592500D01*
G75*
G02*
X75457500Y-46830000I-237500J0D01*
G01*
X74857500Y-46830000D01*
G75*
G02*
X74620000Y-46592500I0J237500D01*
G01*
G37*
G36*
G01*
X72895000Y-46592500D02*
X72895000Y-46117500D01*
G75*
G02*
X73132500Y-45880000I237500J0D01*
G01*
X73732500Y-45880000D01*
G75*
G02*
X73970000Y-46117500I0J-237500D01*
G01*
X73970000Y-46592500D01*
G75*
G02*
X73732500Y-46830000I-237500J0D01*
G01*
X73132500Y-46830000D01*
G75*
G02*
X72895000Y-46592500I0J237500D01*
G01*
G37*
%TD*%
%TO.C,C9*%
G36*
G01*
X54300000Y-46592500D02*
X54300000Y-46117500D01*
G75*
G02*
X54537500Y-45880000I237500J0D01*
G01*
X55137500Y-45880000D01*
G75*
G02*
X55375000Y-46117500I0J-237500D01*
G01*
X55375000Y-46592500D01*
G75*
G02*
X55137500Y-46830000I-237500J0D01*
G01*
X54537500Y-46830000D01*
G75*
G02*
X54300000Y-46592500I0J237500D01*
G01*
G37*
G36*
G01*
X52575000Y-46592500D02*
X52575000Y-46117500D01*
G75*
G02*
X52812500Y-45880000I237500J0D01*
G01*
X53412500Y-45880000D01*
G75*
G02*
X53650000Y-46117500I0J-237500D01*
G01*
X53650000Y-46592500D01*
G75*
G02*
X53412500Y-46830000I-237500J0D01*
G01*
X52812500Y-46830000D01*
G75*
G02*
X52575000Y-46592500I0J237500D01*
G01*
G37*
%TD*%
%TO.C,C10*%
G36*
G01*
X57655000Y-46592500D02*
X57655000Y-46117500D01*
G75*
G02*
X57892500Y-45880000I237500J0D01*
G01*
X58492500Y-45880000D01*
G75*
G02*
X58730000Y-46117500I0J-237500D01*
G01*
X58730000Y-46592500D01*
G75*
G02*
X58492500Y-46830000I-237500J0D01*
G01*
X57892500Y-46830000D01*
G75*
G02*
X57655000Y-46592500I0J237500D01*
G01*
G37*
G36*
G01*
X59380000Y-46592500D02*
X59380000Y-46117500D01*
G75*
G02*
X59617500Y-45880000I237500J0D01*
G01*
X60217500Y-45880000D01*
G75*
G02*
X60455000Y-46117500I0J-237500D01*
G01*
X60455000Y-46592500D01*
G75*
G02*
X60217500Y-46830000I-237500J0D01*
G01*
X59617500Y-46830000D01*
G75*
G02*
X59380000Y-46592500I0J237500D01*
G01*
G37*
%TD*%
%TO.C,C11*%
G36*
G01*
X39060000Y-46592500D02*
X39060000Y-46117500D01*
G75*
G02*
X39297500Y-45880000I237500J0D01*
G01*
X39897500Y-45880000D01*
G75*
G02*
X40135000Y-46117500I0J-237500D01*
G01*
X40135000Y-46592500D01*
G75*
G02*
X39897500Y-46830000I-237500J0D01*
G01*
X39297500Y-46830000D01*
G75*
G02*
X39060000Y-46592500I0J237500D01*
G01*
G37*
G36*
G01*
X37335000Y-46592500D02*
X37335000Y-46117500D01*
G75*
G02*
X37572500Y-45880000I237500J0D01*
G01*
X38172500Y-45880000D01*
G75*
G02*
X38410000Y-46117500I0J-237500D01*
G01*
X38410000Y-46592500D01*
G75*
G02*
X38172500Y-46830000I-237500J0D01*
G01*
X37572500Y-46830000D01*
G75*
G02*
X37335000Y-46592500I0J237500D01*
G01*
G37*
%TD*%
%TO.C,C12*%
G36*
G01*
X42415000Y-46592500D02*
X42415000Y-46117500D01*
G75*
G02*
X42652500Y-45880000I237500J0D01*
G01*
X43252500Y-45880000D01*
G75*
G02*
X43490000Y-46117500I0J-237500D01*
G01*
X43490000Y-46592500D01*
G75*
G02*
X43252500Y-46830000I-237500J0D01*
G01*
X42652500Y-46830000D01*
G75*
G02*
X42415000Y-46592500I0J237500D01*
G01*
G37*
G36*
G01*
X44140000Y-46592500D02*
X44140000Y-46117500D01*
G75*
G02*
X44377500Y-45880000I237500J0D01*
G01*
X44977500Y-45880000D01*
G75*
G02*
X45215000Y-46117500I0J-237500D01*
G01*
X45215000Y-46592500D01*
G75*
G02*
X44977500Y-46830000I-237500J0D01*
G01*
X44377500Y-46830000D01*
G75*
G02*
X44140000Y-46592500I0J237500D01*
G01*
G37*
%TD*%
%TO.C,J1*%
G36*
G01*
X23585000Y-41490000D02*
X22135000Y-41490000D01*
G75*
G02*
X21885000Y-41240000I0J250000D01*
G01*
X21885000Y-40040000D01*
G75*
G02*
X22135000Y-39790000I250000J0D01*
G01*
X23585000Y-39790000D01*
G75*
G02*
X23835000Y-40040000I0J-250000D01*
G01*
X23835000Y-41240000D01*
G75*
G02*
X23585000Y-41490000I-250000J0D01*
G01*
G37*
D13*
X22860000Y-38140000D03*
X22860000Y-35640000D03*
X22860000Y-33140000D03*
%TD*%
D14*
%TO.C,J2*%
X24130000Y-24130000D03*
D15*
X24130000Y-19050000D03*
%TD*%
D16*
%TO.C,J3*%
X88225000Y-64135000D03*
G36*
G01*
X84875000Y-64885000D02*
X84875000Y-63385000D01*
G75*
G02*
X85125000Y-63135000I250000J0D01*
G01*
X86325000Y-63135000D01*
G75*
G02*
X86575000Y-63385000I0J-250000D01*
G01*
X86575000Y-64885000D01*
G75*
G02*
X86325000Y-65135000I-250000J0D01*
G01*
X85125000Y-65135000D01*
G75*
G02*
X84875000Y-64885000I0J250000D01*
G01*
G37*
%TD*%
%TO.C,J4*%
G36*
G01*
X23915000Y-64885000D02*
X23915000Y-63385000D01*
G75*
G02*
X24165000Y-63135000I250000J0D01*
G01*
X25365000Y-63135000D01*
G75*
G02*
X25615000Y-63385000I0J-250000D01*
G01*
X25615000Y-64885000D01*
G75*
G02*
X25365000Y-65135000I-250000J0D01*
G01*
X24165000Y-65135000D01*
G75*
G02*
X23915000Y-64885000I0J250000D01*
G01*
G37*
X27265000Y-64135000D03*
%TD*%
%TO.C,J5*%
G36*
G01*
X69635000Y-64885000D02*
X69635000Y-63385000D01*
G75*
G02*
X69885000Y-63135000I250000J0D01*
G01*
X71085000Y-63135000D01*
G75*
G02*
X71335000Y-63385000I0J-250000D01*
G01*
X71335000Y-64885000D01*
G75*
G02*
X71085000Y-65135000I-250000J0D01*
G01*
X69885000Y-65135000D01*
G75*
G02*
X69635000Y-64885000I0J250000D01*
G01*
G37*
X72985000Y-64135000D03*
%TD*%
%TO.C,J6*%
G36*
G01*
X54395000Y-64885000D02*
X54395000Y-63385000D01*
G75*
G02*
X54645000Y-63135000I250000J0D01*
G01*
X55845000Y-63135000D01*
G75*
G02*
X56095000Y-63385000I0J-250000D01*
G01*
X56095000Y-64885000D01*
G75*
G02*
X55845000Y-65135000I-250000J0D01*
G01*
X54645000Y-65135000D01*
G75*
G02*
X54395000Y-64885000I0J250000D01*
G01*
G37*
X57745000Y-64135000D03*
%TD*%
%TO.C,J7*%
X42505000Y-64135000D03*
G36*
G01*
X39155000Y-64885000D02*
X39155000Y-63385000D01*
G75*
G02*
X39405000Y-63135000I250000J0D01*
G01*
X40605000Y-63135000D01*
G75*
G02*
X40855000Y-63385000I0J-250000D01*
G01*
X40855000Y-64885000D01*
G75*
G02*
X40605000Y-65135000I-250000J0D01*
G01*
X39405000Y-65135000D01*
G75*
G02*
X39155000Y-64885000I0J250000D01*
G01*
G37*
%TD*%
D11*
%TO.C,J8*%
X83185000Y-22225000D03*
X83185000Y-19685000D03*
D12*
X83185000Y-17145000D03*
%TD*%
%TO.C,J9*%
X74295000Y-17145000D03*
D11*
X74295000Y-19685000D03*
X74295000Y-22225000D03*
%TD*%
D12*
%TO.C,J11*%
X56515000Y-17145000D03*
D11*
X56515000Y-19685000D03*
X56515000Y-22225000D03*
%TD*%
D12*
%TO.C,J12*%
X47625000Y-17145000D03*
D11*
X47625000Y-19685000D03*
X47625000Y-22225000D03*
%TD*%
D17*
%TO.C,J13*%
X107315000Y-63460000D03*
G36*
G01*
X106565000Y-60110000D02*
X108065000Y-60110000D01*
G75*
G02*
X108315000Y-60360000I0J-250000D01*
G01*
X108315000Y-61560000D01*
G75*
G02*
X108065000Y-61810000I-250000J0D01*
G01*
X106565000Y-61810000D01*
G75*
G02*
X106315000Y-61560000I0J250000D01*
G01*
X106315000Y-60360000D01*
G75*
G02*
X106565000Y-60110000I250000J0D01*
G01*
G37*
%TD*%
%TO.C,J14*%
G36*
G01*
X106565000Y-49950000D02*
X108065000Y-49950000D01*
G75*
G02*
X108315000Y-50200000I0J-250000D01*
G01*
X108315000Y-51400000D01*
G75*
G02*
X108065000Y-51650000I-250000J0D01*
G01*
X106565000Y-51650000D01*
G75*
G02*
X106315000Y-51400000I0J250000D01*
G01*
X106315000Y-50200000D01*
G75*
G02*
X106565000Y-49950000I250000J0D01*
G01*
G37*
X107315000Y-53300000D03*
%TD*%
%TO.C,J15*%
X107315000Y-43140000D03*
G36*
G01*
X106565000Y-39790000D02*
X108065000Y-39790000D01*
G75*
G02*
X108315000Y-40040000I0J-250000D01*
G01*
X108315000Y-41240000D01*
G75*
G02*
X108065000Y-41490000I-250000J0D01*
G01*
X106565000Y-41490000D01*
G75*
G02*
X106315000Y-41240000I0J250000D01*
G01*
X106315000Y-40040000D01*
G75*
G02*
X106565000Y-39790000I250000J0D01*
G01*
G37*
%TD*%
%TO.C,J16*%
G36*
G01*
X106565000Y-29630000D02*
X108065000Y-29630000D01*
G75*
G02*
X108315000Y-29880000I0J-250000D01*
G01*
X108315000Y-31080000D01*
G75*
G02*
X108065000Y-31330000I-250000J0D01*
G01*
X106565000Y-31330000D01*
G75*
G02*
X106315000Y-31080000I0J250000D01*
G01*
X106315000Y-29880000D01*
G75*
G02*
X106565000Y-29630000I250000J0D01*
G01*
G37*
X107315000Y-32980000D03*
%TD*%
%TO.C,J17*%
X100965000Y-21550000D03*
G36*
G01*
X100215000Y-18200000D02*
X101715000Y-18200000D01*
G75*
G02*
X101965000Y-18450000I0J-250000D01*
G01*
X101965000Y-19650000D01*
G75*
G02*
X101715000Y-19900000I-250000J0D01*
G01*
X100215000Y-19900000D01*
G75*
G02*
X99965000Y-19650000I0J250000D01*
G01*
X99965000Y-18450000D01*
G75*
G02*
X100215000Y-18200000I250000J0D01*
G01*
G37*
%TD*%
D18*
%TO.C,Q1*%
X82865000Y-55515000D03*
X80965000Y-55515000D03*
X81915000Y-57515000D03*
%TD*%
%TO.C,Q2*%
X21905000Y-55515000D03*
X20005000Y-55515000D03*
X20955000Y-57515000D03*
%TD*%
%TO.C,Q3*%
X66675000Y-57515000D03*
X65725000Y-55515000D03*
X67625000Y-55515000D03*
%TD*%
%TO.C,Q4*%
X51435000Y-57515000D03*
X50485000Y-55515000D03*
X52385000Y-55515000D03*
%TD*%
%TO.C,Q5*%
X36195000Y-57515000D03*
X35245000Y-55515000D03*
X37145000Y-55515000D03*
%TD*%
D19*
%TO.C,Q6*%
X100060000Y-60960000D03*
X98060000Y-61910000D03*
X98060000Y-60010000D03*
%TD*%
%TO.C,Q7*%
X98060000Y-49850000D03*
X98060000Y-51750000D03*
X100060000Y-50800000D03*
%TD*%
%TO.C,Q8*%
X100060000Y-40640000D03*
X98060000Y-41590000D03*
X98060000Y-39690000D03*
%TD*%
%TO.C,Q9*%
X98060000Y-29530000D03*
X98060000Y-31430000D03*
X100060000Y-30480000D03*
%TD*%
%TO.C,Q10*%
X91710000Y-18100000D03*
X91710000Y-20000000D03*
X93710000Y-19050000D03*
%TD*%
%TO.C,R1*%
G36*
G01*
X88055000Y-35797500D02*
X88055000Y-35322500D01*
G75*
G02*
X88292500Y-35085000I237500J0D01*
G01*
X88792500Y-35085000D01*
G75*
G02*
X89030000Y-35322500I0J-237500D01*
G01*
X89030000Y-35797500D01*
G75*
G02*
X88792500Y-36035000I-237500J0D01*
G01*
X88292500Y-36035000D01*
G75*
G02*
X88055000Y-35797500I0J237500D01*
G01*
G37*
G36*
G01*
X86230000Y-35797500D02*
X86230000Y-35322500D01*
G75*
G02*
X86467500Y-35085000I237500J0D01*
G01*
X86967500Y-35085000D01*
G75*
G02*
X87205000Y-35322500I0J-237500D01*
G01*
X87205000Y-35797500D01*
G75*
G02*
X86967500Y-36035000I-237500J0D01*
G01*
X86467500Y-36035000D01*
G75*
G02*
X86230000Y-35797500I0J237500D01*
G01*
G37*
%TD*%
%TO.C,R2*%
G36*
G01*
X86230000Y-30717500D02*
X86230000Y-30242500D01*
G75*
G02*
X86467500Y-30005000I237500J0D01*
G01*
X86967500Y-30005000D01*
G75*
G02*
X87205000Y-30242500I0J-237500D01*
G01*
X87205000Y-30717500D01*
G75*
G02*
X86967500Y-30955000I-237500J0D01*
G01*
X86467500Y-30955000D01*
G75*
G02*
X86230000Y-30717500I0J237500D01*
G01*
G37*
G36*
G01*
X88055000Y-30717500D02*
X88055000Y-30242500D01*
G75*
G02*
X88292500Y-30005000I237500J0D01*
G01*
X88792500Y-30005000D01*
G75*
G02*
X89030000Y-30242500I0J-237500D01*
G01*
X89030000Y-30717500D01*
G75*
G02*
X88792500Y-30955000I-237500J0D01*
G01*
X88292500Y-30955000D01*
G75*
G02*
X88055000Y-30717500I0J237500D01*
G01*
G37*
%TD*%
%TO.C,R3*%
G36*
G01*
X48327500Y-35162500D02*
X48327500Y-34687500D01*
G75*
G02*
X48565000Y-34450000I237500J0D01*
G01*
X49065000Y-34450000D01*
G75*
G02*
X49302500Y-34687500I0J-237500D01*
G01*
X49302500Y-35162500D01*
G75*
G02*
X49065000Y-35400000I-237500J0D01*
G01*
X48565000Y-35400000D01*
G75*
G02*
X48327500Y-35162500I0J237500D01*
G01*
G37*
G36*
G01*
X46502500Y-35162500D02*
X46502500Y-34687500D01*
G75*
G02*
X46740000Y-34450000I237500J0D01*
G01*
X47240000Y-34450000D01*
G75*
G02*
X47477500Y-34687500I0J-237500D01*
G01*
X47477500Y-35162500D01*
G75*
G02*
X47240000Y-35400000I-237500J0D01*
G01*
X46740000Y-35400000D01*
G75*
G02*
X46502500Y-35162500I0J237500D01*
G01*
G37*
%TD*%
%TO.C,R4*%
G36*
G01*
X46502500Y-40242500D02*
X46502500Y-39767500D01*
G75*
G02*
X46740000Y-39530000I237500J0D01*
G01*
X47240000Y-39530000D01*
G75*
G02*
X47477500Y-39767500I0J-237500D01*
G01*
X47477500Y-40242500D01*
G75*
G02*
X47240000Y-40480000I-237500J0D01*
G01*
X46740000Y-40480000D01*
G75*
G02*
X46502500Y-40242500I0J237500D01*
G01*
G37*
G36*
G01*
X48327500Y-40242500D02*
X48327500Y-39767500D01*
G75*
G02*
X48565000Y-39530000I237500J0D01*
G01*
X49065000Y-39530000D01*
G75*
G02*
X49302500Y-39767500I0J-237500D01*
G01*
X49302500Y-40242500D01*
G75*
G02*
X49065000Y-40480000I-237500J0D01*
G01*
X48565000Y-40480000D01*
G75*
G02*
X48327500Y-40242500I0J237500D01*
G01*
G37*
%TD*%
%TO.C,R5*%
G36*
G01*
X81490000Y-51197500D02*
X81490000Y-51672500D01*
G75*
G02*
X81252500Y-51910000I-237500J0D01*
G01*
X80752500Y-51910000D01*
G75*
G02*
X80515000Y-51672500I0J237500D01*
G01*
X80515000Y-51197500D01*
G75*
G02*
X80752500Y-50960000I237500J0D01*
G01*
X81252500Y-50960000D01*
G75*
G02*
X81490000Y-51197500I0J-237500D01*
G01*
G37*
G36*
G01*
X83315000Y-51197500D02*
X83315000Y-51672500D01*
G75*
G02*
X83077500Y-51910000I-237500J0D01*
G01*
X82577500Y-51910000D01*
G75*
G02*
X82340000Y-51672500I0J237500D01*
G01*
X82340000Y-51197500D01*
G75*
G02*
X82577500Y-50960000I237500J0D01*
G01*
X83077500Y-50960000D01*
G75*
G02*
X83315000Y-51197500I0J-237500D01*
G01*
G37*
%TD*%
%TO.C,R6*%
G36*
G01*
X22355000Y-51197500D02*
X22355000Y-51672500D01*
G75*
G02*
X22117500Y-51910000I-237500J0D01*
G01*
X21617500Y-51910000D01*
G75*
G02*
X21380000Y-51672500I0J237500D01*
G01*
X21380000Y-51197500D01*
G75*
G02*
X21617500Y-50960000I237500J0D01*
G01*
X22117500Y-50960000D01*
G75*
G02*
X22355000Y-51197500I0J-237500D01*
G01*
G37*
G36*
G01*
X20530000Y-51197500D02*
X20530000Y-51672500D01*
G75*
G02*
X20292500Y-51910000I-237500J0D01*
G01*
X19792500Y-51910000D01*
G75*
G02*
X19555000Y-51672500I0J237500D01*
G01*
X19555000Y-51197500D01*
G75*
G02*
X19792500Y-50960000I237500J0D01*
G01*
X20292500Y-50960000D01*
G75*
G02*
X20530000Y-51197500I0J-237500D01*
G01*
G37*
%TD*%
%TO.C,R7*%
G36*
G01*
X66250000Y-51197500D02*
X66250000Y-51672500D01*
G75*
G02*
X66012500Y-51910000I-237500J0D01*
G01*
X65512500Y-51910000D01*
G75*
G02*
X65275000Y-51672500I0J237500D01*
G01*
X65275000Y-51197500D01*
G75*
G02*
X65512500Y-50960000I237500J0D01*
G01*
X66012500Y-50960000D01*
G75*
G02*
X66250000Y-51197500I0J-237500D01*
G01*
G37*
G36*
G01*
X68075000Y-51197500D02*
X68075000Y-51672500D01*
G75*
G02*
X67837500Y-51910000I-237500J0D01*
G01*
X67337500Y-51910000D01*
G75*
G02*
X67100000Y-51672500I0J237500D01*
G01*
X67100000Y-51197500D01*
G75*
G02*
X67337500Y-50960000I237500J0D01*
G01*
X67837500Y-50960000D01*
G75*
G02*
X68075000Y-51197500I0J-237500D01*
G01*
G37*
%TD*%
%TO.C,R8*%
G36*
G01*
X52835000Y-51197500D02*
X52835000Y-51672500D01*
G75*
G02*
X52597500Y-51910000I-237500J0D01*
G01*
X52097500Y-51910000D01*
G75*
G02*
X51860000Y-51672500I0J237500D01*
G01*
X51860000Y-51197500D01*
G75*
G02*
X52097500Y-50960000I237500J0D01*
G01*
X52597500Y-50960000D01*
G75*
G02*
X52835000Y-51197500I0J-237500D01*
G01*
G37*
G36*
G01*
X51010000Y-51197500D02*
X51010000Y-51672500D01*
G75*
G02*
X50772500Y-51910000I-237500J0D01*
G01*
X50272500Y-51910000D01*
G75*
G02*
X50035000Y-51672500I0J237500D01*
G01*
X50035000Y-51197500D01*
G75*
G02*
X50272500Y-50960000I237500J0D01*
G01*
X50772500Y-50960000D01*
G75*
G02*
X51010000Y-51197500I0J-237500D01*
G01*
G37*
%TD*%
%TO.C,R9*%
G36*
G01*
X35770000Y-51197500D02*
X35770000Y-51672500D01*
G75*
G02*
X35532500Y-51910000I-237500J0D01*
G01*
X35032500Y-51910000D01*
G75*
G02*
X34795000Y-51672500I0J237500D01*
G01*
X34795000Y-51197500D01*
G75*
G02*
X35032500Y-50960000I237500J0D01*
G01*
X35532500Y-50960000D01*
G75*
G02*
X35770000Y-51197500I0J-237500D01*
G01*
G37*
G36*
G01*
X37595000Y-51197500D02*
X37595000Y-51672500D01*
G75*
G02*
X37357500Y-51910000I-237500J0D01*
G01*
X36857500Y-51910000D01*
G75*
G02*
X36620000Y-51672500I0J237500D01*
G01*
X36620000Y-51197500D01*
G75*
G02*
X36857500Y-50960000I237500J0D01*
G01*
X37357500Y-50960000D01*
G75*
G02*
X37595000Y-51197500I0J-237500D01*
G01*
G37*
%TD*%
%TO.C,R10*%
G36*
G01*
X94377500Y-59560000D02*
X94852500Y-59560000D01*
G75*
G02*
X95090000Y-59797500I0J-237500D01*
G01*
X95090000Y-60297500D01*
G75*
G02*
X94852500Y-60535000I-237500J0D01*
G01*
X94377500Y-60535000D01*
G75*
G02*
X94140000Y-60297500I0J237500D01*
G01*
X94140000Y-59797500D01*
G75*
G02*
X94377500Y-59560000I237500J0D01*
G01*
G37*
G36*
G01*
X94377500Y-61385000D02*
X94852500Y-61385000D01*
G75*
G02*
X95090000Y-61622500I0J-237500D01*
G01*
X95090000Y-62122500D01*
G75*
G02*
X94852500Y-62360000I-237500J0D01*
G01*
X94377500Y-62360000D01*
G75*
G02*
X94140000Y-62122500I0J237500D01*
G01*
X94140000Y-61622500D01*
G75*
G02*
X94377500Y-61385000I237500J0D01*
G01*
G37*
%TD*%
%TO.C,R11*%
G36*
G01*
X94377500Y-51225000D02*
X94852500Y-51225000D01*
G75*
G02*
X95090000Y-51462500I0J-237500D01*
G01*
X95090000Y-51962500D01*
G75*
G02*
X94852500Y-52200000I-237500J0D01*
G01*
X94377500Y-52200000D01*
G75*
G02*
X94140000Y-51962500I0J237500D01*
G01*
X94140000Y-51462500D01*
G75*
G02*
X94377500Y-51225000I237500J0D01*
G01*
G37*
G36*
G01*
X94377500Y-49400000D02*
X94852500Y-49400000D01*
G75*
G02*
X95090000Y-49637500I0J-237500D01*
G01*
X95090000Y-50137500D01*
G75*
G02*
X94852500Y-50375000I-237500J0D01*
G01*
X94377500Y-50375000D01*
G75*
G02*
X94140000Y-50137500I0J237500D01*
G01*
X94140000Y-49637500D01*
G75*
G02*
X94377500Y-49400000I237500J0D01*
G01*
G37*
%TD*%
%TO.C,R12*%
G36*
G01*
X94377500Y-41065000D02*
X94852500Y-41065000D01*
G75*
G02*
X95090000Y-41302500I0J-237500D01*
G01*
X95090000Y-41802500D01*
G75*
G02*
X94852500Y-42040000I-237500J0D01*
G01*
X94377500Y-42040000D01*
G75*
G02*
X94140000Y-41802500I0J237500D01*
G01*
X94140000Y-41302500D01*
G75*
G02*
X94377500Y-41065000I237500J0D01*
G01*
G37*
G36*
G01*
X94377500Y-39240000D02*
X94852500Y-39240000D01*
G75*
G02*
X95090000Y-39477500I0J-237500D01*
G01*
X95090000Y-39977500D01*
G75*
G02*
X94852500Y-40215000I-237500J0D01*
G01*
X94377500Y-40215000D01*
G75*
G02*
X94140000Y-39977500I0J237500D01*
G01*
X94140000Y-39477500D01*
G75*
G02*
X94377500Y-39240000I237500J0D01*
G01*
G37*
%TD*%
%TO.C,R13*%
G36*
G01*
X94377500Y-29080000D02*
X94852500Y-29080000D01*
G75*
G02*
X95090000Y-29317500I0J-237500D01*
G01*
X95090000Y-29817500D01*
G75*
G02*
X94852500Y-30055000I-237500J0D01*
G01*
X94377500Y-30055000D01*
G75*
G02*
X94140000Y-29817500I0J237500D01*
G01*
X94140000Y-29317500D01*
G75*
G02*
X94377500Y-29080000I237500J0D01*
G01*
G37*
G36*
G01*
X94377500Y-30905000D02*
X94852500Y-30905000D01*
G75*
G02*
X95090000Y-31142500I0J-237500D01*
G01*
X95090000Y-31642500D01*
G75*
G02*
X94852500Y-31880000I-237500J0D01*
G01*
X94377500Y-31880000D01*
G75*
G02*
X94140000Y-31642500I0J237500D01*
G01*
X94140000Y-31142500D01*
G75*
G02*
X94377500Y-30905000I237500J0D01*
G01*
G37*
%TD*%
%TO.C,R14*%
G36*
G01*
X88027500Y-17650000D02*
X88502500Y-17650000D01*
G75*
G02*
X88740000Y-17887500I0J-237500D01*
G01*
X88740000Y-18387500D01*
G75*
G02*
X88502500Y-18625000I-237500J0D01*
G01*
X88027500Y-18625000D01*
G75*
G02*
X87790000Y-18387500I0J237500D01*
G01*
X87790000Y-17887500D01*
G75*
G02*
X88027500Y-17650000I237500J0D01*
G01*
G37*
G36*
G01*
X88027500Y-19475000D02*
X88502500Y-19475000D01*
G75*
G02*
X88740000Y-19712500I0J-237500D01*
G01*
X88740000Y-20212500D01*
G75*
G02*
X88502500Y-20450000I-237500J0D01*
G01*
X88027500Y-20450000D01*
G75*
G02*
X87790000Y-20212500I0J237500D01*
G01*
X87790000Y-19712500D01*
G75*
G02*
X88027500Y-19475000I237500J0D01*
G01*
G37*
%TD*%
D20*
%TO.C,U1*%
X38100000Y-22860000D03*
D21*
X38100000Y-20320000D03*
X38100000Y-17780000D03*
%TD*%
D22*
%TO.C,U2*%
X39980000Y-36830000D03*
D23*
X33680000Y-36830000D03*
X33680000Y-39130000D03*
X33680000Y-34530000D03*
%TD*%
%TO.C,U3*%
G36*
G01*
X59325000Y-31960000D02*
X59525000Y-31960000D01*
G75*
G02*
X59625000Y-32060000I0J-100000D01*
G01*
X59625000Y-33335000D01*
G75*
G02*
X59525000Y-33435000I-100000J0D01*
G01*
X59325000Y-33435000D01*
G75*
G02*
X59225000Y-33335000I0J100000D01*
G01*
X59225000Y-32060000D01*
G75*
G02*
X59325000Y-31960000I100000J0D01*
G01*
G37*
G36*
G01*
X58675000Y-31960000D02*
X58875000Y-31960000D01*
G75*
G02*
X58975000Y-32060000I0J-100000D01*
G01*
X58975000Y-33335000D01*
G75*
G02*
X58875000Y-33435000I-100000J0D01*
G01*
X58675000Y-33435000D01*
G75*
G02*
X58575000Y-33335000I0J100000D01*
G01*
X58575000Y-32060000D01*
G75*
G02*
X58675000Y-31960000I100000J0D01*
G01*
G37*
G36*
G01*
X58025000Y-31960000D02*
X58225000Y-31960000D01*
G75*
G02*
X58325000Y-32060000I0J-100000D01*
G01*
X58325000Y-33335000D01*
G75*
G02*
X58225000Y-33435000I-100000J0D01*
G01*
X58025000Y-33435000D01*
G75*
G02*
X57925000Y-33335000I0J100000D01*
G01*
X57925000Y-32060000D01*
G75*
G02*
X58025000Y-31960000I100000J0D01*
G01*
G37*
G36*
G01*
X57375000Y-31960000D02*
X57575000Y-31960000D01*
G75*
G02*
X57675000Y-32060000I0J-100000D01*
G01*
X57675000Y-33335000D01*
G75*
G02*
X57575000Y-33435000I-100000J0D01*
G01*
X57375000Y-33435000D01*
G75*
G02*
X57275000Y-33335000I0J100000D01*
G01*
X57275000Y-32060000D01*
G75*
G02*
X57375000Y-31960000I100000J0D01*
G01*
G37*
G36*
G01*
X56725000Y-31960000D02*
X56925000Y-31960000D01*
G75*
G02*
X57025000Y-32060000I0J-100000D01*
G01*
X57025000Y-33335000D01*
G75*
G02*
X56925000Y-33435000I-100000J0D01*
G01*
X56725000Y-33435000D01*
G75*
G02*
X56625000Y-33335000I0J100000D01*
G01*
X56625000Y-32060000D01*
G75*
G02*
X56725000Y-31960000I100000J0D01*
G01*
G37*
G36*
G01*
X56075000Y-31960000D02*
X56275000Y-31960000D01*
G75*
G02*
X56375000Y-32060000I0J-100000D01*
G01*
X56375000Y-33335000D01*
G75*
G02*
X56275000Y-33435000I-100000J0D01*
G01*
X56075000Y-33435000D01*
G75*
G02*
X55975000Y-33335000I0J100000D01*
G01*
X55975000Y-32060000D01*
G75*
G02*
X56075000Y-31960000I100000J0D01*
G01*
G37*
G36*
G01*
X55425000Y-31960000D02*
X55625000Y-31960000D01*
G75*
G02*
X55725000Y-32060000I0J-100000D01*
G01*
X55725000Y-33335000D01*
G75*
G02*
X55625000Y-33435000I-100000J0D01*
G01*
X55425000Y-33435000D01*
G75*
G02*
X55325000Y-33335000I0J100000D01*
G01*
X55325000Y-32060000D01*
G75*
G02*
X55425000Y-31960000I100000J0D01*
G01*
G37*
G36*
G01*
X54775000Y-31960000D02*
X54975000Y-31960000D01*
G75*
G02*
X55075000Y-32060000I0J-100000D01*
G01*
X55075000Y-33335000D01*
G75*
G02*
X54975000Y-33435000I-100000J0D01*
G01*
X54775000Y-33435000D01*
G75*
G02*
X54675000Y-33335000I0J100000D01*
G01*
X54675000Y-32060000D01*
G75*
G02*
X54775000Y-31960000I100000J0D01*
G01*
G37*
G36*
G01*
X54775000Y-37685000D02*
X54975000Y-37685000D01*
G75*
G02*
X55075000Y-37785000I0J-100000D01*
G01*
X55075000Y-39060000D01*
G75*
G02*
X54975000Y-39160000I-100000J0D01*
G01*
X54775000Y-39160000D01*
G75*
G02*
X54675000Y-39060000I0J100000D01*
G01*
X54675000Y-37785000D01*
G75*
G02*
X54775000Y-37685000I100000J0D01*
G01*
G37*
G36*
G01*
X55425000Y-37685000D02*
X55625000Y-37685000D01*
G75*
G02*
X55725000Y-37785000I0J-100000D01*
G01*
X55725000Y-39060000D01*
G75*
G02*
X55625000Y-39160000I-100000J0D01*
G01*
X55425000Y-39160000D01*
G75*
G02*
X55325000Y-39060000I0J100000D01*
G01*
X55325000Y-37785000D01*
G75*
G02*
X55425000Y-37685000I100000J0D01*
G01*
G37*
G36*
G01*
X56075000Y-37685000D02*
X56275000Y-37685000D01*
G75*
G02*
X56375000Y-37785000I0J-100000D01*
G01*
X56375000Y-39060000D01*
G75*
G02*
X56275000Y-39160000I-100000J0D01*
G01*
X56075000Y-39160000D01*
G75*
G02*
X55975000Y-39060000I0J100000D01*
G01*
X55975000Y-37785000D01*
G75*
G02*
X56075000Y-37685000I100000J0D01*
G01*
G37*
G36*
G01*
X56725000Y-37685000D02*
X56925000Y-37685000D01*
G75*
G02*
X57025000Y-37785000I0J-100000D01*
G01*
X57025000Y-39060000D01*
G75*
G02*
X56925000Y-39160000I-100000J0D01*
G01*
X56725000Y-39160000D01*
G75*
G02*
X56625000Y-39060000I0J100000D01*
G01*
X56625000Y-37785000D01*
G75*
G02*
X56725000Y-37685000I100000J0D01*
G01*
G37*
G36*
G01*
X57375000Y-37685000D02*
X57575000Y-37685000D01*
G75*
G02*
X57675000Y-37785000I0J-100000D01*
G01*
X57675000Y-39060000D01*
G75*
G02*
X57575000Y-39160000I-100000J0D01*
G01*
X57375000Y-39160000D01*
G75*
G02*
X57275000Y-39060000I0J100000D01*
G01*
X57275000Y-37785000D01*
G75*
G02*
X57375000Y-37685000I100000J0D01*
G01*
G37*
G36*
G01*
X58025000Y-37685000D02*
X58225000Y-37685000D01*
G75*
G02*
X58325000Y-37785000I0J-100000D01*
G01*
X58325000Y-39060000D01*
G75*
G02*
X58225000Y-39160000I-100000J0D01*
G01*
X58025000Y-39160000D01*
G75*
G02*
X57925000Y-39060000I0J100000D01*
G01*
X57925000Y-37785000D01*
G75*
G02*
X58025000Y-37685000I100000J0D01*
G01*
G37*
G36*
G01*
X58675000Y-37685000D02*
X58875000Y-37685000D01*
G75*
G02*
X58975000Y-37785000I0J-100000D01*
G01*
X58975000Y-39060000D01*
G75*
G02*
X58875000Y-39160000I-100000J0D01*
G01*
X58675000Y-39160000D01*
G75*
G02*
X58575000Y-39060000I0J100000D01*
G01*
X58575000Y-37785000D01*
G75*
G02*
X58675000Y-37685000I100000J0D01*
G01*
G37*
G36*
G01*
X59325000Y-37685000D02*
X59525000Y-37685000D01*
G75*
G02*
X59625000Y-37785000I0J-100000D01*
G01*
X59625000Y-39060000D01*
G75*
G02*
X59525000Y-39160000I-100000J0D01*
G01*
X59325000Y-39160000D01*
G75*
G02*
X59225000Y-39060000I0J100000D01*
G01*
X59225000Y-37785000D01*
G75*
G02*
X59325000Y-37685000I100000J0D01*
G01*
G37*
%TD*%
%TO.C,U5*%
G36*
G01*
X86510000Y-57425000D02*
X86210000Y-57425000D01*
G75*
G02*
X86060000Y-57275000I0J150000D01*
G01*
X86060000Y-55625000D01*
G75*
G02*
X86210000Y-55475000I150000J0D01*
G01*
X86510000Y-55475000D01*
G75*
G02*
X86660000Y-55625000I0J-150000D01*
G01*
X86660000Y-57275000D01*
G75*
G02*
X86510000Y-57425000I-150000J0D01*
G01*
G37*
G36*
G01*
X87780000Y-57425000D02*
X87480000Y-57425000D01*
G75*
G02*
X87330000Y-57275000I0J150000D01*
G01*
X87330000Y-55625000D01*
G75*
G02*
X87480000Y-55475000I150000J0D01*
G01*
X87780000Y-55475000D01*
G75*
G02*
X87930000Y-55625000I0J-150000D01*
G01*
X87930000Y-57275000D01*
G75*
G02*
X87780000Y-57425000I-150000J0D01*
G01*
G37*
G36*
G01*
X89050000Y-57425000D02*
X88750000Y-57425000D01*
G75*
G02*
X88600000Y-57275000I0J150000D01*
G01*
X88600000Y-55625000D01*
G75*
G02*
X88750000Y-55475000I150000J0D01*
G01*
X89050000Y-55475000D01*
G75*
G02*
X89200000Y-55625000I0J-150000D01*
G01*
X89200000Y-57275000D01*
G75*
G02*
X89050000Y-57425000I-150000J0D01*
G01*
G37*
G36*
G01*
X90320000Y-57425000D02*
X90020000Y-57425000D01*
G75*
G02*
X89870000Y-57275000I0J150000D01*
G01*
X89870000Y-55625000D01*
G75*
G02*
X90020000Y-55475000I150000J0D01*
G01*
X90320000Y-55475000D01*
G75*
G02*
X90470000Y-55625000I0J-150000D01*
G01*
X90470000Y-57275000D01*
G75*
G02*
X90320000Y-57425000I-150000J0D01*
G01*
G37*
G36*
G01*
X90320000Y-52475000D02*
X90020000Y-52475000D01*
G75*
G02*
X89870000Y-52325000I0J150000D01*
G01*
X89870000Y-50675000D01*
G75*
G02*
X90020000Y-50525000I150000J0D01*
G01*
X90320000Y-50525000D01*
G75*
G02*
X90470000Y-50675000I0J-150000D01*
G01*
X90470000Y-52325000D01*
G75*
G02*
X90320000Y-52475000I-150000J0D01*
G01*
G37*
G36*
G01*
X89050000Y-52475000D02*
X88750000Y-52475000D01*
G75*
G02*
X88600000Y-52325000I0J150000D01*
G01*
X88600000Y-50675000D01*
G75*
G02*
X88750000Y-50525000I150000J0D01*
G01*
X89050000Y-50525000D01*
G75*
G02*
X89200000Y-50675000I0J-150000D01*
G01*
X89200000Y-52325000D01*
G75*
G02*
X89050000Y-52475000I-150000J0D01*
G01*
G37*
G36*
G01*
X87780000Y-52475000D02*
X87480000Y-52475000D01*
G75*
G02*
X87330000Y-52325000I0J150000D01*
G01*
X87330000Y-50675000D01*
G75*
G02*
X87480000Y-50525000I150000J0D01*
G01*
X87780000Y-50525000D01*
G75*
G02*
X87930000Y-50675000I0J-150000D01*
G01*
X87930000Y-52325000D01*
G75*
G02*
X87780000Y-52475000I-150000J0D01*
G01*
G37*
G36*
G01*
X86510000Y-52475000D02*
X86210000Y-52475000D01*
G75*
G02*
X86060000Y-52325000I0J150000D01*
G01*
X86060000Y-50675000D01*
G75*
G02*
X86210000Y-50525000I150000J0D01*
G01*
X86510000Y-50525000D01*
G75*
G02*
X86660000Y-50675000I0J-150000D01*
G01*
X86660000Y-52325000D01*
G75*
G02*
X86510000Y-52475000I-150000J0D01*
G01*
G37*
%TD*%
%TO.C,U6*%
G36*
G01*
X25550000Y-57425000D02*
X25250000Y-57425000D01*
G75*
G02*
X25100000Y-57275000I0J150000D01*
G01*
X25100000Y-55625000D01*
G75*
G02*
X25250000Y-55475000I150000J0D01*
G01*
X25550000Y-55475000D01*
G75*
G02*
X25700000Y-55625000I0J-150000D01*
G01*
X25700000Y-57275000D01*
G75*
G02*
X25550000Y-57425000I-150000J0D01*
G01*
G37*
G36*
G01*
X26820000Y-57425000D02*
X26520000Y-57425000D01*
G75*
G02*
X26370000Y-57275000I0J150000D01*
G01*
X26370000Y-55625000D01*
G75*
G02*
X26520000Y-55475000I150000J0D01*
G01*
X26820000Y-55475000D01*
G75*
G02*
X26970000Y-55625000I0J-150000D01*
G01*
X26970000Y-57275000D01*
G75*
G02*
X26820000Y-57425000I-150000J0D01*
G01*
G37*
G36*
G01*
X28090000Y-57425000D02*
X27790000Y-57425000D01*
G75*
G02*
X27640000Y-57275000I0J150000D01*
G01*
X27640000Y-55625000D01*
G75*
G02*
X27790000Y-55475000I150000J0D01*
G01*
X28090000Y-55475000D01*
G75*
G02*
X28240000Y-55625000I0J-150000D01*
G01*
X28240000Y-57275000D01*
G75*
G02*
X28090000Y-57425000I-150000J0D01*
G01*
G37*
G36*
G01*
X29360000Y-57425000D02*
X29060000Y-57425000D01*
G75*
G02*
X28910000Y-57275000I0J150000D01*
G01*
X28910000Y-55625000D01*
G75*
G02*
X29060000Y-55475000I150000J0D01*
G01*
X29360000Y-55475000D01*
G75*
G02*
X29510000Y-55625000I0J-150000D01*
G01*
X29510000Y-57275000D01*
G75*
G02*
X29360000Y-57425000I-150000J0D01*
G01*
G37*
G36*
G01*
X29360000Y-52475000D02*
X29060000Y-52475000D01*
G75*
G02*
X28910000Y-52325000I0J150000D01*
G01*
X28910000Y-50675000D01*
G75*
G02*
X29060000Y-50525000I150000J0D01*
G01*
X29360000Y-50525000D01*
G75*
G02*
X29510000Y-50675000I0J-150000D01*
G01*
X29510000Y-52325000D01*
G75*
G02*
X29360000Y-52475000I-150000J0D01*
G01*
G37*
G36*
G01*
X28090000Y-52475000D02*
X27790000Y-52475000D01*
G75*
G02*
X27640000Y-52325000I0J150000D01*
G01*
X27640000Y-50675000D01*
G75*
G02*
X27790000Y-50525000I150000J0D01*
G01*
X28090000Y-50525000D01*
G75*
G02*
X28240000Y-50675000I0J-150000D01*
G01*
X28240000Y-52325000D01*
G75*
G02*
X28090000Y-52475000I-150000J0D01*
G01*
G37*
G36*
G01*
X26820000Y-52475000D02*
X26520000Y-52475000D01*
G75*
G02*
X26370000Y-52325000I0J150000D01*
G01*
X26370000Y-50675000D01*
G75*
G02*
X26520000Y-50525000I150000J0D01*
G01*
X26820000Y-50525000D01*
G75*
G02*
X26970000Y-50675000I0J-150000D01*
G01*
X26970000Y-52325000D01*
G75*
G02*
X26820000Y-52475000I-150000J0D01*
G01*
G37*
G36*
G01*
X25550000Y-52475000D02*
X25250000Y-52475000D01*
G75*
G02*
X25100000Y-52325000I0J150000D01*
G01*
X25100000Y-50675000D01*
G75*
G02*
X25250000Y-50525000I150000J0D01*
G01*
X25550000Y-50525000D01*
G75*
G02*
X25700000Y-50675000I0J-150000D01*
G01*
X25700000Y-52325000D01*
G75*
G02*
X25550000Y-52475000I-150000J0D01*
G01*
G37*
%TD*%
%TO.C,U7*%
G36*
G01*
X71270000Y-52475000D02*
X70970000Y-52475000D01*
G75*
G02*
X70820000Y-52325000I0J150000D01*
G01*
X70820000Y-50675000D01*
G75*
G02*
X70970000Y-50525000I150000J0D01*
G01*
X71270000Y-50525000D01*
G75*
G02*
X71420000Y-50675000I0J-150000D01*
G01*
X71420000Y-52325000D01*
G75*
G02*
X71270000Y-52475000I-150000J0D01*
G01*
G37*
G36*
G01*
X72540000Y-52475000D02*
X72240000Y-52475000D01*
G75*
G02*
X72090000Y-52325000I0J150000D01*
G01*
X72090000Y-50675000D01*
G75*
G02*
X72240000Y-50525000I150000J0D01*
G01*
X72540000Y-50525000D01*
G75*
G02*
X72690000Y-50675000I0J-150000D01*
G01*
X72690000Y-52325000D01*
G75*
G02*
X72540000Y-52475000I-150000J0D01*
G01*
G37*
G36*
G01*
X73810000Y-52475000D02*
X73510000Y-52475000D01*
G75*
G02*
X73360000Y-52325000I0J150000D01*
G01*
X73360000Y-50675000D01*
G75*
G02*
X73510000Y-50525000I150000J0D01*
G01*
X73810000Y-50525000D01*
G75*
G02*
X73960000Y-50675000I0J-150000D01*
G01*
X73960000Y-52325000D01*
G75*
G02*
X73810000Y-52475000I-150000J0D01*
G01*
G37*
G36*
G01*
X75080000Y-52475000D02*
X74780000Y-52475000D01*
G75*
G02*
X74630000Y-52325000I0J150000D01*
G01*
X74630000Y-50675000D01*
G75*
G02*
X74780000Y-50525000I150000J0D01*
G01*
X75080000Y-50525000D01*
G75*
G02*
X75230000Y-50675000I0J-150000D01*
G01*
X75230000Y-52325000D01*
G75*
G02*
X75080000Y-52475000I-150000J0D01*
G01*
G37*
G36*
G01*
X75080000Y-57425000D02*
X74780000Y-57425000D01*
G75*
G02*
X74630000Y-57275000I0J150000D01*
G01*
X74630000Y-55625000D01*
G75*
G02*
X74780000Y-55475000I150000J0D01*
G01*
X75080000Y-55475000D01*
G75*
G02*
X75230000Y-55625000I0J-150000D01*
G01*
X75230000Y-57275000D01*
G75*
G02*
X75080000Y-57425000I-150000J0D01*
G01*
G37*
G36*
G01*
X73810000Y-57425000D02*
X73510000Y-57425000D01*
G75*
G02*
X73360000Y-57275000I0J150000D01*
G01*
X73360000Y-55625000D01*
G75*
G02*
X73510000Y-55475000I150000J0D01*
G01*
X73810000Y-55475000D01*
G75*
G02*
X73960000Y-55625000I0J-150000D01*
G01*
X73960000Y-57275000D01*
G75*
G02*
X73810000Y-57425000I-150000J0D01*
G01*
G37*
G36*
G01*
X72540000Y-57425000D02*
X72240000Y-57425000D01*
G75*
G02*
X72090000Y-57275000I0J150000D01*
G01*
X72090000Y-55625000D01*
G75*
G02*
X72240000Y-55475000I150000J0D01*
G01*
X72540000Y-55475000D01*
G75*
G02*
X72690000Y-55625000I0J-150000D01*
G01*
X72690000Y-57275000D01*
G75*
G02*
X72540000Y-57425000I-150000J0D01*
G01*
G37*
G36*
G01*
X71270000Y-57425000D02*
X70970000Y-57425000D01*
G75*
G02*
X70820000Y-57275000I0J150000D01*
G01*
X70820000Y-55625000D01*
G75*
G02*
X70970000Y-55475000I150000J0D01*
G01*
X71270000Y-55475000D01*
G75*
G02*
X71420000Y-55625000I0J-150000D01*
G01*
X71420000Y-57275000D01*
G75*
G02*
X71270000Y-57425000I-150000J0D01*
G01*
G37*
%TD*%
%TO.C,U8*%
G36*
G01*
X56030000Y-57425000D02*
X55730000Y-57425000D01*
G75*
G02*
X55580000Y-57275000I0J150000D01*
G01*
X55580000Y-55625000D01*
G75*
G02*
X55730000Y-55475000I150000J0D01*
G01*
X56030000Y-55475000D01*
G75*
G02*
X56180000Y-55625000I0J-150000D01*
G01*
X56180000Y-57275000D01*
G75*
G02*
X56030000Y-57425000I-150000J0D01*
G01*
G37*
G36*
G01*
X57300000Y-57425000D02*
X57000000Y-57425000D01*
G75*
G02*
X56850000Y-57275000I0J150000D01*
G01*
X56850000Y-55625000D01*
G75*
G02*
X57000000Y-55475000I150000J0D01*
G01*
X57300000Y-55475000D01*
G75*
G02*
X57450000Y-55625000I0J-150000D01*
G01*
X57450000Y-57275000D01*
G75*
G02*
X57300000Y-57425000I-150000J0D01*
G01*
G37*
G36*
G01*
X58570000Y-57425000D02*
X58270000Y-57425000D01*
G75*
G02*
X58120000Y-57275000I0J150000D01*
G01*
X58120000Y-55625000D01*
G75*
G02*
X58270000Y-55475000I150000J0D01*
G01*
X58570000Y-55475000D01*
G75*
G02*
X58720000Y-55625000I0J-150000D01*
G01*
X58720000Y-57275000D01*
G75*
G02*
X58570000Y-57425000I-150000J0D01*
G01*
G37*
G36*
G01*
X59840000Y-57425000D02*
X59540000Y-57425000D01*
G75*
G02*
X59390000Y-57275000I0J150000D01*
G01*
X59390000Y-55625000D01*
G75*
G02*
X59540000Y-55475000I150000J0D01*
G01*
X59840000Y-55475000D01*
G75*
G02*
X59990000Y-55625000I0J-150000D01*
G01*
X59990000Y-57275000D01*
G75*
G02*
X59840000Y-57425000I-150000J0D01*
G01*
G37*
G36*
G01*
X59840000Y-52475000D02*
X59540000Y-52475000D01*
G75*
G02*
X59390000Y-52325000I0J150000D01*
G01*
X59390000Y-50675000D01*
G75*
G02*
X59540000Y-50525000I150000J0D01*
G01*
X59840000Y-50525000D01*
G75*
G02*
X59990000Y-50675000I0J-150000D01*
G01*
X59990000Y-52325000D01*
G75*
G02*
X59840000Y-52475000I-150000J0D01*
G01*
G37*
G36*
G01*
X58570000Y-52475000D02*
X58270000Y-52475000D01*
G75*
G02*
X58120000Y-52325000I0J150000D01*
G01*
X58120000Y-50675000D01*
G75*
G02*
X58270000Y-50525000I150000J0D01*
G01*
X58570000Y-50525000D01*
G75*
G02*
X58720000Y-50675000I0J-150000D01*
G01*
X58720000Y-52325000D01*
G75*
G02*
X58570000Y-52475000I-150000J0D01*
G01*
G37*
G36*
G01*
X57300000Y-52475000D02*
X57000000Y-52475000D01*
G75*
G02*
X56850000Y-52325000I0J150000D01*
G01*
X56850000Y-50675000D01*
G75*
G02*
X57000000Y-50525000I150000J0D01*
G01*
X57300000Y-50525000D01*
G75*
G02*
X57450000Y-50675000I0J-150000D01*
G01*
X57450000Y-52325000D01*
G75*
G02*
X57300000Y-52475000I-150000J0D01*
G01*
G37*
G36*
G01*
X56030000Y-52475000D02*
X55730000Y-52475000D01*
G75*
G02*
X55580000Y-52325000I0J150000D01*
G01*
X55580000Y-50675000D01*
G75*
G02*
X55730000Y-50525000I150000J0D01*
G01*
X56030000Y-50525000D01*
G75*
G02*
X56180000Y-50675000I0J-150000D01*
G01*
X56180000Y-52325000D01*
G75*
G02*
X56030000Y-52475000I-150000J0D01*
G01*
G37*
%TD*%
%TO.C,U9*%
G36*
G01*
X40790000Y-52475000D02*
X40490000Y-52475000D01*
G75*
G02*
X40340000Y-52325000I0J150000D01*
G01*
X40340000Y-50675000D01*
G75*
G02*
X40490000Y-50525000I150000J0D01*
G01*
X40790000Y-50525000D01*
G75*
G02*
X40940000Y-50675000I0J-150000D01*
G01*
X40940000Y-52325000D01*
G75*
G02*
X40790000Y-52475000I-150000J0D01*
G01*
G37*
G36*
G01*
X42060000Y-52475000D02*
X41760000Y-52475000D01*
G75*
G02*
X41610000Y-52325000I0J150000D01*
G01*
X41610000Y-50675000D01*
G75*
G02*
X41760000Y-50525000I150000J0D01*
G01*
X42060000Y-50525000D01*
G75*
G02*
X42210000Y-50675000I0J-150000D01*
G01*
X42210000Y-52325000D01*
G75*
G02*
X42060000Y-52475000I-150000J0D01*
G01*
G37*
G36*
G01*
X43330000Y-52475000D02*
X43030000Y-52475000D01*
G75*
G02*
X42880000Y-52325000I0J150000D01*
G01*
X42880000Y-50675000D01*
G75*
G02*
X43030000Y-50525000I150000J0D01*
G01*
X43330000Y-50525000D01*
G75*
G02*
X43480000Y-50675000I0J-150000D01*
G01*
X43480000Y-52325000D01*
G75*
G02*
X43330000Y-52475000I-150000J0D01*
G01*
G37*
G36*
G01*
X44600000Y-52475000D02*
X44300000Y-52475000D01*
G75*
G02*
X44150000Y-52325000I0J150000D01*
G01*
X44150000Y-50675000D01*
G75*
G02*
X44300000Y-50525000I150000J0D01*
G01*
X44600000Y-50525000D01*
G75*
G02*
X44750000Y-50675000I0J-150000D01*
G01*
X44750000Y-52325000D01*
G75*
G02*
X44600000Y-52475000I-150000J0D01*
G01*
G37*
G36*
G01*
X44600000Y-57425000D02*
X44300000Y-57425000D01*
G75*
G02*
X44150000Y-57275000I0J150000D01*
G01*
X44150000Y-55625000D01*
G75*
G02*
X44300000Y-55475000I150000J0D01*
G01*
X44600000Y-55475000D01*
G75*
G02*
X44750000Y-55625000I0J-150000D01*
G01*
X44750000Y-57275000D01*
G75*
G02*
X44600000Y-57425000I-150000J0D01*
G01*
G37*
G36*
G01*
X43330000Y-57425000D02*
X43030000Y-57425000D01*
G75*
G02*
X42880000Y-57275000I0J150000D01*
G01*
X42880000Y-55625000D01*
G75*
G02*
X43030000Y-55475000I150000J0D01*
G01*
X43330000Y-55475000D01*
G75*
G02*
X43480000Y-55625000I0J-150000D01*
G01*
X43480000Y-57275000D01*
G75*
G02*
X43330000Y-57425000I-150000J0D01*
G01*
G37*
G36*
G01*
X42060000Y-57425000D02*
X41760000Y-57425000D01*
G75*
G02*
X41610000Y-57275000I0J150000D01*
G01*
X41610000Y-55625000D01*
G75*
G02*
X41760000Y-55475000I150000J0D01*
G01*
X42060000Y-55475000D01*
G75*
G02*
X42210000Y-55625000I0J-150000D01*
G01*
X42210000Y-57275000D01*
G75*
G02*
X42060000Y-57425000I-150000J0D01*
G01*
G37*
G36*
G01*
X40790000Y-57425000D02*
X40490000Y-57425000D01*
G75*
G02*
X40340000Y-57275000I0J150000D01*
G01*
X40340000Y-55625000D01*
G75*
G02*
X40490000Y-55475000I150000J0D01*
G01*
X40790000Y-55475000D01*
G75*
G02*
X40940000Y-55625000I0J-150000D01*
G01*
X40940000Y-57275000D01*
G75*
G02*
X40790000Y-57425000I-150000J0D01*
G01*
G37*
%TD*%
M02*
